<?xml version="1.0" standalone="no"?>
<!DOCTYPE svg PUBLIC "-//W3C//DTD SVG 20010904//EN"
 "http://www.w3.org/TR/2001/REC-SVG-20010904/DTD/svg10.dtd">
<svg version="1.0" xmlns="http://www.w3.org/2000/svg"
 width="5996.000000pt" height="2900.000000pt" viewBox="0 0 5996.000000 2900.000000"
 preserveAspectRatio="xMidYMid meet">
<metadata>
Created by potrace 1.16, written by Peter Selinger 2001-2019
</metadata>
<g transform="translate(0.000000,2900.000000) scale(0.100000,-0.100000)"
fill="#000000" stroke="none">
<path d="M0 14500 l0 -14500 29980 0 29980 0 0 14500 0 14500 -29980 0 -29980
0 0 -14500z m42260 12905 c229 -15 500 -43 690 -71 194 -28 716 -130 945 -184
66 -16 185 -40 265 -55 338 -61 386 -73 439 -113 76 -57 86 -141 51 -462 -49
-458 -78 -630 -185 -1100 -131 -574 -151 -668 -254 -1215 -120 -629 -153 -777
-282 -1265 -11 -41 -29 -109 -40 -150 -87 -326 -181 -618 -239 -735 -81 -164
-177 -262 -326 -331 -103 -48 -195 -71 -424 -104 -247 -35 -340 -44 -710 -67
-333 -21 -1290 -22 -2290 -3 -418 8 -786 8 -1290 1 -888 -13 -2787 -14 -3275
-1 -203 6 -775 17 -1270 25 -495 8 -956 19 -1025 25 -185 14 -440 39 -560 55
-58 8 -150 19 -205 25 -55 6 -192 24 -305 40 -113 17 -290 39 -395 49 -427 45
-505 88 -505 282 0 48 12 122 35 218 36 154 58 323 75 586 25 380 67 565 176
787 28 59 66 127 84 152 22 33 27 47 18 51 -88 30 -284 64 -416 72 -146 9
-154 11 -180 36 -33 34 -35 87 -4 120 12 13 22 32 22 44 0 11 13 38 28 59 41
56 232 222 407 354 83 62 168 129 190 150 51 48 76 56 117 36 17 -9 33 -14 36
-12 2 3 -3 40 -13 83 -9 43 -27 130 -41 193 -30 140 -48 384 -40 540 7 135 30
237 87 386 47 124 69 216 69 290 0 61 22 129 53 162 52 56 124 74 522 127 242
33 482 77 661 120 197 48 426 91 1071 200 111 19 279 48 375 64 95 16 236 39
313 51 77 11 235 36 350 55 811 133 1305 189 2260 260 116 8 298 22 405 30
374 28 857 55 1195 65 187 6 493 15 680 20 187 6 408 15 490 20 889 56 1639
68 2165 35z m-20755 -325 c266 -11 610 -40 790 -66 63 -9 229 -19 390 -23 234
-5 285 -9 311 -23 37 -20 83 -72 85 -96 1 -9 1 -152 -1 -317 -1 -165 3 -361 9
-435 31 -358 52 -851 61 -1390 5 -322 14 -695 20 -830 11 -238 18 -345 60
-825 11 -126 32 -363 45 -525 57 -672 67 -779 100 -1090 68 -626 75 -697 95
-920 39 -435 95 -1265 135 -1995 8 -154 24 -437 35 -630 11 -192 27 -469 35
-615 8 -146 19 -337 25 -425 17 -267 39 -715 50 -995 15 -389 49 -1135 65
-1450 32 -593 46 -946 65 -1640 6 -190 15 -403 21 -475 5 -71 13 -233 16 -360
5 -201 4 -238 -12 -290 -43 -148 -175 -289 -311 -330 -27 -8 -98 -19 -159 -25
-183 -17 -410 -58 -665 -119 -462 -109 -649 -148 -887 -181 -199 -27 -836 -75
-1348 -100 -742 -37 -1788 -113 -2460 -180 -165 -16 -399 -38 -520 -50 -121
-11 -281 -27 -355 -35 -334 -37 -787 -87 -915 -101 -77 -8 -178 -20 -225 -25
-47 -4 -184 -20 -305 -34 -121 -14 -278 -32 -350 -40 -71 -8 -209 -24 -305
-35 -628 -75 -901 -104 -1535 -165 -394 -38 -623 -59 -825 -75 -69 -6 -235
-20 -370 -31 -257 -21 -396 -34 -775 -74 -342 -36 -576 -62 -810 -90 -115 -13
-316 -36 -445 -50 -129 -14 -291 -32 -360 -41 -284 -34 -698 -84 -735 -89 -22
-4 -234 -31 -471 -60 -375 -48 -1123 -152 -1529 -214 -71 -11 -233 -31 -360
-45 -224 -25 -307 -31 -795 -61 -381 -24 -619 -68 -731 -136 -46 -28 -83 -41
-120 -46 -30 -3 -65 -14 -78 -25 -31 -24 -97 -23 -138 2 -43 26 -59 85 -73
260 -10 122 -46 373 -84 585 -32 173 -86 518 -106 675 -34 265 -64 455 -190
1195 -33 193 -69 400 -80 460 -140 766 -238 1487 -290 2140 -6 72 -13 144 -15
160 -8 47 -43 509 -55 715 -5 102 -12 205 -15 230 -3 25 -12 169 -20 320 -8
151 -24 439 -35 640 -11 201 -25 462 -30 580 -6 118 -15 269 -20 335 -5 66
-14 190 -20 275 -10 150 -24 316 -55 660 -8 91 -24 271 -35 400 -22 255 -35
399 -80 880 -32 333 -36 379 -76 775 -189 1906 -215 2282 -193 2839 14 356 8
631 -16 721 -9 33 -32 104 -52 158 -33 87 -41 100 -69 112 -38 16 -54 41 -54
85 0 55 41 81 212 138 84 27 216 77 293 110 77 33 187 76 245 95 125 43 548
157 855 232 121 29 326 78 455 110 674 162 892 212 1315 296 138 27 313 63
390 79 135 28 381 76 610 119 61 11 324 61 585 110 261 50 554 104 650 121 96
17 213 38 260 46 263 47 1125 188 1485 244 143 22 301 47 350 54 87 14 218 34
495 76 74 11 180 27 235 35 55 8 235 36 400 60 165 25 431 66 590 90 160 24
396 60 525 80 129 19 296 44 370 55 74 12 178 27 230 35 84 13 284 41 760 106
80 11 190 26 245 34 216 30 772 97 1170 140 423 45 1087 99 1555 125 96 5 285
17 420 25 532 33 778 45 1095 55 182 6 371 12 420 14 201 7 1697 -3 1930 -14z
m6435 -1440 c313 -38 805 -162 1190 -300 615 -220 933 -481 1193 -980 150
-288 201 -538 177 -875 -17 -244 -66 -434 -170 -652 -220 -462 -622 -833
-1302 -1201 -212 -115 -484 -209 -748 -259 -142 -26 -699 -26 -850 1 -395 70
-687 239 -946 549 -101 120 -165 217 -234 355 -121 243 -177 413 -219 664 -29
169 -33 272 -22 489 16 306 58 475 180 724 67 136 167 298 259 420 65 86 322
384 420 486 45 48 82 89 82 92 0 3 -13 10 -30 15 -49 18 -50 53 -3 147 23 44
46 100 53 124 15 56 54 92 158 143 82 41 84 42 205 44 67 2 154 7 192 12 100
13 316 14 415 2z m12700 -5750 c365 -10 552 -27 905 -85 327 -53 495 -94 900
-220 256 -80 369 -113 470 -140 55 -14 163 -44 240 -65 77 -22 211 -59 297
-84 185 -51 237 -78 275 -144 26 -44 28 -55 27 -152 0 -99 -3 -113 -46 -231
-25 -69 -66 -172 -91 -230 -25 -57 -89 -205 -143 -329 -210 -488 -463 -1030
-569 -1220 -205 -368 -392 -559 -601 -615 -93 -25 -323 -30 -504 -11 -238 26
-506 29 -1220 17 -637 -10 -933 -24 -1640 -76 -113 -8 -376 -26 -585 -40 -209
-14 -463 -32 -565 -40 -102 -8 -351 -26 -555 -40 -203 -14 -509 -36 -680 -50
-170 -13 -344 -27 -385 -30 -41 -3 -318 -26 -615 -51 -1802 -150 -2165 -171
-2804 -160 -234 4 -514 9 -621 10 -218 3 -543 37 -596 62 -33 16 -64 65 -64
101 0 10 16 43 35 73 47 72 59 119 90 335 42 294 70 380 136 419 64 38 135 3
163 -81 30 -87 13 -133 -50 -133 l-32 0 -7 -77 c-14 -171 -36 -351 -50 -403
-8 -30 -11 -58 -7 -62 4 -3 68 -14 142 -23 188 -24 537 -22 935 4 387 26 505
37 1020 101 1122 139 1296 159 1995 229 640 65 1280 117 1785 146 55 3 215 12
355 20 140 8 381 22 535 30 154 9 444 25 645 36 457 26 1345 37 1655 20 288
-16 640 -56 820 -93 257 -53 287 -57 390 -58 207 0 283 28 406 150 207 206
395 565 884 1685 86 198 173 406 192 463 37 111 45 194 21 218 -33 33 -358
132 -683 209 -200 46 -697 127 -1025 165 -146 16 -276 32 -290 35 -14 3 -106
14 -206 25 -333 36 -536 41 -1239 30 -759 -11 -1047 -27 -1880 -105 -143 -13
-314 -29 -380 -35 -66 -6 -192 -17 -280 -25 -88 -8 -268 -24 -400 -35 -210
-18 -581 -51 -1180 -105 -93 -9 -262 -24 -375 -35 -113 -10 -284 -26 -380 -34
-96 -9 -251 -22 -345 -31 -93 -8 -240 -19 -325 -25 -178 -12 -359 -28 -795
-70 -170 -16 -411 -34 -535 -40 -515 -26 -641 -41 -870 -105 -144 -40 -202
-73 -213 -117 -4 -13 -13 -93 -22 -178 -34 -339 -87 -545 -200 -771 -24 -47
-46 -102 -50 -122 -7 -35 -6 -36 42 -59 39 -18 49 -29 51 -51 8 -68 -74 -89
-162 -42 l-46 25 -78 -31 c-83 -33 -139 -65 -299 -170 -57 -37 -112 -70 -123
-74 -56 -18 2 -41 140 -55 149 -16 353 -64 414 -98 78 -44 95 -103 46 -152
-28 -28 -64 -25 -164 15 -74 30 -117 39 -276 59 -258 33 -316 62 -308 153 3
38 3 38 -37 41 -85 5 -125 30 -125 77 0 42 30 61 105 69 76 8 123 29 255 116
130 85 314 181 373 194 l50 11 49 120 c114 280 156 465 188 835 12 136 29 187
76 234 83 83 161 109 689 236 116 28 273 62 350 75 77 13 214 37 305 54 227
41 621 89 1285 156 138 14 396 41 575 60 179 19 528 55 775 80 248 24 495 49
550 55 87 9 354 35 1570 155 1111 110 1597 130 2515 105z m-12558 -495 c377
-40 691 -122 1048 -275 396 -169 663 -342 943 -610 247 -236 423 -501 511
-772 65 -200 71 -243 71 -553 0 -263 -2 -290 -28 -439 -90 -505 -299 -935
-657 -1349 -437 -507 -1357 -1011 -2042 -1119 -113 -18 -607 -18 -748 0 -357
46 -706 197 -1022 442 -99 77 -413 388 -520 515 -221 264 -401 569 -514 872
-94 253 -123 403 -124 638 -1 560 164 1023 546 1526 42 56 102 132 133 168 31
36 83 99 115 139 l59 73 -13 39 c-7 21 -10 49 -6 63 9 36 230 225 382 326 180
120 412 221 541 236 32 4 108 20 168 35 142 37 237 51 410 61 190 10 580 2
747 -16z m11173 -831 c138 -24 350 -80 570 -151 387 -125 470 -138 905 -138
l325 0 270 48 c331 59 475 77 628 77 104 0 119 -2 137 -20 25 -25 25 -41 3
-69 -16 -19 -35 -22 -168 -31 -179 -13 -306 -30 -475 -64 -331 -67 -419 -76
-779 -76 -451 0 -504 8 -911 140 -483 156 -531 165 -825 165 -133 0 -268 -6
-320 -13 -148 -21 -433 -80 -700 -143 -363 -87 -395 -94 -702 -148 -423 -75
-434 -76 -768 -75 -400 1 -511 21 -993 178 -308 101 -330 106 -498 106 -337 0
-521 -72 -1114 -435 -124 -76 -252 -151 -285 -167 -196 -92 -297 55 -138 203
56 53 84 65 112 50 28 -16 34 -45 16 -81 l-16 -31 23 12 c13 6 115 69 228 139
563 349 809 440 1202 443 183 1 199 -2 480 -93 519 -167 727 -200 1138 -180
278 13 553 59 1245 209 317 69 671 134 815 150 137 15 496 12 595 -5z m-2862
-806 c81 -24 160 -115 283 -327 59 -101 148 -188 236 -230 99 -46 192 -61 392
-61 161 0 184 2 290 30 175 45 453 153 897 348 420 185 648 238 1065 249 291
7 323 2 590 -103 264 -103 424 -128 883 -141 209 -6 236 -8 253 -25 23 -23 23
-63 0 -86 -17 -17 -45 -19 -289 -25 -156 -4 -318 -2 -384 4 -140 12 -318 51
-419 91 -150 60 -334 118 -414 129 -85 11 -320 6 -476 -12 -198 -22 -418 -80
-594 -156 -531 -230 -944 -381 -1167 -428 -105 -22 -287 -29 -419 -16 -192 20
-323 76 -434 187 -53 54 -82 95 -192 283 -70 119 -119 168 -180 177 -123 18
-292 -26 -980 -255 -306 -102 -526 -168 -680 -206 -126 -31 -263 -68 -304 -81
-41 -13 -83 -24 -93 -24 -28 0 -67 45 -67 77 1 37 16 55 70 84 38 19 66 24
180 30 191 9 349 52 1023 275 308 102 597 194 641 204 95 21 232 25 289 8z
m1999 -2733 c339 -14 585 -36 1143 -99 198 -23 466 -39 795 -49 150 -5 200
-28 243 -113 53 -103 31 -208 -142 -677 -28 -76 -76 -218 -107 -315 -86 -271
-181 -526 -236 -637 -111 -222 -251 -362 -418 -417 -75 -25 82 -22 -1695 -37
-605 -6 -1120 -12 -1145 -15 -25 -3 -148 -13 -275 -21 -450 -30 -868 -69
-1235 -116 -579 -73 -706 -89 -875 -109 -99 -11 -254 -29 -345 -40 -403 -47
-523 -60 -645 -70 -71 -6 -188 -17 -260 -25 -71 -9 -251 -26 -400 -40 -148
-14 -297 -29 -330 -35 -33 -6 -130 -13 -215 -16 -139 -6 -160 -9 -200 -31 -54
-29 -241 -107 -325 -135 -51 -17 -80 -19 -195 -16 -151 4 -182 14 -222 70 -33
47 -36 149 -8 318 19 120 20 146 10 260 -6 70 -19 159 -30 198 -24 87 -25 100
-3 124 21 23 55 23 77 0 9 -11 34 -73 56 -140 l40 -121 0 -243 c0 -134 3 -253
6 -265 6 -22 11 -23 98 -23 85 0 97 3 166 36 41 20 104 47 140 60 36 14 84 38
106 54 57 41 106 49 276 50 207 0 325 19 713 115 643 159 689 169 920 205 228
36 622 89 865 115 129 14 372 41 540 60 815 92 1210 115 1955 115 616 0 1078
-19 1580 -66 123 -11 245 -15 440 -12 246 4 275 6 323 25 197 79 320 312 522
986 28 93 79 246 114 340 89 242 118 326 111 336 -2 5 -60 12 -127 15 -68 4
-217 13 -333 21 -366 25 -1096 30 -1535 11 -212 -9 -554 -21 -760 -26 -1182
-32 -1511 -54 -2005 -135 -333 -54 -622 -96 -835 -120 -424 -47 -1010 -115
-1425 -165 -132 -16 -276 -32 -320 -35 -44 -4 -138 -15 -210 -26 -71 -10 -247
-35 -390 -54 -374 -51 -609 -91 -780 -135 -83 -21 -189 -46 -237 -55 l-86 -17
-6 -217 c-3 -119 -9 -244 -12 -278 -5 -53 -2 -68 15 -97 27 -43 27 -80 -1
-106 -28 -25 -52 -25 -94 1 l-33 20 -23 -21 c-14 -13 -31 -19 -44 -16 -27 7
-264 -173 -243 -185 28 -15 137 -39 249 -53 124 -16 150 -31 150 -83 0 -35
-42 -73 -81 -73 -99 0 -383 58 -428 87 -22 14 -25 14 -38 -3 -7 -10 -13 -21
-13 -26 0 -15 -60 -38 -85 -32 -31 8 -65 49 -65 78 0 12 12 46 26 75 21 41 46
67 118 123 134 104 260 187 341 224 l72 33 6 68 c3 37 11 128 18 202 10 104
10 151 1 215 -17 114 -15 156 8 193 28 46 62 60 264 110 100 24 300 75 446
113 415 108 588 149 1055 249 311 66 413 82 1175 181 256 33 598 81 760 105
162 25 383 59 490 75 543 83 894 117 1480 145 173 8 407 19 520 25 422 21 664
23 1082 5z m523 -531 c23 -9 46 -60 39 -88 -3 -13 -23 -38 -45 -56 -22 -17
-51 -50 -65 -72 -40 -63 -106 -236 -99 -258 3 -11 3 -52 -1 -92 -9 -89 -39
-128 -99 -128 -27 0 -44 8 -64 28 -37 36 -49 141 -26 216 8 27 15 61 15 76 0
37 44 163 76 219 40 68 84 121 118 142 31 19 116 26 151 13z m-2775 -534 c25
-13 92 -69 150 -125 127 -123 162 -140 276 -133 69 5 87 11 178 59 202 107
274 140 347 155 83 17 250 21 447 10 117 -7 134 -11 143 -28 6 -11 8 -31 5
-44 -9 -33 -50 -42 -251 -54 -283 -18 -344 -33 -495 -125 -192 -117 -226 -132
-333 -146 -89 -11 -192 3 -265 38 -41 19 -87 57 -164 134 -59 60 -118 111
-133 115 -33 8 -71 2 -270 -41 -88 -19 -272 -58 -410 -87 l-250 -53 -190 0
c-211 1 -184 -5 -410 91 l-90 38 -150 0 c-82 -1 -177 -6 -210 -13 -84 -17
-323 -97 -425 -141 -128 -56 -721 -355 -915 -460 -401 -219 -523 -274 -636
-287 -63 -7 -134 13 -159 45 -34 43 -20 142 28 196 29 33 92 56 119 43 37 -16
36 -69 -2 -99 -52 -41 -21 -50 66 -19 89 31 163 68 399 199 306 171 1022 529
1147 574 271 99 413 128 626 128 136 0 182 -10 324 -67 l118 -48 185 0 c184 0
187 0 445 53 143 29 321 66 395 82 176 37 184 39 255 35 39 -1 77 -11 105 -25z
m-7625 -191 c28 -5 102 -14 165 -19 387 -34 545 -67 760 -158 339 -143 583
-408 723 -782 48 -129 67 -238 67 -384 0 -337 -102 -591 -334 -834 -236 -246
-515 -413 -856 -512 -202 -59 -429 -77 -755 -61 -305 16 -508 64 -750 180
-318 152 -530 350 -668 627 -62 123 -72 171 -71 334 2 269 65 446 245 685 60
80 230 256 347 358 23 20 42 39 42 42 0 13 -62 -28 -113 -75 -59 -54 -95 -64
-129 -33 -27 24 -22 61 18 123 66 104 149 175 247 210 28 10 108 44 177 74 69
31 197 79 285 107 233 74 234 75 310 103 76 28 191 34 290 15z m10115 -114
c49 -25 64 -66 56 -154 -9 -90 -17 -108 -63 -127 -81 -34 -136 13 -147 126 -8
86 9 130 57 154 40 20 61 20 97 1z"/>
<path d="M41180 26963 c-47 -2 -229 -10 -405 -19 -176 -8 -590 -19 -920 -24
-811 -13 -1185 -29 -1885 -85 -102 -8 -279 -22 -395 -30 -922 -69 -1248 -105
-2030 -221 -479 -71 -677 -97 -910 -118 -416 -39 -607 -56 -685 -61 -47 -3
-177 -15 -290 -25 -236 -22 -444 -36 -717 -50 -265 -14 -657 -57 -933 -103
l-74 -13 -12 -89 c-13 -108 -27 -155 -88 -302 -71 -172 -86 -249 -86 -438 0
-168 12 -274 56 -485 21 -101 25 -140 20 -203 -6 -76 -6 -79 19 -99 24 -19 31
-50 19 -82 -10 -25 -67 -39 -113 -26 -46 12 -69 39 -78 93 -3 20 -9 37 -14 37
-5 0 -9 -4 -9 -9 0 -5 -29 -29 -64 -53 -87 -59 -511 -442 -511 -462 0 -6 42
-16 100 -23 55 -6 132 -19 170 -28 86 -20 230 -86 243 -111 5 -11 10 -47 10
-81 1 -55 -3 -65 -34 -106 -50 -64 -91 -171 -119 -311 -33 -167 -45 -319 -45
-611 -1 -343 -12 -487 -51 -646 -33 -137 -32 -148 11 -149 8 0 65 -7 125 -15
119 -16 307 -27 850 -50 193 -9 409 -20 480 -27 158 -13 1027 -6 1885 17 1764
46 5514 18 6765 -51 154 -8 354 -19 445 -24 686 -38 920 -38 1090 -2 164 36
268 83 338 155 94 96 190 370 252 717 19 107 106 598 170 965 190 1080 232
1264 415 1825 56 169 96 309 151 530 32 127 84 540 84 667 0 64 7 60 -180 96
-242 46 -375 58 -985 87 -317 15 -573 29 -745 40 -129 9 -1100 11 -1320 3z
m-2652 -952 c74 -30 171 -93 282 -184 136 -114 230 -175 350 -228 205 -91 358
-119 670 -119 238 0 348 14 730 90 296 59 332 67 569 131 521 140 639 162 876
163 245 1 254 -4 472 -201 56 -51 128 -105 160 -121 123 -62 255 -92 401 -92
75 0 85 -2 107 -25 14 -13 25 -34 25 -45 0 -11 -11 -32 -25 -45 -22 -23 -33
-25 -117 -27 -207 -3 -317 10 -416 50 -101 41 -161 83 -272 187 -139 129 -159
138 -334 137 -201 0 -393 -36 -861 -162 -279 -75 -802 -180 -1047 -210 -132
-17 -563 -7 -675 14 -182 35 -386 117 -535 215 -40 26 -127 92 -193 145 -66
54 -149 114 -185 134 -65 37 -65 37 -180 36 -187 -1 -275 -28 -590 -174 -401
-186 -757 -324 -1040 -404 -223 -62 -574 -62 -735 2 -142 56 -286 173 -416
337 -56 71 -100 117 -119 125 -21 9 -55 11 -106 6 -143 -12 -278 -56 -534
-176 -503 -237 -778 -369 -1157 -556 -231 -115 -307 -148 -368 -161 -133 -27
-219 -2 -273 77 -23 33 -24 41 -20 170 5 143 15 182 63 235 29 30 45 31 76 6
22 -18 23 -21 11 -65 -18 -68 -16 -250 3 -266 31 -26 112 -1 279 85 512 263
544 278 1016 497 603 280 742 328 951 328 133 0 187 -32 306 -177 136 -167
253 -264 366 -303 121 -43 351 -49 532 -15 208 40 605 189 1031 388 410 192
541 230 769 222 72 -2 115 -9 153 -24z m-5280 -637 c38 -27 27 -77 -21 -89
-36 -9 -77 17 -77 50 0 25 33 55 60 55 9 0 26 -7 38 -16z m4446 -864 c261 -83
431 -199 662 -450 211 -230 277 -279 444 -331 65 -21 96 -24 235 -24 157 0
162 1 245 33 168 65 261 123 490 303 207 163 287 218 385 265 123 59 205 77
345 78 134 1 180 -10 300 -70 138 -69 226 -137 395 -308 173 -175 247 -231
352 -268 60 -20 86 -23 218 -22 147 0 153 1 280 41 72 22 227 75 345 118 394
141 470 159 652 154 99 -4 121 -7 145 -25 46 -34 44 -103 -5 -128 -15 -7 -90
-21 -167 -30 -159 -18 -272 -49 -570 -158 -412 -151 -548 -184 -735 -175 -262
13 -409 88 -616 315 -138 152 -182 192 -279 256 -134 88 -190 108 -303 108
-222 1 -295 -34 -682 -326 -208 -157 -366 -246 -534 -302 -171 -56 -457 -55
-617 2 -172 61 -280 147 -482 383 -181 211 -255 269 -427 338 l-95 38 -240 0
c-197 -1 -252 -4 -310 -19 -333 -85 -538 -200 -941 -524 -341 -274 -499 -387
-709 -507 -191 -109 -340 -175 -475 -211 -82 -21 -328 -25 -413 -6 -162 37
-297 134 -394 284 -52 80 -67 114 -145 323 -74 200 -111 270 -162 307 -35 25
-47 28 -120 28 -186 0 -356 -79 -863 -401 -307 -196 -360 -235 -374 -278 -16
-50 -27 -61 -62 -61 -62 0 -83 52 -52 127 21 49 36 65 120 127 89 67 695 455
795 511 106 58 234 111 305 126 33 6 101 12 150 13 78 0 98 -3 150 -27 71 -33
138 -101 182 -184 17 -32 61 -134 98 -228 82 -210 122 -286 186 -358 91 -102
179 -141 349 -152 146 -9 226 6 355 69 258 124 493 291 914 649 194 165 260
217 401 310 191 126 382 212 577 258 136 33 202 38 423 34 178 -2 214 -6 274
-25z"/>
<path d="M22455 26705 c-18 -7 -364 -45 -545 -60 -212 -18 -1123 -59 -1565
-70 -126 -3 -302 -10 -390 -15 -88 -5 -261 -14 -385 -20 -313 -15 -706 -37
-960 -55 -424 -31 -747 -56 -840 -65 -52 -6 -279 -26 -505 -45 -789 -66 -1128
-101 -1595 -161 -107 -14 -244 -31 -305 -39 -268 -34 -581 -77 -1095 -150
-319 -45 -514 -73 -1125 -165 -187 -28 -414 -62 -505 -76 -91 -13 -295 -42
-455 -64 -159 -22 -447 -63 -640 -90 -192 -28 -431 -61 -530 -75 -848 -120
-2111 -321 -2916 -464 -123 -22 -303 -54 -399 -70 -237 -41 -585 -103 -815
-145 -104 -19 -217 -40 -250 -46 -33 -6 -294 -58 -580 -115 -730 -146 -1022
-201 -1235 -230 -102 -14 -213 -30 -246 -35 -177 -29 -412 -52 -602 -59 -117
-5 -216 -12 -219 -15 -4 -3 1 -14 10 -24 27 -29 22 -87 -9 -111 -14 -11 -30
-21 -36 -23 -8 -3 -8 -10 0 -24 14 -26 84 -272 111 -393 34 -147 98 -565 121
-786 6 -60 27 -236 46 -390 34 -282 46 -383 84 -705 12 -96 27 -222 35 -280
16 -118 35 -274 100 -830 25 -212 54 -457 65 -545 10 -88 30 -263 44 -390 14
-126 33 -291 41 -365 27 -238 52 -488 104 -1045 43 -448 67 -771 86 -1140 38
-746 133 -2200 184 -2810 36 -424 35 -420 91 -910 23 -200 77 -591 116 -845
103 -662 128 -843 168 -1175 8 -71 22 -186 30 -255 9 -69 20 -183 26 -255 6
-71 16 -168 23 -215 8 -60 12 -263 11 -692 l0 -606 30 -5 c19 -3 64 6 116 23
83 27 229 57 415 85 50 7 188 34 308 59 120 25 228 46 240 46 12 0 28 4 36 9
12 8 8 14 -16 35 -45 38 -70 96 -98 228 -33 156 -53 332 -65 557 -25 469 -60
815 -152 1503 l-32 247 -37 -2 c-48 -2 -69 17 -69 60 0 30 6 37 49 64 34 22
50 39 54 59 13 64 69 85 127 46 l39 -25 93 23 c51 13 153 38 226 55 73 18 183
47 245 65 276 83 603 178 727 211 248 67 943 225 1335 304 209 42 661 127 775
145 52 9 219 36 370 60 151 25 433 68 625 96 193 28 411 59 485 70 236 34 776
108 1025 140 345 44 848 113 1240 171 416 61 620 89 925 129 376 49 929 127
1218 170 917 138 1228 177 1932 240 451 40 1105 84 1465 100 768 33 1860 89
1965 101 98 10 282 43 313 55 13 5 16 14 11 44 -19 119 138 139 230 30 31 -37
35 -102 9 -139 -21 -30 -36 -150 -63 -480 -11 -141 -27 -335 -35 -431 -17
-200 -41 -508 -50 -655 -7 -104 -50 -548 -65 -670 -5 -38 -14 -200 -21 -360
-11 -281 -11 -294 10 -410 11 -66 21 -142 21 -168 0 -35 4 -49 17 -54 9 -4
147 -1 307 6 160 6 415 16 566 21 456 16 738 43 1025 100 83 17 221 37 308 44
151 13 160 15 195 43 21 17 51 52 67 78 l30 49 -2 240 c-1 304 -10 389 -83
831 -57 348 -129 849 -150 1045 -13 125 -74 810 -100 1120 -19 243 -31 409
-70 1025 -40 639 -95 1465 -115 1750 -8 116 -31 469 -50 785 -51 831 -73 1157
-101 1495 -13 165 -31 383 -40 485 -15 183 -34 385 -74 755 -57 541 -92 941
-125 1445 -9 129 -22 332 -30 450 -35 531 -38 622 -31 1260 4 349 11 700 16
780 28 447 43 640 65 865 17 172 25 312 25 448 l0 197 -172 -1 c-95 0 -177 -2
-183 -4z m-1204 -2926 c236 -19 339 -50 422 -127 73 -69 -22 -161 -97 -94 -57
52 -782 2 -1421 -98 -422 -67 -901 -130 -1515 -200 -102 -12 -331 -39 -510
-61 -179 -22 -453 -55 -610 -74 -157 -19 -359 -44 -449 -55 -90 -11 -313 -36
-495 -55 -182 -19 -396 -41 -476 -50 -435 -48 -509 -53 -630 -48 -134 7 -160
17 -160 68 0 42 33 65 94 65 112 0 268 22 496 70 271 56 555 109 820 151 743
118 1539 231 2160 309 135 16 295 37 355 45 61 8 180 24 265 35 85 11 205 27
265 35 185 24 553 60 910 88 101 9 454 6 576 -4z m-7806 -364 c392 -36 534
-93 549 -217 21 -181 40 -571 40 -823 -1 -265 -6 -375 -34 -715 -22 -267 -32
-754 -27 -1385 4 -673 5 -682 51 -1115 48 -443 50 -460 132 -1095 19 -148 41
-319 49 -380 8 -60 19 -132 25 -160 12 -59 81 -611 105 -835 9 -85 22 -207 31
-270 21 -162 36 -452 28 -533 -5 -58 -11 -75 -38 -105 -17 -19 -51 -45 -76
-56 -43 -20 -59 -21 -350 -18 -168 1 -462 -4 -655 -12 -192 -9 -411 -18 -485
-21 -393 -17 -1053 -81 -1490 -146 -617 -91 -1150 -189 -2815 -519 -837 -166
-1198 -228 -1735 -300 -364 -49 -853 -148 -967 -195 -21 -9 -63 -18 -94 -22
-52 -5 -60 -3 -83 20 -32 32 -33 68 -3 102 18 21 56 34 222 76 110 28 319 84
465 125 268 75 559 144 770 183 63 12 225 46 360 76 822 180 2101 436 2735
546 817 141 1207 197 1660 235 253 22 819 29 1100 14 334 -17 1239 -25 1291
-11 54 14 55 22 43 231 -14 267 -45 463 -149 960 -28 135 -67 328 -85 430 -18
102 -59 322 -90 490 -96 518 -123 686 -175 1100 -69 556 -73 625 -67 1325 6
634 11 745 57 1170 30 276 49 446 55 475 14 73 37 358 49 600 14 292 9 518
-13 544 -16 19 -92 44 -185 61 -66 11 -115 9 -433 -16 -197 -15 -398 -33 -448
-38 -49 -6 -178 -20 -285 -31 -294 -31 -877 -120 -1205 -184 -89 -17 -399 -75
-570 -107 -60 -11 -243 -47 -405 -79 -268 -54 -373 -75 -830 -171 -494 -103
-644 -131 -1500 -278 -96 -16 -229 -39 -295 -51 -66 -11 -178 -31 -250 -45
-236 -44 -588 -104 -735 -124 -80 -11 -226 -32 -325 -45 -310 -44 -516 -76
-645 -101 -249 -49 -338 -65 -359 -65 -11 0 -28 11 -37 25 -15 23 -15 27 -1
49 19 29 120 70 208 86 222 38 287 54 866 214 286 79 477 124 758 181 39 8
113 23 165 35 178 38 335 69 585 115 138 26 284 52 325 60 41 8 149 28 240 45
286 53 565 108 885 176 741 155 936 194 1400 278 401 73 717 127 875 151 374
56 653 89 890 105 184 13 727 4 925 -15z m7843 -1058 c212 -23 292 -57 292
-126 0 -54 -58 -80 -105 -47 -37 25 -78 27 -249 12 -94 -9 -283 -23 -421 -31
-1055 -65 -1857 -148 -2650 -274 -678 -108 -1028 -152 -1490 -186 -110 -9
-288 -22 -395 -30 -265 -20 -402 -33 -550 -52 -85 -11 -164 -14 -245 -10 -107
5 -121 8 -137 27 -25 30 -23 55 6 78 21 16 48 20 178 25 150 6 254 20 533 71
77 14 205 37 285 50 80 14 225 39 323 56 354 60 528 90 847 145 179 30 375 64
435 75 617 112 1296 194 1810 220 121 6 249 12 285 14 36 2 299 2 585 0 381
-1 558 -6 663 -17z m-16050 -385 c18 -12 32 -69 32 -134 0 -32 9 -144 19 -250
11 -106 22 -268 26 -361 3 -92 15 -252 25 -355 11 -103 29 -275 40 -382 11
-107 22 -213 25 -235 14 -107 37 -478 50 -815 25 -635 45 -1087 55 -1265 6
-93 12 -215 15 -270 3 -55 12 -192 20 -305 8 -113 17 -241 20 -285 9 -142 35
-485 50 -670 8 -99 22 -281 30 -405 9 -124 25 -328 36 -455 11 -126 24 -345
29 -485 5 -140 15 -318 21 -394 11 -139 11 -140 -11 -158 -28 -23 -65 -23 -88
0 -21 21 -55 183 -71 332 -5 52 -28 194 -50 315 -23 121 -57 333 -76 470 -19
138 -43 311 -55 385 -52 335 -115 954 -140 1370 -6 96 -15 238 -20 315 -9 131
-16 267 -40 810 -6 121 -14 423 -20 670 -11 494 -22 744 -47 1085 -24 321 -24
917 0 1097 10 73 22 156 27 184 6 29 10 75 10 103 0 77 40 118 88 88z m15992
-1169 c289 -6 295 -7 317 -29 31 -32 31 -87 -1 -119 -30 -30 -78 -44 -201 -56
-55 -5 -107 -12 -115 -14 -31 -9 -750 -61 -1170 -85 -179 -10 -500 -34 -860
-65 -354 -31 -991 -107 -1430 -171 -200 -29 -540 -87 -845 -144 -115 -22 -374
-68 -575 -102 -363 -62 -366 -62 -560 -62 -220 0 -299 14 -360 63 -42 34 -51
78 -21 105 18 16 25 17 76 5 46 -10 83 -10 193 0 168 16 258 34 577 115 823
210 1634 354 2475 440 434 45 795 69 1560 106 442 21 549 22 940 13z m1201
-1624 c22 -11 29 -43 15 -71 -16 -32 -114 -67 -191 -67 -34 -1 -124 -12 -200
-26 -182 -32 -397 -59 -670 -84 -121 -12 -319 -32 -440 -46 -366 -42 -1132
-123 -1715 -180 -80 -8 -253 -25 -385 -39 -616 -64 -745 -74 -1890 -156 -159
-11 -456 -34 -660 -51 -449 -36 -676 -38 -810 -9 -95 21 -125 41 -125 85 0 13
8 32 18 44 24 30 164 57 331 65 154 8 335 25 652 61 250 28 630 66 909 90 394
34 640 56 775 70 77 7 174 17 215 20 76 7 359 39 665 75 669 81 1398 152 1780
175 186 11 868 34 1205 41 184 4 346 10 360 14 29 9 137 1 161 -11z m-1026
-1399 c77 -6 208 -12 290 -15 316 -10 404 -19 427 -43 27 -27 28 -77 2 -103
-26 -25 -117 -37 -379 -49 -115 -5 -284 -14 -375 -19 -91 -6 -349 -15 -575
-21 -574 -14 -1273 -42 -1600 -65 -624 -44 -1238 -106 -1780 -180 -758 -104
-1209 -139 -1470 -116 -192 18 -216 26 -230 82 -5 19 0 33 17 53 26 29 68 37
313 56 76 5 266 35 455 70 458 85 451 84 800 139 767 122 1497 194 2235 221
302 11 1690 4 1870 -10z m502 -932 c47 -14 83 -61 83 -109 0 -31 -7 -47 -34
-76 l-34 -37 -153 -7 c-85 -4 -305 -17 -489 -28 -184 -12 -402 -21 -485 -20
-82 0 -226 -5 -320 -11 -93 -6 -352 -22 -575 -35 -524 -33 -589 -38 -1060 -85
-411 -41 -903 -85 -1075 -95 -55 -4 -246 -17 -425 -31 -434 -32 -1043 -64
-1205 -63 -156 0 -532 23 -560 34 -60 23 -76 90 -30 121 22 15 44 16 163 10
157 -8 311 4 539 40 318 50 868 114 1708 199 138 14 356 36 485 49 669 70
1187 100 2040 121 135 3 286 11 335 17 214 25 1014 30 1092 6z"/>
<path d="M21139 14515 c-3 -2 -95 -20 -205 -39 -109 -19 -232 -42 -272 -50
-129 -28 -542 -94 -742 -120 -280 -37 -592 -65 -1085 -101 -115 -8 -309 -24
-430 -35 -121 -11 -357 -31 -525 -45 -861 -71 -1284 -121 -2125 -251 -422 -65
-574 -87 -1025 -149 -223 -31 -693 -96 -1045 -146 -955 -134 -1239 -172 -1790
-239 -401 -49 -1165 -150 -1435 -190 -74 -11 -245 -36 -380 -55 -370 -54 -679
-102 -945 -146 -238 -40 -338 -58 -695 -124 -102 -19 -320 -60 -485 -90 -165
-31 -390 -74 -500 -95 -245 -48 -488 -91 -745 -130 -180 -28 -293 -51 -493
-99 -43 -10 -81 -21 -84 -25 -6 -6 -1 -50 36 -291 92 -603 117 -816 156 -1340
56 -745 48 -680 96 -791 23 -55 43 -114 43 -131 1 -18 3 -33 6 -33 3 0 156 29
340 66 184 36 418 81 520 99 910 170 918 172 1230 220 124 19 284 44 355 55
72 11 177 27 235 35 58 8 224 30 370 50 146 20 391 51 545 70 154 19 372 45
485 59 245 30 470 57 715 86 99 11 236 27 305 35 218 26 488 54 720 75 426 39
834 78 1100 105 80 8 246 24 370 35 231 22 812 82 955 100 204 25 2002 223
2180 240 665 64 800 76 1235 111 978 78 1786 121 2548 136 189 3 345 10 348
15 3 4 -4 54 -15 110 -33 174 -41 276 -41 524 0 256 17 560 50 874 57 548 81
799 100 1045 11 149 27 333 35 410 8 77 15 146 15 153 0 12 -22 17 -31 7z
m-1061 -900 c101 -85 145 -425 108 -843 -19 -215 -20 -324 -3 -370 8 -21 29
-44 62 -65 56 -36 74 -72 59 -114 -17 -51 -58 -61 -289 -72 -389 -20 -918 -80
-2016 -231 -559 -77 -974 -130 -1414 -180 -353 -41 -493 -63 -794 -123 -138
-28 -165 -36 -171 -53 -12 -31 -36 -46 -72 -42 -42 4 -69 50 -97 168 -39 159
-43 215 -50 577 -4 220 -10 366 -16 371 -6 6 -65 6 -157 -1 -132 -9 -149 -9
-172 6 -46 31 -47 103 -1 133 16 10 62 19 127 24 57 5 283 45 503 89 468 94
630 122 884 156 102 13 314 42 471 64 157 22 344 46 415 55 72 8 225 26 340
40 291 34 472 54 743 80 201 20 235 25 255 43 28 26 54 39 95 46 27 6 38 2 58
-18 24 -24 27 -25 97 -14 417 62 590 115 867 264 79 43 126 46 168 10z"/>
<path d="M19890 13450 c-77 -40 -316 -125 -530 -189 -13 -4 -31 -19 -40 -33
-8 -15 -40 -55 -71 -90 -189 -215 -461 -608 -529 -762 -25 -56 -40 -78 -56
-82 -37 -9 -58 0 -69 30 -21 61 204 444 430 732 58 73 105 136 105 139 0 4
-12 4 -27 0 -16 -4 -87 -19 -159 -34 l-132 -26 -177 -265 c-120 -178 -197
-305 -236 -387 -32 -67 -66 -126 -77 -132 -26 -14 -66 8 -70 39 -7 66 91 256
286 553 57 87 102 160 100 163 -7 7 -309 -36 -341 -48 -56 -21 -106 -88 -452
-598 -89 -131 -175 -296 -175 -336 0 -20 2 -20 153 3 186 27 627 87 837 114
298 37 872 68 1274 69 108 0 108 0 101 23 -4 12 -10 66 -12 120 -3 53 -9 97
-13 97 -16 0 -38 -42 -67 -123 -31 -89 -54 -109 -98 -89 -18 8 -25 19 -25 39
0 48 59 187 106 250 18 24 33 33 62 35 l37 3 12 100 c7 55 15 181 19 280 6
149 4 199 -11 285 -17 106 -37 170 -52 169 -4 0 -51 -22 -103 -49z m-260 -190
c32 -32 25 -59 -29 -109 -90 -85 -217 -263 -325 -456 -97 -172 -121 -205 -148
-205 -27 0 -58 28 -58 52 0 10 23 64 51 121 98 195 317 512 396 574 63 48 84
52 113 23z m312 -67 c22 -19 23 -51 3 -79 -15 -22 -67 -121 -209 -397 -92
-180 -136 -251 -161 -261 -25 -9 -64 11 -71 38 -7 28 74 205 178 388 36 62 75
136 88 163 25 53 70 123 96 149 20 21 53 20 76 -1z"/>
<path d="M17880 13011 c-86 -12 -115 -20 -116 -31 -1 -8 -2 -20 -2 -27 -1 -6
-34 -33 -73 -59 -96 -65 -138 -115 -297 -354 -128 -193 -195 -316 -237 -437
-32 -91 -115 -88 -115 4 0 60 38 144 157 342 149 251 244 393 306 459 l50 52
-31 0 c-36 0 -250 -28 -271 -36 -11 -3 -9 -10 8 -27 40 -44 22 -72 -70 -106
-132 -50 -369 -303 -568 -607 -87 -131 -160 -269 -149 -279 3 -4 75 7 160 24
170 33 564 102 758 132 69 10 130 21 136 23 6 3 19 36 27 75 26 112 63 177
332 576 100 149 185 276 189 283 10 16 -46 14 -194 -7z"/>
<path d="M17006 12895 c-88 -13 -152 -27 -154 -34 -8 -25 -35 -41 -71 -41 -84
0 -102 -10 -196 -104 -228 -228 -470 -587 -575 -849 -16 -42 -29 -59 -46 -63
-30 -8 -53 1 -61 22 -15 40 47 224 106 316 16 24 63 99 106 168 102 163 180
272 288 398 66 76 83 102 69 102 -20 0 -446 -70 -448 -73 -3 -7 -108 -156
-198 -282 -129 -180 -172 -254 -201 -349 -20 -65 -24 -72 -56 -83 -33 -11 -34
-12 -31 -60 3 -64 32 -246 41 -254 10 -11 502 91 732 152 32 8 38 14 48 53 42
169 295 547 520 779 102 105 168 157 247 197 70 34 71 34 -120 5z"/>
<path d="M15663 12686 c-92 -13 -143 -25 -143 -33 0 -6 8 -25 17 -41 15 -26
16 -36 5 -64 -15 -42 -17 -327 -2 -312 5 5 25 35 43 65 18 30 88 132 155 226
67 95 122 174 122 177 0 9 -43 5 -197 -18z"/>
<path d="M27580 25382 c0 -29 -21 -42 -69 -42 -114 0 -186 -45 -367 -225 -340
-339 -636 -787 -753 -1140 -74 -223 -85 -298 -85 -565 0 -262 11 -348 70 -553
84 -294 194 -490 386 -693 208 -219 449 -343 758 -389 132 -20 497 -20 637 0
205 29 398 89 603 186 249 119 465 250 691 420 268 202 441 402 569 658 101
203 140 370 140 608 0 160 -14 247 -60 378 -41 113 -63 157 -140 275 -237 359
-450 506 -1070 735 -505 186 -887 303 -1133 345 -150 25 -177 26 -177 2z
m1303 -1372 c55 -21 71 -39 81 -95 6 -31 4 -36 -52 -124 -39 -59 -57 -71 -105
-71 -43 0 -83 36 -92 82 -9 46 10 147 34 178 16 23 56 49 73 50 4 0 31 -9 61
-20z m-1370 -21 c33 -25 51 -87 42 -143 -8 -47 -30 -86 -48 -86 -7 0 -31 -18
-52 -41 -51 -52 -84 -69 -133 -69 -29 0 -46 7 -65 26 -53 53 -44 137 23 222
81 101 175 138 233 91z m1107 -770 c65 -15 178 -73 233 -121 50 -42 152 -188
163 -232 3 -14 1 -49 -6 -80 -17 -83 -68 -115 -135 -84 -26 12 -85 115 -85
149 0 23 -86 89 -160 123 -52 24 -64 26 -220 26 -91 0 -194 -5 -230 -11 -220
-35 -449 -117 -731 -261 -160 -82 -180 -90 -214 -84 -46 9 -95 55 -95 89 0 55
102 133 315 240 275 137 526 220 760 250 66 9 363 6 405 -4z"/>
<path d="M27020 25254 c-12 -19 -20 -37 -17 -40 6 -7 77 55 77 67 0 23 -40 6
-60 -27z"/>
<path d="M26975 19111 c-55 -10 -120 -28 -145 -38 -25 -11 -83 -32 -130 -47
-111 -36 -347 -129 -419 -166 -80 -40 -142 -110 -376 -425 -315 -424 -491
-783 -570 -1165 -45 -215 -59 -576 -30 -744 30 -172 129 -431 247 -647 249
-453 695 -898 1093 -1089 306 -148 680 -205 1100 -170 159 14 260 34 435 86
208 63 360 124 565 229 254 129 527 306 725 470 393 328 698 802 815 1270 42
165 55 290 55 516 0 145 -4 198 -21 276 -67 308 -207 543 -486 813 -132 129
-185 172 -335 272 -259 175 -637 342 -988 438 -308 83 -677 126 -1185 135
-216 4 -264 2 -350 -14z m1949 -1553 c35 -32 41 -67 16 -103 -82 -121 -96
-135 -131 -135 -46 0 -60 11 -84 61 -29 64 -23 91 34 137 83 70 121 79 165 40z
m-2400 -150 c21 -30 21 -138 0 -208 -23 -76 -77 -130 -131 -130 -77 0 -119 75
-111 194 4 51 9 63 36 87 18 16 44 29 58 29 16 0 34 10 46 25 26 33 80 35 102
3z m2866 -1323 c130 -34 133 -139 5 -179 -36 -11 -134 -18 -360 -26 -658 -22
-893 -52 -1565 -197 -162 -35 -187 -38 -340 -38 -185 0 -208 6 -247 64 -28 42
-30 92 -4 115 17 15 26 16 81 5 108 -21 298 -6 505 40 227 51 765 143 995 171
96 11 218 27 270 35 128 20 153 21 395 23 156 1 224 -2 265 -13z"/>
<path d="M28228 13495 c-64 -7 -150 -20 -191 -29 -69 -16 -82 -23 -190 -109
-496 -396 -745 -730 -788 -1055 -32 -243 15 -373 211 -576 220 -229 526 -364
921 -407 163 -18 549 -6 671 20 217 47 398 120 561 227 291 190 476 416 534
652 12 48 17 111 17 222 0 151 -1 157 -33 245 -43 116 -71 171 -139 275 -185
279 -466 438 -892 505 -57 9 -121 13 -142 10 -22 -4 -44 -2 -51 4 -7 5 -73 13
-147 16 -74 3 -155 7 -180 9 -25 2 -98 -2 -162 -9z m796 -433 c12 -15 16 -38
16 -103 0 -147 -25 -199 -97 -199 -40 0 -83 37 -83 72 0 58 64 221 94 240 20
13 53 8 70 -10z m-1308 -255 c38 -19 85 -40 104 -47 78 -29 101 -81 59 -134
-29 -37 -67 -34 -179 14 -109 47 -160 89 -160 134 0 73 66 85 176 33z m1373
-82 c57 -29 60 -106 5 -141 -14 -10 -39 -31 -56 -47 -24 -24 -34 -28 -60 -23
-39 8 -76 40 -94 84 -12 27 -12 37 0 66 17 40 41 55 105 66 68 11 70 11 100
-5z m-1284 -235 c69 -11 95 -34 95 -85 0 -25 -8 -40 -35 -64 -33 -29 -41 -31
-111 -31 -70 0 -78 2 -105 29 -46 47 -34 116 25 145 37 18 52 19 131 6z m853
-491 c53 -22 206 -132 227 -162 26 -37 19 -94 -14 -128 -43 -42 -98 -41 -148
4 -127 112 -178 131 -277 105 -35 -9 -105 -41 -157 -73 -127 -75 -206 -112
-256 -120 -39 -6 -46 -4 -73 23 -56 56 -35 108 60 149 25 11 89 50 142 86 167
116 268 152 398 140 30 -3 74 -14 98 -24z"/>
</g>
</svg>
