<?xml version="1.0" standalone="no"?>
<!DOCTYPE svg PUBLIC "-//W3C//DTD SVG 20010904//EN"
 "http://www.w3.org/TR/2001/REC-SVG-20010904/DTD/svg10.dtd">
<svg version="1.0" xmlns="http://www.w3.org/2000/svg"
 width="4130.912964pt" height="1823.281629pt" viewBox="0 0 4130.912964 1823.281629"
 preserveAspectRatio="xMidYMid meet">
<metadata>
Created by potrace 1.16, written by Peter Selinger 2001-2019
</metadata>
<g transform="translate(-336.000000,2742.331351) scale(0.100000,-0.100000)"
fill="#000000" stroke="none">
<path d="M41120 27418 c-262 -6 -652 -24 -1025 -48 -82 -5 -303 -14 -490 -20
-187 -5 -493 -14 -680 -20 -338 -10 -821 -37 -1195 -65 -107 -8 -289 -22 -405
-30 -955 -71 -1449 -127 -2260 -260 -115 -19 -273 -44 -350 -55 -77 -12 -218
-35 -313 -51 -96 -16 -264 -45 -375 -64 -645 -109 -874 -152 -1071 -200 -179
-43 -419 -87 -661 -120 -398 -53 -470 -71 -522 -127 -31 -33 -53 -101 -53
-162 0 -74 -22 -166 -69 -290 -57 -149 -80 -251 -87 -386 -8 -156 10 -400 40
-540 14 -63 32 -150 41 -193 10 -43 15 -80 13 -83 -3 -2 -19 3 -36 12 -41 20
-66 12 -117 -36 -22 -21 -107 -88 -190 -150 -175 -132 -366 -298 -407 -354
-15 -21 -28 -48 -28 -59 0 -12 -10 -31 -22 -44 -31 -33 -29 -86 4 -120 26 -25
34 -27 180 -36 132 -8 328 -42 416 -72 9 -4 4 -18 -18 -51 -18 -25 -56 -93
-84 -152 -109 -222 -151 -407 -176 -787 -17 -263 -39 -432 -75 -586 -23 -96
-35 -170 -35 -218 0 -194 78 -237 505 -282 105 -10 282 -32 395 -49 113 -16
250 -34 305 -40 55 -6 147 -17 205 -25 120 -16 375 -41 560 -55 69 -6 530 -17
1025 -25 495 -8 1067 -19 1270 -25 488 -13 2387 -12 3275 1 504 7 872 7 1290
-1 1000 -19 1957 -18 2290 3 370 23 463 32 710 67 229 33 321 56 424 104 149
69 245 167 326 331 58 117 152 409 239 735 11 41 29 109 40 150 129 488 162
636 282 1265 103 547 123 641 254 1215 107 470 136 642 185 1100 35 321 25
405 -51 462 -53 40 -101 52 -439 113 -80 15 -199 39 -265 55 -229 54 -751 156
-945 184 -504 74 -1096 102 -1830 84z m1380 -458 c172 -11 428 -25 745 -40
610 -29 743 -41 985 -87 187 -36 180 -32 180 -96 0 -127 -52 -540 -84 -667
-55 -221 -95 -361 -151 -530 -183 -561 -225 -745 -415 -1825 -64 -367 -151
-858 -170 -965 -62 -347 -158 -621 -252 -717 -70 -72 -174 -119 -338 -155
-170 -36 -404 -36 -1090 2 -91 5 -291 16 -445 24 -598 33 -1484 52 -3085 67
-1454 13 -2779 8 -3680 -16 -858 -23 -1727 -30 -1885 -17 -71 7 -287 18 -480
27 -543 23 -731 34 -850 50 -60 8 -117 15 -125 15 -43 1 -44 12 -11 149 39
159 50 303 51 646 0 292 12 444 45 611 28 140 69 247 119 311 31 41 35 51 34
106 0 34 -5 70 -10 81 -13 25 -157 91 -243 111 -38 9 -115 22 -170 28 -58 7
-100 17 -100 23 0 20 424 403 511 462 35 24 64 48 64 53 0 5 4 9 9 9 5 0 11
-17 14 -37 9 -54 32 -81 78 -93 46 -13 103 1 113 26 12 32 5 63 -19 82 -25 20
-25 23 -19 99 5 63 1 102 -20 203 -44 211 -56 317 -56 485 0 189 15 266 86
438 61 147 75 194 88 302 l12 89 74 13 c276 46 668 89 933 103 273 14 481 28
717 50 113 10 243 22 290 25 78 5 269 22 685 61 233 21 431 47 910 118 782
116 1108 152 2030 221 116 8 293 22 395 30 700 56 1074 72 1885 85 330 5 744
16 920 24 447 22 430 22 1035 24 300 1 610 -3 690 -8z"/>
<path d="M38205 26030 c-145 -19 -281 -68 -599 -217 -426 -199 -823 -348
-1031 -388 -181 -34 -411 -28 -532 15 -113 39 -230 136 -366 303 -119 145
-173 177 -306 177 -209 0 -348 -48 -951 -328 -472 -219 -504 -234 -1016 -497
-167 -86 -248 -111 -279 -85 -19 16 -21 198 -3 266 12 44 11 47 -11 65 -31 25
-47 24 -76 -6 -48 -53 -58 -92 -63 -235 -4 -129 -3 -137 20 -170 54 -79 140
-104 273 -77 61 13 137 46 368 161 379 187 654 319 1157 556 256 120 391 164
534 176 51 5 85 3 106 -6 19 -8 63 -54 119 -125 130 -164 274 -281 416 -337
161 -64 512 -64 735 -2 283 80 639 218 1040 404 315 146 403 173 590 174 115
1 115 1 180 -36 36 -20 119 -80 185 -134 66 -53 153 -119 193 -145 149 -98
353 -180 535 -215 112 -21 543 -31 675 -14 245 30 768 135 1047 210 468 126
660 162 861 162 175 1 195 -8 334 -137 213 -199 339 -243 688 -237 84 2 95 4
117 27 14 13 25 34 25 45 0 11 -11 32 -25 45 -22 23 -32 25 -107 25 -146 0
-278 30 -401 92 -32 16 -104 70 -160 121 -136 124 -174 152 -238 179 -50 20
-69 22 -234 22 -237 -1 -355 -23 -876 -163 -237 -64 -273 -72 -569 -131 -382
-76 -492 -90 -730 -90 -312 0 -465 28 -670 119 -120 53 -214 114 -350 228
-111 91 -208 154 -282 184 -62 24 -211 33 -323 19z"/>
<path d="M33172 25374 c-49 -34 -6 -105 55 -89 32 8 43 21 43 52 0 23 -34 53
-60 53 -9 0 -26 -7 -38 -16z"/>
<path d="M37150 24530 c-238 -30 -493 -130 -730 -287 -141 -93 -207 -145 -401
-310 -421 -358 -656 -525 -914 -649 -129 -63 -209 -78 -355 -69 -170 11 -258
50 -349 152 -64 72 -104 148 -186 358 -37 94 -81 196 -98 228 -44 83 -111 151
-182 184 -52 24 -72 27 -150 27 -49 -1 -117 -7 -150 -13 -71 -15 -199 -68
-305 -126 -100 -56 -706 -444 -795 -511 -84 -62 -99 -78 -120 -127 -31 -75
-10 -127 52 -127 35 0 46 11 62 61 14 43 67 82 374 278 507 322 677 401 863
401 73 0 85 -3 120 -28 51 -37 88 -107 162 -307 78 -209 93 -243 145 -323 97
-150 232 -247 394 -284 85 -19 331 -15 413 6 135 36 284 102 475 211 210 120
368 233 709 507 403 324 608 439 941 524 58 15 113 18 310 19 l240 0 95 -38
c172 -69 246 -127 427 -338 202 -236 310 -322 482 -383 160 -57 446 -58 617
-2 168 56 326 145 534 302 387 292 460 327 682 326 113 0 169 -20 303 -108 97
-64 141 -104 279 -256 207 -227 354 -302 616 -315 187 -9 323 24 735 175 298
109 411 140 570 158 77 9 152 23 167 30 49 25 51 94 5 128 -24 18 -46 21 -145
25 -182 5 -258 -13 -652 -154 -118 -43 -273 -96 -345 -118 -127 -40 -133 -41
-280 -41 -132 -1 -158 2 -218 22 -105 37 -179 93 -352 268 -169 171 -257 239
-395 308 -120 60 -166 71 -300 70 -246 -1 -371 -60 -730 -343 -229 -180 -322
-238 -490 -303 -83 -32 -88 -33 -245 -33 -139 0 -170 3 -235 24 -167 52 -233
101 -444 331 -195 213 -320 308 -514 394 -164 72 -196 78 -422 81 -113 2 -234
0 -270 -5z"/>
<path d="M19575 27094 c-49 -2 -238 -8 -420 -14 -317 -10 -563 -22 -1095 -55
-135 -8 -324 -20 -420 -25 -468 -26 -1132 -80 -1555 -125 -398 -43 -954 -110
-1170 -140 -55 -8 -165 -23 -245 -34 -476 -65 -676 -93 -760 -106 -52 -8 -156
-23 -230 -35 -74 -11 -241 -36 -370 -55 -129 -20 -365 -56 -525 -80 -159 -24
-425 -65 -590 -90 -165 -24 -345 -52 -400 -60 -55 -8 -161 -24 -235 -35 -277
-42 -408 -62 -495 -76 -49 -7 -207 -32 -350 -54 -360 -56 -1222 -197 -1485
-244 -47 -8 -164 -29 -260 -46 -96 -17 -389 -71 -650 -121 -261 -49 -524 -99
-585 -110 -229 -43 -475 -91 -610 -119 -77 -16 -252 -52 -390 -79 -423 -84
-641 -134 -1315 -296 -129 -32 -334 -81 -455 -110 -307 -75 -730 -189 -855
-232 -58 -19 -168 -62 -245 -95 -77 -33 -209 -83 -293 -110 -171 -57 -212 -83
-212 -138 0 -44 16 -69 54 -85 28 -12 36 -25 69 -112 20 -54 43 -125 52 -158
24 -90 30 -365 16 -721 -22 -557 4 -933 193 -2839 40 -396 44 -442 76 -775 45
-481 58 -625 80 -880 11 -129 27 -309 35 -400 31 -344 45 -510 55 -660 6 -85
15 -209 20 -275 5 -66 14 -217 20 -335 5 -118 19 -379 30 -580 11 -201 27
-489 35 -640 8 -151 17 -295 20 -320 3 -25 10 -128 15 -230 12 -206 47 -668
55 -715 2 -16 9 -88 15 -160 52 -653 150 -1374 290 -2140 11 -60 47 -267 80
-460 126 -740 156 -930 190 -1195 20 -157 74 -502 106 -675 38 -212 74 -463
84 -585 14 -175 30 -234 73 -260 41 -25 107 -26 138 -2 13 11 48 22 78 25 37
5 74 18 120 46 112 68 350 112 731 136 488 30 571 36 795 61 127 14 289 34
360 45 406 62 1154 166 1529 214 237 29 449 56 471 60 37 5 451 55 735 89 69
9 231 27 360 41 129 14 330 37 445 50 234 28 468 54 810 90 379 40 518 53 775
74 135 11 301 25 370 31 202 16 431 37 825 75 634 61 907 90 1535 165 96 11
234 27 305 35 72 8 229 26 350 40 121 14 258 30 305 34 47 5 148 17 225 25
128 14 581 64 915 101 74 8 234 24 355 35 121 12 355 34 520 50 337 34 537 51
930 80 732 55 1076 77 1530 100 512 25 1149 73 1348 100 238 33 425 72 887
181 255 61 482 102 665 119 61 6 132 17 159 25 136 41 268 182 311 330 16 52
17 89 12 290 -3 127 -11 289 -16 360 -6 72 -15 285 -21 475 -19 694 -33 1047
-65 1640 -16 315 -50 1061 -65 1450 -11 280 -33 728 -50 995 -6 88 -17 279
-25 425 -8 146 -24 423 -35 615 -11 193 -27 476 -35 630 -40 730 -96 1560
-135 1995 -20 223 -27 294 -95 920 -33 311 -43 418 -100 1090 -13 162 -34 399
-45 525 -42 480 -49 587 -60 825 -6 135 -15 508 -20 830 -9 539 -30 1032 -61
1390 -6 74 -10 270 -9 435 2 165 2 308 1 317 -2 24 -48 76 -85 96 -26 14 -77
18 -311 23 -161 4 -327 14 -390 23 -180 26 -524 55 -790 66 -233 11 -1729 21
-1930 14z m3235 -581 c0 -136 -8 -276 -25 -448 -22 -225 -37 -418 -65 -865 -5
-80 -12 -431 -16 -780 -7 -638 -4 -729 31 -1260 8 -118 21 -321 30 -450 33
-504 68 -904 125 -1445 40 -370 59 -572 74 -755 9 -102 27 -320 40 -485 28
-338 50 -664 101 -1495 19 -316 42 -669 50 -785 20 -285 75 -1111 115 -1750
39 -616 51 -782 70 -1025 26 -310 87 -995 100 -1120 21 -196 93 -697 150
-1045 73 -442 82 -527 83 -831 l2 -240 -30 -49 c-16 -26 -46 -61 -67 -78 -35
-28 -44 -30 -195 -43 -87 -7 -225 -27 -308 -44 -287 -57 -569 -84 -1025 -100
-151 -5 -406 -15 -566 -21 -160 -7 -298 -10 -307 -6 -13 5 -17 19 -17 54 0 26
-10 102 -21 168 -21 116 -21 129 -10 410 7 160 16 322 21 360 15 122 58 566
65 670 9 147 33 455 50 655 8 96 24 290 35 431 27 330 42 450 63 480 26 37 22
102 -9 139 -92 109 -249 89 -230 -30 5 -30 2 -39 -11 -44 -31 -12 -215 -45
-313 -55 -105 -12 -1197 -68 -1965 -101 -360 -16 -1014 -60 -1465 -100 -704
-63 -1015 -102 -1932 -240 -289 -43 -842 -121 -1218 -170 -305 -40 -509 -68
-925 -129 -392 -58 -895 -127 -1240 -171 -249 -32 -789 -106 -1025 -140 -74
-11 -292 -42 -485 -70 -192 -28 -474 -71 -625 -96 -151 -24 -318 -51 -370 -60
-197 -31 -779 -144 -1040 -200 -809 -175 -1065 -241 -1797 -460 -62 -18 -172
-47 -245 -65 -73 -17 -175 -42 -226 -55 l-93 -23 -39 25 c-58 39 -114 18 -127
-46 -4 -20 -20 -37 -54 -59 -43 -27 -49 -34 -49 -64 0 -43 21 -62 69 -60 l37
2 32 -247 c92 -688 127 -1034 152 -1503 12 -225 32 -401 65 -557 28 -132 53
-190 98 -228 24 -21 28 -27 16 -35 -8 -5 -24 -9 -36 -9 -12 0 -120 -21 -240
-46 -120 -25 -258 -52 -308 -59 -186 -28 -332 -58 -415 -85 -52 -17 -97 -26
-116 -23 l-30 5 0 606 c1 429 -3 632 -11 692 -7 47 -17 144 -23 215 -6 72 -17
186 -26 255 -8 69 -22 184 -30 255 -40 332 -65 513 -168 1175 -39 254 -93 645
-116 845 -56 490 -55 486 -91 910 -51 610 -146 2064 -184 2810 -19 369 -43
692 -86 1140 -52 557 -77 807 -104 1045 -8 74 -27 239 -41 365 -14 127 -34
302 -44 390 -11 88 -40 333 -65 545 -65 556 -84 712 -100 830 -8 58 -23 184
-35 280 -38 322 -50 423 -84 705 -19 154 -40 330 -46 390 -23 221 -87 639
-121 786 -27 121 -97 367 -111 393 -8 14 -8 21 0 24 6 2 22 12 36 23 31 24 36
82 9 111 -9 10 -14 21 -10 24 3 3 102 10 219 15 190 7 425 30 602 59 33 5 144
21 246 35 213 29 505 84 1235 230 286 57 547 109 580 115 33 6 146 27 250 46
230 42 578 104 815 145 96 16 276 48 399 70 805 143 2068 344 2916 464 99 14
338 47 530 75 193 27 481 68 640 90 160 22 364 51 455 64 91 14 318 48 505 76
611 92 806 120 1125 165 514 73 827 116 1095 150 61 8 198 25 305 39 467 60
806 95 1595 161 226 19 453 39 505 45 93 9 416 34 840 65 254 18 647 40 960
55 124 6 297 15 385 20 88 5 264 12 390 15 442 11 1353 52 1565 70 181 15 527
53 545 60 6 2 88 4 183 4 l172 1 0 -197z m-1640 -12005 c0 -7 -7 -76 -15 -153
-8 -77 -24 -261 -35 -410 -19 -246 -43 -497 -100 -1045 -33 -314 -50 -618 -50
-874 0 -248 8 -350 41 -524 11 -56 18 -106 15 -110 -3 -5 -159 -12 -348 -15
-762 -15 -1570 -58 -2548 -136 -435 -35 -570 -47 -1235 -111 -178 -17 -1976
-215 -2180 -240 -143 -18 -724 -78 -955 -100 -124 -11 -290 -27 -370 -35 -266
-27 -674 -66 -1100 -105 -232 -21 -502 -49 -720 -75 -69 -8 -206 -24 -305 -35
-245 -29 -470 -56 -715 -86 -113 -14 -331 -40 -485 -59 -154 -19 -399 -50
-545 -70 -146 -20 -312 -42 -370 -50 -58 -8 -163 -24 -235 -35 -71 -11 -231
-36 -355 -55 -312 -48 -320 -50 -1230 -220 -102 -18 -336 -63 -520 -99 -184
-37 -337 -66 -340 -66 -3 0 -5 15 -6 33 0 17 -20 76 -43 131 -48 111 -40 46
-96 791 -39 524 -64 737 -156 1340 -37 241 -42 285 -36 291 3 4 41 15 84 25
200 48 313 71 493 99 257 39 500 82 745 130 110 21 335 64 500 95 165 30 383
71 485 90 357 66 457 84 695 124 266 44 575 92 945 146 135 19 306 44 380 55
270 40 1034 141 1435 190 551 67 835 105 1790 239 352 50 822 115 1045 146
451 62 603 84 1025 149 841 130 1264 180 2125 251 168 14 404 34 525 45 121
11 315 27 430 35 493 36 805 64 1085 101 200 26 613 92 742 120 40 8 163 31
272 50 110 19 202 37 205 39 9 10 31 5 31 -7z"/>
<path d="M20675 23783 c-357 -28 -725 -64 -910 -88 -60 -8 -180 -24 -265 -35
-85 -11 -204 -27 -265 -35 -60 -8 -220 -29 -355 -45 -621 -78 -1417 -191
-2160 -309 -265 -42 -549 -95 -820 -151 -228 -48 -384 -70 -496 -70 -61 0 -94
-23 -94 -65 0 -51 26 -61 160 -68 121 -5 195 0 630 48 80 9 294 31 476 50 182
19 405 44 495 55 90 11 292 36 449 55 157 19 431 52 610 74 179 22 408 49 510
61 614 70 1093 133 1515 200 639 100 1364 150 1421 98 49 -43 124 -19 124 41
0 55 -121 133 -241 156 -152 28 -583 44 -784 28z"/>
<path d="M12520 23430 c-237 -16 -516 -49 -890 -105 -158 -24 -474 -78 -875
-151 -464 -84 -659 -123 -1400 -278 -320 -68 -599 -123 -885 -176 -91 -17
-199 -37 -240 -45 -41 -8 -187 -34 -325 -60 -250 -46 -407 -77 -585 -115 -52
-12 -126 -27 -165 -35 -281 -57 -472 -102 -758 -181 -579 -160 -644 -176 -866
-214 -88 -16 -189 -57 -208 -86 -14 -22 -14 -26 1 -49 9 -14 26 -25 37 -25 21
0 110 16 359 65 129 25 335 57 645 101 99 13 245 34 325 45 147 20 499 80 735
124 72 14 184 34 250 45 66 12 199 35 295 51 856 147 1006 175 1500 278 457
96 562 117 830 171 162 32 345 68 405 79 171 32 481 90 570 107 328 64 911
153 1205 184 107 11 236 25 285 31 50 5 251 23 448 38 318 25 367 27 433 16
93 -17 169 -42 185 -61 22 -26 27 -252 13 -544 -12 -242 -35 -527 -49 -600 -6
-29 -25 -199 -55 -475 -46 -425 -51 -536 -57 -1170 -6 -700 -2 -769 67 -1325
52 -414 79 -582 175 -1100 31 -168 72 -388 90 -490 18 -102 57 -295 85 -430
104 -497 135 -693 149 -960 12 -209 11 -217 -43 -231 -52 -14 -957 -6 -1291
11 -281 15 -847 8 -1100 -14 -453 -38 -843 -94 -1660 -235 -634 -110 -1913
-366 -2735 -546 -135 -30 -297 -64 -360 -76 -211 -39 -502 -108 -770 -183
-146 -41 -355 -97 -465 -125 -166 -42 -204 -55 -222 -76 -30 -34 -29 -70 3
-102 23 -23 31 -25 83 -20 31 4 73 13 94 22 114 47 603 146 967 195 537 72
898 134 1735 300 1665 330 2198 428 2815 519 437 65 1097 129 1490 146 74 3
293 12 485 21 193 8 487 13 655 12 291 -3 307 -2 350 18 25 11 59 37 76 56 27
30 33 47 38 105 8 81 -7 371 -28 533 -9 63 -22 185 -31 270 -24 224 -93 776
-105 835 -6 28 -17 100 -25 160 -139 1079 -130 1001 -181 1475 -46 433 -47
442 -51 1115 -5 631 5 1118 27 1385 28 340 33 450 34 715 0 252 -19 642 -40
823 -15 124 -157 181 -549 217 -198 19 -741 28 -925 15z"/>
<path d="M20040 22374 c-36 -2 -164 -8 -285 -14 -514 -26 -1193 -108 -1810
-220 -60 -11 -256 -45 -435 -75 -319 -55 -493 -85 -847 -145 -98 -17 -243 -42
-323 -56 -80 -13 -208 -36 -285 -50 -279 -51 -383 -65 -533 -71 -130 -5 -157
-9 -178 -25 -29 -23 -31 -48 -6 -78 16 -19 30 -22 137 -27 81 -4 160 -1 245
10 148 19 285 32 550 52 107 8 285 21 395 30 462 34 812 78 1490 186 793 126
1595 209 2650 274 138 8 327 22 421 31 171 15 212 13 249 -12 26 -19 70 -18
89 2 25 24 20 71 -10 99 -74 69 -254 86 -929 89 -286 2 -549 2 -585 0z"/>
<path d="M5166 21958 c-10 -13 -16 -44 -16 -74 0 -28 -4 -74 -10 -103 -5 -28
-17 -111 -27 -184 -24 -180 -24 -776 0 -1097 25 -341 36 -591 47 -1085 6 -247
14 -549 20 -670 24 -543 31 -679 40 -810 5 -77 14 -219 20 -315 25 -416 88
-1035 140 -1370 12 -74 36 -247 55 -385 19 -137 53 -349 76 -470 22 -121 45
-263 50 -315 16 -149 50 -311 71 -332 23 -23 60 -23 88 0 22 18 22 19 11 158
-6 76 -16 254 -21 394 -5 140 -18 359 -29 485 -11 127 -27 331 -36 455 -8 124
-22 306 -30 405 -15 185 -41 528 -50 670 -3 44 -12 172 -20 285 -8 113 -17
250 -20 305 -3 55 -9 177 -15 270 -10 178 -30 630 -55 1265 -13 337 -36 708
-50 815 -3 22 -14 128 -25 235 -11 107 -29 279 -40 382 -10 103 -22 263 -25
355 -4 93 -15 255 -26 361 -10 106 -19 218 -19 250 0 65 -14 122 -32 134 -24
15 -57 8 -72 -14z"/>
<path d="M20290 20790 c-765 -37 -1126 -61 -1560 -106 -841 -86 -1652 -230
-2475 -440 -319 -81 -409 -99 -577 -115 -110 -10 -147 -10 -193 0 -51 12 -58
11 -76 -5 -30 -27 -21 -71 21 -105 61 -49 140 -63 360 -63 194 0 197 0 560 62
201 34 460 80 575 102 742 139 1568 253 2275 315 360 31 681 55 860 65 420 24
1139 76 1170 85 8 2 60 9 115 14 123 12 171 26 201 56 32 32 32 87 1 119 -22
22 -28 23 -317 29 -391 9 -498 8 -940 -13z"/>
<path d="M22270 19190 c-14 -4 -176 -10 -360 -14 -337 -7 -1019 -30 -1205 -41
-382 -23 -1111 -94 -1780 -175 -306 -36 -589 -68 -665 -75 -41 -3 -138 -13
-215 -20 -135 -14 -381 -36 -775 -70 -279 -24 -659 -62 -909 -90 -317 -36
-498 -53 -652 -61 -167 -8 -307 -35 -331 -65 -10 -12 -18 -31 -18 -44 0 -44
30 -64 125 -85 134 -29 361 -27 810 9 204 17 501 40 660 51 1145 82 1274 92
1890 156 132 14 305 31 385 39 583 57 1349 138 1715 180 121 14 319 34 440 46
273 25 488 52 670 84 76 14 166 25 200 26 77 0 175 35 191 67 14 28 7 60 -15
71 -24 12 -132 20 -161 11z"/>
<path d="M19535 17790 c-738 -27 -1468 -99 -2235 -221 -349 -55 -342 -54 -800
-139 -189 -35 -379 -65 -455 -70 -245 -19 -287 -27 -313 -56 -17 -20 -22 -34
-17 -53 14 -56 38 -64 230 -82 261 -23 712 12 1470 116 542 74 1156 136 1780
180 327 23 1026 51 1600 65 226 6 484 15 575 21 91 5 260 14 375 19 262 12
353 24 379 49 26 26 25 76 -2 103 -23 24 -111 33 -427 43 -82 3 -213 9 -290
15 -180 14 -1568 21 -1870 10z"/>
<path d="M21100 16860 c-107 -4 -235 -12 -285 -18 -49 -6 -200 -14 -335 -17
-853 -21 -1371 -51 -2040 -121 -129 -13 -347 -35 -485 -49 -840 -85 -1390
-149 -1708 -199 -228 -36 -382 -48 -539 -40 -119 6 -141 5 -163 -10 -46 -31
-30 -98 30 -121 28 -11 404 -34 560 -34 162 -1 771 31 1205 63 179 14 370 27
425 31 172 10 664 54 1075 95 471 47 536 52 1060 85 223 13 482 29 575 35 94
6 238 11 320 11 83 -1 301 8 485 20 184 11 404 24 489 28 l153 7 34 37 c27 29
34 45 34 76 0 48 -36 95 -83 109 -43 14 -563 21 -807 12z"/>
<path d="M19910 13605 c-277 -149 -450 -202 -867 -264 -70 -11 -73 -10 -97 14
-20 20 -31 24 -58 18 -41 -7 -67 -20 -95 -46 -20 -18 -54 -23 -255 -43 -271
-26 -452 -46 -743 -80 -115 -14 -268 -32 -340 -40 -71 -9 -258 -33 -415 -55
-157 -22 -369 -51 -471 -64 -254 -34 -416 -62 -884 -156 -220 -44 -446 -84
-503 -89 -65 -5 -111 -14 -127 -24 -46 -30 -45 -102 1 -133 23 -15 40 -15 172
-6 92 7 151 7 157 1 6 -5 12 -151 16 -371 7 -362 11 -418 50 -577 28 -118 55
-164 97 -168 36 -4 60 11 72 42 6 17 33 25 171 53 301 60 441 82 794 123 440
50 855 103 1414 180 1098 151 1627 211 2016 231 231 11 272 21 289 72 15 42
-3 78 -59 114 -33 21 -54 44 -62 65 -17 46 -16 155 3 370 21 237 15 505 -15
630 -53 230 -118 280 -261 203z m105 -137 c7 -18 21 -80 30 -138 15 -86 17
-136 11 -285 -4 -99 -12 -225 -19 -280 l-12 -100 -37 -3 c-29 -2 -44 -11 -62
-35 -47 -63 -106 -202 -106 -250 0 -20 7 -31 25 -39 44 -20 67 0 98 89 29 81
51 123 67 123 4 0 10 -44 13 -97 2 -54 8 -108 12 -120 7 -23 7 -23 -101 -23
-402 -1 -976 -32 -1274 -69 -210 -27 -651 -87 -837 -114 -151 -23 -153 -23
-153 -3 0 40 86 205 175 336 346 510 396 577 452 598 32 12 334 55 341 48 2
-3 -43 -76 -100 -163 -195 -297 -293 -487 -286 -553 4 -31 44 -53 70 -39 11 6
45 65 77 132 39 82 116 209 236 387 l177 265 132 26 c72 15 143 30 159 34 15
4 27 4 27 0 0 -3 -47 -66 -105 -139 -146 -186 -279 -389 -366 -559 -65 -129
-72 -148 -64 -173 11 -30 32 -39 69 -30 16 4 31 26 56 82 68 154 340 547 529
762 31 35 63 75 71 90 9 14 27 29 40 33 214 64 453 149 530 189 52 27 99 49
103 49 4 1 14 -14 22 -31z m-1941 -450 c-4 -7 -89 -134 -189 -283 -269 -399
-306 -464 -332 -576 -8 -39 -21 -72 -27 -75 -6 -2 -67 -13 -136 -23 -194 -30
-588 -99 -758 -132 -85 -17 -157 -28 -160 -24 -11 10 62 148 149 279 199 304
436 557 568 607 92 34 110 62 70 106 -17 17 -19 24 -8 27 21 8 235 36 271 36
l31 0 -50 -52 c-62 -66 -157 -208 -306 -459 -119 -198 -157 -282 -157 -342 0
-92 83 -95 115 -4 42 121 109 244 237 437 159 239 201 289 297 354 39 26 72
53 73 59 0 7 1 19 2 27 1 11 30 19 116 31 148 21 204 23 194 7z m-948 -128
c-151 -75 -348 -281 -561 -585 -82 -118 -188 -319 -206 -391 -13 -49 0 -42
-164 -83 -81 -19 -271 -60 -490 -105 -66 -13 -123 -21 -126 -17 -9 8 -38 190
-41 254 -3 48 -2 49 31 60 32 11 36 18 56 83 29 95 72 169 201 349 90 126 195
275 198 282 2 3 428 73 448 73 14 0 -3 -26 -69 -102 -108 -126 -186 -235 -288
-398 -43 -69 -90 -144 -106 -168 -59 -92 -121 -276 -106 -316 8 -21 31 -30 61
-22 17 4 30 21 46 63 105 262 347 621 575 849 94 94 112 104 196 104 36 0 63
16 71 41 2 7 66 21 154 34 191 29 190 29 120 -5z m-1266 -186 c0 -3 -55 -82
-122 -177 -67 -94 -137 -196 -155 -226 -18 -30 -38 -60 -43 -65 -15 -15 -13
270 2 312 11 28 10 38 -5 64 -9 16 -17 35 -17 41 0 8 51 20 143 33 154 23 197
27 197 18z"/>
<path d="M19570 13272 c-65 -29 -177 -164 -317 -382 -87 -135 -183 -318 -183
-348 0 -24 31 -52 58 -52 27 0 51 33 148 205 108 193 235 371 325 456 54 50
61 77 29 109 -21 21 -34 23 -60 12z"/>
<path d="M19866 13194 c-26 -26 -71 -96 -96 -149 -13 -27 -52 -101 -88 -163
-104 -183 -185 -360 -178 -388 7 -27 46 -47 71 -38 25 10 69 81 161 261 142
276 194 375 209 397 20 28 19 60 -3 79 -23 21 -56 22 -76 1z"/>
<path d="M27525 25638 c-38 -5 -125 -10 -192 -12 -121 -2 -123 -3 -205 -44
-104 -51 -143 -87 -158 -143 -7 -24 -30 -80 -53 -124 -47 -94 -46 -129 3 -147
17 -5 30 -12 30 -15 0 -3 -37 -44 -82 -92 -98 -102 -355 -400 -420 -486 -92
-122 -192 -284 -259 -420 -122 -249 -164 -418 -180 -724 -11 -217 -7 -320 22
-489 42 -251 98 -421 219 -664 69 -138 133 -235 234 -355 259 -310 551 -479
946 -549 151 -27 708 -27 850 -1 264 50 536 144 748 259 377 204 635 384 854
596 212 206 340 379 448 605 104 218 153 408 170 652 24 337 -27 587 -177 875
-260 499 -578 760 -1193 980 -385 138 -877 262 -1190 300 -99 12 -315 11 -415
-2z m232 -258 c246 -42 628 -159 1133 -345 620 -229 833 -376 1070 -735 77
-118 99 -162 140 -275 46 -131 60 -218 60 -378 0 -238 -39 -405 -140 -608
-128 -256 -301 -456 -569 -658 -373 -280 -764 -483 -1093 -566 -164 -42 -284
-55 -521 -55 -290 0 -429 21 -622 94 -258 98 -505 318 -678 603 -79 129 -176
411 -213 618 -14 77 -18 154 -18 335 0 267 11 342 85 565 117 353 413 801 753
1140 181 180 253 225 367 225 48 0 69 13 69 42 0 24 27 23 177 -2z m-677 -99
c0 -12 -71 -74 -77 -67 -11 10 39 76 58 76 10 0 19 -4 19 -9z"/>
<path d="M28791 24017 c-38 -19 -60 -57 -72 -121 -13 -75 -5 -122 28 -152 28
-26 79 -32 113 -14 16 8 53 59 97 134 14 22 9 65 -9 103 -7 14 -33 31 -65 43
-63 23 -61 23 -92 7z"/>
<path d="M27367 23979 c-59 -39 -124 -120 -138 -172 -23 -85 20 -157 93 -157
49 0 82 17 133 69 21 23 45 41 52 41 35 0 61 102 43 168 -22 84 -100 106 -183
51z"/>
<path d="M28215 23223 c-234 -30 -485 -113 -760 -250 -213 -107 -315 -185
-315 -240 0 -34 49 -80 95 -89 34 -6 54 2 214 84 282 144 511 226 731 261 36
6 139 11 230 11 156 0 168 -2 220 -26 74 -34 160 -100 160 -123 0 -34 59 -137
85 -149 67 -31 118 1 135 84 7 31 9 66 6 80 -11 44 -113 190 -163 232 -55 48
-168 106 -233 121 -42 10 -339 13 -405 4z"/>
<path d="M39459 19889 c-307 -11 -705 -42 -1334 -104 -1216 -120 -1483 -146
-1570 -155 -55 -6 -302 -31 -550 -55 -247 -25 -596 -61 -775 -80 -179 -19
-437 -46 -575 -60 -664 -67 -1058 -115 -1285 -156 -91 -17 -228 -41 -305 -54
-77 -13 -234 -47 -350 -75 -528 -127 -606 -153 -689 -236 -47 -47 -64 -98 -76
-234 -32 -370 -74 -555 -188 -835 l-49 -120 -50 -11 c-59 -13 -243 -109 -373
-194 -132 -87 -179 -108 -255 -116 -75 -8 -105 -27 -105 -69 0 -47 40 -72 125
-77 40 -3 40 -3 37 -41 -8 -91 50 -120 308 -153 159 -20 202 -29 276 -59 100
-40 136 -43 164 -15 49 49 32 108 -46 152 -61 34 -265 82 -414 98 -138 14
-196 37 -140 55 11 4 66 37 123 74 160 105 216 137 299 170 l78 31 46 -25 c88
-47 170 -26 162 42 -2 22 -12 33 -51 51 -48 23 -49 24 -42 59 4 20 26 75 50
122 113 226 166 432 200 771 9 85 18 165 22 178 11 44 69 77 213 117 229 64
355 79 870 105 124 6 365 24 535 40 436 42 617 58 795 70 85 6 232 17 325 25
94 9 249 22 345 31 96 8 267 24 380 34 113 11 282 26 375 35 599 54 970 87
1180 105 132 11 312 27 400 35 88 8 214 19 280 25 66 6 237 22 380 35 833 78
1121 94 1880 105 703 11 906 6 1239 -30 100 -11 192 -22 206 -25 14 -3 144
-19 290 -35 328 -38 825 -119 1025 -165 325 -77 650 -176 683 -209 24 -24 16
-107 -21 -218 -60 -177 -455 -1074 -642 -1453 -187 -380 -301 -562 -434 -695
-123 -122 -199 -150 -406 -150 -103 1 -133 5 -390 58 -180 37 -532 77 -820 93
-310 17 -1198 6 -1655 -20 -201 -11 -491 -27 -645 -36 -154 -8 -395 -22 -535
-30 -140 -8 -300 -17 -355 -20 -505 -29 -1145 -81 -1785 -146 -699 -70 -873
-90 -1995 -229 -515 -64 -633 -75 -1020 -101 -398 -26 -747 -28 -935 -4 -74 9
-138 20 -142 23 -4 4 -1 32 7 62 14 52 36 232 50 403 l7 77 32 0 c63 0 80 46
50 133 -28 84 -99 119 -163 81 -66 -39 -94 -125 -136 -419 -31 -216 -43 -263
-90 -335 -19 -30 -35 -63 -35 -73 0 -36 31 -85 64 -101 53 -25 378 -59 596
-62 107 -1 387 -6 621 -10 639 -11 1002 10 2804 160 297 25 574 48 615 51 41
3 215 17 385 30 171 14 477 36 680 50 204 14 453 32 555 40 102 8 356 26 565
40 209 14 472 32 585 40 707 52 1003 66 1640 76 714 12 982 9 1220 -17 181
-19 411 -14 504 11 209 56 396 247 601 615 106 190 359 732 569 1220 54 124
118 272 143 329 25 58 66 161 91 230 43 118 46 132 46 231 1 97 -1 108 -27
152 -38 66 -90 93 -275 144 -86 25 -220 62 -297 84 -77 21 -185 51 -240 65
-101 27 -214 60 -470 140 -496 154 -797 218 -1290 275 -296 35 -1150 49 -1696
29z"/>
<path d="M27335 19411 c-173 -10 -268 -24 -410 -61 -60 -15 -136 -31 -168 -35
-129 -15 -361 -116 -541 -236 -152 -101 -373 -290 -382 -326 -4 -14 -1 -42 6
-63 l13 -39 -59 -73 c-32 -40 -84 -103 -115 -139 -401 -472 -622 -950 -669
-1444 -12 -137 -13 -365 0 -465 50 -388 301 -904 628 -1295 107 -127 421 -438
520 -515 316 -245 665 -396 1022 -442 141 -18 635 -18 748 0 685 108 1605 612
2042 1119 358 414 567 844 657 1349 26 149 28 176 28 439 0 310 -6 353 -71
553 -88 271 -264 536 -511 772 -280 268 -547 441 -943 610 -357 153 -671 235
-1048 275 -167 18 -557 26 -747 16z m390 -301 c192 -14 441 -44 575 -71 408
-81 880 -273 1198 -487 150 -100 203 -143 335 -272 279 -270 419 -505 486
-813 17 -78 21 -131 21 -276 0 -226 -13 -351 -55 -516 -117 -468 -422 -942
-815 -1270 -277 -230 -705 -484 -1025 -608 -150 -58 -383 -129 -495 -150 -181
-35 -457 -46 -665 -27 -409 37 -719 168 -1061 448 -110 89 -308 293 -416 428
-239 297 -451 731 -503 1030 -29 168 -15 529 30 744 79 382 255 741 570 1165
234 315 296 385 376 425 72 37 308 130 419 166 47 15 105 36 130 47 102 44
225 57 495 52 138 -2 318 -9 400 -15z"/>
<path d="M28825 17568 c-47 -27 -113 -90 -117 -113 -6 -31 33 -119 57 -128 30
-12 71 -7 89 11 16 16 39 48 86 117 48 71 -39 156 -115 113z"/>
<path d="M26422 17405 c-12 -15 -30 -25 -46 -25 -14 0 -40 -13 -58 -29 -27
-24 -32 -36 -36 -87 -8 -119 34 -194 111 -194 83 0 147 108 147 250 0 82 -17
110 -65 110 -24 0 -39 -7 -53 -25z"/>
<path d="M28870 16093 c-25 -2 -88 -10 -140 -18 -52 -8 -174 -24 -270 -35
-230 -28 -768 -120 -995 -171 -207 -46 -397 -61 -505 -40 -55 11 -64 10 -81
-5 -26 -23 -24 -73 4 -115 39 -58 62 -64 247 -64 153 0 178 3 340 38 672 145
907 175 1565 197 334 12 391 21 433 66 48 53 13 115 -78 139 -41 11 -109 14
-265 13 -115 -1 -230 -3 -255 -5z"/>
<path d="M38660 18569 c-144 -16 -498 -81 -815 -150 -692 -150 -967 -196
-1245 -209 -411 -20 -619 13 -1138 180 -281 91 -297 94 -480 93 -393 -3 -639
-94 -1202 -443 -113 -70 -215 -133 -228 -139 l-23 -12 16 31 c18 36 12 65 -16
81 -28 15 -56 3 -112 -50 -159 -148 -58 -295 138 -203 33 16 161 91 285 167
593 363 777 435 1114 435 168 0 190 -5 498 -106 482 -157 593 -177 993 -178
334 -1 345 0 768 75 307 54 339 61 702 148 267 63 552 122 700 143 52 7 187
13 320 13 294 0 342 -9 825 -165 407 -132 460 -140 911 -140 360 0 448 9 779
76 169 34 296 51 475 64 133 9 152 12 168 31 22 28 22 44 -3 69 -18 18 -33 20
-137 20 -153 0 -297 -18 -628 -77 l-270 -48 -325 0 c-435 0 -518 13 -905 138
-220 71 -432 127 -570 151 -99 17 -458 20 -595 5z"/>
<path d="M36104 17750 c-44 -10 -333 -102 -641 -204 -674 -223 -832 -266
-1023 -275 -114 -6 -142 -11 -180 -30 -54 -29 -69 -47 -70 -84 0 -32 39 -77
67 -77 10 0 52 11 93 24 41 13 178 50 304 81 154 38 374 104 680 206 688 229
857 273 980 255 61 -9 110 -58 180 -177 110 -188 139 -229 192 -283 111 -111
242 -167 434 -187 132 -13 314 -6 419 16 223 47 636 198 1167 428 176 76 396
134 594 156 156 18 391 23 476 12 80 -11 264 -69 414 -129 101 -40 279 -79
419 -91 66 -6 228 -8 384 -4 244 6 272 8 289 25 23 23 23 63 0 86 -17 17 -44
19 -253 25 -459 13 -619 38 -883 141 -267 105 -299 110 -590 103 -417 -11
-645 -64 -1065 -249 -444 -195 -722 -303 -897 -348 -106 -28 -129 -30 -290
-30 -200 0 -293 15 -392 61 -88 42 -177 129 -236 230 -123 212 -202 303 -283
327 -57 17 -194 13 -289 -8z"/>
<path d="M37630 15033 c-63 -1 -207 -7 -320 -13 -113 -6 -347 -17 -520 -25
-586 -28 -937 -62 -1480 -145 -107 -16 -328 -50 -490 -75 -162 -24 -504 -72
-760 -105 -762 -99 -864 -115 -1175 -181 -467 -100 -640 -141 -1055 -249 -146
-38 -346 -89 -446 -113 -202 -50 -236 -64 -264 -110 -23 -37 -25 -79 -8 -193
9 -64 9 -111 -1 -215 -7 -74 -15 -165 -18 -202 l-6 -68 -72 -33 c-81 -37 -207
-120 -341 -224 -72 -56 -97 -82 -118 -123 -14 -29 -26 -63 -26 -75 0 -29 34
-70 65 -78 25 -6 85 17 85 32 0 5 6 16 13 26 13 17 16 17 38 3 45 -29 329 -87
428 -87 39 0 81 38 81 73 0 52 -26 67 -150 83 -112 14 -221 38 -249 53 -21 12
216 192 243 185 13 -3 30 3 44 16 l23 21 33 -20 c42 -26 66 -26 94 -1 28 26
28 63 1 106 -17 29 -20 44 -15 97 3 34 9 159 12 278 l6 217 86 17 c48 9 154
34 237 55 171 44 406 84 780 135 143 19 319 44 390 54 72 11 166 22 210 26 44
3 188 19 320 35 415 50 1001 118 1425 165 213 24 502 66 835 120 494 81 823
103 2005 135 206 5 548 17 760 26 439 19 1169 14 1535 -11 116 -8 265 -17 333
-21 67 -3 125 -10 127 -15 7 -10 -22 -94 -111 -336 -35 -94 -86 -247 -114
-340 -172 -573 -280 -810 -426 -929 -87 -72 -116 -77 -419 -82 -195 -3 -317 1
-440 12 -502 47 -964 66 -1580 66 -745 0 -1140 -23 -1955 -115 -168 -19 -411
-46 -540 -60 -243 -26 -637 -79 -865 -115 -231 -36 -277 -46 -920 -205 -388
-96 -506 -115 -713 -115 -170 -1 -219 -9 -276 -50 -22 -16 -70 -40 -106 -54
-36 -13 -99 -40 -140 -60 -69 -33 -81 -36 -166 -36 -87 0 -92 1 -98 23 -3 12
-6 131 -6 265 l0 243 -40 121 c-22 67 -47 129 -56 140 -22 23 -56 23 -77 0
-22 -24 -21 -37 3 -124 11 -39 24 -128 30 -198 10 -114 9 -140 -10 -260 -28
-169 -25 -271 8 -318 40 -56 71 -66 222 -70 115 -3 144 -1 195 16 84 28 271
106 325 135 40 22 61 25 200 31 85 3 182 10 215 16 33 6 182 21 330 35 149 14
329 31 400 40 72 8 189 19 260 25 122 10 242 23 645 70 91 11 246 29 345 40
169 20 296 36 875 109 367 47 785 86 1235 116 127 8 250 18 275 21 25 3 540 9
1145 15 1777 15 1620 12 1695 37 167 55 307 195 418 417 55 111 150 366 236
637 31 97 79 239 107 315 173 469 195 574 142 677 -43 85 -93 108 -243 113
-329 10 -597 26 -795 49 -558 63 -804 85 -1143 99 -330 14 -454 15 -762 8z"/>
<path d="M38764 14481 c-34 -21 -78 -74 -118 -142 -32 -56 -76 -182 -76 -219
0 -15 -7 -49 -15 -76 -23 -75 -11 -180 26 -216 20 -20 37 -28 64 -28 60 0 90
39 99 128 4 40 4 81 1 92 -7 22 59 195 99 258 14 22 43 55 65 72 22 18 42 43
45 56 7 28 -16 79 -39 88 -35 13 -120 6 -151 -13z"/>
<path d="M35945 13983 c-16 -2 -91 -17 -165 -33 -74 -16 -252 -53 -395 -82
-258 -53 -261 -53 -445 -53 l-185 0 -118 48 c-142 57 -188 67 -324 67 -213 0
-355 -29 -626 -128 -125 -45 -841 -403 -1147 -574 -236 -131 -310 -168 -399
-199 -87 -31 -118 -22 -66 19 38 30 39 83 2 99 -27 13 -90 -10 -119 -43 -48
-54 -62 -153 -28 -196 25 -32 96 -52 159 -45 113 13 235 68 636 287 194 105
787 404 915 460 102 44 341 124 425 141 33 7 128 12 210 13 l150 0 90 -38
c226 -96 199 -90 410 -91 l190 0 250 53 c138 29 322 68 410 87 199 43 237 49
270 41 15 -4 74 -55 133 -115 77 -77 123 -115 164 -134 73 -35 176 -49 265
-38 107 14 141 29 333 146 151 92 212 107 495 125 201 12 242 21 251 54 3 13
1 33 -5 44 -9 17 -26 21 -143 28 -197 11 -364 7 -447 -10 -73 -15 -145 -48
-347 -155 -91 -48 -109 -54 -178 -59 -114 -7 -149 10 -276 133 -58 56 -125
112 -150 125 -45 23 -132 33 -195 23z"/>
<path d="M28225 13754 c-76 -28 -77 -29 -310 -103 -88 -28 -216 -76 -285 -107
-69 -30 -149 -64 -177 -74 -98 -35 -181 -106 -247 -210 -40 -62 -45 -99 -18
-123 34 -31 70 -21 129 33 51 47 113 88 113 75 0 -3 -19 -22 -42 -42 -117
-102 -287 -278 -347 -358 -180 -239 -243 -416 -245 -685 -1 -163 9 -211 71
-334 138 -277 350 -475 668 -627 242 -116 445 -164 750 -180 413 -20 651 11
945 125 383 149 729 444 883 751 84 169 117 318 117 531 0 146 -19 255 -67
384 -140 374 -384 639 -723 782 -215 91 -373 124 -760 158 -63 5 -137 14 -165
19 -99 19 -214 13 -290 -15z m345 -259 c74 -3 140 -11 147 -16 7 -6 29 -8 51
-4 21 3 85 -1 142 -10 426 -67 707 -226 892 -505 68 -104 96 -159 139 -275 32
-88 33 -94 33 -245 0 -111 -5 -174 -17 -222 -58 -236 -243 -462 -534 -652
-163 -107 -344 -180 -561 -227 -122 -26 -508 -38 -671 -20 -395 43 -701 178
-921 407 -153 159 -210 264 -218 402 -22 398 216 766 795 1229 108 86 121 93
190 109 96 21 295 43 353 38 25 -2 106 -6 180 -9z"/>
<path d="M28954 13072 c-30 -19 -94 -182 -94 -240 0 -35 43 -72 83 -72 72 0
97 52 97 199 0 65 -4 88 -16 103 -17 18 -50 23 -70 10z"/>
<path d="M27557 12822 c-28 -30 -21 -74 16 -110 39 -38 207 -112 253 -112 23
0 38 8 53 26 42 53 19 105 -59 134 -19 7 -66 28 -104 47 -79 37 -134 43 -159
15z"/>
<path d="M28989 12730 c-64 -11 -88 -26 -105 -66 -12 -29 -12 -39 0 -66 18
-44 55 -76 94 -84 26 -5 36 -1 60 23 17 16 42 37 56 47 55 35 52 112 -5 141
-30 16 -32 16 -100 5z"/>
<path d="M27674 12484 c-59 -29 -71 -98 -25 -145 27 -27 35 -29 105 -29 70 0
78 2 111 31 27 24 35 39 35 64 0 51 -26 74 -95 85 -79 13 -94 12 -131 -6z"/>
<path d="M28449 12020 c-74 -9 -169 -54 -287 -137 -53 -36 -117 -75 -142 -86
-95 -41 -116 -93 -60 -149 27 -27 34 -29 73 -23 50 8 129 45 256 120 197 118
269 112 434 -32 50 -45 105 -46 148 -4 33 34 40 91 14 128 -21 30 -174 140
-227 162 -53 23 -134 31 -209 21z"/>
<path d="M38533 13654 c-48 -24 -65 -68 -57 -154 11 -113 66 -160 147 -126 46
19 54 37 63 127 8 88 -7 129 -56 154 -36 19 -57 19 -97 -1z"/>
</g>
</svg>
