<?xml version="1.0" standalone="no"?>
<!DOCTYPE svg PUBLIC "-//W3C//DTD SVG 20010904//EN"
 "http://www.w3.org/TR/2001/REC-SVG-20010904/DTD/svg10.dtd">
<svg version="1.0" xmlns="http://www.w3.org/2000/svg"
 width="5996.000000pt" height="3543.000000pt" viewBox="0 0 5996.000000 3543.000000"
 preserveAspectRatio="xMidYMid meet">
<metadata>
Created by potrace 1.16, written by Peter Selinger 2001-2019
</metadata>
<g transform="translate(0.000000,3543.000000) scale(0.100000,-0.100000)"
fill="#000000" stroke="none">
<path d="M0 17715 l0 -17715 29980 0 29980 0 0 17715 0 17715 -29980 0 -29980
0 0 -17715z m31246 17321 c29 -29 34 -41 34 -80 0 -41 -7 -55 -88 -162 l-89
-116 20 -67 c20 -64 21 -103 27 -1191 3 -619 3 -1195 -1 -1281 -8 -170 -26
-264 -63 -337 -29 -56 -93 -132 -130 -151 -14 -8 -26 -18 -26 -23 0 -4 37 -8
83 -8 l82 0 125 103 c137 111 365 269 460 317 194 98 393 72 460 -60 28 -54
90 -249 90 -281 0 -43 -40 -83 -83 -83 -51 0 -73 25 -101 118 -14 44 -33 92
-42 105 -16 22 -22 23 -83 19 -77 -6 -108 -20 -246 -113 -81 -55 -249 -181
-288 -215 -5 -5 12 -33 37 -64 96 -119 116 -186 123 -416 7 -252 -36 -1164
-72 -1530 -9 -87 -17 -171 -18 -185 -2 -25 4 -29 88 -59 154 -56 195 -77 210
-107 27 -52 11 -110 -36 -135 -38 -19 -43 -18 -166 16 -124 35 -149 37 -162
11 -9 -16 -6 -19 21 -25 17 -3 59 -6 93 -6 130 0 250 -62 296 -151 44 -87 47
-319 9 -709 -27 -277 -43 -542 -50 -825 -6 -256 -11 -318 -25 -358 -13 -36
-14 -52 -6 -60 6 -6 11 -30 11 -52 0 -43 -19 -69 -67 -94 -17 -9 -23 -21 -23
-44 0 -56 -116 -215 -258 -352 -57 -55 -108 -107 -113 -116 -7 -15 7 -20 114
-39 338 -61 516 -126 601 -220 96 -107 96 -212 0 -594 -81 -323 -140 -652
-204 -1146 -21 -157 -28 -392 -20 -645 7 -229 10 -268 30 -325 27 -81 49 -112
108 -152 64 -44 90 -74 102 -117 20 -74 -34 -160 -112 -175 -36 -6 -53 -3
-274 63 -85 24 -199 49 -285 61 -78 11 -189 29 -246 40 -122 24 -273 37 -273
24 0 -5 99 -78 220 -162 121 -85 225 -163 231 -174 47 -87 20 -181 -65 -225
-59 -31 -110 -15 -255 81 -192 126 -438 295 -576 398 l-119 88 -96 0 c-194 -1
-341 -17 -790 -85 -300 -46 -386 -55 -575 -55 l-160 0 -80 -123 c-188 -290
-273 -438 -326 -570 -29 -72 -59 -142 -67 -155 -21 -33 -64 -52 -117 -52 -37
0 -52 6 -81 33 -30 28 -37 42 -41 83 -5 46 0 61 59 179 36 72 125 255 198 409
l134 278 -30 21 c-117 82 -201 233 -254 456 -52 219 -74 353 -86 539 l-7 102
-65 0 c-35 0 -110 -7 -166 -15 -55 -8 -138 -19 -182 -25 -158 -21 -504 -120
-617 -177 -40 -20 -46 -27 -37 -39 18 -21 40 -17 61 10 11 14 36 30 55 36 58
20 104 0 184 -78 72 -71 85 -99 111 -234 7 -33 13 -492 18 -1250 5 -898 10
-1201 19 -1210 8 -8 21 -9 49 0 56 16 167 38 353 68 211 35 407 38 449 7 43
-32 54 -66 37 -107 -8 -19 -23 -39 -33 -45 -11 -5 -78 -15 -149 -21 -201 -17
-349 -38 -474 -66 -144 -33 -186 -47 -183 -62 2 -6 -4 -30 -13 -51 -14 -35
-14 -58 -4 -190 6 -83 9 -164 5 -180 -4 -21 4 -57 30 -128 131 -349 213 -765
260 -1328 13 -161 27 -548 34 -996 5 -273 12 -502 16 -509 6 -10 56 -12 234
-7 242 7 360 21 550 63 114 25 122 26 146 10 32 -21 35 -74 5 -101 -45 -41
-568 -151 -774 -162 l-138 -8 -3 -42 c-4 -52 -33 -95 -79 -117 -42 -20 -67
-20 -110 -2 -43 18 -75 60 -83 108 -8 54 -25 68 -85 68 -28 0 -86 10 -128 21
l-78 22 -35 -22 c-43 -26 -57 -26 -91 0 -34 27 -34 67 0 125 51 88 132 115
234 79 24 -8 68 -18 98 -22 l55 -6 -7 429 c-17 1065 -42 1395 -147 1919 -41
203 -95 395 -113 400 -6 2 -54 16 -106 33 -52 17 -112 33 -134 36 -50 7 -659
-11 -836 -24 -133 -10 -453 -47 -664 -76 -117 -16 -552 -68 -704 -84 -52 -6
-152 -10 -223 -11 l-129 0 0 -247 c0 -507 47 -861 139 -1057 61 -131 134 -231
256 -350 61 -60 117 -120 123 -132 30 -56 0 -151 -58 -180 -39 -20 -105 -15
-168 11 -78 33 -570 199 -712 241 -334 98 -838 191 -1170 216 -74 6 -641 14
-1260 19 -781 5 -1140 11 -1175 19 -194 44 -333 188 -414 428 -71 214 -74 238
-78 768 -3 359 -7 481 -16 487 -73 46 -343 31 -947 -52 -405 -55 -405 -55
-820 -54 -217 1 -492 5 -610 10 -186 9 -221 13 -255 30 -80 41 -107 112 -108
281 l-1 111 -78 7 c-148 13 -750 -11 -1123 -45 -367 -34 -586 -64 -758 -104
-56 -14 -142 -30 -192 -36 -49 -6 -200 -27 -335 -46 -135 -19 -299 -38 -365
-44 -203 -17 -215 -19 -215 -44 0 -56 113 -583 211 -986 123 -503 139 -569
173 -740 57 -291 105 -658 151 -1180 9 -91 19 -208 25 -260 20 -206 33 -682
21 -770 -14 -110 -53 -190 -124 -257 -151 -143 -357 -185 -1092 -223 -110 -6
-211 -12 -225 -15 -14 -2 -95 -9 -180 -15 -329 -23 -880 -89 -1290 -156 -151
-24 -607 -113 -1595 -311 -747 -149 -850 -169 -1325 -247 -624 -104 -1005
-159 -1360 -195 -653 -67 -627 -66 -1205 -65 -461 0 -553 3 -632 17 -359 65
-549 256 -391 391 56 48 135 76 245 88 115 13 160 5 175 -28 23 -49 1 -67
-128 -108 -106 -34 -116 -40 -100 -52 42 -30 128 -39 366 -37 393 3 713 25
1095 74 704 90 916 124 1990 324 271 51 479 91 695 136 473 98 874 178 990
199 852 149 1194 197 1775 251 170 16 347 22 785 29 383 5 620 13 735 24 264
25 425 65 482 118 39 36 47 103 39 328 -11 334 -47 789 -86 1083 -50 375 -143
814 -288 1352 -142 528 -210 870 -341 1710 -11 72 -34 216 -50 320 -17 105
-49 318 -71 475 -52 359 -124 830 -150 980 -61 347 -63 364 -69 800 -5 314 -9
421 -19 438 -19 33 -96 79 -169 102 -56 17 -209 41 -358 55 -82 7 -1100 -30
-1480 -55 -390 -26 -719 -54 -995 -86 -118 -13 -411 -47 -650 -74 -722 -82
-1184 -149 -1630 -235 -526 -102 -698 -135 -945 -185 -159 -32 -391 -82 -515
-110 -584 -133 -1377 -286 -1708 -329 -314 -41 -373 -44 -646 -31 -131 6 -241
9 -243 6 -3 -2 2 -37 10 -78 14 -64 14 -76 1 -95 -14 -22 -19 -25 -54 -27 -19
-2 -18 -135 5 -374 38 -405 95 -803 181 -1261 14 -75 31 -170 39 -211 8 -41
25 -136 39 -210 14 -74 36 -207 51 -295 14 -88 30 -187 35 -220 6 -33 19 -118
29 -190 11 -71 29 -191 40 -265 82 -542 138 -967 170 -1280 19 -182 26 -270
51 -610 21 -286 39 -847 45 -1350 3 -289 10 -646 17 -795 18 -435 17 -533 -7
-579 -43 -85 -118 -103 -212 -52 -112 61 -143 104 -117 165 14 34 46 46 100
38 34 -6 34 -5 34 31 0 41 -28 236 -59 417 -30 172 -59 458 -71 685 -36 687
-41 772 -105 1600 -37 485 -82 868 -185 1590 -70 491 -69 482 -195 1290 -125
801 -149 1052 -150 1557 0 205 -1 373 -2 373 -1 0 -12 -4 -25 -9 -44 -16 -67
4 -111 96 -72 151 -55 235 55 284 50 22 68 23 373 30 344 8 483 19 640 49 183
35 744 168 1540 365 610 151 699 172 1050 249 424 93 1054 214 1360 261 504
77 749 106 1595 190 220 22 557 43 905 56 590 23 1537 9 1755 -26 124 -20 388
-80 466 -106 162 -53 292 -174 325 -300 6 -26 14 -217 19 -474 7 -389 10 -444
33 -580 59 -354 100 -588 122 -700 32 -165 54 -289 129 -735 90 -536 115 -677
127 -739 l11 -54 119 7 c146 8 316 29 513 62 210 35 343 52 481 59 66 4 176
15 245 26 473 71 902 107 1390 115 184 3 350 7 369 10 30 5 33 8 27 32 -27
122 -165 1324 -216 1872 -54 586 -80 1198 -87 2065 -7 758 -2 850 61 1335 50
383 65 504 71 575 3 44 13 134 20 200 17 145 41 536 55 887 9 250 18 330 41
366 9 15 6 24 -20 49 -58 59 -33 151 47 172 20 6 170 15 332 20 315 11 447 24
685 71 83 16 213 39 289 50 148 22 679 60 834 60 l92 0 -6 38 c-8 49 15 96 56
117 58 30 88 19 174 -64 36 -35 56 -49 52 -36 -43 148 -120 562 -148 791 -9
74 -13 247 -13 534 0 369 3 456 23 660 25 260 31 278 94 294 45 11 85 -8 112
-54 19 -31 22 -57 26 -225 l6 -190 58 -113 c60 -117 64 -142 24 -163 -29 -16
-65 -3 -82 29 -14 25 -15 13 -16 -143 0 -212 16 -507 36 -645 33 -234 95 -542
140 -699 83 -286 234 -576 382 -732 217 -231 404 -274 796 -184 359 83 586
115 1086 155 385 31 627 40 1019 40 200 -1 365 1 368 4 2 2 -3 28 -12 58 -47
160 -45 867 5 1146 45 255 105 505 194 820 131 460 165 629 173 872 5 156 4
168 -17 218 -66 153 -289 243 -750 302 -418 54 -1540 82 -1827 45 -386 -49
-725 -151 -1017 -303 -133 -70 -172 -103 -237 -200 -94 -140 -129 -234 -129
-349 0 -83 -18 -113 -68 -113 -56 0 -62 20 -65 206 l-2 169 33 65 c68 135 90
157 313 305 386 257 833 410 1329 456 165 15 1000 16 1291 1 581 -30 963 -106
1162 -231 197 -125 277 -298 263 -571 -14 -280 -54 -489 -182 -936 -29 -106
-54 -199 -54 -207 0 -13 6 -13 53 -2 198 51 1054 84 2537 98 l225 2 1 85 c1
47 8 677 17 1400 8 723 19 1333 24 1355 22 94 78 144 148 131 95 -18 113 -72
128 -385 9 -200 8 -288 -7 -590 -33 -650 -33 -1624 0 -1788 9 -44 18 -44 288
16 436 98 524 105 701 57 54 -15 107 -34 116 -42 16 -15 18 -12 24 33 3 26 10
69 15 94 15 78 31 309 28 404 l-3 90 -56 -80 c-30 -44 -66 -97 -78 -117 l-22
-37 22 -42 c27 -55 23 -131 -11 -179 -26 -36 -90 -70 -135 -70 -45 0 -109 34
-136 71 -20 28 -24 45 -23 104 0 64 6 83 65 215 115 257 329 604 569 925 62
83 113 156 114 163 1 8 -25 24 -59 37 -275 104 -451 289 -501 525 -24 115 -13
441 20 615 14 72 26 133 26 138 0 13 -301 7 -415 -8 -60 -8 -170 -22 -243 -30
-193 -23 -193 -23 -94 -79 86 -50 104 -75 83 -115 -25 -46 -58 -38 -291 73
-112 53 -140 83 -140 150 0 54 55 106 136 129 145 40 457 67 812 70 l204 2 80
235 c44 129 98 288 120 353 37 108 39 120 25 135 -52 57 -92 212 -76 295 11
60 23 83 67 130 l36 37 -161 163 c-206 208 -242 269 -208 354 27 68 58 78 214
75 90 -2 174 -10 260 -27 69 -13 153 -27 186 -31 33 -4 68 -14 78 -22 26 -23
22 -68 -8 -88 -29 -19 -118 -15 -227 11 -69 16 -262 21 -256 6 2 -5 50 -51
108 -101 58 -51 143 -129 190 -173 47 -44 100 -94 118 -111 l32 -30 58 56
c123 121 240 171 459 199 86 10 195 26 242 34 47 8 197 30 333 50 136 19 295
45 355 56 156 31 677 40 774 14 35 -9 69 -18 74 -18 6 -1 41 33 79 76 84 96
128 127 179 127 31 0 46 -7 73 -34z m24259 -1786 c299 -12 626 -47 895 -96
657 -118 817 -167 1046 -319 256 -171 344 -391 344 -865 0 -291 -25 -466 -131
-920 -72 -310 -135 -634 -189 -973 -11 -71 -39 -211 -61 -310 -99 -442 -101
-456 -124 -777 -8 -118 -20 -255 -25 -303 -6 -49 -17 -193 -25 -320 -37 -574
-123 -948 -282 -1222 -89 -154 -163 -230 -282 -290 -107 -53 -138 -56 -786
-65 -549 -8 -1005 -24 -1465 -50 -96 -6 -319 -17 -495 -25 -176 -8 -423 -21
-550 -27 -150 -8 -553 -13 -1155 -13 -913 0 -927 0 -1080 23 -396 58 -678 129
-1012 253 -221 83 -312 114 -450 154 -171 51 -526 140 -653 165 -209 41 -266
66 -291 126 -18 43 -7 89 31 124 19 18 35 23 72 22 30 0 88 12 153 33 58 19
150 46 205 61 215 57 613 201 735 267 41 22 128 76 193 120 116 79 120 81 145
66 33 -18 40 -54 16 -80 -34 -38 -300 -208 -424 -272 -69 -36 -231 -104 -360
-152 -283 -105 -284 -105 -278 -110 2 -2 94 -27 204 -54 182 -46 302 -80 664
-186 347 -102 686 -167 1091 -210 237 -25 1978 -16 2724 13 981 40 1108 43
1835 40 691 -3 728 -2 780 16 79 28 143 97 209 224 128 251 193 552 226 1045
8 130 20 281 25 334 6 54 19 215 30 358 21 285 38 394 106 680 25 104 65 312
90 460 54 324 118 647 180 913 104 448 124 588 124 872 -1 206 -12 301 -50
415 -30 90 -71 141 -165 203 -139 92 -291 137 -635 187 -603 87 -808 99 -1600
91 -796 -8 -1223 -26 -1630 -71 -74 -8 -223 -24 -330 -35 -107 -11 -267 -29
-355 -40 -88 -11 -223 -26 -300 -35 -77 -8 -241 -26 -365 -40 -739 -82 -1364
-182 -1965 -315 -121 -27 -310 -67 -420 -89 -412 -82 -683 -167 -699 -220 -13
-41 -27 -254 -41 -595 -9 -204 -22 -420 -29 -481 -74 -590 -124 -839 -280
-1387 -63 -220 -74 -282 -87 -479 -6 -96 -17 -188 -24 -206 -18 -42 -56 -65
-108 -65 -35 1 -47 7 -74 35 -26 29 -32 46 -38 99 -4 36 -11 71 -15 78 -12 19
-42 5 -133 -62 -151 -112 -334 -305 -496 -523 -68 -92 -80 -114 -75 -137 3
-16 -1 -41 -10 -58 -11 -23 -12 -32 -3 -35 34 -12 197 -25 317 -25 237 -1 468
-17 545 -39 120 -35 195 -71 201 -96 10 -39 0 -69 -28 -84 -24 -14 -33 -13
-108 12 l-81 28 -357 -7 c-305 -6 -373 -4 -468 10 -182 27 -270 63 -308 126
-36 61 -7 138 64 175 18 9 33 29 41 52 44 136 183 335 374 532 165 171 324
275 458 301 59 11 67 15 67 34 0 49 35 219 71 351 160 574 219 863 290 1415 5
41 16 252 24 470 17 456 28 580 57 658 55 148 217 229 698 352 135 34 353 93
485 131 337 95 462 127 805 203 165 37 480 96 645 121 55 8 156 24 225 34 151
24 431 64 595 85 1045 138 1426 178 1845 195 266 11 1207 12 1465 1z m671
-1783 c40 -21 68 -78 60 -122 -8 -40 -54 -82 -99 -90 -18 -3 -53 -9 -78 -14
-49 -8 -109 7 -109 29 0 12 -77 12 -180 0 -73 -9 -371 -24 -1090 -55 -862 -38
-1088 -55 -1790 -135 -453 -51 -970 -124 -1410 -199 -419 -72 -516 -89 -890
-161 -387 -74 -441 -82 -587 -83 -119 -2 -135 0 -160 19 -35 27 -50 65 -37
100 17 49 49 62 189 79 72 9 321 58 555 110 793 175 1293 267 1944 360 784
111 1268 152 2101 179 55 2 426 2 825 1 649 -1 728 -3 756 -18z m-582 -1241
c108 -31 156 -76 156 -146 0 -44 -21 -78 -79 -133 -60 -56 -103 -63 -141 -22
-25 26 -30 76 -10 100 6 7 7 15 3 18 -4 2 -129 0 -278 -4 -431 -12 -1188 -69
-1730 -129 -49 -6 -207 -22 -350 -36 -498 -48 -701 -85 -1665 -299 -85 -19
-180 -40 -210 -45 -188 -37 -335 -61 -402 -66 -75 -7 -78 -8 -98 -40 -10 -19
-35 -41 -54 -50 -32 -16 -41 -16 -128 0 -51 9 -112 26 -135 37 -101 49 -88
175 22 217 28 11 205 42 320 57 111 14 562 108 975 204 298 69 431 94 755 146
277 43 379 56 790 95 116 11 275 27 355 35 246 25 475 44 720 60 129 8 258 17
285 19 28 2 228 2 445 1 339 -1 403 -4 454 -19z m-17984 -681 c704 -68 1447
-336 1995 -720 388 -272 673 -551 970 -950 446 -598 753 -1312 862 -2005 25
-163 25 -917 0 -1150 -69 -620 -232 -1110 -509 -1522 -246 -368 -711 -785
-1198 -1073 -258 -153 -609 -316 -875 -406 -137 -47 -140 -48 -138 -76 26
-481 3 -734 -107 -1199 -17 -71 -44 -192 -60 -269 -42 -205 -135 -606 -163
-707 -18 -64 -22 -90 -13 -96 6 -6 48 -28 94 -51 328 -164 843 -515 1142 -778
147 -130 399 -385 525 -533 294 -343 594 -796 771 -1165 189 -394 278 -666
320 -985 22 -174 15 -552 -15 -690 -73 -349 -203 -595 -447 -850 -247 -257
-638 -508 -1099 -705 -253 -108 -609 -213 -919 -270 -77 -14 -142 -28 -144
-30 -3 -3 20 -31 50 -63 104 -109 126 -179 138 -437 16 -329 -13 -727 -70
-985 -53 -240 -151 -544 -255 -790 -77 -184 -145 -356 -145 -370 0 -19 -41
-94 -68 -122 -14 -15 -24 -29 -21 -31 13 -11 209 -127 234 -140 62 -31 214
-77 285 -87 41 -6 87 -15 102 -21 79 -32 82 -155 3 -197 -45 -24 -209 -28
-320 -7 -167 31 -357 132 -513 272 -48 43 -118 104 -157 134 -38 31 -115 97
-170 147 -97 89 -103 92 -205 126 -171 56 -300 90 -309 80 -21 -22 -163 -424
-231 -656 l-50 -166 50 -105 c62 -129 131 -336 162 -487 l24 -115 175 -7 c763
-28 1625 -357 2249 -857 205 -165 463 -437 605 -640 31 -44 60 -83 65 -86 5
-3 21 18 36 47 15 29 45 81 67 116 21 35 38 64 36 65 -2 2 -16 8 -31 15 -38
16 -42 43 -29 200 13 162 28 227 76 323 104 211 349 394 579 434 113 19 391
20 499 0 205 -36 405 -166 547 -354 111 -147 222 -409 256 -601 22 -129 16
-544 -11 -703 -10 -59 -15 -110 -12 -114 8 -7 298 165 375 222 l54 40 -7 345
c-7 345 4 728 26 888 12 89 121 752 178 1082 22 124 60 329 85 455 82 403 112
490 196 569 58 54 103 78 200 104 148 41 336 69 765 117 127 14 300 35 385 46
282 35 869 99 1064 114 250 19 519 41 736 60 96 8 319 24 495 35 176 11 381
24 455 30 392 29 1239 74 1710 91 400 14 1622 13 1854 -1 554 -35 1050 -168
1496 -402 407 -213 667 -488 780 -827 88 -264 115 -593 126 -1566 10 -812 -7
-1097 -116 -2025 -11 -96 -30 -254 -41 -350 -67 -592 -167 -950 -335 -1207
-77 -118 -225 -244 -352 -300 -75 -33 -217 -70 -322 -83 -143 -19 -647 -30
-1705 -40 -1128 -10 -1322 -18 -2095 -90 -113 -11 -281 -26 -375 -35 -265 -24
-467 -44 -765 -75 -582 -63 -1008 -101 -1365 -122 -248 -15 -1098 -14 -1570 1
-307 10 -411 18 -810 61 -99 10 -220 22 -270 25 -224 16 -316 50 -354 128 -40
82 -21 132 97 260 82 90 137 181 173 284 75 218 220 1478 186 1615 -4 14 -23
50 -44 79 -50 72 -51 119 -5 160 64 58 128 31 178 -74 67 -142 69 -163 67
-552 0 -192 -6 -402 -12 -465 -6 -63 -15 -164 -21 -225 -40 -440 -107 -689
-235 -871 -25 -36 -45 -69 -45 -74 0 -5 19 -11 43 -14 609 -75 715 -80 1315
-66 586 13 872 25 1227 51 362 26 1111 102 1525 154 486 61 950 106 1575 152
330 25 1446 25 1964 0 512 -24 1051 -32 1186 -18 356 39 532 154 654 426 107
238 159 479 225 1035 138 1163 146 1284 146 2130 0 1219 -35 1530 -200 1782
-116 176 -258 293 -507 417 -320 159 -594 241 -1008 300 -284 41 -394 44
-1115 38 -865 -8 -1348 -26 -2320 -87 -501 -31 -1280 -74 -1810 -100 -118 -5
-334 -17 -480 -25 -269 -15 -782 -39 -1212 -55 -389 -15 -831 -75 -929 -125
-43 -23 -63 -85 -144 -455 -51 -232 -239 -1315 -264 -1520 -28 -228 -44 -1293
-21 -1397 8 -38 8 -57 0 -73 -17 -32 -55 -42 -95 -26 -40 17 -135 102 -135
121 0 31 -32 19 -110 -41 -46 -36 -163 -120 -260 -189 -97 -68 -182 -130 -188
-137 -5 -7 -20 -37 -31 -66 l-21 -53 25 -9 c75 -28 422 -62 653 -64 192 -1
194 -1 213 -25 29 -35 22 -98 -12 -123 -21 -16 -45 -19 -140 -21 -189 -3 -627
21 -704 39 -38 9 -80 18 -93 21 -33 8 -55 -15 -48 -50 5 -23 0 -35 -22 -56
-15 -15 -32 -30 -37 -32 -6 -2 -35 -40 -64 -84 -77 -113 -163 -218 -255 -308
-231 -228 -464 -308 -801 -274 l-81 8 -24 -83 c-102 -359 -388 -772 -769
-1111 -580 -517 -1196 -873 -1936 -1118 -104 -34 -193 -65 -198 -69 -4 -4 2
-27 13 -53 31 -70 46 -246 31 -372 -29 -240 -74 -401 -166 -590 -174 -358
-418 -618 -672 -717 -105 -41 -264 -56 -419 -40 -356 38 -581 219 -788 637
-110 221 -179 398 -239 610 -30 107 -60 192 -68 196 -164 82 -225 91 -396 60
-204 -37 -271 -52 -553 -124 l-275 -70 -206 -5 c-318 -7 -431 16 -507 104 -47
52 -60 91 -72 219 -15 148 -32 1119 -37 2050 -3 617 -7 821 -16 827 -7 4 -32
8 -58 8 -25 0 -112 11 -195 25 -137 23 -174 25 -449 24 -165 0 -320 -4 -345
-7 l-45 -7 -5 -215 c-5 -201 -6 -217 -28 -251 -12 -21 -33 -44 -47 -53 -35
-23 -98 -35 -142 -26 -146 30 -154 31 -312 21 -267 -17 -400 -46 -916 -198
l-160 -47 -180 0 c-220 -1 -308 15 -443 80 -70 34 -111 62 -168 116 -242 230
-331 549 -364 1308 -17 402 -31 684 -36 706 -3 16 -11 20 -38 20 -23 0 -44 8
-60 23 l-24 23 -167 -16 c-179 -17 -272 -34 -550 -101 -99 -24 -194 -46 -211
-49 l-31 -7 -7 -99 c-3 -55 -13 -118 -22 -140 -45 -112 -180 -129 -263 -34
-39 44 -51 90 -51 202 0 87 2 95 25 116 23 21 24 27 13 51 -10 22 -9 32 6 59
19 36 20 34 -53 386 -110 528 -314 1612 -351 1860 -24 164 -29 190 -39 190 -4
0 -42 4 -86 10 -44 5 -156 16 -250 25 -163 14 -300 28 -740 76 -110 11 -279
35 -375 51 -140 24 -223 32 -415 38 -132 5 -252 12 -267 16 l-28 6 0 -258 c0
-360 21 -468 141 -726 77 -165 95 -233 80 -306 -34 -171 -192 -269 -565 -353
-217 -48 -521 -77 -1042 -99 -241 -10 -541 -38 -709 -66 -239 -40 -399 -80
-885 -222 -41 -12 -98 -17 -220 -17 -194 0 -242 12 -317 80 -119 106 -153 273
-153 742 0 247 -24 882 -40 1083 -19 227 -19 230 -44 240 -71 27 -559 95 -906
127 -215 19 -1640 30 -1921 15 -168 -10 -178 -12 -234 -41 -99 -53 -188 -35
-232 45 -34 62 -85 333 -147 779 -35 253 -82 705 -151 1460 -35 386 -49 517
-85 840 -28 250 -48 411 -65 540 -9 61 -26 193 -40 295 -84 632 -157 982 -255
1235 -43 113 -48 159 -21 195 11 16 21 34 21 41 0 6 -18 68 -40 138 -21 69
-57 191 -79 271 -21 80 -73 269 -115 422 -191 700 -289 1224 -350 1878 -24
251 -27 323 -35 787 l-7 441 -52 79 c-28 43 -62 103 -76 133 -61 130 -7 240
116 240 39 0 54 -6 83 -32 105 -91 133 -240 160 -848 25 -565 42 -763 105
-1230 42 -317 78 -511 166 -890 118 -512 432 -1572 469 -1587 7 -2 59 3 116
11 194 29 1083 54 2227 63 l712 6 2 106 c1 58 0 237 -1 396 -4 329 0 351 62
381 70 33 144 -8 166 -94 13 -49 31 -248 31 -343 0 -52 8 -102 25 -160 14 -46
31 -128 37 -182 l11 -99 39 -24 c126 -80 89 -244 -62 -269 l-36 -6 -12 -512
c-24 -975 -15 -1140 67 -1269 45 -71 70 -83 166 -82 69 1 112 11 310 71 127
39 275 80 330 92 55 12 147 32 205 44 l105 22 129 215 c153 256 424 700 774
1270 141 228 364 595 497 815 133 220 260 429 283 465 48 75 50 86 20 93 -304
67 -519 95 -838 108 -333 15 -451 9 -685 -35 -242 -45 -297 -62 -403 -129 -48
-29 -132 -80 -187 -112 -142 -83 -204 -133 -287 -232 -103 -123 -114 -133
-142 -133 -32 0 -69 45 -60 74 12 41 180 252 279 351 125 125 211 176 374 221
64 18 161 49 216 68 120 42 393 112 490 125 39 6 195 15 348 22 279 11 452 5
662 -22 73 -9 357 -63 397 -75 12 -4 66 70 225 308 115 172 220 328 233 346
76 102 219 98 251 -8 10 -33 8 -55 -14 -151 -14 -61 -32 -118 -40 -127 -8 -8
-29 -15 -46 -16 -24 -1 -37 -10 -57 -39 -36 -54 -244 -410 -244 -418 0 -4 37
-29 82 -56 96 -57 221 -176 260 -248 61 -116 61 -109 62 -910 1 -703 2 -736
24 -889 72 -503 131 -682 338 -1026 92 -155 105 -232 47 -300 -66 -79 -123
-79 -404 0 -537 151 -750 196 -1088 230 -188 18 -998 6 -1167 -18 -55 -8 -49
1 -185 -257 -47 -88 -170 -317 -274 -510 l-190 -350 -3 -85 c-3 -68 0 -95 17
-138 12 -29 21 -66 21 -81 0 -71 -57 -141 -130 -161 -88 -24 -162 27 -224 152
-60 119 -58 190 9 338 19 41 59 143 88 225 69 191 155 384 267 603 86 167 88
172 64 172 -35 0 -200 -43 -309 -80 -341 -117 -466 -130 -632 -69 -122 46
-239 204 -285 385 -22 86 -23 105 -23 569 0 264 4 635 9 824 l9 344 -799 -6
c-1170 -8 -2025 -33 -2169 -62 -38 -8 -87 -14 -107 -15 -40 0 -43 -5 -29 -42
5 -13 25 -93 45 -178 124 -539 249 -1395 336 -2315 17 -185 71 -703 115 -1110
36 -332 84 -682 129 -940 14 -80 -4 -74 161 -54 123 16 1699 14 1930 -1 276
-19 603 -59 894 -110 63 -11 117 -17 119 -15 3 3 0 49 -6 102 -7 54 -23 208
-37 343 -14 135 -32 310 -41 390 -9 80 -16 206 -17 281 -1 149 9 180 63 213
60 35 144 8 170 -53 l13 -32 34 33 34 33 122 0 c72 0 161 -7 217 -17 52 -10
160 -22 240 -28 80 -5 213 -21 295 -35 271 -46 399 -64 535 -76 195 -17 1367
-6 1730 16 330 21 643 16 730 -10 69 -22 124 -74 140 -135 19 -70 0 -134 -93
-314 -137 -265 -220 -453 -274 -626 -35 -109 -77 -279 -72 -285 3 -2 54 1 114
6 216 19 433 14 635 -14 102 -15 250 -33 330 -41 80 -9 235 -25 345 -36 418
-43 680 -68 684 -64 2 2 -4 63 -13 136 -29 242 -47 558 -56 1032 -5 257 -14
495 -20 527 -9 50 -8 65 6 94 9 19 25 37 36 40 30 10 17 25 -41 45 -69 23
-102 48 -124 93 -16 31 -17 43 -7 71 15 47 50 67 144 81 97 14 130 6 145 -36
l10 -29 128 0 c71 0 167 5 213 10 126 15 451 68 563 92 112 23 147 16 172 -33
23 -43 18 -77 -13 -108 -25 -25 -36 -28 -126 -35 -58 -4 -157 -21 -235 -41
-241 -60 -345 -76 -516 -81 -88 -3 -171 -7 -184 -10 l-24 -5 26 -27 c33 -35
51 -107 73 -292 9 -80 23 -158 31 -174 12 -24 13 -36 2 -73 -14 -50 -10 -163
21 -603 23 -329 50 -581 75 -705 3 -15 23 -26 79 -43 123 -39 184 -94 193
-175 8 -73 -57 -140 -164 -168 -31 -8 -43 -17 -43 -30 0 -40 185 -1056 240
-1319 5 -25 28 -148 50 -275 23 -126 52 -286 65 -355 12 -69 26 -142 29 -163
4 -20 9 -37 11 -37 3 0 94 22 202 50 109 27 242 59 296 70 123 25 370 50 496
50 103 0 121 7 121 47 0 32 25 78 52 97 32 23 90 20 122 -5 16 -13 32 -41 42
-75 8 -30 18 -54 21 -54 2 0 57 16 121 35 64 20 180 49 257 65 77 16 192 43
255 60 172 46 451 107 602 132 118 19 171 22 463 22 374 0 409 -5 569 -83 181
-89 292 -245 343 -481 15 -71 18 -134 18 -382 0 -164 1 -298 3 -298 1 0 20 18
41 40 42 45 71 50 101 20 27 -27 25 -53 -5 -97 -28 -42 -24 -53 36 -84 63 -32
197 -49 381 -49 135 0 175 3 200 16 l30 16 -6 156 c-5 99 -18 218 -36 322
-112 639 -133 889 -134 1590 -1 474 4 549 44 704 33 126 61 189 100 229 33 33
43 37 86 37 64 0 104 -25 151 -95 29 -44 41 -56 57 -52 12 3 87 23 168 45 275
76 451 107 639 114 87 3 122 -13 144 -65 17 -41 9 -80 -22 -112 -28 -28 -36
-29 -219 -44 -149 -13 -355 -59 -426 -96 -28 -15 -65 -25 -89 -25 -63 0 -187
-39 -194 -61 -9 -29 -37 -39 -109 -40 -45 -1 -70 -6 -78 -17 -10 -12 -13 -136
-12 -571 1 -688 11 -819 109 -1447 73 -461 36 -678 -121 -724 -63 -19 -540 -8
-619 14 -91 25 -161 63 -199 108 -34 39 -35 40 -40 17 -9 -36 -46 -404 -46
-451 l0 -41 58 7 c121 14 452 26 557 20 61 -3 175 -17 255 -31 104 -18 163
-23 210 -19 36 3 83 1 105 -5 75 -20 72 -22 116 86 190 472 539 948 1024 1399
77 71 141 133 143 137 2 5 -15 45 -38 91 -73 148 -74 159 -67 922 7 788 1 946
-48 1191 -46 236 -50 273 -31 318 25 61 91 74 133 27 10 -11 40 -87 67 -170
27 -82 54 -150 60 -150 7 0 32 21 56 46 95 97 205 170 316 208 38 13 94 36
124 51 152 77 318 102 610 91 314 -11 504 -81 690 -255 46 -43 56 -49 61 -34
4 10 26 90 50 178 23 88 64 229 91 314 27 84 48 155 46 157 -2 2 -51 20 -108
40 -116 40 -254 105 -323 152 -60 42 -160 144 -201 206 -87 132 -153 304 -222
576 l-37 145 -4 358 c-5 354 -5 357 -26 368 -12 6 -50 39 -84 72 -96 94 -87
130 40 168 40 12 75 24 78 28 4 3 14 72 23 153 19 162 36 232 66 270 l20 26
-108 36 c-267 91 -515 200 -689 301 -430 253 -795 584 -983 894 -30 49 -58 90
-61 91 -13 0 -19 -181 -19 -565 0 -221 -5 -463 -11 -540 -14 -167 -9 -208 34
-248 48 -45 186 -133 246 -157 70 -27 280 -82 461 -120 80 -17 177 -39 215
-49 45 -12 127 -21 230 -26 167 -7 200 -16 229 -57 26 -37 21 -101 -12 -135
-50 -54 -259 -84 -370 -54 -24 7 -114 23 -200 36 -280 44 -561 115 -689 175
-157 73 -312 201 -362 297 -31 61 -44 169 -37 302 3 64 10 395 15 736 9 586
17 803 42 1060 6 61 13 368 16 683 5 554 -2 841 -28 1067 -9 80 -67 427 -73
432 -1 1 -18 -9 -38 -23 -49 -35 -102 -40 -189 -19 -89 22 -253 17 -494 -15
-269 -35 -316 -40 -422 -40 -98 0 -103 -1 -107 -22 -3 -13 -23 -115 -45 -228
-46 -236 -96 -413 -214 -765 -47 -137 -93 -288 -102 -335 -24 -116 -16 -242
19 -330 80 -195 -30 -310 -225 -236 -293 110 -1225 249 -2014 301 -792 51
-912 67 -1064 143 -89 43 -177 125 -215 200 -51 100 -59 163 -52 412 7 285 27
447 140 1099 31 178 54 326 52 328 -2 3 -58 -1 -123 -8 -226 -23 -831 5 -968
46 -27 8 -80 37 -116 65 -77 57 -91 89 -61 129 17 23 27 26 92 29 40 2 114 -4
164 -12 174 -29 366 -38 703 -35 182 2 334 7 338 11 4 3 10 22 14 41 7 29 3
42 -28 92 -33 53 -36 66 -39 145 -4 78 0 98 32 194 68 204 202 440 405 714 46
62 81 115 78 118 -3 3 -52 12 -109 19 -144 19 -326 53 -438 81 -216 54 -360
163 -444 335 -58 120 -73 188 -87 379 -12 166 -6 615 12 852 8 117 8 141 -5
160 -12 19 -13 43 -6 143 12 161 29 273 46 307 42 81 165 73 211 -14 25 -48
28 -250 9 -545 -10 -149 -16 -375 -16 -590 1 -399 8 -465 65 -580 73 -147 171
-192 561 -257 230 -38 405 -59 413 -50 4 5 36 43 71 84 55 64 102 117 277 311
l23 25 -129 113 c-213 185 -475 461 -633 668 -268 351 -495 740 -514 882 -11
87 46 161 124 161 41 0 188 -56 213 -81 24 -24 25 -81 2 -102 -10 -8 -30 -18
-45 -22 l-26 -7 19 -33 c31 -52 41 -57 90 -46 52 12 335 28 689 41 378 13 645
50 1015 140 313 76 308 75 490 75 139 0 180 -3 223 -18 29 -11 59 -17 66 -14
8 3 53 58 101 121 48 64 100 123 115 131 46 24 88 19 121 -14 38 -39 38 -86 0
-166 -15 -34 -34 -92 -40 -130 -32 -187 -72 -246 -137 -200 -21 14 -21 13 -27
-148 -11 -283 -52 -542 -133 -842 -77 -286 -161 -564 -229 -760 -36 -103 -65
-191 -65 -195 0 -4 30 -20 68 -36 91 -37 117 -63 117 -115 0 -34 -6 -46 -34
-71 l-33 -30 -92 7 c-50 4 -95 8 -100 9 -5 0 -19 -19 -32 -44 -33 -63 -96
-117 -157 -135 -80 -24 -160 -19 -547 29 -160 20 -257 37 -508 88 -170 34
-205 38 -218 27 -9 -7 -58 -65 -108 -129 -243 -302 -523 -736 -529 -817 -2
-22 4 -28 52 -43 29 -10 62 -27 74 -38 27 -28 17 -67 -23 -80 -16 -6 -30 -18
-30 -26 0 -9 -16 -33 -35 -55 -30 -33 -35 -45 -35 -89 0 -28 -20 -210 -45
-404 -26 -194 -62 -474 -81 -622 -54 -422 -65 -720 -33 -849 13 -49 70 -112
129 -142 104 -52 192 -66 600 -90 146 -9 333 -23 415 -31 650 -64 696 -70
1080 -125 260 -37 513 -83 713 -130 45 -10 88 -19 94 -19 8 0 9 24 4 79 -8 96
7 239 35 341 23 80 112 345 177 526 85 236 164 562 197 816 36 280 47 783 20
911 -29 138 -116 247 -251 314 l-78 38 -245 0 c-275 0 -305 -4 -531 -77 -328
-106 -914 -361 -1400 -610 -363 -186 -398 -209 -530 -342 -87 -88 -121 -116
-140 -116 -53 1 -87 55 -65 105 7 17 40 60 74 96 48 52 81 77 153 114 51 27
104 56 118 66 14 9 160 94 325 188 665 380 1305 673 1643 752 185 43 569 51
692 14 251 -76 423 -271 471 -535 10 -56 14 -179 14 -478 l-1 -404 96 7 c52 4
199 20 325 36 127 16 298 32 380 36 201 8 201 8 211 120 4 49 8 261 7 473 0
367 -2 397 -32 650 -107 904 -127 1295 -118 2330 7 731 21 926 107 1478 70
453 101 728 119 1052 l9 165 -88 170 c-219 420 -298 668 -321 1002 -30 431 30
806 182 1143 166 369 391 664 882 1155 l289 289 -48 40 c-145 118 -230 247
-255 386 -25 140 23 299 132 436 146 184 622 471 1104 666 252 102 594 199
805 228 221 31 753 33 1050 5z m7488 -100 c119 -23 267 -77 427 -157 77 -38
144 -74 150 -79 5 -5 56 -9 115 -9 119 0 312 -21 415 -45 184 -42 385 -149
556 -297 138 -119 240 -260 358 -498 188 -379 299 -757 353 -1200 9 -71 13
-234 12 -500 -1 -337 -4 -421 -22 -570 -106 -877 -459 -1535 -1030 -1919 -115
-77 -194 -116 -318 -156 -150 -50 -239 -58 -529 -52 -319 7 -467 32 -750 129
-411 141 -893 458 -1230 810 -212 221 -458 574 -610 878 -104 208 -159 373
-187 565 -19 129 -15 548 5 688 89 593 344 1090 906 1767 211 254 472 487 633
564 79 38 220 82 308 96 77 13 339 4 438 -15z m10612 -806 c334 -12 349 -14
388 -64 46 -58 35 -136 -25 -182 -34 -26 -41 -27 -212 -34 -98 -4 -231 -15
-297 -25 -95 -13 -160 -15 -319 -10 -110 3 -234 2 -275 -3 -615 -76 -908 -95
-1785 -116 -659 -16 -1011 -29 -1211 -46 -199 -16 -1246 -6 -1439 14 -82 9
-226 19 -320 22 -93 4 -183 11 -198 17 -30 11 -57 53 -57 87 0 12 13 35 28 52
27 30 33 32 133 41 57 5 397 10 754 12 579 3 692 6 1035 29 381 26 782 47
1285 67 143 5 382 17 530 25 149 8 401 22 560 30 435 24 834 53 885 66 46 12
141 25 195 28 17 0 172 -4 345 -10z m240 -2919 c487 -18 907 -110 1359 -299
381 -160 662 -408 825 -728 38 -76 92 -248 112 -358 16 -83 19 -152 19 -410 0
-388 -1 -394 -185 -1345 -47 -243 -87 -465 -164 -920 -20 -113 -56 -353 -80
-535 -25 -181 -58 -427 -75 -545 -46 -337 -133 -668 -214 -813 -46 -81 -139
-183 -207 -227 -67 -43 -176 -76 -293 -89 -120 -14 -676 -14 -817 -1 -142 13
-603 37 -1070 55 -212 8 -479 20 -595 25 -287 15 -1072 17 -2225 6 -1035 -9
-1344 -3 -1650 34 -189 22 -236 31 -450 89 -398 107 -646 212 -830 350 -64 47
-154 100 -275 160 -206 101 -278 151 -342 236 -100 132 -122 206 -128 420 -3
88 -5 163 -5 167 0 12 -138 14 -409 5 -304 -10 -402 -2 -479 36 -49 24 -92 76
-92 109 0 11 -13 32 -29 47 -42 39 -49 88 -21 147 45 91 124 153 590 465 85
57 234 167 330 244 96 77 205 163 242 190 37 28 67 54 68 58 0 5 -8 21 -18 35
-30 43 -89 191 -111 277 -39 155 -53 475 -30 696 5 57 37 228 70 379 34 151
76 364 95 474 67 392 100 493 186 576 84 81 188 126 448 194 341 90 632 156
1029 236 517 103 927 167 1886 296 149 19 333 44 410 55 535 73 747 97 1255
143 759 69 1275 87 1870 66z m-9805 -2595 c187 -62 350 -165 522 -329 176
-168 288 -322 414 -568 173 -342 222 -529 241 -937 27 -579 -34 -993 -207
-1395 -191 -446 -467 -824 -820 -1121 -149 -125 -244 -192 -345 -242 -178 -88
-322 -120 -574 -129 -254 -9 -421 11 -644 80 -289 89 -535 218 -693 362 -185
170 -304 329 -404 537 -164 341 -214 610 -202 1077 7 266 20 402 52 565 108
543 377 1057 725 1388 158 151 256 186 380 139 39 -15 45 -22 48 -49 4 -36
-19 -56 -78 -68 -99 -21 -248 -178 -438 -461 -175 -261 -342 -712 -397 -1074
-21 -138 -31 -581 -17 -765 17 -222 66 -393 176 -619 72 -146 136 -241 245
-357 114 -122 208 -194 346 -262 139 -70 190 -90 347 -138 195 -59 236 -64
498 -63 209 0 244 3 315 22 194 53 372 173 623 419 410 405 706 958 796 1488
44 260 56 808 23 1009 -98 578 -504 1137 -962 1321 -62 25 -86 29 -206 33
-180 6 -229 -5 -312 -68 -101 -76 -202 -209 -315 -415 -30 -55 -62 -108 -70
-117 -23 -27 -68 -23 -89 8 -16 25 -16 28 36 132 149 301 324 528 453 587 73
33 160 44 318 40 114 -2 148 -7 215 -30z m-642 -1746 c114 -49 142 -74 142
-131 0 -33 -6 -45 -33 -69 -36 -33 -73 -37 -124 -15 -18 8 -50 18 -71 21 -27
4 -53 20 -88 54 -42 40 -49 53 -49 85 0 28 7 45 29 67 41 40 79 38 194 -12z
m-775 -145 c37 -42 30 -88 -28 -166 -53 -72 -84 -89 -125 -70 -14 6 -27 23
-31 38 -9 34 22 173 44 197 39 44 102 44 140 1z m1196 -901 c30 -30 41 -62 32
-98 -10 -41 -209 -305 -282 -376 -134 -129 -231 -175 -396 -188 -188 -15 -394
14 -525 74 -67 30 -161 123 -191 188 -29 61 -44 140 -36 186 17 109 29 143 52
162 31 24 53 24 85 -1 23 -19 25 -27 29 -119 3 -92 5 -103 33 -143 68 -96 243
-145 484 -135 105 5 131 10 176 31 90 44 183 132 262 246 40 58 90 126 113
152 38 45 44 48 89 48 39 0 53 -5 75 -27z m10075 -1573 c157 -20 371 -83 530
-156 131 -61 245 -140 342 -237 223 -222 325 -473 371 -912 9 -90 13 -550 14
-1830 1 -1028 6 -1830 13 -2011 7 -199 8 -336 1 -401 -30 -313 -227 -536 -590
-668 -155 -56 -236 -66 -615 -75 -415 -10 -489 -5 -975 70 -545 84 -867 124
-1245 155 -471 38 -717 46 -1900 55 -649 5 -1232 12 -1295 15 -675 36 -896 66
-1170 162 -156 54 -347 163 -481 275 -179 149 -288 368 -334 673 -11 75 -15
190 -15 455 0 390 7 497 50 765 44 274 60 414 67 594 7 193 14 209 96 218 43
5 49 3 83 -31 l37 -37 -7 -182 c-10 -264 -23 -417 -53 -637 -26 -186 -28 -214
-28 -595 0 -278 4 -426 13 -485 48 -312 131 -462 340 -613 208 -150 465 -230
854 -268 99 -9 246 -10 680 0 662 14 1487 14 2063 1 932 -21 1315 -59 2425
-242 l385 -63 375 0 375 1 100 27 c212 58 382 172 445 300 46 94 52 172 40
532 -5 171 -12 987 -15 1815 -5 1451 -12 1897 -36 2066 -41 302 -114 482 -259
637 -85 91 -145 132 -270 185 -262 110 -316 117 -805 115 -214 -1 -507 -6
-650 -12 -263 -11 -591 -22 -1165 -41 -173 -6 -776 -15 -1340 -20 -1230 -11
-1619 -22 -2105 -55 -115 -8 -352 -24 -525 -35 -360 -24 -517 -41 -680 -76
-134 -29 -194 -55 -268 -113 -66 -53 -104 -111 -136 -210 -59 -182 -73 -312
-81 -766 -6 -314 -28 -778 -45 -980 -5 -60 -10 -147 -10 -193 0 -75 3 -88 36
-151 42 -80 40 -123 -7 -171 -61 -61 -137 -48 -198 33 -84 112 -86 121 -85
317 0 96 8 272 18 390 9 118 21 404 26 635 14 601 30 757 96 960 55 170 139
290 258 369 108 71 379 147 686 191 58 8 168 24 245 35 566 82 1197 138 1855
165 190 7 1342 31 2490 50 503 9 947 17 985 19 143 7 913 -4 994 -14z m-33644
-406 c17 -7 45 -54 45 -77 0 -7 -20 -40 -45 -71 -25 -32 -49 -75 -54 -95 -23
-91 -36 -231 -36 -401 0 -159 3 -190 18 -218 39 -72 196 -168 402 -247 106
-41 135 -62 135 -101 0 -27 -35 -64 -61 -64 -34 0 -266 82 -355 126 -157 77
-253 187 -282 324 -29 131 -20 456 15 600 36 145 141 253 218 224z m32750
-1118 c215 -5 265 -13 363 -57 45 -20 65 -35 73 -55 13 -35 5 -68 -23 -94 -27
-25 -57 -25 -128 0 -51 18 -88 19 -560 20 -278 1 -545 5 -595 10 -57 5 -209 3
-415 -5 -179 -8 -442 -19 -585 -25 -610 -25 -1043 -101 -1553 -275 -186 -63
-275 -105 -298 -140 -20 -31 -15 -86 21 -206 30 -101 31 -129 4 -163 -25 -32
-85 -36 -117 -8 -36 30 -91 228 -92 327 0 109 70 209 189 269 176 90 584 220
860 275 403 81 633 100 1389 112 334 5 639 13 677 17 69 7 398 6 790 -2z
m-9545 -201 c165 -41 377 -172 540 -335 129 -128 213 -232 335 -415 156 -233
259 -446 348 -721 79 -242 97 -373 97 -703 0 -543 -85 -862 -318 -1191 -217
-307 -586 -551 -932 -615 -135 -25 -502 -26 -655 -1 -303 48 -511 133 -800
327 -387 260 -664 664 -752 1095 -26 129 -26 647 0 777 39 195 128 399 237
546 130 176 373 355 510 377 20 3 41 9 46 13 6 3 32 42 59 86 91 148 234 340
317 425 24 25 79 69 122 99 44 30 111 79 150 108 90 68 215 130 286 143 80 13
333 4 410 -15z m9329 -951 c27 -34 27 -74 1 -102 -28 -30 -13 -28 -512 -72
-119 -11 -284 -28 -365 -39 -139 -19 -231 -33 -828 -131 -132 -21 -283 -44
-335 -50 -52 -6 -171 -22 -265 -35 -298 -42 -616 -74 -888 -90 -344 -20 -383
-27 -557 -107 -64 -30 -93 -38 -116 -33 -57 10 -87 70 -64 126 14 32 79 70
210 122 98 38 159 46 475 57 491 17 838 54 1230 130 83 17 314 54 515 85 201
30 464 71 585 90 405 65 478 73 692 74 l202 1 20 -26z m-6665 -217 c37 -50 16
-67 -219 -187 -115 -58 -230 -119 -255 -135 -69 -43 -130 -96 -130 -111 0 -8
15 -31 34 -52 l34 -37 364 -1 c230 0 377 -4 401 -11 46 -13 66 -37 67 -79 0
-43 -30 -71 -87 -78 -103 -14 -346 -26 -521 -26 -138 0 -191 -4 -218 -15 -31
-13 -45 -13 -117 0 -66 11 -86 19 -104 40 -27 31 -31 90 -8 122 14 20 13 25
-10 59 -31 46 -33 102 -5 160 40 82 132 147 363 258 267 128 368 151 411 93z
m7388 -856 c43 -39 46 -98 6 -138 -26 -25 -32 -27 -220 -40 -106 -7 -265 -22
-353 -33 -213 -26 -459 -47 -630 -55 -190 -8 -937 -115 -1790 -255 -763 -125
-759 -125 -1240 -125 -430 0 -464 3 -713 61 -153 35 -192 62 -192 132 0 51 42
88 111 96 29 4 86 14 126 23 93 21 130 12 158 -39 12 -23 29 -39 45 -42 61
-14 472 -27 655 -21 244 8 446 30 805 89 671 110 835 134 1440 211 239 30 509
68 600 84 296 53 558 73 1032 79 l128 2 32 -29z m-24387 -721 c163 -16 283
-67 360 -152 80 -89 77 -69 86 -728 8 -657 12 -723 83 -1390 14 -129 30 -300
36 -380 6 -80 21 -182 32 -227 22 -90 20 -129 -12 -181 -38 -62 -103 -74 -245
-46 -67 14 -204 18 -830 24 l-750 7 -105 25 c-213 52 -342 111 -459 208 -124
104 -208 229 -285 423 -126 317 -161 609 -151 1237 7 376 17 504 50 651 43
192 101 279 186 279 44 0 84 -17 112 -48 18 -20 19 -20 81 19 89 56 288 135
371 149 39 6 135 24 215 40 315 63 474 83 710 90 351 10 408 10 515 0z m22845
-326 l435 -7 27 -28 c34 -34 36 -69 4 -106 l-24 -28 -409 -6 c-225 -3 -414 -8
-419 -12 -6 -3 -122 -11 -258 -17 -213 -10 -275 -9 -439 5 -119 10 -226 14
-282 10 -49 -3 -283 -12 -520 -20 -279 -9 -442 -18 -465 -26 -19 -7 -58 -36
-85 -66 -46 -48 -55 -53 -94 -53 -36 0 -49 6 -77 34 -28 28 -34 41 -34 78 0
47 13 72 69 131 77 81 80 82 321 82 118 0 391 -4 605 -8 375 -8 396 -8 535 13
168 26 395 40 560 34 63 -2 311 -7 550 -10z m-24320 -3049 c28 -14 78 -53 111
-87 66 -67 232 -284 329 -430 35 -51 66 -97 71 -102 4 -5 36 16 71 46 138 120
392 292 521 353 154 73 233 89 432 89 216 -1 320 -21 468 -91 l102 -50 114
108 c133 125 206 169 285 169 70 0 107 -25 141 -94 37 -75 37 -122 1 -152 -31
-27 -63 -31 -92 -9 -10 8 -26 15 -34 15 -16 0 -210 -188 -210 -204 0 -5 20
-36 45 -68 71 -89 132 -212 156 -313 19 -79 21 -110 16 -250 -10 -322 -84
-561 -292 -955 -39 -73 -150 -198 -219 -246 l-30 -20 109 -64 c131 -76 257
-135 383 -180 62 -22 99 -41 109 -56 22 -34 13 -83 -20 -108 -25 -19 -31 -19
-90 -7 -34 7 -136 35 -227 62 -91 28 -196 59 -235 71 -82 24 -184 74 -333 162
l-107 63 -345 17 c-190 9 -421 16 -515 16 -194 1 -292 11 -385 41 -206 67
-333 196 -433 439 -72 174 -99 301 -122 555 -25 295 -22 278 -54 296 -24 14
-31 29 -49 110 -45 194 -39 288 18 329 62 44 138 15 194 -73 62 -97 90 -234
120 -587 19 -223 37 -324 82 -458 39 -117 88 -214 139 -278 64 -78 222 -138
348 -132 l60 3 64 104 c35 57 95 139 134 182 39 44 69 85 66 92 -3 8 -41 61
-85 118 -73 95 -233 333 -357 532 -27 42 -53 77 -58 77 -6 0 -38 -27 -73 -60
-69 -66 -92 -73 -129 -35 -42 42 -36 65 53 183 l55 73 -49 72 c-200 295 -314
445 -407 535 -38 36 -67 73 -70 89 -8 43 14 95 53 121 43 29 95 25 170 -13z
m22220 -769 c198 -21 206 -23 230 -53 24 -31 26 -89 5 -120 -20 -28 -61 -40
-165 -47 -47 -4 -130 -13 -185 -21 -93 -14 -107 -14 -193 3 -105 20 -62 23
-672 -38 -656 -66 -1000 -88 -1675 -110 -176 -6 -441 -15 -590 -20 -148 -5
-405 -14 -570 -20 -165 -5 -397 -15 -515 -20 -208 -10 -1010 -43 -1815 -75
-407 -16 -594 -30 -609 -45 -13 -13 3 -29 121 -128 61 -50 106 -95 109 -109
14 -53 -41 -103 -92 -86 -39 14 -232 182 -277 240 -37 50 -42 63 -42 109 0 42
5 58 25 79 65 69 149 87 599 126 190 16 357 31 371 34 28 5 411 34 865 65 165
11 392 27 505 35 113 8 304 19 425 25 121 5 247 12 280 15 33 3 209 12 390 20
350 15 798 38 1080 55 94 5 274 14 400 20 127 5 259 12 295 15 214 18 767 37
1015 37 255 -1 299 1 365 18 80 20 88 20 320 -4z m-6241 -1652 c50 -64 18
-108 -99 -134 -115 -25 -116 -29 -17 -58 159 -46 356 -62 792 -62 351 0 507 9
855 50 527 61 860 90 1320 115 157 9 346 20 420 26 212 16 1234 24 1392 10
193 -17 358 -59 405 -103 32 -30 32 -97 -1 -135 l-24 -28 -124 3 c-68 1 -159
7 -203 12 -134 17 -1682 13 -1995 -5 -458 -26 -778 -52 -1390 -112 -130 -13
-272 -17 -555 -18 -524 0 -744 21 -950 92 -245 84 -341 174 -290 272 21 42 68
59 221 80 200 27 218 26 243 -5z m-12728 -1093 c20 -16 22 -23 14 -47 -10 -27
-17 -30 -100 -46 -79 -15 -93 -15 -112 -2 -27 17 -30 56 -7 75 9 8 51 19 93
25 42 6 79 12 82 13 4 0 17 -8 30 -18z m18113 -342 c30 -35 32 -58 11 -99 -21
-41 -54 -47 -304 -60 -135 -7 -301 -23 -455 -45 -132 -19 -317 -43 -411 -54
-186 -22 -377 -49 -615 -87 -618 -99 -1122 -159 -1555 -184 -134 -7 -1301 -27
-1823 -30 -86 0 -116 130 -39 172 40 21 261 29 1142 38 479 4 881 11 895 14
14 3 88 10 165 16 385 30 634 63 1195 154 972 158 1236 190 1632 194 l136 2
26 -31z m11 -883 c66 -28 85 -113 37 -167 -25 -28 -39 -34 -133 -50 -57 -10
-189 -28 -294 -39 -367 -40 -668 -83 -1020 -149 -88 -16 -275 -50 -415 -76
-464 -85 -764 -143 -1185 -230 -301 -62 -408 -83 -767 -150 -802 -148 -917
-161 -1432 -152 -497 9 -617 28 -750 118 -91 63 -124 92 -136 124 -18 48 17
95 72 95 13 0 56 -22 94 -49 95 -67 160 -87 339 -102 216 -18 713 -15 906 5
297 31 863 141 1566 305 374 88 429 100 748 166 143 30 330 70 415 90 486 114
1213 232 1645 268 117 10 278 6 310 -7z"/>
<path d="M30240 34671 c-41 -5 -158 -18 -260 -30 -102 -11 -299 -28 -437 -36
-263 -15 -290 -19 -438 -65 -49 -15 -110 -31 -135 -35 -68 -11 -139 -42 -197
-86 -29 -22 -53 -43 -53 -47 0 -4 44 -55 98 -113 155 -168 271 -295 388 -424
353 -391 508 -556 519 -553 23 5 406 510 640 843 85 121 245 336 323 434 41
51 70 97 65 101 -11 12 -422 20 -513 11z"/>
<path d="M30864 34343 c-17 -23 -43 -77 -59 -120 -32 -90 -49 -113 -81 -113
-18 0 -39 -24 -101 -115 -288 -427 -465 -672 -610 -847 -40 -48 -73 -94 -73
-102 0 -7 7 -20 16 -27 20 -17 204 -224 259 -293 22 -27 67 -67 101 -90 80
-54 179 -148 275 -261 95 -114 266 -272 279 -259 10 10 34 1743 28 2079 l-3
190 -31 -42z"/>
<path d="M28537 34083 c-9 -121 -54 -292 -172 -663 -91 -286 -138 -497 -155
-690 -20 -230 -10 -362 35 -450 55 -107 181 -194 379 -260 66 -22 69 -22 86
-4 17 18 815 1012 835 1040 7 10 -20 44 -111 136 -175 179 -319 337 -613 668
-144 162 -265 296 -270 298 -4 1 -11 -32 -14 -75z"/>
<path d="M29708 32767 c-212 -270 -639 -829 -636 -832 9 -10 216 -36 351 -45
84 -6 235 -20 337 -31 329 -37 361 -38 641 -39 293 0 347 7 403 51 36 28 33
45 -11 53 -29 4 -68 31 -163 112 -69 59 -168 141 -220 182 -144 116 -199 170
-250 250 -34 53 -93 116 -213 228 -91 84 -168 154 -170 154 -2 0 -33 -37 -69
-83z"/>
<path d="M28715 31482 c-82 -107 -181 -236 -219 -285 l-69 -90 11 -57 c7 -31
15 -175 18 -321 5 -224 3 -283 -12 -389 -14 -94 -19 -187 -19 -376 l0 -251 38
-57 c71 -106 254 -214 447 -261 214 -53 515 -101 535 -85 6 5 17 36 24 67 22
100 88 290 137 392 l46 99 -87 108 c-210 265 -382 570 -540 961 l-58 143 -41
-6 c-22 -3 -88 -14 -146 -25 -58 -10 -117 -19 -131 -19 -53 0 -79 70 -40 109
18 18 119 53 234 82 26 6 50 15 53 20 2 5 -11 41 -30 82 -58 124 -69 192 -41
247 32 63 111 88 174 56 15 -8 46 -35 69 -60 34 -36 42 -53 41 -79 -1 -19 14
-66 40 -121 l41 -89 98 6 c174 9 959 177 1152 246 l55 20 -165 0 c-166 1 -394
18 -616 45 -65 8 -173 18 -239 21 -116 6 -378 35 -500 55 -110 18 -95 29 -260
-188z"/>
<path d="M30695 31375 c-33 -7 -107 -27 -163 -44 -232 -69 -750 -162 -1032
-186 -164 -13 -240 -27 -240 -42 0 -30 125 -316 235 -538 104 -209 253 -455
280 -462 12 -3 50 48 158 211 93 141 306 428 396 536 74 88 354 390 435 470
31 30 56 58 56 62 0 12 -56 8 -125 -7z"/>
<path d="M31075 31258 c-405 -371 -937 -998 -1080 -1271 l-56 -108 46 -57 c26
-31 105 -121 176 -199 106 -115 149 -153 227 -204 53 -35 145 -105 204 -156
l106 -93 193 -11 192 -11 33 38 c36 42 48 74 63 174 43 280 106 1254 106 1630
0 200 -2 218 -22 262 -21 46 -64 98 -80 98 -4 0 -53 -41 -108 -92z"/>
<path d="M27650 30046 c-220 -43 -430 -91 -430 -99 0 -5 9 -20 20 -34 28 -36
27 -110 -3 -154 -31 -46 -75 -60 -165 -53 l-74 6 6 -43 c4 -24 24 -170 47
-324 22 -154 49 -350 60 -435 11 -85 29 -213 40 -285 25 -161 57 -478 66 -647
l6 -128 26 0 c135 0 537 37 741 68 97 14 187 17 573 16 455 -1 458 0 462 20 2
12 6 102 9 201 6 173 1 235 -25 355 -11 53 -11 57 22 125 19 38 43 74 54 80
11 5 22 11 23 12 2 1 -1 17 -7 36 -10 28 -9 42 3 70 29 71 -3 67 683 78 628 9
798 19 573 33 -289 18 -362 25 -820 72 -371 38 -686 99 -858 164 -194 74 -366
199 -451 327 -68 103 -98 254 -87 436 5 81 4 97 -8 97 -8 0 -18 -4 -21 -10
-10 -16 -65 -11 -154 15 -103 30 -159 30 -311 1z"/>
<path d="M25990 29704 c-58 -2 -364 -8 -680 -14 -316 -6 -699 -15 -850 -20
-260 -9 -588 -36 -610 -50 -16 -10 -57 -195 -97 -435 -20 -124 -30 -680 -14
-838 6 -66 20 -141 32 -171 26 -71 86 -137 152 -169 86 -40 118 -116 81 -192
-35 -74 -114 -94 -216 -55 -29 11 -99 29 -156 40 -94 18 -145 20 -581 20 -486
0 -759 -13 -1179 -55 -158 -16 -538 -82 -773 -134 -192 -43 -295 -54 -444 -49
-107 4 -144 10 -209 32 -183 62 -366 201 -501 381 -99 130 -219 354 -291 540
-36 94 -39 98 -45 68 -15 -77 -76 -124 -188 -148 -62 -13 -281 -31 -716 -60
-138 -9 -384 -43 -543 -75 -241 -49 -394 -64 -642 -65 l-225 0 -2 -170 c-3
-229 -40 -901 -58 -1050 -8 -66 -21 -199 -30 -295 -46 -517 -57 -632 -67 -710
-12 -101 -22 -1419 -11 -1437 6 -8 21 -9 53 -3 25 5 133 16 240 25 107 9 429
40 715 71 286 30 590 61 675 70 188 18 384 41 451 54 34 7 57 18 73 37 23 27
28 28 118 28 51 0 104 -4 117 -9 l24 -8 -7 98 c-7 99 -52 448 -63 493 -6 23
-7 23 -19 6 -7 -10 -25 -49 -40 -87 -40 -106 -81 -132 -138 -87 -33 26 -33 54
-2 145 32 94 68 168 118 245 24 35 54 87 68 114 18 37 36 55 65 70 23 11 57
33 78 50 l36 29 -26 45 c-15 25 -92 145 -172 266 -195 296 -233 364 -239 429
-4 45 -1 56 22 83 15 18 42 37 61 43 53 17 95 -1 158 -70 30 -32 89 -88 131
-125 67 -59 76 -70 76 -101 0 -27 24 -69 117 -207 64 -94 125 -182 135 -193
l20 -22 56 23 c31 13 107 44 167 70 229 98 588 206 865 260 334 66 520 79
1285 91 l440 7 120 116 c200 194 467 432 528 472 32 21 74 43 94 50 65 21 243
-14 264 -53 19 -36 2 -67 -49 -89 -106 -46 -211 -130 -383 -307 -93 -96 -169
-178 -169 -182 0 -4 64 -10 143 -14 180 -9 368 -31 477 -57 179 -42 307 -132
349 -244 42 -112 22 -344 -54 -620 -73 -263 -86 -313 -114 -440 -89 -394 -100
-511 -100 -1000 -1 -354 11 -604 34 -755 25 -165 99 -320 207 -431 81 -82 119
-105 238 -138 249 -70 309 -107 318 -200 8 -82 -40 -139 -128 -156 -74 -13
-271 49 -410 131 -60 35 -130 51 -345 79 -155 20 -348 34 -358 25 -4 -4 32
-31 80 -60 97 -58 291 -239 318 -296 36 -77 6 -175 -68 -219 -74 -43 -112 -36
-273 47 -76 39 -157 83 -179 98 -44 29 -247 143 -475 265 -80 43 -199 108
-265 145 l-120 68 -230 6 c-231 5 -895 30 -1100 41 -60 3 -238 10 -395 15
-157 5 -302 13 -322 16 -36 6 -37 6 -80 -62 -86 -134 -446 -740 -478 -804 -47
-93 -68 -160 -90 -285 -17 -94 -24 -114 -49 -139 -62 -61 -174 -39 -208 42
-26 61 -13 311 21 426 58 193 178 447 346 730 51 87 89 161 84 165 -5 4 -30
15 -56 25 -67 25 -158 86 -202 137 -21 24 -53 73 -70 109 l-31 65 -3 718 c-1
394 -7 717 -11 717 -5 0 -14 -6 -21 -14 -26 -33 -195 -75 -425 -106 -125 -18
-741 -87 -1110 -125 -238 -24 -738 -73 -849 -82 l-59 -5 7 -316 c16 -765 63
-1539 126 -2072 12 -96 36 -308 55 -470 50 -440 60 -494 99 -575 45 -93 49
-107 37 -152 -23 -83 -97 -121 -193 -99 -32 7 -60 11 -63 8 -11 -12 -3 -109
13 -150 l17 -43 537 -6 c582 -5 639 -2 1013 48 529 71 860 97 978 76 42 -7 79
-11 82 -9 3 3 5 123 5 266 0 288 2 298 61 330 35 19 36 19 74 0 80 -40 102
-111 114 -373 l9 -183 52 -76 c46 -65 52 -78 44 -101 -9 -23 -15 -26 -54 -25
l-43 1 7 -475 c3 -261 11 -505 16 -541 13 -89 55 -234 88 -299 54 -106 100
-145 195 -163 31 -6 486 -14 1112 -19 1015 -7 1066 -9 1190 -29 72 -12 204
-30 295 -41 212 -26 335 -45 490 -76 207 -41 557 -133 719 -189 41 -14 81 -25
88 -25 9 0 -1 27 -31 83 -112 205 -167 492 -187 962 -14 341 -6 1016 15 1189
20 167 31 373 22 419 -6 31 -14 41 -54 61 -108 54 -159 59 -658 64 -280 2
-542 -1 -670 -8 -115 -6 -474 -15 -799 -20 -555 -8 -682 -14 -915 -41 -94 -11
-244 -39 -309 -58 -37 -11 -161 -89 -254 -159 -32 -24 -83 -77 -113 -117 -30
-40 -63 -75 -72 -77 -28 -8 -61 9 -73 36 -10 21 -7 33 21 83 119 211 196 283
340 318 36 9 135 38 220 66 282 89 632 138 1205 169 279 15 653 39 790 50 188
17 898 24 1065 11 306 -23 467 -104 531 -269 20 -51 23 -74 22 -207 -1 -82 -9
-213 -17 -290 -9 -77 -19 -222 -23 -322 -6 -191 -5 -196 36 -174 10 6 87 14
173 20 85 6 231 22 324 35 215 32 380 53 469 61 39 4 167 20 285 36 295 40
521 58 810 65 223 6 552 -6 591 -21 13 -5 15 20 13 194 -1 110 -6 206 -10 213
-5 7 -12 576 -15 1263 -4 920 -9 1270 -18 1325 -18 109 -36 127 -162 170 -123
41 -178 79 -198 137 -59 168 193 312 724 417 234 46 308 57 433 63 l122 6 0
201 c0 111 3 426 7 701 l6 500 -58 44 c-67 50 -171 111 -191 111 -10 0 -11 -6
-4 -26 24 -62 -3 -114 -59 -114 -36 0 -65 35 -117 137 -55 110 -39 193 46 235
48 25 160 24 233 -1 65 -23 183 -81 235 -116 20 -14 43 -25 51 -25 8 0 57 42
110 93 105 102 178 155 288 210 172 87 334 138 441 139 26 0 256 0 512 -1 559
0 656 -8 1388 -107 l123 -17 207 205 c114 112 240 228 280 257 40 30 71 55 69
57 -2 3 -130 9 -283 14 -597 21 -765 30 -919 50 -229 29 -243 28 -286 -16 -58
-62 -130 -114 -155 -114 -34 0 -74 42 -74 78 0 16 10 41 21 56 12 15 20 29 18
31 -3 2 -60 8 -129 15 -391 34 -580 122 -667 308 -30 65 -42 181 -34 345 3 66
3 121 0 123 -3 2 -44 -1 -90 -6 -46 -5 -219 -15 -384 -20 -210 -8 -372 -20
-540 -40 -258 -31 -588 -60 -690 -60 -61 0 -63 -1 -88 -38 -43 -66 -123 -89
-190 -56 -86 43 -147 144 -132 220 3 19 22 53 42 75 l35 39 -11 173 c-15 223
-35 412 -71 666 -16 114 -34 251 -40 306 -6 55 -15 125 -20 155 -12 64 -35
235 -55 405 -8 66 -17 135 -20 153 l-6 32 -317 -2 c-174 -1 -364 -3 -422 -4z"/>
<path d="M29821 29638 c-5 -13 -27 -63 -49 -113 -40 -91 -92 -229 -92 -245 0
-8 71 -19 295 -45 175 -20 315 -29 315 -22 0 22 -103 144 -163 193 -40 32
-120 103 -178 156 -59 54 -110 98 -113 98 -4 0 -10 -10 -15 -22z"/>
<path d="M31250 28793 l-66 -4 -43 -87 c-24 -48 -73 -141 -111 -207 -37 -66
-100 -181 -141 -255 -40 -74 -128 -226 -196 -336 -68 -111 -123 -207 -123
-213 0 -6 19 -23 43 -38 23 -16 95 -67 161 -116 65 -48 168 -121 230 -161 189
-124 457 -272 470 -259 3 4 6 52 6 107 0 188 32 572 85 1034 20 173 30 460 17
494 -8 20 -20 28 -44 32 -50 8 -215 13 -288 9z"/>
<path d="M30819 28736 c-2 -2 -56 -12 -119 -21 -134 -19 -566 -34 -1011 -34
l-306 -1 11 -37 c7 -24 27 -48 57 -72 25 -20 99 -77 165 -128 65 -51 182 -146
259 -213 228 -198 494 -420 503 -420 9 0 118 202 295 550 69 135 139 270 156
300 17 30 31 61 31 68 0 11 -31 17 -41 8z"/>
<path d="M29275 28107 c0 -144 -6 -343 -14 -442 -18 -225 -11 -303 30 -349 41
-47 127 -82 259 -105 114 -21 448 -52 463 -44 4 3 32 53 62 113 31 63 76 132
106 166 59 67 89 112 89 134 0 8 -53 53 -117 99 -142 102 -315 237 -438 341
-82 70 -406 327 -430 342 -7 4 -10 -81 -10 -255z"/>
<path d="M30413 27448 c-6 -7 -23 -51 -38 -98 -16 -47 -46 -110 -68 -143 -22
-31 -38 -59 -35 -62 3 -3 70 -12 149 -20 79 -8 191 -22 249 -30 114 -16 340
-31 340 -23 0 3 -44 32 -97 63 -139 83 -434 279 -457 304 -22 24 -30 26 -43 9z"/>
<path d="M21570 26314 c-19 -2 -91 -9 -160 -15 -189 -16 -463 -65 -675 -119
-265 -68 -575 -175 -653 -226 l-23 -15 117 -172 c246 -363 461 -634 901 -1136
32 -36 32 -36 51 -16 11 11 63 89 116 173 167 266 235 350 565 692 119 124
293 313 387 420 95 107 213 240 263 295 60 66 87 102 78 106 -13 7 -909 20
-967 13z"/>
<path d="M22884 26213 c-96 -106 -226 -258 -439 -512 -179 -214 -245 -289
-404 -456 -250 -263 -353 -394 -525 -670 -65 -104 -127 -201 -137 -214 -11
-13 -19 -29 -19 -36 0 -14 311 -353 481 -525 96 -97 401 -350 579 -481 112
-82 241 -168 367 -242 l111 -66 149 -6 c131 -5 317 -18 638 -45 55 -4 102 -6
104 -4 3 3 -11 35 -31 72 -85 157 -119 322 -139 672 -14 238 -3 912 17 1070
26 206 107 575 189 860 65 226 100 454 76 498 -26 49 -220 106 -441 131 -72 8
-425 30 -496 31 -5 0 -42 -35 -80 -77z"/>
<path d="M29075 26264 c-301 -41 -461 -80 -592 -145 -84 -41 -119 -66 -198
-141 -52 -49 -95 -95 -95 -100 0 -6 26 -38 58 -72 125 -134 247 -299 492 -666
155 -232 280 -404 433 -594 l120 -149 26 29 c14 17 127 147 251 289 463 533
569 653 692 782 248 260 510 576 492 593 -13 12 -692 118 -864 134 -228 23
-752 48 -815 40z"/>
<path d="M31064 26018 c-12 -12 -80 -102 -151 -198 -153 -206 -209 -274 -393
-475 -377 -412 -1000 -1155 -1000 -1193 0 -16 284 -318 338 -360 20 -16 80
-58 132 -94 52 -37 174 -133 270 -216 l175 -149 265 -6 c297 -7 448 -28 680
-92 128 -36 150 -40 150 -28 0 3 -7 42 -16 86 -14 68 -16 134 -11 441 5 399 5
399 113 1054 51 313 74 425 144 712 61 246 71 322 46 349 -45 50 -179 94 -441
145 -266 52 -276 53 -301 24z"/>
<path d="M19775 25748 c-3 -8 6 -40 20 -73 31 -69 27 -98 -15 -117 -16 -7 -30
-17 -30 -23 0 -5 13 -75 30 -155 16 -80 41 -230 56 -335 27 -190 27 -191 33
-955 7 -846 2 -796 71 -854 30 -24 142 -66 180 -66 13 0 51 53 125 173 243
390 296 468 543 798 56 75 102 142 102 149 0 6 -67 91 -148 188 -328 391 -551
685 -784 1037 -88 132 -164 241 -169 243 -5 2 -11 -3 -14 -10z"/>
<path d="M28190 25198 c0 -257 26 -1188 36 -1283 17 -166 93 -484 135 -567 20
-39 76 -108 88 -108 4 0 35 42 68 93 117 179 400 580 520 739 40 53 73 100 73
104 0 3 -44 59 -98 123 -165 195 -280 351 -513 701 -239 357 -290 429 -301
430 -5 0 -8 -105 -8 -232z"/>
<path d="M21126 23994 c-68 -67 -566 -836 -566 -873 0 -4 73 -11 163 -15 89
-4 351 -16 582 -26 231 -10 498 -22 594 -26 l175 -7 -224 219 c-222 218 -471
477 -627 651 -73 82 -84 90 -97 77z"/>
<path d="M29248 23813 c-47 -65 -145 -205 -218 -312 -73 -106 -150 -219 -172
-250 l-39 -56 97 -3 c97 -3 148 3 559 67 105 16 249 35 320 41 72 7 132 14
134 16 3 3 -20 30 -50 62 -31 31 -90 99 -132 150 -43 51 -121 134 -175 185
-53 50 -126 120 -161 154 -35 35 -67 63 -71 63 -3 0 -45 -53 -92 -117z"/>
<path d="M3590 22924 c0 -14 4 -23 10 -19 6 3 10 15 10 26 0 10 -4 19 -10 19
-5 0 -10 -12 -10 -26z"/>
<path d="M36705 29133 c-200 -16 -353 -44 -590 -108 -347 -94 -583 -184 -898
-340 -147 -73 -213 -119 -317 -219 -87 -83 -110 -126 -110 -204 0 -82 32 -140
134 -241 l85 -85 53 42 c419 332 854 615 1116 724 188 79 368 107 573 90 146
-13 443 -95 646 -180 39 -17 120 -43 180 -57 59 -15 116 -34 126 -43 37 -33
10 -92 -42 -92 -44 0 -200 29 -256 47 -27 9 -90 35 -140 58 -99 46 -128 54
-320 86 -106 17 -153 20 -255 15 -137 -6 -180 -16 -315 -68 -218 -85 -459
-228 -725 -432 -344 -263 -525 -419 -790 -685 -585 -586 -907 -1081 -1009
-1546 -65 -295 -51 -734 30 -985 30 -91 80 -220 85 -220 3 0 17 8 31 17 19 13
49 18 107 19 70 1 96 7 191 43 468 182 596 225 763 258 69 13 83 20 87 37 8
35 55 316 55 326 0 6 -8 10 -19 10 -30 0 -43 25 -52 108 -5 43 -21 134 -35
202 -24 110 -27 148 -28 320 -1 182 0 198 21 235 46 86 124 129 223 123 81 -4
129 -35 163 -104 11 -24 24 -44 27 -44 4 0 45 23 91 51 255 154 639 321 1019
442 443 142 536 160 835 160 194 0 229 -2 298 -21 187 -51 294 -153 342 -328
22 -81 31 -436 16 -664 -26 -408 -98 -1321 -122 -1545 -17 -163 -23 -936 -10
-1184 14 -247 10 -278 -42 -329 -65 -63 -142 -56 -245 22 -143 108 -354 187
-652 243 -82 15 -160 17 -565 18 -399 1 -484 4 -560 18 -325 62 -517 219 -702
573 -70 134 -89 193 -104 316 -12 101 -8 485 8 707 l6 93 -34 -7 c-89 -18
-437 -146 -621 -229 -48 -21 -60 -32 -76 -70 -32 -71 -93 -93 -169 -61 -55 23
-63 16 -63 -62 0 -64 3 -72 57 -163 214 -360 582 -839 858 -1115 364 -362 642
-565 1050 -765 181 -88 327 -150 409 -172 41 -11 53 -9 143 20 315 102 467
126 813 126 462 1 680 -45 893 -187 l66 -45 78 96 c93 115 129 142 189 142 58
0 111 -45 120 -101 4 -21 8 -39 11 -39 2 0 54 21 116 47 144 60 468 224 577
292 501 315 898 678 1105 1012 236 381 359 768 411 1294 26 263 26 853 1 1015
-63 393 -186 763 -375 1130 -551 1071 -1438 1770 -2607 2055 -163 40 -337 70
-485 85 -225 22 -725 36 -875 23z"/>
<path d="M37205 26643 c-207 -19 -873 -199 -1252 -338 -207 -77 -299 -119
-373 -172 l-55 -39 -1 -194 c-1 -159 -7 -224 -28 -355 -51 -309 -105 -681
-117 -810 -18 -186 -18 -684 0 -755 31 -122 169 -350 267 -439 32 -30 91 -69
129 -88 121 -57 170 -63 600 -73 215 -5 435 -11 490 -15 238 -14 543 -87 742
-176 36 -16 69 -29 74 -29 5 0 9 178 9 425 0 418 9 621 45 1010 8 88 24 277
35 420 11 143 25 310 30 370 39 453 50 1012 21 1107 -18 56 -71 103 -141 122
-89 25 -346 41 -475 29z"/>
<path d="M35222 26188 c-40 -50 -50 -304 -17 -480 28 -153 35 -147 60 47 15
122 16 409 1 433 -9 16 -31 15 -44 0z"/>
<path d="M34106 23518 c-8 -133 -26 -305 -66 -634 -68 -550 -72 -623 -77
-1334 -5 -728 9 -1648 32 -1985 18 -284 54 -704 61 -730 3 -11 10 -177 14
-370 9 -379 11 -398 79 -625 48 -164 127 -529 150 -696 11 -83 25 -243 31
-355 6 -112 13 -237 16 -278 l6 -74 92 179 c190 369 376 644 630 934 154 176
623 641 791 784 284 243 608 474 893 636 72 41 132 78 132 81 0 13 -57 19
-245 29 -104 5 -233 12 -286 16 l-95 6 -45 -50 c-170 -189 -586 -737 -744
-980 -107 -166 -136 -204 -166 -221 -33 -18 -74 -8 -95 25 -16 23 -16 38 -5
152 7 69 17 134 22 143 14 26 47 33 74 15 l24 -16 72 128 c107 189 205 341
356 550 75 103 138 194 140 202 3 8 -22 -13 -56 -47 -58 -59 -65 -63 -107 -63
-37 0 -51 6 -75 29 -23 24 -29 38 -29 75 0 41 5 51 60 113 33 37 60 70 60 74
0 3 -18 19 -41 34 -90 63 -210 217 -269 349 -73 161 -150 486 -150 634 l0 40
-72 15 c-82 18 -134 23 -328 37 -113 7 -158 6 -275 -10 -141 -19 -246 -40
-298 -59 l-29 -11 31 -29 c36 -33 38 -50 13 -82 -21 -26 -52 -27 -167 -8 -85
14 -120 33 -141 77 -60 128 134 255 461 302 39 5 156 14 262 20 245 14 336 4
446 -47 42 -20 80 -34 83 -30 3 3 1 124 -5 269 -14 313 -16 542 -6 583 13 51
34 84 65 100 39 20 68 19 107 -5 40 -24 54 -70 59 -195 2 -49 10 -162 19 -250
8 -88 19 -268 25 -400 17 -381 30 -487 86 -680 51 -174 136 -317 238 -397 87
-69 82 -69 191 2 53 34 150 88 214 119 l118 56 139 164 c76 90 149 175 161
190 l21 27 -120 149 c-149 187 -751 983 -882 1168 -93 130 -100 137 -132 137
-21 0 -42 8 -55 21 -18 18 -20 29 -15 68 l6 47 -107 135 c-115 144 -295 337
-301 321 -3 -10 4 -43 38 -167 29 -109 70 -311 70 -346 0 -17 -8 -34 -22 -43
-57 -40 -84 -8 -114 136 -27 135 -67 272 -124 428 -66 182 -71 205 -57 248 16
48 66 82 121 82 57 0 163 -53 256 -127 99 -79 262 -249 379 -395 l93 -118 90
62 c49 34 93 68 99 74 8 10 -5 21 -53 45 -361 182 -677 418 -1028 769 -220
220 -418 458 -629 758 -51 72 -96 132 -100 132 -5 0 -11 -51 -15 -112z"/>
<path d="M37097 22060 c-20 -4 -40 -9 -42 -12 -3 -3 50 -13 117 -23 143 -20
845 -34 818 -16 -58 40 -749 79 -893 51z"/>
<path d="M36088 21797 c-34 -23 -103 -60 -153 -82 -58 -27 -90 -46 -89 -56 1
-16 165 -247 340 -480 57 -75 190 -258 297 -406 280 -389 380 -522 393 -523 6
0 38 30 70 67 131 150 400 451 589 658 110 121 223 247 251 280 77 90 244 295
244 299 0 2 -125 3 -277 3 -406 0 -667 26 -1012 99 -153 33 -370 98 -523 157
l-67 26 -63 -42z"/>
<path d="M31290 21813 c-41 -5 -154 -28 -375 -77 -196 -44 -317 -62 -505 -77
-191 -16 -617 -15 -913 1 -130 7 -240 11 -243 7 -9 -9 277 -407 390 -542 139
-166 605 -645 627 -645 4 0 83 84 177 188 93 103 249 273 347 377 231 247 670
744 670 759 0 11 -109 17 -175 9z"/>
<path d="M38413 21578 c-11 -13 -66 -84 -123 -158 -176 -229 -355 -438 -695
-810 -249 -272 -520 -574 -529 -587 -4 -8 30 -57 96 -134 57 -67 112 -133 123
-146 16 -20 42 -28 140 -48 206 -40 414 -99 583 -166 87 -35 98 -36 106 -6 22
77 100 401 136 562 23 105 60 264 81 355 45 193 94 441 109 555 24 176 25 605
1 605 -4 0 -17 -10 -28 -22z"/>
<path d="M31405 21324 c-170 -198 -255 -294 -449 -504 -253 -273 -255 -276
-360 -395 -53 -60 -95 -113 -94 -117 4 -9 135 -99 266 -183 143 -91 349 -198
357 -185 12 20 126 356 180 530 123 400 179 621 210 825 29 191 29 191 -110
29z"/>
<path d="M30186 19959 c-69 -77 -126 -144 -126 -149 0 -11 9 -13 145 -39 244
-47 506 -90 609 -101 113 -12 219 -5 213 13 -2 6 -44 27 -95 48 -51 20 -129
59 -174 85 -112 64 -390 246 -407 267 -7 9 -19 17 -27 17 -7 0 -69 -63 -138
-141z"/>
<path d="M36849 19783 l-33 -38 68 -3 c38 -2 71 -1 73 2 8 8 -48 76 -62 76 -7
0 -28 -17 -46 -37z"/>
<path d="M36616 19470 c-40 -7 -57 -17 -87 -52 -21 -24 -38 -46 -39 -50 0 -9
58 -16 193 -23 141 -7 309 -36 530 -91 180 -45 217 -51 217 -36 0 13 -115 174
-141 199 -18 16 -50 25 -129 37 -123 19 -473 29 -544 16z"/>
<path d="M37800 19274 c0 -14 145 -204 156 -204 7 0 22 25 34 57 26 69 26 69
-92 117 -90 37 -98 40 -98 30z"/>
<path d="M38254 19033 c-39 -93 -76 -168 -90 -184 -20 -23 -18 -31 72 -215 88
-183 92 -194 65 -218 -41 -37 -61 -20 -129 108 -71 136 -86 156 -118 156 -12
0 -46 18 -75 40 -30 22 -59 40 -66 40 -7 0 -86 29 -176 64 -200 78 -263 99
-402 131 l-109 26 -81 -40 c-477 -237 -1084 -736 -1614 -1326 -324 -360 -516
-629 -693 -971 -163 -313 -277 -656 -304 -911 l-7 -63 144 0 c195 0 362 16
494 45 101 23 477 65 580 65 24 0 47 5 50 10 3 6 17 85 30 178 20 134 25 216
27 417 l3 250 -33 14 c-28 13 -35 24 -54 85 -27 88 -29 171 -5 208 51 76 179
77 249 2 76 -81 100 -223 102 -599 1 -221 -3 -293 -18 -395 -11 -69 -21 -162
-22 -208 -1 -55 -7 -91 -18 -107 -24 -36 -46 -248 -46 -436 0 -166 0 -168 26
-199 58 -68 8 -64 868 -72 667 -7 801 -11 930 -27 103 -13 155 -16 164 -9 9 8
12 78 12 287 0 331 12 450 75 737 64 288 104 501 117 619 15 139 6 388 -16
440 -39 91 -144 161 -312 206 -70 19 -113 22 -365 26 -274 5 -293 4 -445 -21
-214 -35 -351 -67 -524 -122 l-145 -45 -76 -80 c-85 -88 -116 -99 -157 -56
-28 29 -28 56 -1 110 45 88 94 142 167 180 142 75 529 188 806 236 154 27 600
30 742 6 189 -33 325 -96 430 -200 122 -120 143 -185 151 -462 6 -209 -3 -330
-43 -563 -21 -126 -89 -479 -109 -565 -4 -16 -10 -194 -14 -395 -7 -340 -9
-369 -29 -420 -28 -73 -69 -120 -128 -150 -43 -22 -61 -25 -154 -24 -58 0
-166 6 -239 12 -89 8 -387 12 -865 12 -793 0 -810 1 -916 55 -71 36 -155 122
-188 192 -27 58 -27 59 -27 288 0 127 4 265 8 308 l8 78 -73 -6 c-40 -4 -140
-16 -223 -26 -82 -11 -215 -26 -295 -34 -80 -8 -192 -21 -250 -29 -58 -8 -170
-18 -249 -22 l-144 -7 7 -84 c9 -111 36 -195 103 -325 155 -299 451 -589 859
-840 325 -200 794 -370 1264 -457 283 -53 437 -65 844 -66 l370 0 86 206 c93
222 122 279 167 323 48 48 108 60 163 31 49 -25 57 -54 65 -242 l7 -172 -26
-26 c-29 -29 -46 -31 -87 -10 l-29 16 -20 -46 c-11 -26 -20 -51 -20 -56 0 -13
39 -11 166 5 593 79 1147 269 1623 556 464 281 727 631 796 1060 22 142 30
401 16 520 -34 280 -125 556 -296 905 -245 500 -607 993 -1028 1401 -312 304
-758 625 -1210 873 l-77 43 -16 -39z"/>
<path d="M24427 16258 c-113 -189 -297 -498 -409 -688 -113 -190 -289 -487
-393 -660 -170 -286 -550 -944 -561 -973 -3 -9 114 -12 503 -12 428 0 529 -3
643 -18 301 -40 508 -81 809 -162 113 -30 206 -53 208 -51 3 2 -23 57 -55 123
-122 243 -186 487 -249 958 -16 114 -18 221 -18 860 -1 726 -1 730 -22 770
-12 22 -36 54 -55 72 -39 38 -167 123 -184 123 -7 0 -105 -154 -217 -342z"/>
<path d="M36322 13278 c-2 -79 -7 -195 -12 -258 -5 -63 -10 -124 -10 -135 0
-11 28 -49 62 -85 160 -170 556 -699 773 -1033 28 -42 55 -78 61 -81 5 -2 34
63 63 148 80 225 203 550 355 934 75 188 136 345 136 348 0 8 -63 -1 -305 -42
-151 -25 -265 -38 -465 -49 -146 -9 -320 -22 -388 -31 -116 -15 -124 -15 -160
3 -26 13 -41 29 -50 55 -18 47 -9 82 28 120 l29 29 138 -2 c97 -1 177 5 268
19 72 12 166 26 210 33 95 14 114 25 54 32 -268 32 -342 42 -454 63 -71 14
-174 36 -227 50 -53 13 -98 24 -100 24 -2 0 -5 -64 -6 -142z"/>
<path d="M38056 13131 c-4 -5 -22 -51 -42 -103 -74 -191 -109 -281 -231 -588
-69 -173 -186 -479 -259 -679 l-134 -363 22 -32 c40 -58 182 -240 265 -342
l83 -100 142 -53 c79 -29 149 -53 156 -54 20 -3 200 423 273 645 138 419 189
743 189 1202 -1 370 -27 435 -189 466 -67 12 -268 13 -275 1z"/>
<path d="M36290 12289 c0 -167 20 -293 81 -503 100 -350 213 -475 533 -591 55
-20 105 -34 112 -31 12 5 64 148 64 177 0 9 -17 40 -38 70 -21 30 -111 162
-201 294 -171 250 -528 735 -543 735 -4 0 -8 -68 -8 -151z"/>
<path d="M21940 11752 c0 -10 13 -121 29 -247 16 -127 39 -329 51 -450 20
-214 54 -429 71 -451 5 -6 55 -24 111 -40 136 -38 292 -117 332 -166 41 -53
48 -129 14 -178 -51 -75 -120 -99 -308 -106 -63 -2 -116 -8 -118 -14 -2 -5 4
-140 12 -300 9 -160 16 -405 16 -543 0 -415 22 -683 60 -730 17 -21 26 -22
142 -22 l123 1 270 77 c507 146 902 208 1510 237 323 16 593 38 735 61 263 43
500 122 500 168 0 11 -21 64 -46 118 -65 138 -101 233 -129 343 -41 163 -47
260 -42 611 4 305 6 331 31 448 55 249 168 550 317 841 38 74 69 141 69 148 0
18 -273 16 -583 -4 -191 -13 -419 -17 -942 -18 -836 -1 -809 -4 -1425 124
-364 75 -483 85 -564 49 l-47 -20 -64 21 c-35 12 -75 30 -89 41 -30 24 -36 24
-36 1z"/>
<path d="M35498 10355 c-48 -13 -105 -33 -125 -44 -63 -32 -259 -158 -346
-222 -45 -33 -92 -62 -104 -65 -25 -7 -25 3 2 -209 28 -210 35 -393 41 -950 3
-320 9 -586 15 -620 13 -70 37 -135 51 -135 6 0 54 31 107 69 311 223 561 356
854 455 147 49 225 60 387 52 221 -10 330 -43 420 -126 29 -27 47 -37 54 -30
6 6 12 113 14 261 l5 252 -199 -6 c-260 -8 -493 -46 -729 -118 -160 -50 -184
-65 -283 -178 -39 -46 -92 -49 -128 -7 -33 38 -30 63 14 132 55 85 117 136
224 188 247 119 625 208 981 231 l108 7 -6 39 c-4 22 -17 76 -29 122 -18 71
-24 82 -41 79 -69 -12 -105 -7 -132 20 -31 32 -35 71 -15 173 7 33 12 89 12
125 0 64 -1 67 -66 162 -111 165 -225 249 -409 303 -135 39 -253 56 -430 61
-148 4 -167 2 -247 -21z"/>
<path d="M37137 8808 c-8 -313 -39 -511 -105 -675 -21 -52 -26 -76 -20 -98 10
-38 -13 -75 -47 -75 -14 0 -32 -11 -45 -27 -135 -176 -252 -221 -688 -268
-121 -14 -224 -16 -533 -12 -420 5 -448 8 -594 69 -38 16 -82 35 -98 41 -26
11 -31 8 -108 -68 -282 -277 -546 -599 -729 -885 -158 -249 -289 -573 -336
-835 -26 -147 -27 -643 -1 -764 99 -459 406 -870 892 -1192 153 -101 499 -264
607 -286 35 -7 35 -6 7 170 -28 179 -30 294 -6 331 27 40 81 61 127 47 66 -19
79 -44 106 -197 13 -77 36 -204 50 -284 14 -79 30 -147 35 -151 18 -11 232
-38 389 -50 206 -15 796 -6 941 14 247 36 593 117 857 202 575 185 1039 425
1517 785 190 143 274 215 424 363 319 316 514 633 563 914 l11 70 -58 68
c-115 136 -176 258 -209 417 -19 90 -22 501 -6 657 l10 94 -46 86 c-252 465
-569 825 -994 1126 -376 266 -868 475 -1355 575 -115 24 -414 60 -496 60 l-56
0 -6 -222z m-717 -2033 c157 -35 250 -97 301 -200 l32 -65 -5 -142 c-8 -202
-50 -389 -180 -788 -62 -190 -272 -743 -299 -787 -31 -49 -93 -98 -152 -119
-46 -16 -92 -19 -413 -22 -387 -4 -443 2 -536 49 -60 30 -141 116 -176 185
-86 171 -156 481 -206 916 -9 81 -18 122 -30 133 -9 9 -16 24 -16 33 -1 15
-24 258 -37 372 -4 40 -1 49 24 74 25 25 33 28 78 23 41 -4 54 -10 77 -38 57
-68 90 -193 128 -484 78 -598 145 -868 238 -962 51 -50 95 -55 458 -51 243 2
325 6 336 16 17 14 22 27 116 272 210 547 332 996 332 1216 0 98 -70 121 -405
135 -202 8 -381 22 -577 46 -32 4 -41 1 -65 -26 -60 -65 -131 -61 -166 11 -16
33 -16 40 -4 70 26 61 102 125 177 149 14 5 221 7 460 5 363 -3 447 -6 510
-21z"/>
<path d="M40965 8751 c-84 -14 -162 -50 -248 -114 -206 -152 -272 -273 -284
-522 l-6 -110 71 68 c91 87 143 111 243 110 81 0 144 -21 207 -70 46 -35 104
-127 137 -218 26 -70 27 -76 11 -99 -9 -14 -16 -27 -16 -29 0 -2 32 -16 70
-31 76 -30 100 -54 100 -99 0 -40 -15 -63 -62 -95 -95 -63 -109 -63 -174 -4
-59 55 -84 91 -84 124 0 39 29 87 57 94 13 4 23 8 23 10 0 16 -72 143 -92 161
-53 50 -150 68 -207 38 -50 -25 -158 -170 -221 -295 -33 -65 -80 -183 -80
-200 0 -5 56 -6 138 -3 152 6 182 3 212 -27 29 -29 27 -94 -5 -125 -13 -14
-29 -25 -35 -25 -5 0 -10 -19 -10 -43 0 -62 -32 -90 -110 -97 l-59 -5 40 -90
c23 -49 43 -92 44 -94 2 -2 16 6 32 17 52 37 132 72 163 72 44 0 70 -16 86
-55 16 -39 7 -75 -28 -112 l-20 -21 78 -7 c103 -10 325 9 394 33 116 40 257
144 331 242 27 36 77 119 111 184 35 66 75 132 89 147 47 49 105 51 152 4 14
-14 28 -22 31 -17 3 5 9 92 12 193 8 212 -2 304 -48 449 -111 349 -336 592
-598 644 -89 18 -374 28 -445 17z"/>
<path d="M36205 8531 c-138 -23 -442 -164 -647 -300 -153 -103 -333 -241 -331
-256 0 -5 27 -19 59 -30 55 -18 87 -20 499 -20 412 0 448 1 570 23 163 28 252
56 289 90 44 42 121 156 146 218 l23 56 -21 44 c-38 78 -96 131 -168 154 -72
22 -332 35 -419 21z"/>
<path d="M31105 7990 c-226 -20 -745 -117 -895 -168 -47 -16 -127 -39 -178
-52 l-93 -22 7 -43 c12 -82 -43 -134 -126 -121 -22 3 -40 4 -40 1 0 -4 9 -110
19 -238 11 -128 23 -288 26 -357 18 -362 58 -704 101 -870 36 -137 102 -267
172 -339 112 -114 203 -141 489 -141 190 0 192 0 310 35 193 57 505 134 631
155 120 20 319 39 452 43 l75 2 7 280 c4 187 15 361 33 525 40 380 47 510 40
690 -12 312 -57 431 -193 519 -87 55 -169 80 -309 90 -198 15 -429 20 -528 11z"/>
<path d="M41965 7205 c-68 -126 -119 -200 -189 -274 -138 -146 -309 -252 -463
-288 -100 -23 -447 -26 -531 -4 -29 7 -55 11 -58 8 -3 -2 0 -26 6 -53 25 -107
41 -286 39 -432 -1 -84 0 -155 3 -157 3 -3 45 -10 94 -16 211 -26 398 41 564
202 66 65 168 186 225 269 48 69 50 76 56 155 4 71 9 89 35 125 16 23 41 63
55 88 14 25 49 67 77 92 45 40 54 55 85 145 40 116 61 199 55 217 -3 7 -26
-28 -53 -77z"/>
<path d="M33715 4453 c3 -38 10 -286 16 -553 10 -477 20 -704 31 -715 3 -4 50
-11 104 -17 116 -12 312 -4 404 16 36 8 155 35 265 60 253 57 400 77 570 78
74 0 135 4 135 9 0 4 -33 20 -72 34 -246 93 -411 175 -592 296 -362 242 -628
507 -820 817 -38 61 -48 54 -41 -25z"/>
<path d="M37330 3254 c-58 -13 -172 -34 -255 -46 -140 -22 -180 -23 -615 -23
-379 1 -488 4 -589 17 -68 10 -127 15 -132 13 -4 -3 -1 -26 6 -53 88 -321 111
-400 149 -496 165 -421 320 -653 496 -741 105 -52 145 -60 315 -60 l160 0 66
32 c181 89 331 256 477 533 93 176 160 426 169 636 7 152 3 168 -47 194 -48
24 -66 24 -200 -6z"/>
<path d="M44805 29279 c-166 -19 -358 -98 -475 -194 -77 -64 -261 -249 -352
-355 -100 -117 -351 -457 -440 -596 -186 -292 -315 -588 -377 -869 -44 -198
-54 -302 -54 -545 0 -403 36 -547 225 -895 77 -143 264 -421 371 -555 308
-383 800 -729 1264 -888 239 -83 408 -106 736 -100 221 5 236 6 308 32 138 49
322 166 458 292 366 338 624 900 708 1544 24 184 30 856 9 1035 -50 428 -231
951 -437 1265 -164 249 -450 438 -749 494 -107 21 -446 39 -560 31 -107 -8
-280 -48 -385 -90 -121 -48 -454 -219 -605 -310 -210 -127 -315 -201 -401
-282 -83 -79 -112 -90 -149 -53 -27 27 -25 66 5 127 39 78 93 133 237 239 263
195 482 320 703 402 61 23 150 57 200 77 98 41 293 95 340 95 32 0 62 14 49
23 -22 13 -179 57 -253 71 -89 17 -257 19 -376 5z m1378 -1991 c69 -36 83
-131 27 -186 -28 -29 -203 -92 -253 -92 -55 0 -93 67 -71 124 4 9 49 50 101
91 82 65 100 75 134 75 22 0 50 -5 62 -12z m-1890 -208 c80 -25 123 -59 138
-109 21 -71 -27 -150 -100 -166 -29 -6 -30 -8 -24 -54 5 -44 3 -49 -27 -74
-17 -15 -38 -27 -46 -27 -49 0 -110 67 -164 182 -38 80 -41 161 -8 203 53 67
118 80 231 45z m625 -930 c39 -36 20 -101 -33 -114 -55 -14 -27 -33 136 -94
242 -90 352 -112 574 -112 239 0 328 27 444 135 57 52 81 65 121 65 90 0 150
-103 104 -178 -27 -45 -149 -139 -236 -181 -105 -51 -173 -69 -321 -83 -277
-26 -573 35 -885 184 -155 73 -232 157 -232 252 0 99 70 142 236 145 58 1 74
-3 92 -19z"/>
<path d="M55450 25360 c-563 -11 -1061 -49 -1760 -135 -201 -25 -540 -65 -755
-91 -214 -25 -444 -52 -510 -60 -161 -19 -506 -58 -750 -84 -357 -38 -1042
-127 -1265 -165 -80 -14 -217 -36 -305 -51 -289 -46 -719 -153 -807 -201 -34
-19 -56 -39 -70 -66 -24 -48 -56 -189 -103 -452 -19 -110 -57 -303 -85 -428
-68 -315 -73 -359 -68 -641 5 -241 5 -241 43 -381 20 -77 43 -179 50 -226 14
-95 16 -101 74 -178 46 -61 52 -100 21 -131 -33 -33 -69 -25 -129 27 -37 32
-57 44 -66 37 -7 -5 -77 -59 -156 -120 -79 -61 -197 -148 -263 -193 -155 -109
-688 -490 -700 -502 -19 -18 4 -20 55 -5 81 24 116 21 151 -14 24 -24 29 -37
26 -67 -3 -35 -1 -38 32 -45 19 -4 153 -9 296 -10 270 -3 294 0 294 39 0 22
68 200 116 302 102 218 221 322 333 291 61 -16 134 -70 144 -106 12 -41 -8
-84 -47 -103 -26 -12 -35 -12 -75 3 l-46 17 -32 -37 c-42 -48 -114 -195 -154
-313 -29 -90 -30 -95 -13 -108 10 -7 26 -13 36 -13 27 0 68 -45 68 -73 0 -36
-36 -77 -68 -77 -54 0 -56 -6 -49 -152 7 -152 20 -201 75 -273 47 -62 120
-112 242 -166 168 -74 232 -108 329 -178 235 -169 482 -263 901 -343 l115 -23
1780 -1 c1168 -1 1861 -6 2015 -13 129 -6 375 -18 545 -26 585 -28 1026 -59
1300 -92 164 -20 713 -22 830 -4 150 24 242 106 298 264 40 112 103 364 121
487 21 134 90 637 111 800 17 130 130 823 166 1015 11 61 42 223 69 360 163
832 174 913 174 1250 0 328 -14 422 -91 610 -36 86 -144 245 -217 317 -193
194 -566 358 -1026 452 -380 78 -548 88 -1200 76z m727 -965 c56 -23 78 -96
48 -155 -25 -49 -54 -57 -245 -64 -96 -3 -283 -17 -415 -32 -177 -19 -330 -28
-585 -34 -341 -8 -350 -8 -815 -68 -258 -34 -488 -63 -510 -67 -22 -3 -170
-21 -330 -41 -808 -98 -1372 -196 -2000 -347 l-180 -43 -3 -36 c-7 -79 -78
-102 -180 -58 -134 58 -136 168 -5 230 65 31 363 122 558 170 320 78 1022 205
1490 269 254 35 1269 155 1570 186 83 9 229 31 325 50 103 19 241 38 335 45
88 6 171 13 185 15 14 2 183 1 375 -2 256 -4 359 -9 382 -18z m-697 -1403 c49
-24 76 -80 60 -127 -6 -19 -24 -45 -40 -58 -25 -21 -42 -25 -147 -31 -65 -4
-251 -18 -413 -31 -162 -14 -351 -29 -420 -35 -703 -56 -1007 -86 -1275 -126
-93 -14 -246 -36 -340 -50 -156 -23 -382 -61 -580 -98 -108 -20 -558 -116
-775 -165 -451 -102 -718 -142 -1040 -156 -80 -3 -166 -8 -192 -12 -45 -5 -48
-8 -58 -43 -6 -22 -25 -51 -45 -69 -30 -26 -44 -31 -88 -31 -64 0 -142 34
-180 79 -69 82 -29 201 78 230 93 25 270 52 458 71 477 47 692 80 1050 161
745 168 1114 233 1792 314 116 14 424 52 685 85 668 85 728 91 975 99 400 14
456 13 495 -7z m543 -1182 c14 -11 28 -33 32 -49 8 -36 -17 -88 -48 -101 -31
-13 -488 -32 -837 -36 -162 -1 -392 -8 -510 -14 -918 -46 -1524 -89 -1925
-136 -385 -45 -469 -53 -634 -64 -193 -12 -1015 -4 -1043 11 -21 12 -48 60
-48 88 0 30 18 64 45 83 30 23 216 35 750 48 306 8 452 16 680 39 514 53 769
69 1465 91 184 6 488 15 675 21 187 6 387 16 445 24 68 8 249 13 516 14 398 1
412 0 437 -19z m-1420 -862 c34 -17 46 -39 47 -80 0 -42 -25 -74 -62 -82 -13
-3 -201 -7 -418 -10 -515 -7 -921 -37 -1400 -102 -299 -40 -446 -54 -598 -54
l-142 0 -45 -46 -44 -47 -85 6 c-169 13 -280 70 -292 148 -8 47 17 99 59 124
30 19 59 20 422 26 388 6 466 12 1035 69 364 36 767 55 1253 58 172 2 255 -2
270 -10z"/>
<path d="M45140 16863 c-50 -11 -125 -45 -194 -89 -77 -50 -330 -293 -425
-409 -67 -83 -131 -172 -131 -183 0 -5 35 -16 78 -26 208 -48 244 -68 228
-131 -11 -45 -43 -51 -165 -31 -79 14 -130 17 -184 12 l-75 -8 -26 -59 c-15
-32 -36 -84 -46 -115 -11 -31 -25 -63 -31 -70 -18 -21 -57 -17 -73 9 -13 19
-13 29 1 85 9 34 13 65 10 68 -18 18 -202 -166 -274 -274 -98 -146 -156 -319
-174 -516 -14 -152 -6 -482 16 -592 75 -392 337 -749 728 -992 189 -118 364
-187 570 -223 100 -18 160 -22 332 -22 120 0 238 5 275 12 421 78 833 443 975
865 77 229 99 398 100 751 0 325 -6 370 -86 608 -109 327 -264 605 -489 878
-184 222 -408 383 -605 434 -61 15 -290 28 -335 18z m274 -1437 c34 -22 59
-79 51 -116 -3 -15 -19 -42 -36 -61 -16 -18 -29 -42 -29 -54 0 -47 -65 -94
-114 -81 -34 8 -139 97 -165 139 -42 69 -19 151 53 183 45 21 204 14 240 -10z
m-714 -169 c14 -7 33 -29 43 -50 16 -31 17 -42 7 -72 -10 -31 -9 -38 9 -61 30
-39 27 -80 -9 -116 -27 -27 -36 -30 -73 -26 -65 8 -204 67 -249 107 -33 30
-41 44 -45 81 -4 40 -1 50 23 79 31 37 58 50 129 61 78 12 138 11 165 -3z m45
-757 c11 -12 20 -45 25 -88 5 -47 16 -81 35 -113 38 -61 191 -210 300 -291
163 -123 290 -170 460 -172 87 -1 105 2 135 21 37 23 83 79 145 176 44 71 87
94 140 77 87 -29 93 -94 20 -224 -66 -118 -121 -178 -198 -215 -90 -44 -180
-56 -316 -42 -258 27 -453 132 -697 376 -157 157 -214 261 -199 369 8 60 30
117 52 134 25 19 77 15 98 -8z"/>
<path d="M30465 14074 c-22 -2 -132 -13 -245 -25 -241 -23 -306 -34 -375 -60
-27 -11 -90 -29 -140 -40 -155 -37 -251 -85 -335 -169 -37 -37 -40 -44 -40
-93 0 -30 -3 -89 -7 -132 -6 -75 -7 -78 -40 -97 l-33 -20 0 -356 c0 -537 19
-734 95 -987 113 -379 271 -525 650 -596 102 -20 160 -22 800 -29 380 -4 697
-10 706 -14 10 -4 19 -4 22 1 9 14 -17 387 -65 928 -17 201 -22 347 -27 906
-6 648 -7 668 -26 689 -65 71 -162 87 -570 93 -181 3 -348 3 -370 1z"/>
<path d="M31120 10540 c-129 -16 -291 -75 -444 -162 -128 -72 -312 -194 -319
-211 -3 -8 14 -45 38 -83 254 -411 353 -567 386 -612 l40 -52 171 222 c278
363 387 495 559 680 60 64 109 121 109 127 0 16 -74 50 -155 71 -86 22 -289
33 -385 20z"/>
<path d="M31718 10133 c-75 -82 -230 -258 -345 -393 -115 -135 -255 -297 -312
-360 -57 -63 -105 -121 -108 -128 -9 -21 67 -108 161 -183 50 -40 123 -100
161 -134 171 -149 177 -151 285 -119 78 23 144 90 207 211 156 300 235 592
236 873 0 119 -2 142 -24 200 -28 74 -95 180 -113 180 -7 0 -73 -66 -148 -147z"/>
<path d="M30767 8990 c-15 -27 -44 -70 -63 -95 -18 -25 -34 -49 -34 -54 0 -8
164 -21 272 -21 l59 0 -57 73 c-73 92 -125 147 -139 147 -5 0 -23 -22 -38 -50z"/>
</g>
</svg>
