<?xml version="1.0" standalone="no"?>
<!DOCTYPE svg PUBLIC "-//W3C//DTD SVG 20010904//EN"
 "http://www.w3.org/TR/2001/REC-SVG-20010904/DTD/svg10.dtd">
<svg version="1.0" xmlns="http://www.w3.org/2000/svg"
 width="5485.124483pt" height="3348.873008pt" viewBox="0 0 5485.124483 3348.873008"
 preserveAspectRatio="xMidYMid meet">
<metadata>
Created by potrace 1.16, written by Peter Selinger 2001-2019
</metadata>
<g transform="translate(-341.362329,3507.076968) scale(0.100000,-0.100000)"
fill="#000000" stroke="none">
<path d="M31098 35045 c-20 -13 -67 -59 -104 -102 -38 -43 -73 -77 -79 -76 -5
0 -39 9 -74 18 -97 26 -618 17 -774 -14 -60 -11 -219 -37 -355 -56 -136 -20
-286 -42 -333 -50 -47 -8 -156 -24 -242 -34 -219 -28 -336 -78 -459 -199 l-58
-56 -32 30 c-18 17 -71 67 -118 111 -47 44 -132 122 -190 173 -58 50 -106 96
-108 101 -6 15 187 10 256 -6 109 -26 198 -30 227 -11 30 20 34 65 8 88 -10 8
-45 18 -78 22 -33 4 -117 18 -186 31 -86 17 -170 25 -260 27 -156 3 -187 -7
-214 -75 -34 -85 2 -146 208 -354 l161 -163 -36 -37 c-44 -47 -56 -70 -67
-130 -16 -83 24 -238 76 -295 14 -15 12 -27 -25 -135 -22 -65 -76 -224 -120
-353 l-80 -235 -204 -2 c-355 -3 -667 -30 -812 -70 -81 -23 -136 -75 -136
-129 0 -67 28 -97 140 -150 233 -111 266 -119 291 -73 21 40 3 65 -83 115 -99
56 -99 56 94 79 73 8 183 22 243 30 114 15 415 21 415 8 0 -5 -12 -66 -26
-138 -33 -174 -44 -500 -20 -615 50 -236 226 -421 501 -525 34 -13 60 -29 59
-37 -1 -7 -52 -80 -114 -163 -240 -321 -454 -668 -569 -925 -59 -132 -65 -151
-65 -215 -1 -59 3 -76 23 -104 27 -37 91 -71 136 -71 45 0 109 34 135 70 34
48 38 124 11 179 l-22 42 22 37 c12 20 48 73 78 117 l56 80 3 -90 c3 -95 -13
-326 -28 -404 -5 -25 -12 -68 -15 -94 -6 -45 -8 -48 -24 -33 -9 8 -62 27 -116
42 -177 48 -265 41 -701 -57 -270 -60 -279 -60 -288 -16 -33 164 -33 1138 0
1788 15 302 16 390 7 590 -15 313 -33 367 -128 385 -70 13 -126 -37 -148 -131
-5 -22 -16 -632 -24 -1355 -9 -723 -16 -1353 -17 -1400 l-1 -85 -225 -2
c-1483 -14 -2339 -47 -2537 -98 -47 -11 -53 -11 -53 2 0 8 25 101 54 207 128
447 168 656 182 936 14 273 -66 446 -263 571 -199 125 -581 201 -1162 231
-291 15 -1126 14 -1291 -1 -496 -46 -943 -199 -1329 -456 -223 -148 -245 -170
-313 -305 l-33 -65 2 -169 c3 -186 9 -206 65 -206 50 0 68 30 68 113 0 115 35
209 129 349 65 97 104 130 237 200 292 152 631 254 1017 303 181 23 906 20
1337 -5 809 -48 1154 -143 1240 -342 21 -50 22 -62 17 -218 -8 -243 -42 -412
-173 -872 -89 -315 -149 -565 -194 -820 -50 -279 -52 -986 -5 -1146 9 -30 14
-56 12 -58 -3 -3 -168 -5 -368 -4 -392 0 -634 -9 -1019 -40 -500 -40 -727 -72
-1086 -155 -392 -90 -579 -47 -796 184 -148 156 -299 446 -382 732 -45 157
-107 465 -140 699 -20 138 -36 433 -36 645 1 156 2 168 16 143 17 -32 53 -45
82 -29 40 21 36 46 -24 163 l-58 113 -6 190 c-4 168 -7 194 -26 225 -27 46
-67 65 -112 54 -63 -16 -69 -34 -94 -294 -20 -204 -23 -291 -23 -660 0 -287 4
-460 13 -534 28 -229 105 -643 148 -791 4 -13 -16 1 -52 36 -86 83 -116 94
-174 64 -41 -21 -64 -68 -56 -117 l6 -38 -92 0 c-155 0 -686 -38 -834 -60 -76
-11 -206 -34 -289 -50 -238 -47 -370 -60 -685 -71 -162 -5 -312 -14 -332 -20
-80 -21 -105 -113 -47 -172 26 -25 29 -34 20 -49 -23 -36 -32 -116 -41 -366
-14 -351 -38 -742 -55 -887 -7 -66 -17 -156 -20 -200 -6 -71 -21 -192 -71
-575 -63 -485 -68 -577 -61 -1335 7 -867 33 -1479 87 -2065 51 -548 189 -1750
216 -1872 6 -24 3 -27 -27 -32 -19 -3 -185 -7 -369 -10 -488 -8 -917 -44
-1390 -115 -69 -11 -179 -22 -245 -26 -138 -7 -271 -24 -481 -59 -197 -33
-367 -54 -513 -62 l-119 -7 -11 54 c-12 62 -37 203 -127 739 -75 446 -97 570
-129 735 -22 112 -63 346 -122 700 -23 136 -26 191 -33 580 -5 257 -13 448
-19 474 -33 126 -163 247 -325 300 -78 26 -342 86 -466 106 -218 35 -1165 49
-1755 26 -348 -13 -685 -34 -905 -56 -846 -84 -1091 -113 -1595 -190 -306 -47
-936 -168 -1360 -261 -351 -77 -440 -98 -1050 -249 -796 -197 -1357 -330
-1540 -365 -157 -30 -296 -41 -640 -49 -305 -7 -323 -8 -373 -30 -110 -49
-127 -133 -55 -284 44 -92 67 -112 111 -96 13 5 24 9 25 9 1 0 2 -168 2 -373
1 -505 25 -756 150 -1557 126 -808 125 -799 195 -1290 103 -722 148 -1105 185
-1590 64 -828 69 -913 105 -1600 12 -227 41 -513 71 -685 31 -181 59 -376 59
-417 0 -36 0 -37 -34 -31 -54 8 -86 -4 -100 -38 -26 -61 5 -104 117 -165 94
-51 169 -33 212 52 24 46 25 144 7 579 -7 149 -14 506 -17 795 -6 503 -24
1064 -45 1350 -25 340 -32 428 -51 610 -32 313 -88 738 -170 1280 -11 74 -29
194 -40 265 -10 72 -23 157 -29 190 -5 33 -21 132 -35 220 -15 88 -37 221 -51
295 -14 74 -31 169 -39 210 -8 41 -25 136 -39 211 -86 458 -143 856 -181 1261
-23 239 -24 372 -5 374 35 2 40 5 54 27 13 19 13 31 -1 95 -8 41 -13 76 -10
78 2 3 112 0 243 -6 273 -13 332 -10 646 31 331 43 1124 196 1708 329 124 28
356 78 515 110 247 50 419 83 945 185 446 86 908 153 1630 235 239 27 532 61
650 74 276 32 605 60 995 86 380 25 1398 62 1480 55 149 -14 302 -38 358 -55
73 -23 150 -69 169 -102 10 -17 14 -124 19 -438 6 -436 8 -453 69 -800 26
-150 98 -621 150 -980 22 -157 54 -370 71 -475 16 -104 39 -248 50 -320 131
-840 199 -1182 341 -1710 145 -538 238 -977 288 -1352 39 -294 75 -749 86
-1083 8 -225 0 -292 -39 -328 -57 -53 -218 -93 -482 -118 -115 -11 -352 -19
-735 -24 -438 -7 -615 -13 -785 -29 -581 -54 -923 -102 -1775 -251 -116 -21
-517 -101 -990 -199 -532 -110 -1577 -302 -1990 -365 -771 -119 -1261 -165
-1790 -169 -238 -2 -324 7 -366 37 -16 12 -6 18 100 52 129 41 151 59 128 108
-15 33 -60 41 -175 28 -110 -12 -189 -40 -245 -88 -158 -135 32 -326 391 -391
79 -14 171 -17 632 -17 578 -1 552 -2 1205 65 355 36 736 91 1360 195 475 78
578 98 1325 247 988 198 1444 287 1595 311 410 67 961 133 1290 156 85 6 166
13 180 15 14 3 115 9 225 15 735 38 941 80 1092 223 71 67 110 147 124 257 12
88 -1 564 -21 770 -6 52 -16 169 -25 260 -46 522 -94 889 -151 1180 -34 171
-50 237 -173 740 -98 403 -211 930 -211 986 0 25 12 27 215 44 66 6 230 25
365 44 135 19 286 40 335 46 50 6 136 22 192 36 172 40 391 70 758 104 373 34
975 58 1123 45 l78 -7 1 -111 c1 -169 28 -240 108 -281 34 -17 69 -21 255 -30
118 -5 393 -9 610 -10 415 -1 415 -1 820 54 604 83 874 98 947 52 9 -6 13
-128 16 -487 4 -530 7 -554 78 -768 81 -240 220 -384 414 -428 35 -8 394 -14
1175 -19 619 -5 1186 -13 1260 -19 332 -25 836 -118 1170 -216 142 -42 634
-208 712 -241 63 -26 129 -31 168 -11 58 29 88 124 58 180 -6 12 -62 72 -123
132 -122 119 -195 219 -256 350 -92 196 -139 550 -139 1057 l0 247 129 0 c71
1 171 5 223 11 152 16 587 68 704 84 211 29 531 66 664 76 177 13 786 31 836
24 22 -3 82 -19 134 -36 52 -17 100 -31 106 -33 18 -5 72 -197 113 -400 105
-524 130 -854 147 -1919 l7 -429 -55 6 c-30 4 -74 14 -98 22 -102 36 -183 9
-234 -79 -34 -58 -34 -98 0 -125 34 -26 48 -26 91 0 l35 22 78 -22 c42 -11
100 -21 128 -21 60 0 77 -14 85 -68 8 -48 40 -90 83 -108 43 -18 68 -18 110 2
46 22 75 65 79 117 l3 42 138 8 c206 11 729 121 774 162 30 27 27 80 -5 101
-24 16 -32 15 -146 -10 -190 -42 -308 -56 -550 -63 -178 -5 -228 -3 -234 7 -4
7 -11 236 -16 509 -7 448 -21 835 -34 996 -47 563 -129 979 -260 1328 -26 71
-34 107 -30 128 4 16 1 97 -5 180 -10 132 -10 155 4 190 9 21 15 45 13 51 -7
35 324 100 657 128 71 6 138 16 149 21 10 6 25 26 33 45 17 41 6 75 -37 107
-42 31 -238 28 -449 -7 -186 -30 -297 -52 -353 -68 -28 -9 -41 -8 -49 0 -9 9
-14 312 -19 1210 -5 758 -11 1217 -18 1250 -26 135 -39 163 -111 234 -80 78
-126 98 -184 78 -19 -6 -44 -22 -55 -36 -21 -27 -43 -31 -61 -10 -9 12 -3 19
37 39 113 57 459 156 617 177 44 6 127 17 182 25 56 8 131 15 166 15 l65 0 7
-102 c12 -186 34 -320 86 -539 53 -223 137 -374 254 -456 l30 -21 -134 -278
c-73 -154 -162 -337 -198 -409 -59 -118 -64 -133 -59 -179 4 -41 11 -55 41
-83 29 -27 44 -33 81 -33 53 0 96 19 117 52 8 13 38 83 67 155 53 132 138 280
326 570 l80 123 160 0 c189 0 275 9 575 55 449 68 596 84 790 85 l96 0 119
-88 c138 -103 384 -272 576 -398 107 -71 141 -88 179 -92 126 -12 204 118 141
236 -6 11 -110 89 -231 174 -121 84 -220 157 -220 162 0 13 151 0 273 -24 57
-11 168 -29 246 -40 86 -12 200 -37 285 -61 221 -66 238 -69 274 -63 78 15
132 101 112 175 -12 43 -38 73 -102 117 -59 40 -81 71 -108 152 -40 117 -46
697 -10 970 64 494 123 823 204 1146 96 382 96 487 0 594 -85 94 -263 159
-601 220 -107 19 -121 24 -114 39 5 9 56 61 113 116 142 137 258 296 258 352
0 23 6 35 23 44 48 25 67 51 67 94 0 22 -5 46 -11 52 -8 8 -7 24 6 60 14 40
19 102 25 358 7 283 23 548 50 825 38 390 35 622 -9 709 -46 89 -166 151 -296
151 -34 0 -76 3 -93 6 -27 6 -30 9 -21 25 13 26 38 24 162 -11 123 -34 128
-35 166 -16 47 25 63 83 36 135 -15 30 -56 51 -210 107 -84 30 -90 34 -88 59
1 14 9 98 18 185 36 366 79 1278 72 1530 -7 230 -27 297 -123 416 -25 31 -42
59 -37 64 39 34 207 160 288 215 138 93 169 107 246 113 61 4 67 3 83 -19 9
-13 28 -61 42 -105 28 -93 50 -118 101 -118 43 0 83 40 83 83 0 32 -62 227
-90 281 -67 132 -266 158 -460 60 -95 -48 -323 -206 -460 -317 l-125 -103 -82
0 c-46 0 -83 4 -83 8 0 5 12 15 26 23 37 19 101 95 130 151 37 73 55 167 63
337 4 86 4 662 1 1281 -6 1088 -7 1127 -27 1191 l-20 67 89 116 c81 107 88
121 88 162 0 39 -5 51 -34 80 -43 43 -93 46 -148 9z m-345 -385 c5 -4 -24 -50
-65 -101 -78 -98 -238 -313 -323 -434 -234 -333 -617 -838 -640 -843 -11 -3
-166 162 -519 553 -117 129 -233 256 -388 424 -54 58 -98 109 -98 113 0 4 24
25 53 47 58 44 129 75 197 86 25 4 86 20 135 35 148 46 175 50 438 65 138 8
335 25 437 36 102 12 219 25 260 30 91 9 502 1 513 -11z m138 -1595 c-7 -565
-15 -943 -21 -949 -13 -13 -184 145 -279 259 -96 113 -195 207 -275 261 -34
23 -79 63 -101 90 -55 69 -239 276 -259 293 -9 7 -16 20 -16 27 0 8 33 54 73
102 145 175 322 420 610 847 62 91 83 115 101 115 32 0 49 23 81 113 16 43 42
97 59 120 l31 42 3 -190 c2 -104 -2 -613 -7 -1130z m-2070 795 c294 -331 438
-489 613 -668 91 -92 118 -126 111 -136 -20 -28 -818 -1022 -835 -1040 -17
-18 -20 -18 -86 4 -198 66 -324 153 -379 260 -45 88 -55 220 -35 450 17 193
64 404 155 690 118 371 163 542 172 663 3 43 10 76 14 75 5 -2 126 -136 270
-298z m1126 -1164 c120 -112 179 -175 213 -228 51 -80 106 -134 250 -250 52
-41 151 -123 220 -182 95 -81 134 -108 163 -112 44 -8 47 -25 11 -53 -56 -44
-110 -51 -403 -51 -280 1 -312 2 -641 39 -102 11 -253 25 -337 31 -135 9 -342
35 -351 45 -5 5 696 915 705 915 2 0 79 -70 170 -154z m-972 -1026 c122 -20
384 -49 500 -55 66 -3 174 -13 239 -21 222 -27 450 -44 616 -45 l165 0 -55
-20 c-193 -69 -978 -237 -1152 -246 l-98 -6 -41 89 c-26 55 -41 102 -40 121 1
26 -7 43 -41 79 -23 25 -54 52 -69 60 -63 32 -142 7 -174 -56 -28 -55 -17
-123 41 -247 19 -41 32 -77 30 -82 -3 -5 -27 -14 -53 -20 -115 -29 -216 -64
-234 -82 -39 -39 -13 -109 40 -109 14 0 73 9 131 19 58 11 124 22 146 25 l41
6 58 -143 c158 -391 330 -696 540 -961 l87 -108 -46 -99 c-49 -102 -115 -292
-137 -392 -7 -31 -18 -62 -24 -67 -20 -16 -321 32 -535 85 -193 47 -376 155
-447 261 l-38 57 0 251 c0 189 5 282 19 376 15 106 17 165 12 389 -3 146 -11
290 -18 321 l-11 57 69 90 c38 49 137 178 219 285 165 217 150 206 260 188z
m1845 -288 c0 -4 -25 -32 -56 -62 -81 -80 -361 -382 -435 -470 -90 -108 -303
-395 -396 -536 -108 -163 -146 -214 -158 -211 -27 7 -176 253 -280 462 -110
222 -235 508 -235 538 0 15 76 29 240 42 282 24 800 117 1032 186 170 51 288
72 288 51z m396 -57 c14 -14 35 -47 47 -73 20 -44 22 -62 22 -262 0 -376 -63
-1350 -106 -1630 -15 -100 -27 -132 -63 -174 l-33 -38 -192 11 -193 11 -106
93 c-59 51 -151 121 -204 156 -78 51 -121 89 -227 204 -71 78 -150 168 -176
199 l-46 57 56 108 c118 225 519 716 900 1099 103 104 278 264 288 264 4 0 19
-11 33 -25z m-3255 -1280 c89 -26 144 -31 154 -15 3 6 13 10 21 10 12 0 13
-16 8 -97 -11 -182 19 -333 87 -436 85 -128 257 -253 451 -327 172 -65 487
-126 858 -164 458 -47 531 -54 820 -72 225 -14 55 -24 -573 -33 -686 -11 -654
-7 -683 -78 -12 -28 -13 -42 -3 -70 6 -19 9 -35 7 -36 -1 -1 -12 -7 -23 -12
-11 -6 -35 -42 -54 -80 -33 -68 -33 -72 -22 -125 26 -120 31 -182 25 -355 -3
-99 -7 -189 -9 -201 -4 -20 -7 -21 -462 -20 -386 1 -476 -2 -573 -16 -204 -31
-606 -68 -741 -68 l-26 0 -6 128 c-9 169 -41 486 -66 647 -11 72 -29 200 -40
285 -11 85 -38 281 -60 435 -23 154 -43 300 -47 324 l-6 43 74 -6 c90 -7 134
7 165 53 30 44 31 118 3 154 -11 14 -20 29 -20 34 0 8 210 56 430 99 152 29
208 29 311 -1z m-1226 -367 c3 -18 12 -87 20 -153 20 -170 43 -341 55 -405 5
-30 14 -100 20 -155 6 -55 24 -192 40 -306 36 -254 56 -443 71 -666 l11 -173
-35 -39 c-20 -22 -39 -56 -42 -75 -15 -76 46 -177 132 -220 67 -33 147 -10
190 56 25 37 27 38 88 38 102 0 432 29 690 60 168 20 330 32 540 40 165 5 338
15 384 20 46 5 87 8 90 6 3 -2 3 -57 0 -123 -8 -164 4 -280 34 -345 87 -186
276 -274 667 -308 69 -7 126 -13 129 -15 2 -2 -6 -16 -18 -31 -11 -15 -21 -40
-21 -56 0 -36 40 -78 74 -78 25 0 97 52 155 114 43 44 57 45 286 16 154 -20
322 -29 919 -50 153 -5 281 -11 283 -14 2 -2 -29 -27 -69 -57 -40 -29 -166
-145 -280 -257 l-207 -205 -123 17 c-732 99 -829 107 -1388 107 -256 1 -486 1
-512 1 -107 -1 -269 -52 -441 -139 -110 -55 -183 -108 -288 -210 -53 -51 -102
-93 -110 -93 -8 0 -31 11 -51 25 -119 81 -265 135 -362 135 -117 0 -186 -54
-186 -144 0 -44 48 -150 95 -212 60 -78 151 -15 115 80 -7 20 -6 26 4 26 20 0
124 -61 191 -111 l58 -44 -6 -500 c-4 -275 -7 -590 -7 -701 l0 -201 -122 -6
c-213 -11 -552 -77 -806 -158 -268 -86 -394 -201 -351 -322 20 -58 75 -96 198
-137 126 -43 144 -61 162 -170 9 -55 14 -405 18 -1325 3 -687 10 -1256 15
-1263 4 -7 9 -103 10 -213 2 -174 0 -199 -13 -194 -39 15 -368 27 -591 21
-289 -7 -515 -25 -810 -65 -118 -16 -246 -32 -285 -36 -89 -8 -254 -29 -469
-61 -93 -13 -239 -29 -324 -35 -86 -6 -163 -14 -173 -20 -41 -22 -42 -17 -36
174 4 100 14 245 23 322 8 77 16 208 17 290 1 133 -2 156 -22 207 -64 165
-225 246 -531 269 -167 13 -877 6 -1065 -11 -137 -11 -511 -35 -790 -50 -573
-31 -923 -80 -1205 -169 -85 -28 -184 -57 -220 -66 -144 -35 -221 -107 -340
-318 -28 -50 -31 -62 -21 -83 12 -27 45 -44 73 -36 9 2 42 37 72 77 30 40 81
93 113 117 93 70 217 148 254 159 65 19 215 47 309 58 233 27 360 33 915 41
325 5 684 14 799 20 128 7 390 10 670 8 499 -5 550 -10 658 -64 40 -20 48 -30
54 -61 9 -46 -2 -252 -22 -419 -21 -173 -29 -848 -15 -1189 20 -470 75 -757
187 -962 30 -56 40 -83 31 -83 -7 0 -47 11 -88 25 -162 56 -512 148 -719 189
-155 31 -278 50 -490 76 -91 11 -223 29 -295 41 -124 20 -175 22 -1190 29
-626 5 -1081 13 -1112 19 -95 18 -141 57 -195 163 -33 65 -75 210 -88 299 -5
36 -13 280 -16 541 l-7 475 43 -1 c39 -1 45 2 54 25 8 23 2 36 -44 101 l-52
76 -9 183 c-12 262 -34 333 -114 373 -38 19 -39 19 -74 0 -59 -32 -61 -42 -61
-330 0 -143 -2 -263 -5 -266 -3 -2 -40 2 -82 9 -118 21 -449 -5 -978 -76 -374
-50 -431 -53 -1013 -48 l-537 6 -17 43 c-16 41 -24 138 -13 150 3 3 31 -1 63
-8 96 -22 170 16 193 99 12 45 8 59 -37 152 -39 81 -49 135 -99 575 -19 162
-43 374 -55 470 -63 533 -110 1307 -126 2072 l-7 316 59 5 c111 9 611 58 849
82 369 38 985 107 1110 125 230 31 399 73 425 106 7 8 16 14 21 14 4 0 10
-323 11 -717 l3 -718 31 -65 c17 -36 49 -85 70 -109 44 -51 135 -112 202 -137
26 -10 51 -21 56 -25 5 -4 -33 -78 -84 -165 -168 -283 -288 -537 -346 -730
-34 -115 -47 -365 -21 -426 34 -81 146 -103 208 -42 25 25 32 45 49 139 22
125 43 192 90 285 32 64 392 670 478 804 43 68 44 68 80 62 20 -3 165 -11 322
-16 157 -5 335 -12 395 -15 205 -11 869 -36 1100 -41 l230 -6 120 -68 c66 -37
185 -102 265 -145 228 -122 431 -236 475 -265 22 -15 103 -59 179 -98 161 -83
199 -90 273 -47 74 44 104 142 68 219 -27 57 -221 238 -318 296 -48 29 -84 56
-80 60 10 9 203 -5 358 -25 215 -28 285 -44 345 -79 139 -82 336 -144 410
-131 88 17 136 74 128 156 -9 93 -69 130 -318 200 -119 33 -157 56 -238 138
-108 111 -182 266 -207 431 -23 151 -35 401 -34 755 0 489 11 606 100 1000 28
127 41 177 114 440 76 276 96 508 54 620 -42 112 -170 202 -349 244 -109 26
-297 48 -477 57 -79 4 -143 10 -143 14 0 4 76 86 169 182 172 177 277 261 383
307 51 22 68 53 49 89 -21 39 -199 74 -264 53 -20 -7 -62 -29 -94 -50 -61 -40
-328 -278 -528 -472 l-120 -116 -440 -7 c-765 -12 -951 -25 -1285 -91 -277
-54 -636 -162 -865 -260 -60 -26 -136 -57 -167 -70 l-56 -23 -20 22 c-10 11
-71 99 -135 193 -93 138 -117 180 -117 207 0 31 -9 42 -76 101 -42 37 -101 93
-131 125 -63 69 -105 87 -158 70 -19 -6 -46 -25 -61 -43 -23 -27 -26 -38 -22
-83 6 -65 44 -133 239 -429 80 -121 157 -241 172 -266 l26 -45 -36 -29 c-21
-17 -55 -39 -78 -50 -29 -15 -47 -33 -65 -70 -14 -27 -44 -79 -68 -114 -50
-77 -86 -151 -118 -245 -31 -91 -31 -119 2 -145 57 -45 98 -19 138 87 15 38
33 77 40 87 12 17 13 17 19 -6 11 -45 56 -394 63 -493 l7 -98 -24 8 c-13 5
-66 9 -117 9 -90 0 -95 -1 -118 -28 -16 -19 -39 -30 -73 -37 -67 -13 -263 -36
-451 -54 -85 -9 -389 -40 -675 -70 -286 -31 -608 -62 -715 -71 -107 -9 -215
-20 -240 -25 -32 -6 -47 -5 -53 3 -11 18 -1 1336 11 1437 10 78 21 193 67 710
9 96 22 229 30 295 18 149 55 821 58 1050 l2 170 225 0 c248 1 401 16 642 65
159 32 405 66 543 75 435 29 654 47 716 60 112 24 173 71 188 148 6 30 9 26
45 -68 72 -186 192 -410 291 -540 135 -180 318 -319 501 -381 65 -22 102 -28
209 -32 149 -5 252 6 444 49 631 140 1138 189 1952 189 436 0 487 -2 581 -20
57 -11 127 -29 156 -40 102 -39 181 -19 216 55 37 76 5 152 -81 192 -66 32
-126 98 -152 169 -12 30 -26 105 -32 171 -16 158 -6 714 14 838 40 240 81 425
97 435 22 14 350 41 610 50 151 5 534 14 850 20 316 6 622 12 680 14 58 1 248
3 422 4 l317 2 6 -32z m3214 -116 c58 -53 138 -124 178 -156 60 -49 163 -171
163 -193 0 -7 -140 2 -315 22 -224 26 -295 37 -295 45 0 16 52 154 92 245 22
50 44 100 49 113 5 12 11 22 15 22 3 0 54 -44 113 -98z m1589 -778 c24 -4 36
-12 44 -32 13 -34 3 -321 -17 -494 -53 -462 -85 -846 -85 -1034 0 -55 -3 -103
-6 -107 -13 -13 -281 135 -470 259 -62 40 -165 113 -230 161 -66 49 -138 100
-161 116 -24 15 -43 32 -43 38 0 6 55 102 123 213 68 110 156 262 196 336 41
74 104 189 141 255 38 66 87 159 111 207 l43 87 66 4 c73 4 238 -1 288 -9z
m-678 -56 c0 -7 -14 -38 -31 -68 -17 -30 -87 -165 -156 -300 -177 -348 -286
-550 -295 -550 -9 0 -275 222 -503 420 -77 67 -194 162 -259 213 -66 51 -140
108 -165 128 -30 24 -50 48 -57 72 l-11 37 306 1 c445 0 877 15 1011 34 63 9
117 19 119 21 10 9 41 3 41 -8z m-1400 -502 c91 -71 206 -164 255 -206 123
-104 296 -239 438 -341 64 -46 117 -91 117 -99 0 -22 -30 -67 -89 -134 -30
-34 -75 -103 -106 -166 -30 -60 -58 -110 -62 -113 -15 -8 -349 23 -463 44
-132 23 -218 58 -259 105 -41 46 -48 124 -30 349 8 99 14 298 14 442 0 174 3
259 10 255 5 -3 84 -65 175 -136z m996 -787 c23 -25 318 -221 457 -304 53 -31
97 -60 97 -63 0 -8 -226 7 -340 23 -58 8 -170 22 -249 30 -79 8 -146 17 -149
20 -3 3 13 31 35 62 22 33 52 96 68 143 38 117 47 127 81 89z m-7919 -1138 c9
-4 -18 -40 -78 -106 -50 -55 -168 -188 -263 -295 -94 -107 -268 -296 -387
-420 -330 -342 -398 -426 -565 -692 -53 -84 -105 -162 -116 -173 -19 -20 -19
-20 -51 16 -440 502 -655 773 -901 1136 l-117 172 23 15 c78 51 388 158 653
226 212 54 486 103 675 119 69 6 141 13 160 15 58 7 954 -6 967 -13z m633 -21
c240 -12 352 -25 496 -55 122 -25 218 -65 235 -97 24 -44 -11 -272 -76 -498
-82 -285 -163 -654 -189 -860 -20 -158 -31 -832 -17 -1070 20 -350 54 -515
139 -672 20 -37 34 -69 31 -72 -2 -2 -49 0 -104 4 -321 27 -507 40 -638 45
l-149 6 -111 66 c-126 74 -255 160 -367 242 -178 131 -483 384 -579 481 -170
172 -481 511 -481 525 0 7 8 23 19 36 10 13 72 110 137 214 172 276 275 407
525 670 159 167 225 242 404 456 332 397 502 589 519 589 6 0 99 -5 206 -10z
m6380 -31 c107 -6 260 -17 340 -25 172 -16 851 -122 864 -134 18 -17 -244
-333 -492 -593 -123 -129 -229 -249 -692 -782 -124 -142 -237 -272 -251 -289
l-26 -29 -120 149 c-153 190 -278 362 -433 594 -245 367 -367 532 -492 666
-32 34 -58 66 -58 72 0 5 43 51 95 100 174 165 341 225 790 286 36 4 207 -1
475 -15z m1815 -255 c262 -51 396 -95 441 -145 25 -27 15 -103 -46 -349 -70
-287 -93 -399 -144 -712 -108 -655 -108 -655 -113 -1054 -5 -307 -3 -373 11
-441 9 -44 16 -83 16 -86 0 -12 -22 -8 -150 28 -232 64 -383 85 -680 92 l-265
6 -175 149 c-96 83 -218 179 -270 216 -52 36 -112 78 -132 94 -54 42 -338 344
-338 360 0 18 351 454 550 684 254 293 303 348 450 509 184 201 240 269 393
475 71 96 139 186 151 198 25 29 35 28 301 -24z m-11407 -479 c233 -352 456
-646 784 -1037 81 -97 148 -182 148 -188 0 -7 -46 -74 -102 -149 -247 -330
-300 -408 -543 -798 -74 -120 -112 -173 -125 -173 -38 0 -150 42 -180 66 -69
58 -64 8 -71 854 -6 764 -6 765 -33 955 -15 105 -40 255 -56 335 -17 80 -30
150 -30 155 0 6 14 16 30 23 42 19 46 48 15 117 -24 55 -27 91 -6 83 5 -2 81
-111 169 -243z m8282 -133 c19 -26 135 -198 259 -382 233 -350 348 -506 513
-701 54 -64 98 -120 98 -123 0 -4 -33 -51 -73 -104 -120 -159 -403 -560 -520
-739 -33 -51 -64 -93 -68 -93 -12 0 -68 69 -88 108 -42 83 -118 401 -135 567
-10 95 -36 1026 -36 1283 0 127 3 232 8 232 4 -1 23 -22 42 -48z m-6774 -1727
c89 -93 262 -269 384 -389 l224 -219 -175 7 c-96 4 -363 16 -594 26 -231 10
-493 22 -582 26 -90 4 -163 11 -163 15 0 37 498 806 566 873 13 13 24 5 97
-77 45 -50 154 -168 243 -262z m7945 212 c35 -34 108 -104 161 -154 54 -51
132 -134 175 -185 42 -51 101 -119 132 -150 30 -32 53 -59 50 -62 -2 -2 -62
-9 -134 -16 -71 -6 -215 -25 -320 -41 -411 -64 -462 -70 -559 -67 l-97 3 39
56 c22 31 99 144 172 250 158 232 301 429 310 429 4 0 36 -28 71 -63z m-25801
-936 c0 -11 -4 -23 -10 -26 -6 -4 -10 5 -10 19 0 14 5 26 10 26 6 0 10 -9 10
-19z"/>
<path d="M54040 33249 c-419 -17 -800 -57 -1845 -195 -164 -21 -444 -61 -595
-85 -69 -10 -170 -26 -225 -34 -165 -25 -480 -84 -645 -121 -343 -76 -468
-108 -805 -203 -132 -38 -350 -97 -485 -131 -481 -123 -643 -204 -698 -352
-29 -78 -40 -202 -57 -658 -8 -218 -19 -429 -24 -470 -71 -552 -130 -841 -290
-1415 -36 -132 -71 -302 -71 -351 0 -19 -8 -23 -67 -34 -134 -26 -293 -130
-458 -301 -191 -197 -330 -396 -374 -532 -8 -23 -23 -43 -41 -52 -71 -37 -100
-114 -64 -175 38 -63 126 -99 308 -126 95 -14 163 -16 468 -10 l357 7 81 -28
c75 -25 84 -26 108 -12 28 15 38 45 28 84 -6 25 -81 61 -201 96 -77 22 -308
38 -545 39 -120 0 -283 13 -317 25 -9 3 -8 12 3 35 9 17 13 42 10 58 -5 23 7
45 75 137 162 218 345 411 496 523 91 67 121 81 133 62 4 -7 11 -42 15 -78 6
-53 12 -70 38 -99 27 -28 39 -34 74 -35 52 0 90 23 108 65 7 18 18 110 24 206
13 197 24 259 87 479 156 548 206 797 280 1387 7 61 20 277 29 481 14 341 28
554 41 595 16 53 287 138 699 220 110 22 299 62 420 89 601 133 1226 233 1965
315 124 14 288 32 365 40 77 9 212 24 300 35 88 11 248 29 355 40 107 11 256
27 330 35 407 45 834 63 1630 71 792 8 997 -4 1600 -91 344 -50 496 -95 635
-187 94 -62 135 -113 165 -203 38 -114 49 -209 50 -415 0 -284 -20 -424 -124
-872 -62 -266 -126 -589 -180 -913 -25 -148 -65 -356 -90 -460 -68 -286 -85
-395 -106 -680 -11 -143 -24 -304 -30 -358 -5 -53 -17 -204 -25 -334 -33 -493
-98 -794 -226 -1045 -66 -127 -130 -196 -209 -224 -52 -18 -89 -19 -780 -16
-727 3 -854 0 -1835 -40 -746 -29 -2487 -38 -2724 -13 -405 43 -744 108 -1091
210 -362 106 -482 140 -664 186 -110 27 -202 52 -204 54 -6 5 -5 5 278 110
129 48 291 116 360 152 124 64 390 234 424 272 24 26 17 62 -16 80 -25 15 -29
13 -145 -66 -65 -44 -152 -98 -193 -120 -122 -66 -520 -210 -735 -267 -55 -15
-147 -42 -205 -61 -65 -21 -123 -33 -153 -33 -37 1 -53 -4 -72 -22 -38 -35
-49 -81 -31 -124 25 -60 82 -85 291 -126 127 -25 482 -114 653 -165 138 -40
229 -71 450 -154 334 -124 616 -195 1012 -253 153 -23 167 -23 1080 -23 602 0
1005 5 1155 13 127 6 374 19 550 27 176 8 399 19 495 25 460 26 916 42 1465
50 648 9 679 12 786 65 119 60 193 136 282 290 159 274 245 648 282 1222 8
127 19 271 25 320 5 48 17 185 25 303 23 321 25 335 124 777 22 99 50 239 61
310 54 339 117 663 189 973 106 454 131 629 131 920 0 280 -31 463 -103 609
-61 125 -209 253 -402 349 -169 84 -346 129 -885 226 -269 49 -596 84 -895 96
-258 11 -1199 10 -1465 -1z"/>
<path d="M54595 31484 c-748 -24 -1029 -45 -1685 -125 -800 -98 -1418 -206
-2360 -414 -234 -52 -483 -101 -555 -110 -140 -17 -172 -30 -189 -79 -13 -35
2 -73 37 -100 25 -19 41 -21 160 -19 146 1 200 9 587 83 374 72 471 89 890
161 440 75 957 148 1410 199 702 80 928 97 1790 135 719 31 1017 46 1090 55
103 12 180 12 180 0 0 -22 60 -37 109 -29 25 5 60 11 78 14 79 14 120 90 88
159 -35 73 3 69 -805 71 -399 1 -770 1 -825 -1z"/>
<path d="M54695 30244 c-27 -2 -156 -11 -285 -19 -245 -16 -474 -35 -720 -60
-80 -8 -239 -24 -355 -35 -411 -39 -513 -52 -790 -95 -324 -52 -457 -77 -755
-146 -413 -96 -864 -190 -975 -204 -115 -15 -292 -46 -320 -57 -110 -42 -123
-168 -22 -217 23 -11 84 -28 135 -37 87 -16 96 -16 128 0 19 9 44 31 54 50 20
32 23 33 98 40 67 5 214 29 402 66 30 5 125 26 210 45 964 214 1167 251 1665
299 143 14 301 30 350 36 542 60 1299 117 1730 129 149 4 274 6 278 4 4 -3 3
-11 -3 -18 -20 -24 -15 -74 10 -100 38 -41 81 -34 141 22 58 55 79 89 79 133
0 70 -48 115 -156 146 -51 15 -115 18 -454 19 -217 1 -417 1 -445 -1z"/>
<path d="M36785 29560 c-177 -10 -275 -24 -445 -62 -147 -33 -426 -122 -585
-186 -482 -195 -958 -482 -1104 -666 -220 -277 -175 -579 123 -822 l48 -40
-289 -289 c-421 -421 -634 -684 -793 -977 -180 -330 -260 -620 -275 -998 -21
-498 55 -806 325 -1325 l88 -170 -9 -165 c-18 -324 -49 -599 -119 -1052 -86
-552 -100 -747 -107 -1478 -9 -1035 11 -1426 118 -2330 30 -253 32 -283 32
-650 1 -212 -3 -424 -7 -473 -10 -112 -10 -112 -211 -120 -82 -4 -253 -20
-380 -36 -126 -16 -273 -32 -325 -36 l-96 -7 1 404 c0 428 -5 491 -49 614 -30
83 -105 193 -173 254 -63 55 -179 119 -263 145 -123 37 -507 29 -692 -14 -338
-79 -978 -372 -1643 -752 -165 -94 -311 -179 -325 -188 -14 -10 -67 -39 -118
-66 -72 -37 -105 -62 -153 -114 -34 -36 -67 -79 -74 -96 -22 -50 12 -104 65
-105 19 0 53 28 140 116 132 133 167 156 530 342 486 249 1072 504 1400 610
226 73 256 77 531 77 l245 0 78 -38 c135 -67 222 -176 251 -314 27 -128 16
-631 -20 -911 -33 -254 -112 -580 -197 -816 -65 -181 -154 -446 -177 -526 -28
-102 -43 -245 -35 -341 5 -55 4 -79 -4 -79 -6 0 -49 9 -94 19 -200 47 -453 93
-713 130 -384 55 -430 61 -1080 125 -82 8 -269 22 -415 31 -408 24 -496 38
-600 90 -59 30 -116 93 -129 142 -32 129 -21 427 33 849 19 148 55 428 81 622
25 194 45 376 45 404 0 44 5 56 35 89 19 22 35 46 35 55 0 8 14 20 30 26 40
13 50 52 23 80 -12 11 -45 28 -74 38 -48 15 -54 21 -52 43 6 81 286 515 529
817 50 64 99 122 108 129 13 11 48 7 218 -27 251 -51 348 -68 508 -88 387 -48
467 -53 547 -29 61 18 124 72 157 135 13 25 27 44 32 44 5 -1 50 -5 100 -9
l92 -7 33 30 c28 25 34 37 34 71 0 52 -26 78 -117 115 -38 16 -68 32 -68 36 0
4 29 92 65 195 68 196 152 474 229 760 81 300 122 559 133 842 6 161 6 162 27
148 65 -46 105 13 137 200 6 38 25 96 40 130 38 80 38 127 0 166 -33 33 -75
38 -121 14 -15 -8 -67 -67 -115 -131 -48 -63 -93 -118 -101 -121 -7 -3 -37 3
-66 14 -43 15 -84 18 -223 18 -182 0 -177 1 -490 -75 -370 -90 -637 -127
-1015 -140 -354 -13 -637 -29 -689 -41 -49 -11 -59 -6 -90 46 l-19 33 26 7
c15 4 35 14 45 22 23 21 22 78 -2 102 -25 25 -172 81 -213 81 -78 0 -135 -74
-124 -161 15 -115 124 -319 334 -629 123 -182 225 -317 331 -438 129 -147 345
-364 482 -483 l129 -113 -23 -25 c-175 -194 -222 -247 -277 -311 -35 -41 -67
-79 -71 -84 -8 -9 -183 12 -413 50 -390 65 -488 110 -561 257 -57 115 -64 181
-65 580 0 215 6 441 16 590 19 295 16 497 -9 545 -46 87 -169 95 -211 14 -17
-34 -34 -146 -46 -307 -7 -100 -6 -124 6 -143 13 -19 13 -43 5 -160 -18 -237
-24 -686 -12 -852 14 -191 29 -259 87 -379 120 -247 321 -342 882 -416 57 -7
106 -16 109 -19 3 -3 -32 -56 -78 -118 -203 -274 -337 -510 -405 -714 -32 -96
-36 -116 -32 -194 3 -79 6 -92 39 -145 31 -50 35 -63 28 -92 -4 -19 -10 -38
-14 -41 -4 -4 -156 -9 -338 -11 -337 -3 -529 6 -703 35 -50 8 -124 14 -164 12
-65 -3 -75 -6 -92 -29 -30 -40 -16 -72 61 -129 36 -28 89 -57 116 -65 137 -41
742 -69 968 -46 65 7 121 11 123 8 2 -2 -21 -150 -52 -328 -113 -652 -133
-814 -140 -1099 -7 -249 1 -312 52 -412 38 -75 126 -157 215 -200 152 -76 272
-92 1064 -143 789 -52 1721 -191 2014 -301 195 -74 305 41 225 236 -35 88 -43
214 -19 330 9 47 55 198 102 335 118 352 168 529 214 765 22 113 42 215 45
228 4 21 9 22 107 22 106 0 153 5 422 40 241 32 405 37 494 15 87 -21 140 -16
189 19 20 14 37 24 38 23 6 -5 64 -352 73 -432 26 -226 33 -513 28 -1067 -3
-315 -10 -622 -16 -683 -25 -257 -33 -474 -42 -1060 -5 -341 -12 -672 -15
-736 -7 -133 6 -241 37 -302 50 -96 205 -224 362 -297 128 -60 409 -131 689
-175 86 -13 176 -29 200 -36 111 -30 320 0 370 54 33 34 38 98 12 135 -29 41
-62 50 -229 57 -103 5 -185 14 -230 26 -38 10 -135 32 -215 49 -181 38 -391
93 -461 120 -60 24 -198 112 -246 157 -43 40 -48 81 -34 248 6 77 11 319 11
540 0 384 6 565 19 565 3 -1 31 -42 61 -91 188 -310 553 -641 983 -894 174
-101 422 -210 689 -301 l108 -36 -20 -26 c-30 -38 -47 -108 -66 -270 -9 -81
-19 -150 -23 -153 -3 -4 -38 -16 -78 -28 -127 -38 -136 -74 -40 -168 34 -33
72 -66 84 -72 21 -11 21 -14 26 -368 l4 -358 37 -145 c69 -272 135 -444 222
-576 41 -62 141 -164 201 -206 69 -47 207 -112 323 -152 57 -20 106 -38 108
-40 2 -2 -19 -73 -46 -157 -27 -85 -68 -226 -91 -314 -24 -88 -46 -168 -50
-178 -5 -15 -15 -9 -61 34 -186 174 -376 244 -690 255 -292 11 -458 -14 -610
-91 -30 -15 -86 -38 -124 -51 -111 -38 -221 -111 -316 -208 -24 -25 -49 -46
-56 -46 -6 0 -33 68 -60 150 -27 83 -57 159 -67 170 -42 47 -108 34 -133 -27
-19 -45 -15 -82 31 -318 49 -245 55 -403 48 -1191 -7 -763 -6 -774 67 -922 23
-46 40 -86 38 -91 -2 -4 -66 -66 -143 -137 -485 -451 -834 -927 -1024 -1399
-44 -108 -41 -106 -116 -86 -22 6 -69 8 -105 5 -47 -4 -106 1 -210 19 -80 14
-194 28 -255 31 -105 6 -436 -6 -557 -20 l-58 -7 0 41 c0 47 37 415 46 451 5
23 6 22 40 -17 38 -45 108 -83 199 -108 79 -22 556 -33 619 -14 157 46 194
263 121 724 -98 628 -108 759 -109 1447 -1 435 2 559 12 571 8 11 33 16 78 17
72 1 100 11 109 40 7 22 131 61 194 61 24 0 61 10 89 25 71 37 277 83 426 96
183 15 191 16 219 44 47 48 38 124 -19 162 -66 43 -378 1 -742 -99 -81 -22
-156 -42 -168 -45 -16 -4 -28 8 -57 52 -47 70 -87 95 -151 95 -86 0 -134 -69
-186 -266 -40 -155 -45 -230 -44 -704 1 -701 22 -951 134 -1590 18 -104 31
-223 36 -322 l6 -156 -30 -16 c-25 -13 -65 -16 -200 -16 -184 0 -318 17 -381
49 -60 31 -64 42 -36 84 30 44 32 70 5 97 -30 30 -59 25 -101 -20 -21 -22 -40
-40 -41 -40 -2 0 -3 134 -3 298 0 248 -3 311 -18 382 -36 167 -111 307 -210
395 -63 56 -185 117 -293 147 -74 21 -99 22 -409 22 -292 0 -345 -3 -463 -22
-151 -25 -430 -86 -602 -132 -63 -17 -178 -44 -255 -60 -77 -16 -193 -45 -257
-65 -64 -19 -119 -35 -121 -35 -3 0 -13 24 -21 54 -10 34 -26 62 -42 75 -32
25 -90 28 -122 5 -27 -19 -52 -65 -52 -97 0 -40 -18 -47 -121 -47 -126 0 -373
-25 -496 -50 -54 -11 -187 -43 -296 -70 -108 -28 -199 -50 -202 -50 -2 0 -7
17 -11 37 -3 21 -17 94 -29 163 -13 69 -42 229 -65 355 -22 127 -45 250 -50
275 -55 263 -240 1279 -240 1319 0 13 12 22 43 30 107 28 172 95 164 168 -9
81 -70 136 -193 175 -56 17 -76 28 -79 43 -25 124 -52 376 -75 705 -31 440
-35 553 -21 603 11 37 10 49 -2 73 -8 16 -22 94 -31 174 -22 185 -40 257 -73
292 l-26 27 24 5 c13 3 96 7 184 10 171 5 275 21 516 81 78 20 177 37 235 41
90 7 101 10 126 35 31 31 36 65 13 108 -25 49 -60 56 -172 33 -112 -24 -437
-77 -563 -92 -46 -5 -142 -10 -213 -10 l-128 0 -10 29 c-15 42 -48 50 -145 36
-94 -14 -129 -34 -144 -81 -10 -28 -9 -40 7 -71 22 -45 55 -70 124 -93 58 -20
71 -35 41 -45 -11 -3 -27 -21 -36 -40 -14 -29 -15 -44 -6 -94 6 -32 15 -270
20 -527 9 -474 27 -790 56 -1032 9 -73 15 -134 13 -136 -4 -4 -266 21 -684 64
-110 11 -265 27 -345 36 -80 8 -228 26 -330 41 -202 28 -419 33 -635 14 -60
-5 -111 -8 -114 -6 -5 6 37 176 72 285 54 173 137 361 274 626 93 180 112 244
93 314 -16 61 -71 113 -140 135 -87 26 -400 31 -730 10 -363 -22 -1535 -33
-1730 -16 -136 12 -264 30 -535 76 -82 14 -215 30 -295 35 -80 6 -188 18 -240
28 -56 10 -145 17 -217 17 l-122 0 -34 -33 -34 -33 -13 32 c-26 61 -110 88
-170 53 -54 -33 -64 -64 -63 -213 1 -75 8 -201 17 -281 9 -80 27 -255 41 -390
14 -135 30 -289 37 -343 6 -53 9 -99 6 -102 -2 -2 -56 4 -119 15 -291 51 -618
91 -894 110 -231 15 -1807 17 -1930 1 -165 -20 -147 -26 -161 54 -45 258 -93
608 -129 940 -44 407 -98 925 -115 1110 -87 920 -212 1776 -336 2315 -20 85
-40 165 -45 178 -14 37 -11 42 29 42 20 1 69 7 107 15 144 29 999 54 2169 62
l799 6 -9 -344 c-5 -189 -9 -560 -9 -824 0 -464 1 -483 23 -569 46 -181 163
-339 285 -385 166 -61 291 -48 632 69 109 37 274 80 309 80 24 0 22 -5 -64
-172 -112 -219 -198 -412 -267 -603 -29 -82 -69 -184 -88 -225 -67 -148 -69
-219 -9 -338 62 -125 136 -176 224 -152 73 20 130 90 130 161 0 15 -9 52 -21
81 -17 43 -20 70 -17 138 l3 85 190 350 c104 193 227 422 274 510 136 258 130
249 185 257 169 24 979 36 1167 18 338 -34 551 -79 1088 -230 281 -79 338 -79
404 0 58 68 45 145 -47 300 -207 344 -266 523 -338 1026 -22 153 -23 186 -24
889 -1 801 -1 794 -62 910 -39 72 -164 191 -260 248 -45 27 -82 52 -82 56 0 8
208 364 244 418 20 29 33 38 57 39 17 1 38 8 46 16 8 9 26 66 40 127 22 96 24
118 14 151 -32 106 -175 110 -251 8 -13 -18 -118 -174 -233 -346 -159 -238
-213 -312 -225 -308 -40 12 -324 66 -397 75 -210 27 -383 33 -662 22 -153 -7
-309 -16 -348 -22 -97 -13 -370 -83 -490 -125 -55 -19 -152 -50 -216 -68 -163
-45 -249 -96 -374 -221 -99 -99 -267 -310 -279 -351 -9 -29 28 -74 60 -74 28
0 39 10 142 133 83 99 145 149 287 232 55 32 139 83 187 112 106 67 161 84
403 129 234 44 352 50 685 35 319 -13 534 -41 838 -108 30 -7 28 -18 -20 -93
-23 -36 -150 -245 -283 -465 -133 -220 -356 -587 -497 -815 -350 -570 -621
-1014 -774 -1270 l-129 -215 -105 -22 c-58 -12 -150 -32 -205 -44 -55 -12
-203 -53 -330 -92 -198 -60 -241 -70 -310 -71 -96 -1 -121 11 -166 82 -82 129
-91 294 -67 1269 l12 512 36 6 c151 25 188 189 62 269 l-39 24 -11 99 c-6 54
-23 136 -37 182 -17 58 -25 108 -25 160 0 95 -18 294 -31 343 -22 86 -96 127
-166 94 -62 -30 -66 -52 -62 -381 1 -159 2 -338 1 -396 l-2 -106 -712 -6
c-1144 -9 -2033 -34 -2227 -63 -57 -8 -109 -13 -116 -11 -37 15 -351 1075
-469 1587 -88 379 -124 573 -166 890 -63 467 -80 665 -105 1230 -27 608 -55
757 -160 848 -29 26 -44 32 -83 32 -123 0 -177 -110 -116 -240 14 -30 48 -90
76 -133 l52 -79 7 -441 c8 -464 11 -536 35 -787 61 -654 159 -1178 350 -1878
42 -153 94 -342 115 -422 22 -80 58 -202 79 -271 22 -70 40 -132 40 -138 0 -7
-10 -25 -21 -41 -27 -36 -22 -82 21 -195 98 -253 171 -603 255 -1235 14 -102
31 -234 40 -295 17 -129 37 -290 65 -540 36 -323 50 -454 85 -840 69 -755 116
-1207 151 -1460 62 -446 113 -717 147 -779 44 -80 133 -98 232 -45 56 29 66
31 234 41 281 15 1706 4 1921 -15 347 -32 835 -100 906 -127 25 -10 25 -13 44
-240 16 -201 40 -836 40 -1083 0 -469 34 -636 153 -742 75 -68 123 -80 317
-80 122 0 179 5 220 17 486 142 646 182 885 222 168 28 468 56 709 66 351 15
672 38 822 60 410 60 672 163 749 294 64 109 55 192 -44 404 -120 258 -141
366 -141 726 l0 258 28 -6 c15 -4 135 -11 267 -16 192 -6 275 -14 415 -38 96
-16 265 -40 375 -51 440 -48 577 -62 740 -76 94 -9 206 -20 250 -25 44 -6 82
-10 86 -10 10 0 15 -26 39 -190 37 -248 241 -1332 351 -1860 73 -352 72 -350
53 -386 -15 -27 -16 -37 -6 -59 11 -24 10 -30 -13 -51 -23 -21 -25 -29 -25
-116 0 -112 12 -158 51 -202 83 -95 218 -78 263 34 9 22 19 85 22 140 l7 99
31 7 c17 3 112 25 211 49 278 67 371 84 550 101 l167 16 24 -23 c16 -15 37
-23 60 -23 27 0 35 -4 38 -20 5 -22 19 -304 36 -706 33 -759 122 -1078 364
-1308 57 -54 98 -82 168 -116 135 -65 223 -81 443 -80 l180 0 160 47 c516 152
649 181 916 198 158 10 166 9 312 -21 44 -9 107 3 142 26 14 9 35 32 47 53 22
34 23 50 28 251 l5 215 45 7 c25 3 180 7 345 7 275 1 312 -1 449 -24 83 -14
170 -25 195 -25 26 0 51 -4 58 -8 9 -6 13 -210 16 -827 5 -931 22 -1902 37
-2050 12 -128 25 -167 72 -219 76 -88 189 -111 507 -104 l206 5 275 70 c282
72 349 87 553 124 171 31 232 22 396 -60 8 -4 38 -89 68 -196 60 -212 129
-389 239 -610 207 -418 432 -599 788 -637 155 -16 314 -1 419 40 254 99 498
359 672 717 92 189 137 350 166 590 15 126 0 302 -31 372 -11 26 -17 49 -13
53 5 4 94 35 198 69 740 245 1356 601 1936 1118 381 339 667 752 769 1111 l24
83 81 -8 c337 -34 570 46 801 274 92 90 178 195 255 308 29 44 58 82 64 84 5
2 22 17 37 32 22 21 27 33 22 56 -7 35 15 58 48 50 13 -3 55 -12 93 -21 77
-18 515 -42 704 -39 95 2 119 5 140 21 34 25 41 88 12 123 -19 24 -21 24 -213
25 -231 2 -578 36 -653 64 l-25 9 21 53 c11 29 26 59 31 66 6 7 91 69 188 137
97 69 214 153 260 189 78 60 110 72 110 41 0 -19 95 -104 135 -121 40 -16 78
-6 95 26 8 16 8 35 0 73 -23 104 -7 1169 21 1397 25 205 213 1288 264 1520 81
370 101 432 144 455 98 50 540 110 929 125 430 16 943 40 1212 55 146 8 362
20 480 25 530 26 1309 69 1810 100 972 61 1455 79 2320 87 721 6 831 3 1115
-38 414 -59 688 -141 1008 -300 177 -88 299 -172 387 -266 279 -299 320 -545
320 -1933 0 -846 -8 -967 -146 -2130 -66 -556 -118 -797 -225 -1035 -122 -272
-298 -387 -654 -426 -135 -14 -674 -6 -1186 18 -518 25 -1634 25 -1964 0 -625
-46 -1089 -91 -1575 -152 -414 -52 -1163 -128 -1525 -154 -355 -26 -641 -38
-1227 -51 -600 -14 -706 -9 -1315 66 -24 3 -43 9 -43 14 0 5 20 38 45 74 128
182 195 431 235 871 6 61 15 162 21 225 6 63 12 273 12 465 2 389 0 410 -67
552 -50 105 -114 132 -178 74 -46 -41 -45 -88 5 -160 21 -29 40 -65 44 -79 34
-137 -111 -1397 -186 -1615 -36 -103 -91 -194 -173 -284 -118 -128 -137 -178
-97 -260 38 -78 130 -112 354 -128 50 -3 171 -15 270 -25 399 -43 503 -51 810
-61 472 -15 1322 -16 1570 -1 357 21 783 59 1365 122 298 31 500 51 765 75 94
9 262 24 375 35 773 72 967 80 2095 90 1058 10 1562 21 1705 40 178 23 328 74
442 151 311 210 475 625 567 1439 11 96 30 254 41 350 109 928 126 1213 116
2025 -9 800 -30 1162 -81 1405 -89 421 -357 743 -825 988 -446 234 -942 367
-1496 402 -232 14 -1454 15 -1854 1 -471 -17 -1318 -62 -1710 -91 -74 -6 -279
-19 -455 -30 -176 -11 -399 -27 -495 -35 -217 -19 -486 -41 -736 -60 -195 -15
-782 -79 -1064 -114 -85 -11 -258 -32 -385 -46 -536 -60 -769 -101 -879 -157
-60 -30 -130 -102 -159 -162 -64 -130 -141 -512 -311 -1541 -36 -214 -69 -424
-75 -467 -22 -160 -33 -543 -26 -888 l7 -345 -54 -40 c-77 -57 -367 -229 -375
-222 -3 4 2 55 12 114 27 159 33 574 11 703 -34 192 -145 454 -256 601 -142
188 -342 318 -547 354 -108 20 -386 19 -499 0 -230 -40 -475 -223 -579 -434
-48 -96 -63 -161 -76 -323 -13 -157 -9 -184 29 -200 15 -7 29 -13 31 -15 2 -1
-15 -30 -36 -65 -22 -35 -52 -87 -67 -116 -15 -29 -31 -50 -36 -47 -5 3 -34
42 -65 86 -92 131 -243 305 -381 439 -276 266 -558 463 -922 641 -531 260
-1045 398 -1551 417 l-175 7 -24 115 c-31 151 -100 358 -162 487 l-50 105 50
166 c68 232 210 634 231 656 9 10 138 -24 309 -80 102 -34 108 -37 205 -126
55 -50 132 -116 170 -147 39 -30 109 -91 157 -134 156 -140 346 -241 513 -272
111 -21 275 -17 320 7 79 42 76 165 -3 197 -15 6 -61 15 -102 21 -71 10 -223
56 -285 87 -25 13 -221 129 -234 140 -3 2 7 16 21 31 27 28 68 103 68 122 0
14 68 186 145 370 104 246 202 550 255 790 57 258 86 656 70 985 -12 258 -34
328 -138 437 -30 32 -53 60 -50 63 2 2 67 16 144 30 220 41 410 90 617 159
571 191 1092 494 1401 816 244 255 374 501 447 850 30 138 37 516 15 690 -42
319 -131 591 -320 985 -177 369 -477 822 -771 1165 -126 148 -378 403 -525
533 -299 263 -814 614 -1142 778 -46 23 -88 45 -94 51 -9 6 -5 32 13 96 28
101 121 502 163 707 16 77 43 198 60 269 110 465 133 718 107 1199 -2 28 1 29
138 76 338 115 770 327 1065 524 409 273 799 643 1008 955 228 340 399 791
472 1242 46 290 54 414 54 875 1 489 -2 526 -71 825 -162 709 -492 1367 -977
1950 -244 293 -480 510 -801 735 -548 384 -1291 652 -1995 720 -183 17 -641
26 -825 15z m470 -430 c358 -16 542 -40 810 -105 858 -209 1566 -642 2101
-1285 463 -556 772 -1225 881 -1900 25 -162 25 -752 -1 -1015 -52 -526 -175
-913 -411 -1294 -207 -334 -604 -697 -1105 -1012 -109 -68 -433 -232 -577
-292 -62 -26 -114 -47 -116 -47 -3 0 -7 18 -11 39 -9 56 -62 101 -120 101 -60
0 -96 -27 -189 -142 l-78 -96 -66 45 c-213 142 -431 188 -893 187 -346 0 -498
-24 -813 -126 -90 -29 -102 -31 -143 -20 -82 22 -228 84 -409 172 -408 200
-686 403 -1050 765 -276 276 -644 755 -858 1115 -54 91 -57 99 -57 163 0 78 8
85 63 62 76 -32 137 -10 169 61 16 38 28 49 76 70 184 83 532 211 621 229 l34
7 -6 -93 c-16 -222 -20 -606 -8 -707 15 -123 34 -182 104 -316 156 -298 328
-464 562 -539 141 -46 208 -51 700 -52 405 -1 483 -3 565 -18 298 -56 509
-135 652 -243 103 -78 180 -85 245 -22 52 51 56 82 42 329 -13 248 -7 1021 10
1184 24 224 96 1137 122 1545 15 228 6 583 -16 664 -48 175 -155 277 -342 328
-69 19 -104 21 -298 21 -299 0 -392 -18 -835 -160 -380 -121 -764 -288 -1019
-442 -46 -28 -87 -51 -91 -51 -3 0 -16 20 -27 44 -34 69 -82 100 -163 104 -99
6 -177 -37 -223 -123 -21 -37 -22 -53 -21 -235 1 -172 4 -210 28 -320 14 -68
30 -159 35 -202 9 -83 22 -108 52 -108 11 0 19 -4 19 -10 0 -10 -47 -291 -55
-326 -4 -17 -18 -24 -87 -37 -167 -33 -295 -76 -763 -258 -95 -36 -121 -42
-191 -43 -58 -1 -88 -6 -107 -19 -14 -9 -28 -17 -31 -17 -5 0 -55 129 -85 220
-32 102 -50 199 -61 343 -34 442 17 728 190 1082 164 336 441 696 850 1106
265 266 446 422 790 685 266 204 507 347 725 432 135 52 178 62 315 68 102 5
149 2 255 -15 192 -32 221 -40 320 -86 50 -23 113 -49 140 -58 56 -18 212 -47
256 -47 52 0 79 59 42 92 -10 9 -67 28 -126 43 -60 14 -141 40 -180 57 -203
85 -500 167 -646 180 -205 17 -385 -11 -573 -90 -262 -109 -697 -392 -1116
-724 l-53 -42 -85 85 c-48 47 -95 105 -109 133 -32 64 -34 149 -5 206 22 44
130 151 216 216 53 39 233 134 392 205 341 154 852 304 1152 338 195 22 366
25 685 11z m233 -2490 c72 -5 159 -17 192 -26 70 -19 123 -66 141 -122 29 -95
18 -654 -21 -1107 -5 -60 -19 -227 -30 -370 -11 -143 -27 -332 -35 -420 -36
-389 -45 -592 -45 -1010 0 -247 -4 -425 -9 -425 -5 0 -38 13 -74 29 -199 89
-504 162 -742 176 -55 4 -275 10 -490 15 -430 10 -479 16 -600 73 -38 19 -97
58 -129 88 -98 89 -236 317 -267 439 -18 71 -18 569 0 755 12 129 66 501 117
810 21 131 27 196 28 355 l1 194 55 39 c74 53 166 95 373 172 222 81 510 168
807 244 391 100 466 109 728 91z m-2222 -452 c15 -24 14 -311 -1 -433 -25
-194 -32 -200 -60 -47 -33 176 -23 430 17 480 13 15 35 16 44 0z m-1045 -2690
c211 -300 409 -538 629 -758 351 -351 667 -587 1028 -769 48 -24 61 -35 53
-45 -6 -6 -50 -40 -99 -74 l-90 -62 -93 118 c-117 146 -280 316 -379 395 -93
74 -199 127 -256 127 -55 0 -105 -34 -121 -82 -14 -43 -9 -66 57 -248 57 -156
97 -293 124 -428 30 -144 57 -176 114 -136 14 9 22 26 22 43 0 35 -41 237 -70
346 -34 124 -41 157 -38 167 6 16 186 -177 301 -321 l107 -135 -6 -47 c-5 -39
-3 -50 15 -68 13 -13 34 -21 55 -21 32 0 39 -7 132 -137 131 -185 733 -981
882 -1168 l120 -149 -21 -27 c-12 -15 -85 -100 -161 -190 l-139 -164 -118 -56
c-64 -31 -161 -85 -214 -119 -109 -71 -104 -71 -191 -2 -102 80 -187 223 -238
397 -56 193 -69 299 -86 680 -6 132 -17 312 -25 400 -9 88 -17 201 -19 250 -5
125 -19 171 -59 195 -75 46 -147 6 -172 -95 -10 -41 -8 -270 6 -583 6 -145 8
-266 5 -269 -3 -4 -41 10 -83 30 -110 51 -201 61 -446 47 -106 -6 -223 -15
-262 -20 -327 -47 -521 -174 -461 -302 21 -44 56 -63 141 -77 115 -19 146 -18
167 8 25 32 23 49 -13 82 l-31 29 29 11 c52 19 157 40 298 59 117 16 162 17
275 10 194 -14 246 -19 328 -37 l72 -15 0 -40 c0 -148 77 -473 150 -634 59
-132 179 -286 269 -349 23 -15 41 -31 41 -34 0 -4 -27 -37 -60 -74 -55 -62
-60 -72 -60 -113 0 -37 6 -51 29 -75 24 -23 38 -29 75 -29 42 0 49 4 107 63
34 34 59 55 56 47 -2 -8 -65 -99 -140 -202 -151 -209 -249 -361 -356 -550
l-72 -128 -24 16 c-27 18 -60 11 -74 -15 -5 -9 -15 -74 -22 -143 -11 -114 -11
-129 5 -152 21 -33 62 -43 95 -25 30 17 59 55 166 221 158 243 574 791 744
980 l45 50 95 -6 c53 -4 182 -11 286 -16 188 -10 245 -16 245 -29 0 -3 -60
-40 -132 -81 -285 -162 -609 -393 -893 -636 -82 -70 -272 -249 -420 -398 -391
-392 -538 -564 -730 -856 -132 -200 -160 -248 -271 -464 l-92 -179 -6 74 c-3
41 -10 166 -16 278 -6 112 -20 272 -31 355 -23 167 -102 532 -150 696 -68 227
-70 246 -79 625 -4 193 -11 359 -14 370 -7 26 -43 446 -61 730 -23 337 -37
1257 -32 1985 5 711 9 784 77 1334 40 329 58 501 66 634 4 61 10 112 15 112 4
0 49 -60 100 -132z m3449 -1443 c198 -17 299 -31 320 -46 27 -18 -675 -4 -818
16 -67 10 -120 20 -117 23 24 24 366 28 615 7z m-1239 -316 c245 -80 581 -144
899 -170 80 -7 270 -12 423 -12 152 0 277 -1 277 -3 0 -4 -167 -209 -244 -299
-28 -33 -141 -159 -251 -280 -189 -207 -458 -508 -589 -658 -32 -37 -64 -67
-70 -67 -13 1 -113 134 -393 523 -107 148 -240 331 -297 406 -175 233 -339
464 -340 480 -1 10 31 29 89 56 50 22 119 59 153 82 l63 42 67 -26 c37 -14
133 -47 213 -74z m-4966 65 c0 -15 -439 -512 -670 -759 -98 -104 -254 -274
-347 -377 -94 -104 -173 -188 -177 -188 -22 0 -488 479 -627 645 -113 135
-399 533 -390 542 3 4 113 0 243 -7 296 -16 722 -17 913 -1 188 15 309 33 505
77 356 78 376 82 480 80 44 -1 70 -5 70 -12z m6991 -271 c9 -85 -1 -431 -16
-538 -15 -114 -64 -362 -109 -555 -21 -91 -58 -250 -81 -355 -36 -161 -114
-485 -136 -562 -8 -30 -19 -29 -106 6 -169 67 -377 126 -583 166 -98 20 -124
28 -140 48 -11 13 -66 79 -123 146 -66 77 -100 126 -96 134 9 13 280 315 529
587 340 372 519 581 695 810 114 149 140 180 151 180 4 0 11 -30 15 -67z
m-6941 -238 c-31 -204 -87 -425 -210 -825 -54 -174 -168 -510 -180 -530 -8
-13 -214 94 -357 185 -131 84 -262 174 -266 183 -1 4 41 57 94 117 105 119
107 122 360 395 194 210 279 306 449 504 139 162 139 162 110 -29z m-1164
-1212 c17 -21 295 -203 407 -267 45 -26 123 -65 174 -85 51 -21 93 -42 95 -48
6 -18 -100 -25 -213 -13 -103 11 -365 54 -609 101 -136 26 -145 28 -145 39 0
15 251 290 264 290 8 0 20 -8 27 -17z m6584 -299 c15 -19 25 -37 22 -40 -2 -3
-35 -4 -73 -2 l-68 3 33 38 c18 20 39 37 46 37 7 0 25 -16 40 -36z m225 -330
c79 -12 111 -21 129 -37 26 -25 141 -186 141 -199 0 -15 -37 -9 -217 36 -221
55 -389 84 -530 91 -135 7 -193 14 -193 23 1 4 18 26 39 50 30 35 47 45 87 52
71 13 421 3 544 -16z m738 -210 c118 -48 118 -48 92 -117 -12 -32 -27 -57 -34
-57 -11 0 -156 190 -156 204 0 10 8 7 98 -30z m637 -322 c367 -216 756 -508
1022 -766 561 -544 1024 -1253 1229 -1884 79 -245 109 -444 101 -677 -12 -344
-75 -560 -234 -799 -339 -509 -1249 -955 -2207 -1082 -127 -16 -166 -18 -166
-5 0 5 9 30 20 56 l20 46 29 -16 c41 -21 58 -19 87 10 l26 26 -7 172 c-8 188
-16 217 -65 242 -55 29 -115 17 -163 -31 -45 -44 -74 -101 -167 -323 l-86
-206 -370 0 c-407 1 -561 13 -844 66 -470 87 -939 257 -1264 457 -408 251
-704 541 -859 840 -67 130 -94 214 -103 325 l-7 84 144 7 c79 4 191 14 249 22
58 8 170 21 250 29 80 8 213 23 295 34 83 10 183 22 223 26 l73 6 -8 -78 c-4
-43 -8 -181 -8 -308 0 -229 0 -230 27 -288 33 -70 117 -156 188 -192 106 -54
123 -55 916 -55 478 0 776 -4 865 -12 73 -6 181 -12 239 -12 93 -1 111 2 154
24 59 30 100 77 128 150 20 51 22 80 29 420 4 201 10 379 14 395 20 86 88 439
109 565 40 233 49 354 43 563 -8 277 -29 342 -151 462 -105 104 -241 167 -430
200 -142 24 -588 21 -742 -6 -277 -48 -664 -161 -806 -236 -73 -38 -122 -92
-167 -180 -27 -54 -27 -81 1 -110 41 -43 72 -32 157 56 l76 80 145 45 c173 55
310 87 524 122 152 25 171 26 445 21 252 -4 295 -7 365 -26 168 -45 273 -115
312 -206 22 -52 31 -301 16 -440 -13 -118 -53 -331 -117 -619 -63 -287 -75
-406 -75 -737 0 -209 -3 -279 -12 -287 -9 -7 -61 -4 -164 9 -129 16 -263 20
-930 27 -860 8 -810 4 -868 72 -26 31 -26 33 -26 199 0 188 22 400 46 436 11
16 17 52 18 107 1 46 11 139 22 208 15 102 19 174 18 395 -2 376 -26 518 -102
599 -70 75 -198 74 -249 -2 -24 -37 -22 -120 5 -208 19 -61 26 -72 54 -85 l33
-14 -3 -250 c-2 -201 -7 -283 -27 -417 -13 -93 -27 -172 -30 -178 -3 -5 -26
-10 -50 -10 -103 0 -479 -42 -580 -65 -132 -29 -299 -45 -494 -45 l-144 0 7
63 c27 255 141 598 304 911 177 342 369 611 693 971 530 590 1137 1089 1614
1326 l81 40 109 -26 c139 -32 202 -53 402 -131 90 -35 169 -64 176 -64 7 0 36
-18 66 -40 29 -22 63 -40 75 -40 32 0 47 -20 118 -156 68 -128 88 -145 129
-108 27 24 23 35 -65 218 -90 184 -92 192 -72 215 14 16 51 91 90 184 l16 39
77 -43 c43 -23 128 -72 188 -107z m-13810 -2368 c87 -56 131 -98 158 -149 21
-40 21 -44 22 -770 0 -639 2 -746 18 -860 44 -328 97 -578 157 -750 18 -49 59
-143 92 -208 32 -66 58 -121 55 -123 -2 -2 -95 21 -208 51 -301 81 -508 122
-809 162 -114 15 -215 18 -643 18 -389 0 -506 3 -503 12 11 29 391 687 561
973 104 173 280 470 393 660 466 787 614 1030 626 1030 6 0 43 -21 81 -46z
m11703 -3158 c53 -14 156 -36 227 -50 112 -21 186 -31 454 -63 60 -7 41 -18
-54 -32 -44 -7 -138 -21 -210 -33 -91 -14 -171 -20 -268 -19 l-138 2 -29 -29
c-37 -38 -46 -73 -28 -120 9 -26 24 -42 50 -55 36 -18 44 -18 160 -3 68 9 242
22 388 31 200 11 314 24 465 49 242 41 305 50 305 42 0 -3 -61 -160 -136 -348
-152 -384 -275 -709 -355 -934 -29 -85 -58 -150 -63 -148 -6 3 -33 39 -61 81
-217 334 -613 863 -773 1033 -34 36 -62 74 -62 85 0 11 5 72 10 135 5 63 10
179 12 258 1 78 4 142 6 142 2 0 47 -11 100 -24z m1903 -266 c162 -31 188 -96
189 -466 0 -459 -51 -783 -189 -1202 -73 -222 -253 -648 -273 -645 -7 1 -77
25 -156 54 l-142 53 -83 100 c-83 102 -225 284 -265 342 l-22 32 134 363 c73
200 190 506 259 679 122 307 157 397 231 588 20 52 38 98 42 103 7 12 208 11
275 -1z m-1839 -937 c102 -137 259 -356 349 -488 90 -132 180 -264 201 -294
21 -30 38 -61 38 -70 0 -29 -52 -172 -64 -177 -16 -6 -191 57 -283 102 -84 42
-177 123 -226 196 -75 114 -143 310 -192 554 -20 97 -25 152 -25 273 0 83 4
151 8 151 5 0 92 -111 194 -247z m-14516 -442 c14 -11 54 -29 89 -41 l64 -21
47 20 c81 36 200 26 564 -49 616 -128 589 -125 1425 -124 523 1 751 5 942 18
310 20 583 22 583 4 0 -7 -31 -74 -69 -148 -149 -291 -262 -592 -317 -841 -25
-117 -27 -143 -31 -448 -8 -489 18 -628 171 -954 25 -54 46 -107 46 -118 0
-46 -237 -125 -500 -168 -142 -23 -412 -45 -735 -61 -608 -29 -1003 -91 -1510
-237 l-270 -77 -123 -1 c-116 0 -125 1 -142 22 -38 47 -60 315 -60 730 0 138
-7 383 -16 543 -8 160 -14 295 -12 300 2 6 55 12 118 14 188 7 257 31 308 106
34 49 27 125 -14 178 -40 49 -196 128 -332 166 -56 16 -106 34 -111 40 -17 22
-51 237 -71 451 -12 121 -35 323 -51 450 -37 295 -38 281 7 246z m14019 -1395
c299 -50 451 -139 589 -344 65 -95 66 -98 66 -162 0 -36 -5 -92 -12 -125 -20
-102 -16 -141 15 -173 27 -27 63 -32 132 -20 17 3 23 -8 41 -79 12 -46 25
-100 29 -122 l6 -39 -108 -7 c-356 -23 -734 -112 -981 -231 -107 -52 -169
-103 -224 -188 -44 -69 -47 -94 -14 -132 36 -42 89 -39 128 7 99 113 123 128
283 178 236 72 469 110 729 118 l199 6 -5 -252 c-2 -148 -8 -255 -14 -261 -7
-7 -25 3 -54 30 -90 83 -199 116 -420 126 -162 8 -240 -3 -387 -52 -293 -99
-543 -232 -854 -455 -53 -38 -101 -69 -107 -69 -14 0 -38 65 -51 135 -6 34
-12 300 -15 620 -6 557 -13 740 -41 950 -27 212 -27 202 -2 209 12 3 59 32
104 65 87 64 283 190 346 222 20 11 77 31 125 44 80 23 99 25 247 21 88 -3
201 -12 250 -20z m1430 -1346 c401 -46 761 -152 1152 -340 641 -309 1127 -772
1467 -1401 l46 -86 -10 -94 c-16 -156 -13 -567 6 -657 33 -159 94 -281 209
-417 l58 -68 -11 -70 c-49 -281 -244 -598 -563 -914 -150 -148 -234 -220 -424
-363 -478 -360 -942 -600 -1517 -785 -264 -85 -610 -166 -857 -202 -145 -20
-735 -29 -941 -14 -157 12 -371 39 -389 50 -5 4 -21 72 -35 151 -14 80 -37
207 -50 284 -27 153 -40 178 -106 197 -46 14 -100 -7 -127 -47 -24 -37 -22
-152 6 -331 28 -176 28 -177 -7 -170 -108 22 -454 185 -607 286 -486 322 -793
733 -892 1192 -26 121 -25 617 1 764 47 262 178 586 336 835 183 286 447 608
729 885 77 76 82 79 108 68 16 -6 60 -25 98 -41 146 -61 174 -64 594 -69 309
-4 412 -2 533 12 436 47 553 92 688 268 13 16 31 27 45 27 34 0 57 37 47 75
-6 22 -1 46 20 98 66 164 97 362 105 675 l6 222 56 0 c31 0 133 -9 226 -20z
m3985 -276 c262 -52 487 -295 598 -644 46 -145 56 -237 48 -449 -3 -101 -9
-188 -12 -193 -3 -5 -17 3 -31 17 -47 47 -105 45 -152 -4 -14 -15 -54 -81 -89
-147 -34 -65 -84 -148 -111 -184 -74 -98 -215 -202 -331 -242 -69 -24 -291
-43 -394 -33 l-78 7 20 21 c35 37 44 73 28 112 -16 39 -42 55 -86 55 -31 0
-111 -35 -163 -72 -16 -11 -30 -19 -32 -17 -1 2 -21 45 -44 94 l-40 90 59 5
c78 7 110 35 110 97 0 24 5 43 10 43 6 0 22 11 35 25 32 31 34 96 5 125 -30
30 -60 33 -212 27 -82 -3 -138 -2 -138 3 0 17 47 135 80 200 63 125 171 270
221 295 57 30 154 12 207 -38 20 -18 92 -145 92 -161 0 -2 -10 -6 -23 -10 -28
-7 -57 -55 -57 -94 0 -33 25 -69 84 -124 65 -59 79 -59 174 4 47 32 62 55 62
95 0 45 -24 69 -100 99 -38 15 -70 29 -70 31 0 2 7 15 16 29 16 23 15 29 -11
99 -71 196 -181 287 -344 288 -100 1 -152 -23 -243 -110 l-71 -68 6 110 c12
249 78 370 284 522 86 64 164 100 248 114 71 11 356 1 445 -17z m-4786 -224
c72 -23 130 -76 168 -154 l21 -44 -23 -56 c-25 -62 -102 -176 -146 -218 -37
-34 -126 -62 -289 -90 -122 -22 -158 -23 -570 -23 -412 0 -444 2 -499 20 -32
11 -59 25 -59 30 -2 15 178 153 331 256 205 136 509 277 647 300 87 14 347 1
419 -21z m-4991 -531 c140 -10 222 -35 309 -90 136 -88 181 -207 193 -519 7
-180 0 -310 -40 -690 -18 -164 -29 -338 -33 -525 l-7 -280 -75 -2 c-133 -4
-332 -23 -452 -43 -126 -21 -438 -98 -631 -155 -118 -35 -120 -35 -310 -35
-286 0 -377 27 -489 141 -70 72 -136 202 -172 339 -43 166 -83 508 -101 870
-3 69 -15 229 -26 357 -10 128 -19 234 -19 238 0 3 18 2 40 -1 83 -13 138 39
126 121 l-7 43 93 22 c51 13 131 36 178 52 150 51 669 148 895 168 99 9 330 4
528 -11z m10377 -762 c-7 -29 -28 -97 -47 -152 -31 -90 -40 -105 -85 -145 -28
-25 -63 -67 -77 -92 -14 -25 -39 -65 -55 -88 -26 -36 -31 -54 -35 -125 -6 -79
-8 -86 -56 -155 -57 -83 -159 -204 -225 -269 -166 -161 -353 -228 -564 -202
-49 6 -91 13 -94 16 -3 2 -4 73 -3 157 2 146 -14 325 -39 432 -6 27 -9 51 -6
53 3 3 29 -1 58 -8 84 -22 431 -19 531 4 154 36 325 142 463 288 70 74 121
148 189 274 51 95 65 98 45 12z m-8254 -2739 c192 -310 458 -575 820 -817 181
-121 346 -203 592 -296 39 -14 72 -30 72 -34 0 -5 -61 -9 -135 -9 -170 -1
-317 -21 -570 -78 -110 -25 -229 -52 -265 -60 -92 -20 -288 -28 -404 -16 -54
6 -101 13 -104 17 -11 11 -21 238 -31 715 -6 267 -13 515 -16 553 -7 79 3 86
41 25z m3774 -1218 c50 -26 54 -42 47 -194 -9 -210 -76 -460 -169 -636 -146
-277 -296 -444 -477 -533 l-66 -32 -160 0 c-170 0 -210 8 -315 60 -176 88
-331 320 -496 741 -38 96 -61 175 -149 496 -7 27 -10 50 -6 53 5 2 64 -3 132
-13 101 -13 210 -16 589 -17 435 0 475 1 615 23 83 12 197 33 255 46 134 30
152 30 200 6z"/>
<path d="M35450 6791 c-75 -24 -151 -88 -177 -149 -12 -30 -12 -37 4 -70 35
-72 106 -76 166 -11 24 27 33 30 65 26 196 -24 375 -38 577 -46 335 -14 405
-37 405 -135 0 -220 -122 -669 -332 -1216 -94 -245 -99 -258 -116 -272 -11
-10 -93 -14 -336 -16 -363 -4 -407 1 -458 51 -93 94 -160 364 -238 962 -38
291 -71 416 -128 484 -23 28 -36 34 -77 38 -45 5 -53 2 -78 -23 -25 -25 -28
-34 -24 -74 13 -114 36 -357 37 -372 0 -9 7 -24 16 -33 12 -11 21 -52 30 -133
50 -435 120 -745 206 -916 35 -69 116 -155 176 -185 93 -47 149 -53 536 -49
321 3 367 6 413 22 59 21 121 70 152 119 27 44 237 597 299 787 130 399 172
586 180 788 l5 142 -32 65 c-51 103 -144 165 -301 200 -63 15 -147 18 -510 21
-239 2 -446 0 -460 -5z"/>
<path d="M44660 29460 c-88 -14 -229 -58 -308 -96 -161 -77 -422 -310 -633
-564 -491 -592 -757 -1067 -863 -1542 -48 -215 -59 -316 -60 -578 -1 -262 8
-356 49 -521 69 -273 298 -688 579 -1049 336 -432 910 -846 1411 -1018 283
-97 431 -122 750 -129 290 -6 379 2 529 52 124 40 203 79 318 156 571 384 924
1042 1030 1919 18 149 21 233 22 570 1 486 -17 662 -104 995 -70 268 -143 466
-261 705 -118 238 -220 379 -358 498 -171 148 -372 255 -556 297 -103 24 -296
45 -415 45 -59 0 -110 4 -115 9 -6 5 -73 41 -150 79 -160 80 -308 134 -427
157 -99 19 -361 28 -438 15z m521 -186 c74 -14 231 -58 253 -71 13 -9 -17 -23
-49 -23 -47 0 -242 -54 -340 -95 -50 -20 -139 -54 -200 -77 -221 -82 -440
-207 -703 -402 -144 -106 -198 -161 -237 -239 -30 -61 -32 -100 -5 -127 37
-37 66 -26 149 53 86 81 191 155 401 282 151 91 484 262 605 310 105 42 278
82 385 90 114 8 453 -10 560 -31 299 -56 585 -245 749 -494 206 -314 387 -837
437 -1265 21 -179 15 -851 -9 -1035 -61 -463 -210 -884 -432 -1218 -189 -285
-475 -526 -734 -618 -72 -26 -87 -27 -308 -32 -328 -6 -497 17 -736 100 -464
159 -956 505 -1264 888 -107 134 -294 412 -371 555 -189 348 -225 492 -225
895 0 243 10 347 54 545 85 385 262 733 605 1192 174 232 238 308 388 461 198
202 304 273 492 327 156 45 384 58 535 29z"/>
<path d="M45987 27225 c-52 -41 -97 -82 -101 -91 -22 -57 16 -124 71 -124 50
0 225 63 253 92 43 43 47 103 10 154 -22 30 -53 44 -99 44 -34 0 -52 -10 -134
-75z"/>
<path d="M44114 27081 c-83 -50 -98 -135 -44 -249 54 -115 115 -182 164 -182
8 0 29 12 46 27 30 25 32 30 27 74 -6 46 -5 48 24 54 73 16 121 95 100 166
-15 50 -58 84 -138 109 -81 25 -139 25 -179 1z"/>
<path d="M44711 26158 c-82 -18 -121 -62 -121 -134 0 -95 77 -179 232 -252
312 -149 608 -210 885 -184 148 14 216 32 321 83 87 42 209 136 236 181 46 75
-14 178 -104 178 -40 0 -64 -13 -121 -65 -116 -108 -205 -135 -444 -135 -222
0 -332 22 -574 112 -163 61 -191 80 -136 94 53 13 72 78 33 114 -18 16 -34 20
-92 19 -39 -1 -91 -6 -115 -11z"/>
<path d="M55275 28640 c-33 -4 -80 -13 -105 -19 -51 -13 -450 -42 -885 -66
-159 -8 -411 -22 -560 -30 -148 -8 -387 -20 -530 -25 -503 -20 -904 -41 -1285
-67 -343 -23 -456 -26 -1035 -29 -357 -2 -697 -7 -754 -12 -100 -9 -106 -11
-133 -41 -15 -17 -28 -40 -28 -52 0 -34 27 -76 57 -87 15 -6 105 -13 198 -17
94 -3 238 -13 320 -22 193 -20 1240 -30 1439 -14 200 17 552 30 1211 46 877
21 1170 40 1785 116 41 5 165 6 275 3 159 -5 224 -3 319 10 66 10 199 21 297
25 171 7 178 8 212 34 60 46 71 124 25 182 -39 50 -54 52 -388 64 -340 12
-346 12 -435 1z"/>
<path d="M55030 25719 c-319 -10 -772 -45 -1371 -104 -139 -14 -531 -63 -834
-104 -77 -11 -261 -36 -410 -55 -959 -129 -1369 -193 -1886 -296 -397 -80
-688 -146 -1029 -236 -260 -68 -364 -113 -448 -194 -86 -83 -119 -184 -186
-576 -19 -110 -61 -323 -95 -474 -33 -151 -65 -322 -70 -379 -23 -221 -9 -541
30 -696 22 -86 81 -234 111 -277 10 -14 18 -30 18 -35 -1 -4 -31 -30 -68 -58
-37 -27 -146 -113 -242 -190 -96 -77 -245 -187 -330 -244 -466 -312 -545 -374
-590 -465 -28 -59 -21 -108 21 -147 16 -15 29 -36 29 -47 0 -33 43 -85 92
-109 77 -38 175 -46 479 -36 271 9 409 7 409 -5 0 -4 2 -79 5 -167 6 -214 28
-288 128 -420 64 -85 136 -135 342 -236 121 -60 211 -113 275 -160 184 -138
432 -243 830 -350 214 -58 261 -67 450 -89 306 -37 615 -43 1650 -34 1153 11
1938 9 2225 -6 116 -5 383 -17 595 -25 467 -18 928 -42 1070 -55 141 -13 697
-13 817 1 117 13 226 46 293 89 68 44 161 146 207 227 81 145 168 476 214 813
17 118 50 364 75 545 24 182 60 422 80 535 77 455 117 677 164 920 184 951
185 957 185 1345 0 349 -9 427 -72 615 -72 217 -184 385 -374 564 -282 266
-839 487 -1474 586 -223 35 -779 47 -1315 29z m1305 -380 c612 -85 1106 -271
1341 -507 73 -72 181 -231 217 -317 77 -188 91 -282 91 -610 0 -337 -11 -418
-174 -1250 -27 -137 -58 -299 -69 -360 -36 -192 -149 -885 -166 -1015 -21
-163 -90 -666 -111 -800 -18 -123 -81 -375 -121 -487 -56 -158 -148 -240 -298
-264 -117 -18 -666 -16 -830 4 -274 33 -715 64 -1300 92 -170 8 -416 20 -545
26 -154 7 -847 12 -2015 13 l-1780 1 -115 23 c-419 80 -666 174 -901 343 -97
70 -161 104 -329 178 -122 54 -195 104 -242 166 -55 72 -68 121 -75 273 -7
146 -5 152 49 152 32 0 68 41 68 77 0 28 -41 73 -68 73 -10 0 -26 6 -36 13
-17 13 -16 18 13 108 40 118 112 265 154 313 l32 37 46 -17 c40 -15 49 -15 75
-3 39 19 59 62 47 103 -10 36 -83 90 -144 106 -112 31 -231 -73 -333 -291 -48
-102 -116 -280 -116 -302 0 -39 -24 -42 -294 -39 -143 1 -277 6 -296 10 -33 7
-35 10 -32 45 3 30 -2 43 -26 67 -35 35 -70 38 -151 14 -51 -15 -74 -13 -55 5
12 12 545 393 700 502 66 45 184 132 263 193 79 61 149 115 156 120 9 7 29 -5
66 -37 60 -52 96 -60 129 -27 31 31 25 70 -21 131 -58 77 -60 83 -74 178 -7
47 -30 149 -50 226 -38 140 -38 140 -43 381 -5 282 0 326 68 641 28 125 66
318 85 428 47 263 79 404 103 452 14 27 36 47 70 66 88 48 518 155 807 201 88
15 225 37 305 51 223 38 908 127 1265 165 244 26 589 65 750 84 66 8 296 35
510 60 215 26 554 66 755 91 699 86 1197 124 1760 135 475 9 708 3 885 -21z"/>
<path d="M55420 24415 c-14 -2 -97 -9 -185 -15 -94 -7 -232 -26 -335 -45 -96
-19 -242 -41 -325 -50 -301 -31 -1316 -151 -1570 -186 -468 -64 -1170 -191
-1490 -269 -195 -48 -493 -139 -558 -170 -131 -62 -129 -172 5 -230 102 -44
173 -21 180 58 l3 36 180 43 c628 151 1192 249 2000 347 160 20 308 38 330 41
22 4 252 33 510 67 465 60 474 60 815 68 255 6 408 15 585 34 132 15 319 29
415 32 191 7 220 15 245 64 30 59 8 132 -48 155 -23 9 -126 14 -382 18 -192 3
-361 4 -375 2z"/>
<path d="M54985 22999 c-247 -8 -307 -14 -975 -99 -261 -33 -569 -71 -685 -85
-678 -81 -1047 -146 -1792 -314 -358 -81 -573 -114 -1050 -161 -188 -19 -365
-46 -458 -71 -107 -29 -147 -148 -78 -230 38 -45 116 -79 180 -79 44 0 58 5
88 31 20 18 39 47 45 69 10 35 13 38 58 43 26 4 112 9 192 12 322 14 589 54
1040 156 217 49 667 145 775 165 198 37 424 75 580 98 94 14 247 36 340 50
268 40 572 70 1275 126 69 6 258 21 420 35 162 13 348 27 413 31 105 6 122 10
147 31 16 13 34 39 40 58 16 47 -11 103 -60 127 -39 20 -95 21 -495 7z"/>
<path d="M55070 21815 c-58 -8 -258 -18 -445 -24 -187 -6 -491 -15 -675 -21
-696 -22 -951 -38 -1465 -91 -228 -23 -374 -31 -680 -39 -534 -13 -720 -25
-750 -48 -27 -19 -45 -53 -45 -83 0 -28 27 -76 48 -88 28 -15 850 -23 1043
-11 165 11 249 19 634 64 401 47 1007 90 1925 136 118 6 348 13 510 14 349 4
806 23 837 36 31 13 56 65 48 101 -4 16 -18 38 -32 49 -25 19 -39 20 -437 19
-267 -1 -448 -6 -516 -14z"/>
<path d="M53855 20949 c-291 -9 -527 -24 -775 -49 -569 -57 -647 -63 -1035
-69 -363 -6 -392 -7 -422 -26 -42 -25 -67 -77 -59 -124 12 -78 123 -135 292
-148 l85 -6 44 47 45 46 142 0 c152 0 299 14 598 54 479 65 885 95 1400 102
217 3 405 7 418 10 37 8 62 40 62 82 -1 41 -13 63 -47 80 -24 13 -362 14 -748
1z"/>
<path d="M45730 23149 c-36 -5 -89 -21 -118 -34 -129 -59 -304 -286 -453 -587
-52 -104 -52 -107 -36 -132 21 -31 66 -35 89 -8 8 9 40 62 70 117 113 206 214
339 315 415 83 63 132 74 312 68 120 -4 144 -8 206 -33 458 -184 864 -743 962
-1321 33 -201 21 -749 -23 -1009 -72 -428 -277 -867 -585 -1256 -100 -127
-304 -330 -447 -445 -122 -97 -262 -172 -387 -206 -71 -19 -106 -22 -315 -22
-262 -1 -303 4 -498 63 -157 48 -208 68 -347 138 -138 68 -232 140 -346 262
-109 116 -173 211 -245 357 -110 226 -159 397 -176 619 -14 184 -4 627 17 765
55 362 222 813 397 1074 190 283 339 440 438 461 59 12 82 32 78 68 -3 27 -9
34 -48 49 -124 47 -222 12 -380 -139 -348 -331 -617 -845 -725 -1388 -32 -163
-45 -299 -52 -565 -12 -467 38 -736 202 -1077 100 -208 219 -367 404 -537 158
-144 404 -273 693 -362 223 -69 390 -89 644 -80 393 14 590 94 919 371 353
297 629 675 820 1121 173 402 234 816 207 1395 -19 408 -68 595 -241 937 -126
246 -238 400 -414 568 -172 164 -335 267 -522 329 -67 23 -101 28 -215 30 -74
2 -164 -1 -200 -6z"/>
<path d="M45309 21391 c-22 -22 -29 -39 -29 -67 0 -32 7 -45 49 -85 35 -34 61
-50 88 -54 21 -3 53 -13 71 -21 51 -22 88 -18 124 15 27 24 33 36 33 69 0 57
-28 82 -142 131 -115 50 -153 52 -194 12z"/>
<path d="M44625 21261 c-37 -16 -54 -46 -71 -123 -19 -87 -14 -124 21 -140 41
-19 72 -2 125 70 38 51 49 76 50 104 0 65 -68 113 -125 89z"/>
<path d="M45760 20312 c-23 -26 -73 -94 -113 -152 -79 -114 -172 -202 -262
-246 -45 -21 -71 -26 -176 -31 -241 -10 -416 39 -484 135 -28 40 -30 51 -33
143 -4 92 -6 100 -29 119 -32 25 -54 25 -85 1 -23 -19 -35 -53 -52 -162 -8
-46 7 -125 36 -186 30 -65 124 -158 191 -188 131 -60 337 -89 525 -74 165 13
262 59 396 188 73 71 272 335 282 376 9 36 -2 68 -32 98 -22 22 -36 27 -75 27
-45 0 -51 -3 -89 -48z"/>
<path d="M55005 18774 c-38 -2 -482 -10 -985 -19 -1148 -19 -2300 -43 -2490
-50 -658 -27 -1289 -83 -1855 -165 -77 -11 -187 -27 -245 -35 -307 -44 -578
-120 -686 -191 -119 -79 -203 -199 -258 -369 -66 -203 -82 -359 -96 -960 -5
-231 -17 -517 -26 -635 -10 -118 -18 -294 -18 -390 -1 -196 1 -205 85 -317 61
-81 137 -94 198 -33 47 48 49 91 7 171 -33 63 -36 76 -36 151 0 46 5 133 10
193 17 202 39 666 45 980 8 454 22 584 81 766 32 99 70 157 136 210 74 58 134
84 268 113 163 35 320 52 680 76 173 11 410 27 525 35 486 33 875 44 2105 55
564 5 1167 14 1340 20 574 19 902 30 1165 41 143 6 436 11 650 12 489 2 543
-5 805 -115 125 -53 185 -94 270 -185 145 -155 218 -335 259 -637 24 -169 31
-615 36 -2066 3 -828 10 -1644 15 -1815 12 -360 6 -438 -40 -532 -63 -128
-233 -242 -445 -300 l-100 -27 -375 -1 -375 0 -385 63 c-1110 183 -1493 221
-2425 242 -576 13 -1401 13 -2063 -1 -434 -10 -581 -9 -680 0 -389 38 -646
118 -854 268 -209 151 -292 301 -340 613 -9 59 -13 207 -13 485 0 381 2 409
28 595 30 220 43 373 53 637 l7 182 -37 37 c-34 34 -40 36 -83 31 -82 -9 -89
-25 -96 -218 -7 -180 -23 -320 -67 -594 -43 -268 -50 -375 -50 -765 0 -265 4
-380 15 -455 46 -305 155 -524 334 -673 134 -112 325 -221 481 -275 274 -96
495 -126 1170 -162 63 -3 646 -10 1295 -15 1680 -13 2008 -35 3145 -210 486
-75 560 -80 975 -70 379 9 460 19 615 75 363 132 560 355 590 668 7 65 6 202
-1 401 -7 181 -12 983 -13 2011 -2 1788 -2 1812 -46 2061 -76 433 -307 744
-681 918 -159 73 -373 136 -530 156 -81 10 -851 21 -994 14z"/>
<path d="M22245 18319 c-89 -82 -117 -166 -135 -404 -11 -149 -7 -300 12 -385
29 -137 125 -247 282 -324 89 -44 321 -126 355 -126 26 0 61 37 61 64 0 39
-29 60 -135 101 -206 79 -363 175 -402 247 -33 61 -21 464 18 619 5 20 29 63
54 95 49 63 52 72 30 113 -28 56 -80 56 -140 0z"/>
<path d="M54315 17238 c-38 -4 -343 -12 -677 -17 -756 -12 -986 -31 -1389
-112 -276 -55 -684 -185 -860 -275 -119 -60 -189 -160 -189 -269 1 -99 56
-297 92 -327 32 -28 92 -24 117 8 27 34 26 62 -4 163 -36 120 -41 175 -21 206
23 35 112 77 298 140 510 174 943 250 1553 275 143 6 406 17 585 25 206 8 358
10 415 5 50 -5 317 -9 595 -10 472 -1 509 -2 560 -20 71 -25 101 -25 128 0 28
26 36 59 23 94 -12 30 -97 74 -186 95 -74 18 -904 33 -1040 19z"/>
<path d="M45150 17050 c-71 -13 -196 -75 -286 -143 -39 -29 -106 -78 -150
-108 -43 -30 -98 -74 -122 -99 -83 -85 -226 -277 -317 -425 -27 -44 -53 -83
-59 -86 -5 -4 -26 -10 -46 -13 -137 -22 -380 -201 -510 -377 -109 -147 -198
-351 -237 -546 -26 -130 -26 -648 0 -777 55 -270 196 -554 383 -769 239 -276
631 -525 959 -610 188 -48 301 -61 545 -60 324 1 460 30 690 149 299 155 531
389 689 695 139 267 191 534 191 980 0 330 -18 461 -97 703 -89 275 -192 488
-348 721 -235 352 -459 568 -718 690 -51 25 -122 51 -157 60 -77 19 -330 28
-410 15z m325 -205 c197 -51 421 -212 605 -434 225 -273 380 -551 489 -878 80
-238 86 -283 86 -608 -1 -353 -23 -522 -100 -751 -142 -422 -554 -787 -975
-865 -37 -7 -155 -12 -275 -12 -172 0 -232 4 -332 22 -206 36 -381 105 -570
223 -391 243 -653 600 -728 992 -22 110 -30 440 -16 592 18 197 76 370 174
516 72 108 256 292 274 274 3 -3 -1 -34 -10 -68 -14 -56 -14 -66 -1 -85 16
-26 55 -30 73 -9 6 7 20 39 31 70 10 31 31 83 46 115 l26 59 75 8 c54 5 105 2
184 -12 122 -20 154 -14 165 31 16 63 -20 83 -228 131 -43 10 -78 21 -78 26 0
11 64 100 131 183 95 116 348 359 425 409 69 44 144 78 194 89 45 10 274 -3
335 -18z"/>
<path d="M45174 15436 c-72 -32 -95 -114 -53 -183 26 -42 131 -131 165 -139
49 -13 114 34 114 81 0 12 13 36 29 54 38 43 46 79 27 124 -23 56 -55 71 -160
74 -63 2 -101 -1 -122 -11z"/>
<path d="M44535 15260 c-71 -11 -98 -24 -129 -61 -24 -29 -27 -39 -23 -79 4
-37 12 -51 45 -81 45 -40 184 -99 249 -107 37 -4 46 -1 73 26 36 36 39 77 9
116 -18 23 -19 30 -9 61 10 30 9 41 -7 72 -29 61 -77 73 -208 53z"/>
<path d="M44647 14508 c-22 -17 -44 -74 -52 -134 -15 -108 42 -212 199 -369
244 -244 439 -349 697 -376 136 -14 226 -2 316 42 77 37 132 97 198 215 73
130 67 195 -20 224 -53 17 -96 -6 -140 -77 -62 -97 -108 -153 -145 -176 -30
-19 -48 -22 -135 -21 -170 2 -297 49 -460 172 -109 81 -262 230 -300 291 -19
32 -30 66 -35 113 -5 43 -14 76 -25 88 -21 23 -73 27 -98 8z"/>
<path d="M54330 16089 c-74 -10 -234 -35 -355 -54 -121 -19 -384 -60 -585 -90
-201 -31 -432 -68 -515 -85 -392 -76 -739 -113 -1230 -130 -316 -11 -377 -19
-475 -57 -131 -52 -196 -90 -210 -122 -23 -56 7 -116 64 -126 23 -5 52 3 116
33 174 80 213 87 557 107 272 16 590 48 888 90 94 13 213 29 265 35 52 6 203
29 335 50 597 98 689 112 828 131 81 11 246 28 365 39 499 44 484 42 512 72
26 28 26 68 -1 102 l-20 26 -202 -1 c-137 -1 -245 -7 -337 -20z"/>
<path d="M48085 15885 c-159 -43 -484 -207 -571 -287 -83 -77 -106 -172 -59
-242 23 -34 24 -39 10 -59 -23 -32 -19 -91 8 -122 18 -21 38 -29 104 -40 72
-13 86 -13 117 0 27 11 80 15 218 15 175 0 418 12 521 26 57 7 87 35 87 78 -1
42 -21 66 -67 79 -24 7 -171 11 -401 11 l-364 1 -34 37 c-19 21 -34 44 -34 52
0 15 61 68 130 111 25 16 140 77 255 135 235 120 256 137 219 187 -25 33 -65
39 -139 18z"/>
<path d="M55105 15029 c-256 -8 -454 -28 -685 -70 -91 -16 -361 -54 -600 -84
-605 -77 -769 -101 -1440 -211 -359 -59 -561 -81 -805 -89 -183 -6 -594 7
-655 21 -16 3 -33 19 -45 42 -28 51 -65 60 -158 39 -40 -9 -97 -19 -126 -23
-69 -8 -111 -45 -111 -96 0 -70 39 -97 192 -132 249 -58 283 -61 713 -61 481
0 477 0 1240 125 853 140 1600 247 1790 255 171 8 417 29 630 55 88 11 247 26
353 33 188 13 194 15 220 40 40 40 37 99 -6 138 l-32 29 -128 -2 c-70 -1 -226
-5 -347 -9z"/>
<path d="M30710 14290 c-236 -7 -395 -27 -710 -90 -80 -16 -176 -34 -215 -40
-83 -14 -282 -93 -371 -149 -62 -39 -63 -39 -81 -19 -28 31 -68 48 -112 48
-85 0 -143 -87 -186 -279 -33 -147 -43 -275 -50 -651 -10 -628 25 -920 151
-1237 77 -194 161 -319 285 -423 117 -97 246 -156 459 -208 l105 -25 750 -7
c626 -6 763 -10 830 -24 142 -28 207 -16 245 46 32 52 34 91 12 181 -11 45
-26 147 -32 227 -6 80 -22 251 -36 380 -71 667 -75 733 -83 1390 -9 659 -6
639 -86 728 -24 27 -70 62 -102 79 -153 80 -240 89 -773 73z m530 -237 c82
-16 135 -40 165 -73 19 -21 20 -41 26 -689 5 -559 10 -705 27 -906 48 -541 74
-914 65 -928 -3 -5 -12 -5 -22 -1 -9 4 -326 10 -706 14 -640 7 -698 9 -800 29
-379 71 -537 217 -650 596 -76 253 -95 450 -95 987 l0 356 33 20 c33 19 34 22
40 97 4 43 7 102 7 132 0 49 3 56 40 93 84 84 180 132 335 169 50 11 113 29
140 40 69 26 134 37 375 60 113 12 223 23 245 25 22 2 189 2 370 -1 238 -3
351 -9 405 -20z"/>
<path d="M53255 13970 c-82 -4 -215 -18 -295 -30 -139 -21 -160 -21 -535 -13
-214 4 -487 8 -605 8 -241 0 -244 -1 -321 -82 -56 -59 -69 -84 -69 -131 0 -37
6 -50 34 -78 28 -28 41 -34 77 -34 39 0 48 5 94 53 27 30 66 59 85 66 23 8
186 17 465 26 237 8 471 17 520 20 56 4 163 0 282 -10 164 -14 226 -15 439 -5
136 6 252 14 258 17 5 4 194 9 419 12 l409 6 24 28 c32 37 30 72 -4 106 l-27
28 -435 7 c-239 3 -487 8 -550 10 -63 2 -182 0 -265 -4z"/>
<path d="M29580 10928 c-39 -26 -61 -78 -53 -121 3 -16 32 -53 70 -89 93 -90
207 -240 407 -535 l49 -72 -55 -73 c-89 -118 -95 -141 -53 -183 37 -38 60 -31
129 35 35 33 67 60 73 60 5 0 31 -35 58 -77 124 -199 284 -437 357 -532 44
-57 82 -110 85 -118 3 -7 -27 -48 -66 -92 -39 -43 -99 -125 -134 -182 l-64
-104 -60 -3 c-126 -6 -284 54 -348 132 -51 64 -100 161 -139 278 -45 134 -63
235 -82 458 -30 353 -58 490 -120 587 -56 88 -132 117 -194 73 -57 -41 -63
-135 -18 -329 18 -81 25 -96 49 -110 32 -18 29 -1 54 -296 23 -254 50 -381
122 -555 100 -243 227 -372 433 -439 93 -30 191 -40 385 -41 94 0 325 -7 515
-16 l345 -17 107 -63 c149 -88 251 -138 333 -162 39 -12 144 -43 235 -71 91
-27 193 -55 227 -62 59 -12 65 -12 90 7 33 25 42 74 20 108 -10 15 -47 34
-109 56 -126 45 -252 104 -383 180 l-109 64 30 20 c69 48 180 173 219 246 208
394 282 633 292 955 5 140 3 171 -16 250 -24 101 -85 224 -156 313 -25 32 -45
63 -45 68 0 16 194 204 210 204 8 0 24 -7 34 -15 29 -22 61 -18 92 9 36 30 36
77 -1 152 -34 69 -71 94 -141 94 -79 0 -152 -44 -285 -169 l-114 -108 -102 50
c-148 70 -252 90 -468 91 -199 0 -278 -16 -432 -89 -129 -61 -383 -233 -521
-353 -35 -30 -67 -51 -71 -46 -5 5 -36 51 -71 102 -97 146 -263 363 -329 430
-66 67 -139 109 -204 118 -34 5 -49 1 -77 -18z m1925 -408 c81 -21 155 -55
155 -71 0 -6 -49 -63 -109 -127 -172 -185 -281 -317 -559 -680 l-171 -222 -40
52 c-33 45 -132 201 -386 612 -24 38 -41 75 -38 83 7 17 191 139 319 211 153
87 315 146 444 162 96 13 299 2 385 -20z m411 -297 c21 -32 49 -87 63 -123 22
-58 24 -81 24 -200 -1 -281 -80 -573 -236 -873 -63 -121 -129 -188 -207 -211
-108 -32 -114 -30 -285 119 -38 34 -111 94 -161 134 -94 75 -170 162 -161 183
3 7 51 65 108 128 57 63 197 225 312 360 246 288 476 540 493 540 7 0 29 -26
50 -57z m-1065 -1220 c19 -21 61 -71 93 -110 l57 -73 -59 0 c-108 0 -272 13
-272 21 0 5 16 29 34 54 19 25 48 68 63 95 15 28 33 50 38 50 6 0 27 -17 46
-37z"/>
<path d="M51650 10150 c-66 -17 -110 -19 -365 -18 -248 0 -801 -19 -1015 -37
-36 -3 -168 -10 -295 -15 -126 -6 -306 -15 -400 -20 -282 -17 -730 -40 -1080
-55 -181 -8 -357 -17 -390 -20 -33 -3 -159 -10 -280 -15 -121 -6 -312 -17
-425 -25 -113 -8 -340 -24 -505 -35 -454 -31 -837 -60 -865 -65 -14 -3 -181
-18 -371 -34 -450 -39 -534 -57 -599 -126 -20 -21 -25 -37 -25 -79 0 -46 5
-59 42 -109 45 -58 238 -226 277 -240 51 -17 106 33 92 86 -3 14 -48 59 -109
109 -118 99 -134 115 -121 128 15 15 202 29 609 45 805 32 1607 65 1815 75
118 5 350 15 515 20 165 6 422 15 570 20 149 5 414 14 590 20 675 22 1019 44
1675 110 610 61 567 58 672 38 86 -17 100 -17 193 -3 55 8 138 17 185 21 144
10 180 31 180 105 0 46 -31 87 -73 94 -35 6 -291 33 -372 40 -30 2 -81 -4
-125 -15z"/>
<path d="M45486 8499 c-153 -21 -200 -38 -221 -80 -38 -73 0 -134 125 -202
148 -81 325 -125 590 -149 220 -20 860 -17 1080 5 612 60 932 86 1390 112 313
18 1861 22 1995 5 44 -5 135 -11 203 -12 l124 -3 24 28 c33 38 33 105 1 135
-47 44 -212 86 -405 103 -158 14 -1180 6 -1392 -10 -74 -6 -263 -17 -420 -26
-460 -25 -793 -54 -1320 -115 -348 -41 -504 -50 -855 -50 -436 0 -633 16 -792
62 -99 29 -98 33 17 58 117 26 149 70 99 134 -25 31 -43 32 -243 5z"/>
<path d="M32889 7406 c-42 -6 -84 -17 -93 -25 -23 -19 -20 -58 7 -75 19 -13
33 -13 112 2 83 16 90 19 100 46 8 24 6 31 -14 47 -13 10 -26 18 -30 18 -3 -1
-40 -7 -82 -13z"/>
<path d="M50685 7080 c-252 -14 -590 -60 -1365 -186 -561 -91 -810 -124 -1195
-154 -77 -6 -151 -13 -165 -16 -14 -3 -416 -10 -895 -14 -881 -9 -1102 -17
-1142 -38 -77 -42 -47 -172 39 -172 522 3 1689 23 1823 30 433 25 937 85 1555
184 238 38 429 65 615 87 94 11 279 35 411 54 154 22 320 38 455 45 250 13
283 19 304 60 21 41 19 64 -11 99 l-26 31 -136 -2 c-76 0 -195 -4 -267 -8z"/>
<path d="M50815 6183 c-432 -36 -1159 -154 -1645 -268 -85 -20 -272 -60 -415
-90 -319 -66 -374 -78 -748 -166 -703 -164 -1269 -274 -1566 -305 -193 -20
-690 -23 -906 -5 -179 15 -244 35 -339 102 -38 27 -81 49 -94 49 -55 0 -90
-47 -72 -95 12 -32 45 -61 136 -124 133 -90 253 -109 750 -118 515 -9 630 4
1432 152 359 67 466 88 767 150 421 87 721 145 1185 230 140 26 327 60 415 76
352 66 653 109 1020 149 105 11 237 29 294 39 94 16 108 22 133 50 48 54 29
139 -37 167 -32 13 -193 17 -310 7z"/>
</g>
</svg>
