<?xml version="1.0" standalone="no"?>
<!DOCTYPE svg PUBLIC "-//W3C//DTD SVG 20010904//EN"
 "http://www.w3.org/TR/2001/REC-SVG-20010904/DTD/svg10.dtd">
<svg version="1.0" xmlns="http://www.w3.org/2000/svg"
 width="5996.000000pt" height="2300.000000pt" viewBox="0 0 5996.000000 2300.000000"
 preserveAspectRatio="xMidYMid meet">
<metadata>
Created by potrace 1.16, written by Peter Selinger 2001-2019
</metadata>
<g transform="translate(0.000000,2300.000000) scale(0.100000,-0.100000)"
fill="#000000" stroke="none">
<path d="M0 11500 l0 -11500 29980 0 29980 0 0 11500 0 11500 -29980 0 -29980
0 0 -11500z m53175 9870 c434 -24 670 -31 1240 -36 644 -6 686 -9 763 -58 55
-34 108 -100 134 -165 22 -54 23 -68 23 -336 -1 -197 -6 -323 -18 -425 -48
-412 -62 -825 -48 -1401 23 -876 25 -1675 7 -2189 -9 -261 -21 -709 -26 -995
-15 -771 6 -1091 121 -1845 22 -141 32 -246 33 -336 1 -127 0 -131 -27 -173
-21 -31 -44 -50 -85 -69 l-57 -27 -510 -7 c-280 -4 -604 -5 -720 -2 -115 3
-457 7 -760 9 -661 4 -1580 21 -1870 35 -115 6 -462 15 -770 20 -308 5 -764
14 -1013 21 -277 7 -768 9 -1260 6 -806 -5 -1143 -14 -1662 -41 -151 -8 -356
-18 -455 -21 -99 -3 -261 -13 -360 -21 -99 -8 -292 -19 -430 -23 -240 -9 -258
-11 -440 -51 -104 -23 -255 -50 -334 -61 -231 -31 -303 -24 -357 32 -24 25
-29 39 -29 80 0 45 4 54 36 84 32 28 46 34 105 40 140 14 331 46 507 86 100
22 211 47 247 55 44 9 135 14 285 14 279 0 404 11 651 55 559 99 1174 179
1579 205 294 19 1409 32 1820 20 209 -5 569 -15 800 -20 464 -11 778 -24 1110
-45 121 -8 425 -22 675 -30 729 -24 946 -39 1920 -125 184 -17 346 -32 360
-35 94 -17 333 -25 543 -19 l237 7 0 24 c0 41 -59 432 -85 568 -100 508 -139
789 -155 1100 -17 347 -31 1027 -25 1278 3 133 10 697 16 1252 5 556 14 1136
19 1290 17 497 65 957 147 1395 21 112 25 169 26 330 2 213 -2 243 -36 262
-36 21 -761 23 -1252 3 -730 -28 -1149 -36 -2325 -45 -635 -5 -1186 -12 -1225
-15 -38 -3 -209 -14 -380 -25 -170 -11 -389 -27 -485 -35 -163 -14 -253 -21
-730 -60 -167 -14 -317 -24 -815 -55 -88 -6 -245 -17 -350 -25 -527 -40 -735
-48 -1120 -41 -660 10 -968 35 -1221 97 -111 27 -128 29 -141 16 -13 -13 -12
-23 8 -85 20 -62 21 -75 10 -96 -11 -20 -11 -46 3 -153 38 -309 72 -1027 86
-1853 5 -289 14 -797 21 -1130 12 -625 0 -2170 -21 -2705 -10 -246 -12 -388
-4 -370 2 6 13 61 23 123 11 63 25 120 32 128 16 19 59 14 72 -8 25 -39 -75
-619 -158 -913 -14 -49 -30 -123 -36 -164 -5 -40 -16 -86 -24 -100 -42 -83
-168 -58 -195 38 -14 50 -13 109 6 315 18 192 17 224 -32 1276 -25 519 -30
2259 -10 2995 9 314 21 633 26 710 5 77 14 259 20 405 5 146 17 414 26 595 12
243 14 393 9 570 -13 394 -13 410 9 434 18 20 18 22 2 40 -9 10 -50 35 -90 54
-89 45 -156 112 -156 157 0 20 9 40 26 57 33 33 68 27 148 -27 152 -102 368
-126 1046 -116 500 7 914 21 1080 36 63 5 203 17 310 25 107 8 278 22 380 30
102 8 304 24 450 35 345 26 451 35 1323 110 356 31 795 59 1077 69 341 12
2463 5 2705 -9z m-20265 -460 c445 -19 827 -88 1120 -201 257 -99 390 -269
464 -591 30 -128 75 -479 93 -713 25 -340 25 -1182 0 -1510 -28 -363 -55 -702
-87 -1075 -33 -387 -55 -725 -70 -1065 -5 -126 -12 -255 -15 -285 -5 -61 -19
-515 -35 -1175 -24 -995 -70 -1745 -125 -2017 -58 -295 -140 -408 -323 -447
-77 -16 -375 -14 -602 5 -163 14 -285 15 -740 10 -955 -11 -1243 -21 -2190
-81 -300 -19 -662 -39 -804 -45 -344 -13 -1189 -13 -2351 3 -1045 13 -1930 12
-2185 -4 -175 -11 -359 -34 -372 -47 -4 -4 14 -23 40 -42 58 -43 66 -77 26
-109 -29 -23 -42 -22 -134 12 -30 11 -70 35 -87 53 -69 68 -32 180 79 243 50
29 224 77 438 120 117 24 699 95 950 116 311 25 731 34 2095 45 1290 10 1612
18 2210 55 672 42 872 48 1330 36 740 -19 1055 -36 1410 -77 358 -41 391 -43
600 -44 238 0 267 6 295 60 41 81 82 331 99 605 9 146 4 353 -19 780 -31 587
-39 1729 -15 2255 22 470 56 930 95 1280 5 47 19 175 30 285 11 110 27 248 35
306 29 212 85 799 95 994 19 377 31 1028 20 1148 -18 212 -57 383 -112 495
-54 109 -146 172 -343 236 -153 49 -219 63 -401 82 -119 12 -205 15 -339 10
-99 -3 -317 -10 -485 -16 -313 -10 -980 -43 -1220 -60 -74 -5 -196 -12 -270
-15 -74 -3 -189 -10 -255 -15 -66 -5 -190 -14 -275 -20 -1078 -71 -2678 -276
-3600 -460 -546 -109 -806 -172 -1545 -374 -483 -132 -605 -158 -745 -158 -89
-1 -118 4 -187 27 -76 26 -85 27 -119 14 -44 -17 -79 -76 -89 -152 -5 -35 -13
-52 -31 -64 -22 -14 -26 -14 -50 2 -25 16 -26 21 -21 69 13 120 61 206 143
256 44 28 219 59 330 60 96 0 166 19 424 117 529 201 1235 416 1785 544 465
108 1421 267 2150 358 464 58 496 62 1215 126 278 25 810 56 1105 65 345 10
1221 5 1565 -10z m10628 -49 c150 -77 209 -302 233 -884 16 -389 -1 -719 -81
-1527 -98 -997 -120 -1447 -175 -3475 -17 -631 -37 -960 -81 -1315 -46 -379
-80 -550 -139 -701 -62 -156 -175 -265 -330 -317 -140 -47 -321 -65 -835 -83
-388 -13 -662 -8 -1085 20 -159 11 -459 32 -665 46 -691 47 -911 55 -1800 67
-796 10 -928 10 -1315 -6 -646 -25 -1133 -39 -1181 -31 -76 11 -116 76 -89
142 17 41 54 59 140 68 39 4 99 13 135 20 36 7 126 23 202 34 105 16 181 36
329 86 178 60 194 64 215 50 12 -8 24 -25 26 -37 2 -18 9 -22 28 -21 688 61
794 65 1520 66 865 1 1240 -21 2350 -138 184 -19 369 -39 410 -45 190 -24
1026 -57 1225 -47 213 11 364 59 422 135 51 67 107 261 140 482 15 108 18 187
17 585 0 253 -6 570 -13 705 -29 556 -8 2087 34 2580 40 457 127 1181 226
1865 43 299 66 550 80 860 13 302 9 454 -16 535 -28 91 -9 87 -297 61 -249
-22 -374 -36 -758 -85 -107 -14 -352 -43 -545 -66 -192 -22 -480 -57 -640 -76
-694 -84 -610 -73 -1085 -139 -490 -68 -1095 -185 -1668 -321 -59 -14 -136
-31 -172 -39 -36 -8 -132 -30 -215 -49 -415 -95 -579 -130 -905 -196 -195 -39
-372 -76 -393 -81 -81 -21 -428 -88 -567 -109 -130 -20 -171 -22 -395 -17
-270 5 -350 18 -460 72 -27 13 -51 23 -53 21 -1 -2 4 -104 12 -227 9 -123 23
-361 31 -529 8 -168 20 -354 25 -415 5 -60 25 -285 44 -500 37 -412 78 -886
95 -1095 66 -799 96 -1946 72 -2730 -30 -946 -28 -910 -50 -994 -52 -197 -159
-280 -247 -192 -33 33 -34 37 -34 113 0 46 9 111 21 158 86 336 90 378 64 730
-38 532 -71 1127 -95 1730 -5 143 -12 289 -15 325 -5 61 -16 251 -50 905 -8
154 -22 381 -30 505 -14 212 -21 376 -45 1005 -7 182 -7 362 1 600 16 467 7
908 -20 1083 -24 154 -25 173 -10 242 13 61 45 89 83 72 26 -11 32 -36 78
-279 l23 -123 30 0 c40 0 84 -28 127 -81 61 -76 91 -129 90 -158 -1 -28 2 -30
64 -40 47 -9 106 -9 217 -1 232 16 312 32 687 132 175 46 484 127 835 218 423
109 1358 342 1500 374 920 202 1831 331 2774 391 130 9 299 20 376 25 77 5
264 14 415 20 394 15 596 27 750 45 256 28 347 27 408 -4z m-21098 -490 c565
-28 683 -39 793 -78 53 -19 113 -71 128 -110 15 -39 10 -116 -10 -176 -11 -31
-29 -102 -40 -159 -31 -158 -127 -754 -151 -933 -11 -88 -47 -322 -80 -520
-53 -326 -99 -641 -115 -800 -3 -33 -17 -141 -30 -240 -14 -99 -34 -256 -45
-350 -11 -93 -29 -242 -40 -330 -105 -863 -194 -1828 -230 -2495 -6 -107 -15
-258 -20 -335 -5 -77 -12 -196 -15 -265 -8 -158 -43 -664 -50 -710 -2 -19 -9
-109 -15 -200 -31 -484 -112 -844 -251 -1111 -105 -202 -217 -254 -492 -231
-73 6 -198 25 -279 41 -243 50 -467 65 -858 57 -686 -13 -971 -25 -1215 -51
-388 -40 -910 -93 -1190 -120 -1349 -131 -1627 -160 -2070 -221 -461 -63
-1513 -235 -1828 -300 -359 -73 -1096 -195 -1392 -230 -185 -22 -805 -26 -848
-6 -40 19 -63 72 -51 118 12 49 48 73 118 83 32 4 62 14 66 21 33 53 33 792 2
1290 -12 184 -24 358 -27 385 -3 28 -9 136 -15 240 -6 105 -17 278 -25 385
-13 178 -35 653 -50 1085 -3 94 -13 310 -23 480 -13 251 -16 496 -16 1280 0
570 5 1083 12 1245 6 151 16 392 22 535 5 143 15 361 21 485 6 124 10 397 10
607 -2 481 10 591 68 623 34 18 80 12 106 -15 22 -21 25 -33 25 -97 0 -65 20
-295 36 -419 5 -39 3 -50 -15 -68 l-21 -21 15 -317 c8 -175 20 -367 25 -428 5
-60 14 -308 20 -550 5 -242 12 -480 15 -530 3 -49 10 -457 15 -905 5 -448 16
-957 24 -1130 29 -592 60 -1860 61 -2440 0 -597 -14 -1427 -26 -1573 -6 -66
-8 -121 -5 -124 5 -6 212 21 331 42 226 42 484 92 690 136 267 57 568 118 740
149 66 12 219 42 340 66 746 149 1547 277 2153 344 540 60 1529 145 2287 197
352 24 1347 24 1685 0 124 -9 302 -21 395 -27 208 -13 306 -24 455 -52 157
-30 398 -32 428 -5 55 50 162 329 201 522 49 246 63 405 67 760 16 1334 34
2018 64 2435 62 843 164 1664 290 2340 16 85 45 245 65 354 36 200 59 308 180
841 36 160 95 463 130 675 36 211 74 420 85 464 11 44 17 83 13 87 -15 15
-138 30 -288 36 -153 6 -491 -6 -870 -32 -115 -7 -257 -17 -315 -20 -545 -33
-1430 -113 -1945 -175 -93 -11 -233 -27 -310 -36 -760 -81 -933 -99 -1580
-164 -165 -16 -403 -41 -530 -54 -339 -36 -707 -71 -1225 -116 -190 -16 -388
-34 -440 -40 -86 -8 -221 -18 -925 -65 -121 -8 -321 -20 -445 -25 -124 -6
-231 -13 -238 -15 -6 -2 -153 -9 -325 -15 -311 -11 -525 -30 -792 -70 -183
-28 -328 -29 -364 -2 -37 27 -41 92 -8 126 22 22 113 46 175 46 11 0 76 11
144 24 68 14 175 32 238 41 63 9 201 29 305 46 590 95 1295 188 1885 249 52 6
131 15 175 20 44 5 168 19 275 30 413 44 841 90 1255 135 171 19 380 41 465
50 85 9 214 22 285 30 72 8 177 19 235 25 116 10 371 36 735 75 132 13 375 38
540 55 165 17 383 39 485 50 442 48 985 87 1390 100 320 10 1073 5 1370 -9z
m1488 -713 c66 -72 128 -341 172 -758 11 -107 27 -256 35 -330 33 -307 39
-395 74 -1145 33 -687 39 -2362 12 -3215 -14 -447 -40 -1082 -46 -1150 -3 -30
-12 -212 -20 -405 -8 -192 -20 -449 -25 -570 -8 -164 -8 -249 1 -332 14 -128
6 -164 -42 -188 -72 -38 -140 1 -166 95 -10 37 -17 143 -23 322 -5 146 -15
353 -22 460 -20 297 -18 4053 2 4733 9 294 15 813 15 1260 0 746 0 762 -22
875 -13 63 -36 156 -52 205 -30 95 -29 126 6 153 27 20 77 15 101 -10z
m-14312 -208 c127 -5 282 -14 345 -20 132 -13 833 -150 929 -182 173 -57 239
-148 261 -363 6 -55 19 -167 29 -250 11 -82 24 -202 30 -265 12 -128 36 -959
34 -1170 -3 -260 -25 -801 -64 -1510 -16 -292 -20 -612 -31 -2435 -10 -1810
-14 -1937 -59 -2118 -32 -130 -93 -218 -184 -272 -103 -60 -331 -91 -731 -101
-194 -5 -262 -3 -435 15 -355 37 -607 45 -1094 32 -579 -15 -744 -32 -1496
-152 -206 -33 -433 -69 -505 -80 -71 -11 -200 -30 -285 -44 -85 -13 -236 -33
-335 -45 -99 -11 -189 -22 -200 -25 -11 -2 -177 -20 -370 -40 -192 -19 -386
-40 -430 -45 -169 -21 -591 -51 -835 -60 -140 -6 -318 -15 -395 -21 -292 -23
-365 -23 -461 -1 -84 20 -215 37 -348 45 -52 3 -63 8 -88 36 -31 35 -35 68
-14 110 26 49 48 52 386 62 173 5 353 14 400 19 47 6 216 15 375 20 325 12
412 21 840 90 311 51 604 93 930 135 105 13 285 40 400 59 116 19 287 46 380
60 94 14 271 42 395 61 672 107 846 125 1260 132 457 8 926 -14 1459 -68 386
-38 968 -13 1058 47 75 49 93 216 93 860 0 318 -5 566 -15 718 -29 459 -35
654 -46 1471 -15 1193 1 1625 95 2560 22 212 33 417 48 833 14 408 3 755 -31
1007 -11 77 -25 194 -31 260 -7 66 -18 130 -26 142 -8 13 -38 29 -76 42 -108
34 -395 89 -566 107 -147 16 -196 16 -490 5 -364 -14 -505 -21 -927 -51 -377
-26 -438 -32 -885 -86 -262 -31 -645 -75 -900 -104 -252 -28 -480 -59 -600
-80 -30 -5 -210 -35 -400 -65 -362 -58 -740 -121 -974 -161 -141 -24 -470 -58
-671 -69 -60 -3 -150 -10 -200 -15 -178 -18 -584 -50 -775 -60 -107 -6 -256
-15 -330 -20 -74 -6 -175 -10 -225 -10 -49 0 -119 -7 -155 -16 -36 -8 -135
-28 -220 -44 -163 -31 -263 -52 -447 -94 -131 -31 -276 -35 -323 -11 -39 20
-53 49 -45 91 8 46 37 62 133 74 44 6 154 30 244 54 171 45 267 68 458 111 63
14 149 34 190 45 41 10 125 26 185 34 61 8 232 34 380 59 149 25 342 55 430
66 586 79 1023 147 1430 226 127 24 289 53 360 65 182 29 323 53 690 115 364
61 591 95 850 125 99 11 257 29 350 40 94 11 256 29 360 40 105 11 226 25 270
30 44 5 204 18 355 30 151 11 293 21 315 23 90 8 755 6 971 -3z m-7892 -1334
c30 -13 106 -98 134 -153 17 -31 0 -71 -34 -79 -23 -6 -25 -10 -21 -43 27
-187 70 -594 82 -782 9 -128 22 -280 30 -338 18 -133 43 -442 50 -626 13 -316
36 -821 46 -990 18 -324 28 -507 39 -700 6 -104 17 -311 25 -460 8 -148 22
-405 30 -570 8 -165 22 -401 30 -525 9 -124 22 -324 30 -445 24 -358 25 -370
46 -605 11 -124 31 -317 44 -430 14 -113 27 -223 29 -245 10 -87 60 -440 63
-444 1 -2 23 15 48 38 48 44 61 48 90 27 24 -18 24 -66 -2 -102 -27 -39 -47
-98 -40 -117 3 -9 58 -32 139 -57 161 -51 186 -63 199 -98 13 -33 0 -64 -36
-88 -24 -16 -30 -15 -183 36 -86 29 -170 59 -186 67 -27 14 -30 13 -56 -12
-32 -31 -77 -36 -114 -12 -25 17 -31 33 -41 127 -12 100 -73 450 -129 730 -30
151 -60 316 -66 365 -7 50 -25 167 -40 260 -26 154 -42 261 -85 590 -35 261
-68 623 -90 970 -3 50 -12 191 -20 315 -31 464 -45 768 -55 1190 -5 239 -15
629 -21 865 -6 237 -13 727 -14 1090 -4 677 -9 777 -51 1043 -21 130 -4 183
66 211 14 5 26 10 28 10 1 1 18 -5 36 -13z m50066 -124 c50 -25 76 -81 61
-132 -17 -58 -51 -80 -125 -80 -102 0 -245 -19 -355 -46 -57 -14 -142 -28
-190 -31 -158 -9 -574 -155 -841 -294 -74 -39 -151 -82 -170 -97 -83 -61 -150
-118 -150 -127 0 -5 39 -25 86 -44 98 -38 119 -63 93 -109 -21 -39 -52 -38
-170 3 -169 59 -279 50 -384 -31 -20 -15 -43 -40 -51 -55 -13 -27 -13 -29 8
-43 27 -17 164 -58 270 -80 408 -86 473 -103 605 -157 126 -52 209 -108 287
-190 121 -129 161 -235 154 -413 -3 -92 -7 -107 -38 -164 -84 -158 -282 -262
-547 -289 -67 -7 -154 20 -198 61 -17 17 -42 57 -53 89 -35 92 -27 134 28 157
28 12 35 10 98 -29 38 -23 93 -47 123 -53 54 -11 55 -11 129 31 97 55 173 114
191 147 9 17 14 55 13 98 -2 215 -189 342 -650 441 -241 52 -286 63 -377 92
-203 64 -277 133 -277 261 0 173 192 322 416 322 l70 0 64 98 c171 262 471
443 927 557 76 19 147 35 159 35 11 0 52 11 90 23 96 33 179 47 329 56 239 15
336 13 375 -7z m-11025 -1012 c17 -11 40 -38 50 -60 16 -36 17 -55 9 -203 -5
-89 -9 -292 -8 -452 1 -260 3 -299 22 -377 56 -228 185 -476 368 -706 45 -58
47 -110 5 -153 -23 -23 -38 -29 -71 -29 -40 0 -48 6 -127 83 -101 98 -236 259
-278 330 -81 137 -167 374 -185 509 -7 46 -10 178 -9 300 1 120 0 220 -3 224
-3 3 -25 -18 -49 -47 -92 -109 -416 -368 -540 -431 -62 -32 -67 -33 -189 -33
-122 0 -127 1 -195 34 -163 80 -397 386 -449 588 -30 113 -12 203 49 251 51
40 197 24 215 -24 14 -37 -3 -72 -42 -82 -27 -7 -32 -13 -30 -33 10 -84 235
-389 338 -458 41 -27 56 -31 111 -31 75 0 86 5 248 114 118 79 177 114 343
203 90 49 169 119 195 176 12 25 17 62 17 132 0 67 5 105 15 126 34 64 126 88
190 49z m-10915 -87 c113 -41 184 -85 256 -157 98 -98 118 -150 118 -307 l1
-115 -42 -85 c-28 -56 -62 -105 -100 -145 -66 -67 -233 -196 -312 -240 -28
-16 -51 -32 -51 -36 0 -3 116 -8 258 -10 249 -4 260 -5 342 -32 243 -80 392
-213 416 -371 31 -207 -203 -377 -671 -490 -226 -55 -428 -96 -587 -120 -75
-12 -109 -22 -155 -49 -70 -42 -142 -56 -279 -56 -102 0 -102 0 -128 31 -15
18 -26 43 -26 60 0 53 25 76 123 113 123 47 192 59 280 51 80 -8 69 -11 502
127 178 57 497 188 589 242 23 13 52 36 65 50 l25 26 -21 28 c-30 40 -88 78
-178 114 -79 32 -83 32 -274 36 -137 3 -243 -1 -360 -13 -233 -24 -377 -25
-418 -3 -104 57 -105 187 -2 270 59 47 262 182 374 247 124 73 275 182 315
227 119 136 79 279 -100 363 l-55 26 -280 0 c-279 0 -280 -1 -423 -33 -79 -18
-151 -36 -160 -41 -32 -17 -237 -42 -263 -33 -37 15 -60 46 -66 91 -5 36 -2
44 28 74 37 36 52 41 380 117 144 33 232 47 404 64 22 2 126 3 230 1 162 -2
198 -5 245 -22z m-11823 -667 c99 -26 156 -78 187 -169 21 -63 21 -206 0 -278
-40 -135 -155 -318 -381 -604 -209 -266 -309 -399 -360 -477 -42 -65 -73 -135
-73 -164 0 -37 160 -96 324 -120 101 -15 113 -15 169 1 52 15 97 17 296 14
130 -2 296 0 369 5 131 9 133 9 157 -14 30 -28 33 -78 7 -110 -15 -19 -42 -27
-148 -46 -71 -13 -193 -37 -271 -53 -157 -34 -343 -44 -398 -22 -19 8 -106 14
-230 16 -212 3 -253 10 -359 58 -76 35 -122 72 -151 122 -58 98 -52 215 19
360 61 124 110 189 561 745 81 100 187 259 216 324 14 32 19 62 17 98 -3 50
-4 52 -38 61 -51 14 -261 1 -450 -27 -209 -31 -287 -50 -314 -75 -22 -21 -44
-25 -118 -23 -37 2 -55 8 -80 31 -29 26 -33 35 -32 76 2 83 73 133 261 184
319 86 680 124 820 87z m-11063 -446 c41 -15 116 -90 141 -140 52 -103 100
-267 136 -459 28 -154 81 -665 104 -1011 11 -163 20 -238 40 -310 13 -52 25
-117 25 -144 0 -41 -5 -53 -34 -82 -27 -27 -42 -34 -75 -34 -49 0 -86 16 -105
44 -21 33 -55 168 -62 248 -3 40 -15 107 -25 148 -11 41 -26 136 -35 210 -31
281 -53 487 -59 555 -8 93 -33 294 -47 373 -10 62 -11 63 -37 57 -49 -11 -70
18 -86 117 -35 221 -46 330 -34 365 19 59 89 88 153 63z m49746 -3353 c69 -9
190 -24 270 -32 186 -21 401 -58 559 -96 223 -55 342 -107 476 -206 204 -152
303 -316 358 -598 21 -103 22 -138 22 -560 l0 -450 -32 -210 c-47 -307 -71
-558 -88 -935 -8 -184 -20 -375 -25 -425 -37 -319 -149 -508 -345 -580 -73
-27 -441 -33 -643 -11 -81 9 -196 21 -257 26 -60 6 -191 20 -290 31 -99 11
-342 33 -540 49 -799 67 -1179 116 -1600 207 -339 72 -445 114 -496 196 -15
24 -19 44 -16 80 6 69 41 102 132 123 174 39 354 88 398 107 59 25 97 16 111
-26 18 -49 -7 -73 -131 -130 -62 -29 -111 -56 -109 -62 4 -16 365 -84 636
-119 63 -9 183 -25 265 -36 297 -39 619 -72 1030 -105 105 -8 336 -29 515 -47
276 -27 368 -32 610 -32 321 -1 327 0 376 73 61 93 88 267 104 686 14 378 45
692 107 1100 25 161 25 814 0 964 -36 218 -99 343 -226 444 -175 139 -425 214
-916 276 -452 57 -440 56 -985 55 -395 -1 -558 -5 -700 -18 -554 -50 -788 -96
-898 -176 -55 -40 -92 -120 -187 -404 -42 -125 -95 -272 -117 -325 -91 -219
-91 -220 -92 -321 -1 -90 1 -100 33 -163 41 -82 137 -176 241 -237 76 -46 90
-62 90 -107 0 -65 -57 -103 -117 -78 -37 16 -52 9 -53 -22 0 -31 -50 -51 -142
-58 -160 -12 -322 -50 -418 -97 -90 -46 -89 -43 -75 -113 5 -24 1 -36 -19 -58
-14 -16 -26 -30 -26 -33 0 -2 69 -4 153 -4 167 0 292 -16 432 -56 98 -28 113
-36 126 -72 12 -31 -13 -80 -46 -88 -31 -8 -121 1 -285 28 -120 20 -208 23
-437 16 -104 -3 -127 8 -139 68 -5 26 -1 37 23 63 22 25 39 33 80 38 l52 6
-35 32 c-59 56 -80 136 -50 193 31 60 105 105 267 163 124 45 231 68 324 70
33 0 71 4 84 8 23 6 21 9 -33 49 -75 57 -162 146 -191 196 -44 77 -58 148 -53
275 5 103 9 128 43 221 52 144 144 424 200 610 64 214 100 287 177 364 69 69
128 103 241 140 202 66 677 130 1077 146 345 13 1055 5 1200 -13z m-6947 -517
c343 -22 610 -76 982 -197 539 -176 1031 -412 1337 -640 133 -99 345 -312 430
-433 127 -180 227 -401 269 -595 19 -84 22 -134 23 -315 0 -185 -3 -231 -22
-328 -136 -677 -716 -1235 -1683 -1620 -462 -185 -944 -322 -1314 -374 -139
-20 -694 -17 -864 5 -267 34 -506 101 -719 202 -202 96 -324 180 -459 315
-172 172 -263 324 -321 538 -24 91 -26 110 -26 322 0 256 12 352 74 600 117
468 396 1082 625 1376 71 90 108 125 168 155 46 24 90 26 301 12 137 -8 150
-11 167 -32 23 -29 23 -33 2 -60 -17 -20 -31 -23 -195 -30 -136 -6 -183 -12
-202 -24 -100 -66 -320 -474 -505 -939 -74 -187 -130 -379 -168 -578 -14 -76
-18 -146 -17 -350 0 -229 2 -263 21 -337 59 -224 228 -426 493 -589 209 -129
515 -225 816 -255 64 -6 238 -9 433 -6 284 3 341 7 438 26 284 56 672 166 973
278 992 369 1513 794 1667 1359 26 95 27 110 27 334 0 227 -1 238 -27 325 -58
192 -198 427 -345 579 -143 148 -398 326 -650 454 -354 181 -895 379 -1252
461 -311 70 -512 91 -895 91 -320 0 -484 -15 -703 -65 -170 -38 -245 -70 -445
-188 -121 -71 -179 -116 -218 -170 -46 -64 -54 -98 -95 -423 -2 -23 -14 -51
-25 -63 -27 -29 -79 -28 -108 3 -19 20 -24 42 -34 155 -23 276 33 440 213 621
124 124 206 168 475 257 364 121 532 147 1000 151 110 1 271 -3 358 -8z
m-5785 -70 c191 -21 408 -72 527 -125 130 -57 284 -190 372 -320 199 -296 376
-855 462 -1455 50 -349 55 -412 56 -665 l0 -250 -27 -57 c-33 -71 -102 -146
-166 -181 -92 -50 -162 -60 -447 -60 -244 -1 -274 1 -480 32 -502 74 -901 153
-1121 221 -89 27 -331 118 -379 142 -58 30 -198 124 -229 154 -38 38 -36 84 6
119 39 33 66 29 140 -19 111 -73 424 -149 1108 -270 562 -99 655 -110 950
-111 263 0 265 0 315 25 72 36 79 62 71 265 -26 638 -194 1402 -401 1815 -151
303 -290 403 -682 487 -126 28 -134 28 -468 28 -354 -1 -503 -12 -725 -55
-255 -49 -302 -97 -455 -466 -87 -209 -159 -357 -228 -474 -32 -52 -57 -99
-57 -106 0 -20 35 -42 89 -56 89 -23 115 -84 61 -138 -26 -26 -56 -25 -167 4
-114 30 -160 57 -184 110 -37 81 -24 147 52 278 72 126 138 262 203 423 168
415 263 531 490 604 140 45 394 84 651 100 193 12 552 12 663 1z m-10605 -709
c286 -43 521 -116 782 -246 396 -195 667 -509 858 -992 66 -165 98 -302 196
-828 70 -375 84 -448 116 -600 36 -172 65 -375 65 -459 0 -72 -25 -162 -62
-218 -102 -159 -307 -219 -1203 -348 -110 -16 -272 -41 -360 -55 -88 -14 -275
-39 -415 -55 -140 -16 -361 -43 -490 -59 -242 -31 -768 -87 -1110 -118 -251
-22 -1389 -26 -1505 -5 -270 49 -366 98 -395 200 -19 70 -15 102 54 417 24
106 54 399 61 590 6 149 5 172 -9 184 -11 10 -49 12 -143 10 -172 -3 -540 16
-583 31 -84 29 -108 114 -48 165 32 27 35 27 120 21 48 -4 103 -13 122 -21 25
-11 74 -15 167 -15 92 0 160 -6 231 -20 55 -12 103 -19 105 -16 3 2 -2 39 -11
81 -9 43 -16 88 -16 101 0 53 78 85 113 47 23 -27 64 -135 81 -216 10 -48 17
-169 22 -367 11 -402 7 -486 -27 -688 -16 -95 -29 -183 -29 -197 0 -26 5 -28
150 -62 87 -21 638 -29 930 -13 243 12 661 45 771 60 41 5 173 19 294 30 121
11 270 25 330 30 135 13 503 55 645 75 58 8 186 24 285 35 741 87 1157 153
1434 227 183 49 221 78 221 167 -1 84 -26 250 -68 441 -22 99 -68 329 -101
510 -102 546 -133 679 -198 850 -119 317 -315 586 -528 727 -230 153 -562 269
-895 315 -120 16 -208 18 -780 18 -834 0 -1143 -19 -1640 -101 -448 -74 -637
-131 -722 -221 -45 -47 -66 -112 -112 -345 -34 -173 -62 -277 -120 -454 -68
-206 -97 -320 -85 -334 2 -2 19 -5 38 -6 86 -3 110 -127 31 -157 -17 -6 -29
-16 -27 -22 2 -5 32 -20 68 -33 78 -28 99 -46 99 -84 0 -40 -14 -63 -48 -77
-25 -11 -43 -8 -138 23 -97 32 -130 47 -185 87 -26 19 -202 -74 -365 -192
-192 -139 -223 -171 -233 -240 -9 -65 -24 -95 -52 -104 -25 -8 -24 -14 14
-156 39 -147 49 -243 49 -499 0 -266 -14 -383 -64 -540 -81 -254 -204 -448
-409 -645 -171 -164 -368 -280 -615 -361 -208 -68 -279 -78 -579 -78 -276 -1
-379 8 -550 49 -323 76 -548 200 -781 430 -140 138 -220 246 -294 400 -102
209 -130 330 -130 564 0 409 75 693 268 1016 94 158 197 276 382 438 149 131
295 230 445 303 127 62 187 76 302 72 l82 -2 78 58 c43 31 119 78 169 103 87
43 96 45 210 53 162 10 315 -3 412 -36 316 -105 632 -423 844 -848 29 -58 55
-106 58 -106 3 0 14 16 25 36 38 71 242 232 404 320 25 14 80 48 122 77 42 29
91 60 108 69 30 16 31 19 31 85 0 86 25 196 90 398 62 194 70 226 114 480 50
284 79 359 175 456 44 44 84 70 172 113 152 74 287 111 619 170 204 37 656 80
1065 101 567 30 691 33 1025 30 276 -3 359 -7 473 -24z m23161 -11 c37 -14 50
-45 36 -81 -15 -35 -21 -37 -146 -49 -129 -12 -287 -12 -343 1 -52 12 -290 -8
-569 -46 -246 -34 -235 -31 -226 -63 19 -69 -6 -112 -66 -112 -25 0 -43 7 -57
23 -83 91 -97 170 -40 224 61 60 176 76 652 94 160 5 304 14 320 20 37 11 405
2 439 -11z m-12780 -221 c197 -68 241 -100 216 -158 -20 -50 -52 -55 -150 -26
-47 14 -110 28 -140 31 -30 3 -77 12 -104 20 -40 11 -72 12 -165 4 -124 -11
-325 -38 -347 -47 -24 -9 -16 -18 47 -54 95 -53 119 -96 83 -147 -31 -45 -61
-47 -139 -8 -215 106 -270 276 -115 353 71 36 136 43 389 44 130 1 250 5 266
9 51 13 65 11 159 -21z m-4849 -309 c965 -71 1733 -398 2050 -875 69 -104 149
-271 170 -355 22 -89 30 -322 16 -450 -31 -274 -151 -545 -350 -792 -321 -399
-1087 -876 -1686 -1052 -240 -70 -429 -96 -693 -96 -487 0 -775 68 -1050 247
-93 60 -272 245 -341 353 -127 196 -233 453 -267 650 -13 78 -15 141 -11 350
6 284 18 369 82 547 19 53 33 98 31 100 -2 3 -31 -7 -64 -21 -69 -29 -104 -24
-123 18 -23 49 -5 74 82 116 44 21 109 49 145 62 60 21 69 28 106 83 100 147
220 273 363 380 277 206 432 270 592 244 79 -13 113 -33 113 -67 0 -34 -32
-49 -125 -60 -75 -9 -104 -17 -185 -58 -105 -54 -259 -165 -364 -264 -72 -68
-72 -85 -1 -56 69 29 114 17 130 -35 13 -40 -25 -71 -151 -125 -238 -101 -229
-96 -263 -163 -129 -255 -171 -488 -151 -831 7 -126 14 -174 39 -255 98 -329
265 -569 499 -720 215 -138 407 -179 837 -179 271 0 404 12 540 45 343 85 768
283 1135 529 329 221 513 387 658 593 48 68 131 234 157 311 31 95 47 240 43
389 -3 129 -6 148 -32 212 -78 189 -223 363 -397 478 -102 67 -319 181 -443
232 -218 90 -600 184 -911 224 -341 45 -810 66 -1090 50 -256 -14 -693 -87
-783 -131 -60 -28 -68 -51 -52 -140 11 -59 23 -84 67 -145 29 -41 53 -84 53
-97 0 -31 -20 -54 -53 -62 -24 -6 -37 3 -118 82 -119 117 -144 159 -144 244 1
138 80 262 210 328 94 47 345 109 600 148 216 32 779 39 1130 14z m17416 -130
c206 -37 282 -57 302 -81 25 -31 18 -77 -15 -102 l-26 -20 -164 34 -163 34
-330 0 -330 0 -1 -42 c0 -56 -25 -83 -75 -83 -32 0 -43 6 -72 43 -46 56 -57
79 -57 119 0 55 36 92 105 109 17 4 184 7 371 8 301 1 355 -1 455 -19z
m-34150 -73 c293 -67 464 -150 601 -294 201 -212 301 -521 413 -1288 24 -165
64 -426 89 -580 54 -342 90 -581 111 -740 9 -66 28 -190 43 -275 15 -93 26
-195 26 -255 1 -89 -2 -105 -24 -145 -14 -24 -45 -58 -68 -75 -41 -28 -49 -30
-135 -30 -82 0 -111 6 -267 53 -319 97 -360 102 -870 102 -374 1 -395 0 -935
-54 -371 -37 -533 -46 -920 -53 -383 -6 -492 1 -656 42 -235 60 -379 147 -436
262 -25 53 -27 62 -25 192 3 162 18 342 32 391 6 19 13 75 16 123 5 98 26 152
86 221 26 30 42 39 65 39 41 0 81 -27 89 -59 6 -25 -13 -103 -51 -205 -10 -26
-14 -111 -16 -313 -2 -318 -7 -299 96 -346 89 -40 186 -67 315 -86 99 -14 173
-16 540 -11 452 6 672 19 1105 64 257 26 294 28 765 28 433 0 507 -3 590 -18
83 -16 242 -55 350 -87 59 -17 80 -13 80 14 0 14 -13 107 -29 208 -17 101 -48
309 -71 463 -23 154 -62 406 -86 559 -25 154 -58 374 -75 490 -63 446 -108
672 -169 856 -96 287 -217 411 -492 508 -156 55 -270 65 -713 59 -421 -5 -635
-19 -1025 -67 -683 -84 -994 -151 -1128 -242 -107 -73 -188 -250 -244 -528
-21 -108 -23 -139 -23 -480 l0 -365 32 -80 c18 -44 33 -85 33 -91 0 -23 -42
-64 -66 -64 -40 0 -119 46 -158 92 -71 83 -87 185 -89 573 -1 273 1 311 22
420 65 347 151 546 295 685 118 115 247 170 541 234 245 53 706 116 1110 151
329 29 437 33 825 31 376 -2 388 -3 501 -29z m20012 -188 c21 -26 22 -77 2
-106 -8 -12 -39 -29 -68 -39 -28 -9 -70 -26 -92 -37 -57 -28 -245 -148 -245
-156 2 -27 40 -45 166 -77 231 -57 254 -69 254 -131 0 -46 -13 -68 -49 -83
-25 -10 -47 -8 -143 14 -62 14 -169 37 -238 51 -69 15 -140 36 -159 48 -33 20
-35 20 -45 3 -32 -53 -48 -66 -84 -66 -45 0 -82 32 -82 72 0 68 85 184 190
260 64 45 223 135 370 208 156 77 187 82 223 39z m1057 -5 c127 -13 261 -41
280 -59 25 -22 26 -77 3 -96 -12 -11 -58 -14 -196 -14 -165 0 -181 -2 -191
-19 -32 -54 -42 -60 -107 -64 -84 -5 -166 11 -242 47 -101 48 -125 115 -63
177 33 33 36 34 113 34 44 0 104 -4 134 -10 41 -7 66 -6 104 4 28 8 61 13 75
11 14 -2 54 -7 90 -11z m7850 -199 c106 -24 326 -111 345 -138 19 -28 19 -57
-1 -85 -28 -41 -55 -44 -146 -16 -155 46 -238 64 -340 74 -104 10 -136 4 -110
-22 20 -20 14 -79 -10 -105 -32 -34 -76 -29 -176 17 -112 53 -162 103 -162
164 0 70 41 110 129 127 73 13 385 2 471 -16z m-40422 -75 c212 -59 445 -223
596 -419 73 -95 152 -234 196 -347 44 -114 134 -454 179 -679 105 -530 139
-863 98 -965 -36 -87 -117 -147 -232 -170 -88 -18 -590 -24 -819 -11 -209 13
-401 39 -506 71 -48 14 -91 18 -165 17 -83 -1 -110 2 -157 21 -62 25 -76 47
-64 97 8 31 43 50 122 65 52 10 73 10 135 -5 67 -15 137 -16 744 -9 368 4 680
11 693 15 18 7 22 16 22 50 0 72 -43 342 -105 664 -50 261 -172 690 -230 810
-113 237 -305 435 -495 511 -213 86 -969 12 -1106 -108 -83 -73 -122 -191
-169 -511 -24 -165 -57 -282 -123 -434 -50 -115 -62 -153 -72 -232 -6 -51 -15
-102 -21 -112 -5 -11 -33 -31 -62 -45 -29 -15 -84 -52 -123 -83 -39 -31 -108
-83 -154 -116 -85 -61 -180 -157 -180 -180 0 -19 80 -34 249 -45 158 -11 186
-21 204 -73 11 -33 -9 -77 -43 -94 -33 -17 -148 -16 -251 1 -46 8 -111 18
-144 21 -136 15 -234 52 -278 104 -68 81 -28 167 85 186 32 6 44 15 65 48 54
88 155 174 368 312 112 73 116 78 108 103 -18 60 -7 134 37 247 59 154 84 255
110 445 67 503 170 671 469 764 325 102 813 143 1019 86z m39037 -35 c30 -29
32 -64 6 -92 -11 -11 -72 -39 -138 -63 -139 -51 -175 -68 -265 -126 -101 -65
-122 -112 -79 -172 41 -59 14 -132 -50 -132 -31 0 -83 53 -105 106 -37 90 0
205 90 276 86 69 426 225 494 227 13 1 34 -10 47 -24z m-16592 4 c30 -16 37
-28 37 -66 0 -53 -22 -59 -240 -72 -107 -6 -241 -18 -297 -26 -56 -8 -175 -24
-265 -35 -166 -22 -349 -56 -717 -135 -426 -92 -400 -83 -485 -154 -49 -42
-81 -50 -117 -30 -29 15 -42 57 -29 88 13 32 120 117 175 141 69 30 613 146
910 194 83 14 216 36 296 50 145 25 335 44 499 49 47 2 113 4 148 5 35 1 73
-3 85 -9z m23554 -83 c28 -33 25 -67 -8 -101 -19 -19 -35 -20 -431 -23 -404
-3 -411 -4 -440 -25 -26 -19 -42 -22 -131 -22 -187 1 -277 58 -236 149 25 55
24 55 647 53 l574 -2 25 -29z m-13272 -41 c132 -14 254 -28 272 -31 35 -5 73
-45 73 -76 0 -27 -26 -74 -45 -82 -9 -3 -66 -6 -126 -6 -66 0 -119 -5 -132
-12 -14 -7 -76 -12 -167 -12 -166 -1 -243 16 -291 64 -52 51 -34 136 35 166
45 19 111 17 381 -11z m-37266 -530 c201 -27 418 -75 610 -137 453 -144 954
-438 1164 -682 140 -163 243 -362 283 -546 17 -79 19 -454 4 -580 -43 -348
-173 -693 -378 -1005 -304 -464 -712 -802 -1137 -944 -169 -56 -244 -64 -585
-58 -367 7 -512 28 -775 114 -369 121 -701 407 -897 773 -118 221 -257 582
-303 792 -37 165 -29 694 14 898 24 117 82 293 123 374 127 253 387 537 620
677 46 28 102 55 126 62 29 8 51 22 68 44 27 35 137 126 194 161 115 69 561
98 869 57z m50653 10 c23 -9 30 -46 13 -72 -11 -15 -28 -23 -62 -27 -27 -4
-82 -10 -123 -16 -41 -5 -113 -12 -160 -16 -86 -6 -331 -41 -338 -49 -2 -2
-11 -18 -20 -37 -34 -67 -103 -63 -159 10 -39 51 -43 97 -13 135 35 44 96 57
318 67 112 5 207 11 210 15 8 8 311 -1 334 -10z m-23507 -80 c28 -27 31 -52
11 -80 -18 -24 -89 -33 -283 -34 -83 -1 -218 -5 -300 -11 -81 -5 -238 -14
-348 -19 -292 -15 -599 -53 -984 -122 -373 -67 -488 -80 -531 -57 -47 25 -53
99 -10 126 11 7 73 17 138 22 64 5 178 20 252 34 500 92 694 115 1295 156 61
4 251 8 423 8 l313 2 24 -25z m-11789 -56 c33 -31 33 -87 -1 -119 -24 -22 -37
-25 -173 -31 -180 -10 -213 -13 -427 -49 -93 -15 -192 -31 -220 -35 -106 -14
-135 -25 -135 -52 0 -31 -42 -73 -74 -73 -44 0 -134 40 -161 71 -35 43 -34 89
5 128 32 31 88 51 200 71 36 6 97 20 135 30 121 33 403 71 580 80 211 10 241
8 271 -21z m28343 -140 c98 -12 416 -116 528 -173 96 -48 115 -85 72 -140 -14
-18 -30 -26 -52 -26 -45 0 -163 39 -290 94 -59 26 -138 54 -175 61 -82 18
-306 19 -404 3 -64 -10 -71 -14 -80 -40 -18 -51 -63 -61 -128 -28 -49 25 -70
55 -70 100 0 68 82 116 240 139 41 6 86 13 100 15 54 7 180 6 259 -5z m-39409
-171 c13 -25 13 -31 0 -55 -18 -32 -35 -36 -195 -52 -143 -15 -194 -26 -257
-57 -58 -29 -92 -30 -118 -4 -38 38 -24 80 40 118 105 62 194 80 380 78 l134
-1 16 -27z m5914 -233 c162 -32 257 -64 406 -136 469 -226 810 -620 968 -1119
61 -192 67 -234 67 -490 -1 -264 -18 -387 -76 -562 -81 -242 -211 -441 -420
-643 -267 -258 -563 -428 -994 -571 -316 -104 -518 -131 -910 -119 -259 7
-413 25 -618 71 -273 60 -453 135 -677 282 -363 236 -615 556 -744 945 -49
147 -66 261 -66 450 0 331 44 533 171 786 90 177 178 300 314 436 155 155 294
242 445 281 53 13 95 16 220 11 85 -3 163 -8 173 -12 35 -14 35 -96 0 -110
-10 -4 -79 -11 -153 -15 -186 -12 -235 -28 -375 -128 -164 -116 -310 -295
-415 -507 -119 -242 -146 -374 -137 -669 7 -211 20 -293 66 -409 243 -610 753
-976 1483 -1063 193 -23 657 -23 797 0 206 33 500 123 685 210 314 147 636
401 778 616 159 240 222 443 234 755 5 129 3 164 -15 250 -70 339 -224 620
-468 856 -258 248 -608 418 -948 458 -113 14 -375 14 -435 0 -68 -15 -321
-117 -445 -179 -148 -75 -272 -159 -372 -252 -45 -43 -90 -78 -99 -78 -25 0
-54 29 -54 54 0 52 160 206 336 324 271 182 512 279 754 302 145 15 388 3 524
-25z m5121 -1 c33 -4 68 -13 78 -22 20 -18 23 -65 3 -81 -22 -19 -175 -33
-280 -27 -70 5 -123 2 -185 -10 -101 -18 -368 -83 -496 -119 -135 -39 -168
-42 -194 -16 -27 27 -28 82 -2 105 32 29 201 83 311 100 58 9 164 25 235 36
72 11 153 20 180 21 28 0 84 7 125 14 72 13 96 13 225 -1z m11865 -27 c34 -17
55 -57 46 -90 -13 -52 -37 -56 -383 -67 -487 -15 -815 -56 -1414 -174 -123
-24 -245 -47 -272 -51 -26 -4 -50 -11 -53 -16 -3 -5 -50 -9 -105 -9 -93 0
-102 2 -124 25 -32 31 -32 75 -2 110 20 24 34 28 137 41 63 7 162 22 220 33
58 11 188 36 290 56 407 78 664 114 960 135 85 6 166 13 180 14 14 2 131 4
260 4 170 1 242 -2 260 -11z m-22810 -157 c24 -24 26 -57 6 -86 -27 -39 -310
-84 -523 -84 -132 0 -134 0 -158 26 -30 32 -32 72 -6 106 19 24 23 25 263 37
134 7 245 14 247 17 2 2 37 4 78 4 60 0 77 -4 93 -20z m8165 -76 c19 -8 45
-55 45 -82 0 -39 -38 -69 -112 -92 -72 -22 -215 -93 -313 -155 -57 -37 -173
-140 -165 -148 3 -3 70 13 150 34 230 63 324 79 471 79 80 0 139 -5 152 -12
53 -28 61 -75 19 -117 -26 -26 -34 -28 -147 -34 -127 -7 -300 -34 -400 -62
-147 -41 -181 -55 -204 -86 -22 -29 -25 -30 -84 -27 -34 2 -70 8 -79 12 -15 7
-18 3 -18 -21 0 -39 -24 -70 -60 -78 -46 -10 -76 15 -95 77 -48 164 25 265
395 538 171 126 368 203 445 174z m-8211 -205 c28 -33 34 -85 16 -120 -20 -36
-60 -47 -213 -54 l-148 -8 -30 29 c-63 60 -22 156 72 168 24 3 55 7 69 10 14
2 66 4 117 5 90 1 91 1 117 -30z m10069 -205 c95 -6 127 -23 127 -64 0 -46
-30 -57 -163 -65 -146 -8 -189 1 -207 44 -8 21 -8 34 1 53 16 35 45 47 104 42
28 -2 90 -6 138 -10z m963 -201 c34 -19 49 -67 34 -103 -17 -41 -39 -51 -134
-61 -45 -5 -126 -18 -181 -29 -55 -10 -139 -24 -186 -30 l-87 -12 5 -39 c5
-34 2 -42 -31 -75 -44 -44 -67 -43 -171 7 -85 42 -115 79 -115 144 0 42 5 52
38 85 44 45 84 58 299 100 134 26 165 29 328 27 117 -2 187 -6 201 -14z
m-5097 -544 c82 -13 158 -44 196 -80 23 -23 30 -37 30 -70 0 -34 -6 -46 -34
-71 -29 -26 -39 -29 -75 -25 -22 3 -68 15 -101 27 -84 31 -180 24 -265 -19
-96 -49 -156 -38 -180 33 -15 47 -1 77 61 126 70 56 99 69 167 79 82 12 128
12 201 0z m-1714 -451 c29 -34 31 -57 10 -97 -13 -25 -30 -36 -88 -55 -17 -5
-17 -8 -3 -28 23 -33 20 -83 -6 -108 -28 -26 -142 -28 -191 -4 -70 36 -106
100 -92 163 14 64 99 120 229 151 84 20 109 16 141 -22z m1499 -542 c161 -44
275 -114 339 -206 44 -64 97 -211 104 -290 5 -50 3 -59 -21 -87 -34 -40 -81
-51 -125 -29 -42 22 -56 49 -71 134 -9 55 -20 84 -44 115 -132 174 -488 201
-994 76 -143 -35 -168 -38 -199 -28 -47 15 -76 62 -69 112 9 75 64 106 281
157 245 57 358 70 580 65 105 -2 180 -9 219 -19z"/>
<path d="M27525 9666 c-51 -16 -133 -58 -165 -84 l-25 -21 35 -12 c38 -14 157
-75 178 -91 18 -16 15 -72 -6 -91 -27 -25 -51 -21 -136 19 -48 23 -104 40
-151 47 -68 10 -76 9 -96 -9 -46 -40 -144 -183 -193 -282 -39 -79 -57 -104
-75 -109 -31 -8 -55 8 -59 39 -4 31 53 164 113 262 26 43 45 79 43 81 -7 7
-125 -49 -202 -97 -196 -121 -461 -372 -574 -543 -108 -163 -187 -350 -227
-535 -21 -100 -30 -393 -17 -542 25 -261 145 -495 360 -699 240 -227 509 -344
877 -380 152 -15 494 -6 586 15 182 42 349 110 494 204 189 121 354 306 446
497 111 232 149 426 150 775 1 143 -3 194 -20 275 -80 377 -258 733 -487 974
-172 181 -333 279 -501 307 -107 17 -294 17 -348 0z m300 -1221 c32 -31 32
-66 0 -103 -19 -23 -36 -31 -77 -36 -74 -10 -88 -20 -88 -63 0 -76 -82 -111
-135 -58 -22 21 -25 33 -25 91 0 108 40 154 160 180 92 20 137 18 165 -11z
m-1123 -472 c12 -11 18 -30 18 -59 0 -38 4 -45 29 -58 47 -25 56 -81 19 -116
-28 -25 -53 -25 -123 1 -134 50 -160 131 -68 215 42 38 94 46 125 17z m688
-334 c94 -31 321 -148 438 -227 55 -37 150 -107 211 -155 61 -48 144 -106 185
-128 87 -47 96 -56 103 -107 4 -31 0 -44 -21 -69 -15 -17 -39 -34 -55 -38 -36
-8 -125 26 -194 73 -236 164 -414 274 -562 348 -154 77 -178 86 -255 95 -47 6
-124 7 -171 4 l-87 -7 1 -35 c1 -27 -6 -41 -27 -59 -37 -32 -65 -30 -122 9
-95 63 -106 165 -26 245 62 62 168 83 387 77 98 -3 146 -9 195 -26z"/>
<path d="M5455 9100 c-63 -16 -255 -116 -255 -133 0 -5 11 -18 25 -29 38 -29
48 -84 29 -149 -18 -59 -39 -81 -69 -73 -29 9 -45 33 -45 71 0 29 -3 33 -27
33 -15 0 -38 -11 -52 -24 -15 -14 -39 -27 -55 -30 -72 -13 -343 -269 -438
-414 -111 -170 -187 -366 -220 -567 -17 -103 -16 -602 1 -695 42 -226 243
-716 377 -917 70 -105 221 -264 327 -344 149 -112 367 -198 607 -240 121 -21
165 -24 430 -24 252 0 307 3 375 19 267 62 533 219 789 466 215 207 372 423
502 685 154 314 214 597 201 950 -7 195 -46 311 -162 484 -127 190 -413 410
-748 576 -316 157 -647 266 -982 324 -193 33 -534 51 -610 31z m903 -1131
c110 -19 163 -90 128 -173 -22 -52 -64 -70 -145 -62 -51 5 -71 3 -86 -8 -30
-23 -85 -20 -112 6 -31 29 -30 80 2 145 30 60 41 71 92 89 47 16 43 16 121 3z
m-998 -238 c74 -53 58 -156 -30 -189 -14 -5 -64 -10 -112 -11 -119 -2 -158 18
-158 84 0 38 30 62 130 104 100 43 124 45 170 12z m1436 -602 c29 -27 40 -79
23 -110 -27 -52 -119 -159 -185 -217 -38 -33 -98 -88 -133 -122 -127 -122
-222 -165 -388 -176 -164 -11 -293 20 -438 104 -177 104 -348 288 -331 357 25
98 142 80 312 -50 171 -131 312 -176 481 -155 122 16 212 72 324 205 46 55 98
103 152 140 73 50 86 56 120 52 22 -3 50 -15 63 -28z"/>
</g>
</svg>
