<?xml version="1.0" standalone="no"?>
<!DOCTYPE svg PUBLIC "-//W3C//DTD SVG 20010904//EN"
 "http://www.w3.org/TR/2001/REC-SVG-20010904/DTD/svg10.dtd">
<svg version="1.0" xmlns="http://www.w3.org/2000/svg"
 width="5680.918517pt" height="1646.311030pt" viewBox="0 0 5680.918517 1646.311030"
 preserveAspectRatio="xMidYMid meet">
<metadata>
Created by potrace 1.16, written by Peter Selinger 2001-2019
</metadata>
<g transform="translate(-158.575027,2138.531225) scale(0.100000,-0.100000)"
fill="#000000" stroke="none">
<path d="M50470 21379 c-282 -10 -721 -38 -1077 -69 -872 -75 -978 -84 -1323
-110 -146 -11 -348 -27 -450 -35 -102 -8 -273 -22 -380 -30 -107 -8 -247 -20
-310 -25 -166 -15 -580 -29 -1080 -36 -678 -10 -894 14 -1046 116 -80 54 -115
60 -148 27 -17 -17 -26 -37 -26 -57 0 -45 67 -112 156 -157 40 -19 81 -44 90
-54 16 -18 16 -20 -2 -40 -22 -24 -22 -40 -9 -434 5 -177 3 -327 -9 -570 -9
-181 -21 -449 -26 -595 -6 -146 -15 -328 -20 -405 -5 -77 -17 -396 -26 -710
-20 -736 -15 -2476 10 -2995 49 -1052 50 -1084 32 -1276 -19 -206 -20 -265 -6
-315 27 -96 153 -121 195 -38 8 14 19 60 24 100 6 41 22 115 36 164 83 294
183 874 158 913 -13 22 -56 27 -72 8 -7 -8 -21 -65 -32 -128 -10 -62 -21 -117
-23 -123 -8 -18 -6 124 4 370 21 535 33 2080 21 2705 -7 333 -16 841 -21 1130
-14 826 -48 1544 -86 1853 -14 107 -14 133 -3 153 11 21 10 34 -10 96 -20 62
-21 72 -8 85 13 13 30 11 141 -16 253 -62 561 -87 1221 -97 385 -7 593 1 1120
41 105 8 262 19 350 25 498 31 648 41 815 55 477 39 567 46 730 60 96 8 315
24 485 35 171 11 342 22 380 25 39 3 590 10 1225 15 1176 9 1595 17 2325 45
491 20 1216 18 1252 -3 34 -19 38 -49 36 -262 -1 -161 -5 -218 -26 -330 -82
-438 -130 -898 -147 -1395 -5 -154 -14 -734 -19 -1290 -6 -555 -13 -1119 -16
-1252 -6 -251 8 -931 25 -1278 16 -311 55 -592 155 -1100 26 -136 85 -527 85
-568 l0 -24 -237 -7 c-210 -6 -449 2 -543 19 -14 3 -176 18 -360 35 -974 86
-1191 101 -1920 125 -250 8 -554 22 -675 30 -332 21 -646 34 -1110 45 -231 5
-591 15 -800 20 -411 12 -1526 -1 -1820 -20 -405 -26 -1020 -106 -1579 -205
-247 -44 -372 -55 -651 -55 -150 0 -241 -5 -285 -14 -36 -8 -147 -33 -247 -55
-176 -40 -367 -72 -507 -86 -59 -6 -73 -12 -105 -40 -32 -30 -36 -39 -36 -84
0 -87 63 -131 186 -131 93 0 331 36 534 80 182 40 200 42 440 51 138 4 331 15
430 23 99 8 261 18 360 21 99 3 304 13 455 21 519 27 856 36 1662 41 492 3
983 1 1260 -6 249 -7 705 -16 1013 -21 308 -5 655 -14 770 -20 290 -14 1209
-31 1870 -35 303 -2 645 -6 760 -9 116 -3 440 -2 720 2 l510 7 57 27 c41 19
64 38 85 69 27 42 28 46 27 173 -1 90 -11 195 -33 336 -115 754 -136 1074
-121 1845 5 286 17 734 26 995 18 514 16 1313 -7 2189 -14 576 0 989 48 1401
12 102 17 228 18 425 0 268 -1 282 -23 336 -26 65 -79 131 -134 165 -77 49
-119 52 -763 58 -570 5 -806 12 -1240 36 -242 14 -2364 21 -2705 9z"/>
<path d="M31345 20920 c-295 -9 -827 -40 -1105 -65 -719 -64 -751 -68 -1215
-126 -729 -91 -1685 -250 -2150 -358 -550 -128 -1256 -343 -1785 -544 -258
-98 -328 -117 -424 -117 -111 -1 -286 -32 -330 -60 -82 -50 -130 -136 -143
-256 -5 -48 -4 -53 21 -69 24 -16 28 -16 50 -2 18 12 26 29 31 64 10 76 45
135 89 152 34 13 43 12 119 -14 69 -23 98 -28 187 -27 140 0 262 26 745 158
739 202 999 265 1545 374 922 184 2522 389 3600 460 85 6 209 15 275 20 66 5
181 12 255 15 74 3 196 10 270 15 240 17 907 50 1220 60 168 6 386 13 485 16
134 5 220 2 339 -10 182 -19 248 -33 401 -82 197 -64 289 -127 343 -236 55
-112 94 -283 112 -495 11 -120 -1 -771 -20 -1148 -10 -195 -66 -782 -95 -994
-8 -58 -24 -196 -35 -306 -11 -110 -25 -238 -30 -285 -39 -350 -73 -810 -95
-1280 -24 -526 -16 -1668 15 -2255 23 -427 28 -634 19 -780 -17 -274 -58 -524
-99 -605 -28 -54 -57 -60 -295 -60 -209 1 -242 3 -600 44 -355 41 -670 58
-1410 77 -458 12 -658 6 -1330 -36 -598 -37 -920 -45 -2210 -55 -1787 -14
-1938 -20 -2615 -101 -349 -42 -430 -56 -671 -115 -165 -40 -234 -74 -279
-136 -24 -32 -30 -51 -30 -91 0 -42 5 -54 33 -81 17 -18 57 -42 87 -53 92 -34
105 -35 134 -12 40 32 32 66 -26 109 -26 19 -44 38 -40 42 13 13 197 36 372
47 255 16 1140 17 2185 4 1162 -16 2007 -16 2351 -3 142 6 504 26 804 45 947
60 1235 70 2190 81 455 5 577 4 740 -10 227 -19 525 -21 602 -5 183 39 265
152 323 447 55 272 101 1022 125 2017 16 660 30 1114 35 1175 3 30 10 159 15
285 15 340 37 678 70 1065 32 373 59 712 87 1075 25 328 25 1170 0 1510 -18
234 -63 585 -93 713 -59 259 -163 426 -325 524 -165 100 -492 188 -904 244
-236 31 -1343 51 -1920 34z"/>
<path d="M43315 20884 c-27 -2 -111 -11 -185 -19 -154 -18 -356 -30 -750 -45
-151 -6 -338 -15 -415 -20 -77 -5 -246 -16 -376 -25 -943 -60 -1854 -189
-2774 -391 -142 -32 -1077 -265 -1500 -374 -351 -91 -660 -172 -835 -218 -375
-100 -455 -116 -687 -132 -111 -8 -170 -8 -217 1 -62 10 -65 12 -64 40 1 29
-29 82 -90 158 -43 53 -87 81 -127 81 l-30 0 -23 123 c-46 243 -52 268 -78
279 -38 17 -70 -11 -83 -72 -15 -69 -14 -88 10 -242 27 -175 36 -616 20 -1083
-8 -238 -8 -418 -1 -600 24 -629 31 -793 45 -1005 8 -124 22 -351 30 -505 34
-654 45 -844 50 -905 3 -36 10 -182 15 -325 24 -603 57 -1198 95 -1730 26
-352 22 -394 -64 -730 -12 -47 -21 -112 -21 -158 0 -76 1 -80 34 -113 88 -88
195 -5 247 192 22 84 20 48 50 994 24 784 -6 1931 -72 2730 -17 209 -58 683
-95 1095 -19 215 -39 440 -44 500 -5 61 -17 247 -25 415 -8 168 -22 406 -31
529 -8 123 -13 225 -12 227 2 2 26 -8 53 -21 110 -54 190 -67 460 -72 224 -5
265 -3 395 17 139 21 486 88 567 109 21 5 198 42 393 81 326 66 490 101 905
196 83 19 179 41 215 49 36 8 113 25 172 39 573 136 1178 253 1668 321 475 66
391 55 1085 139 160 19 448 54 640 76 193 23 438 52 545 66 384 49 509 63 758
85 288 26 269 30 297 -61 25 -81 29 -233 16 -535 -14 -310 -37 -561 -80 -860
-99 -684 -186 -1408 -226 -1865 -42 -493 -63 -2024 -34 -2580 7 -135 13 -452
13 -705 1 -398 -2 -477 -17 -585 -33 -221 -89 -415 -140 -482 -58 -76 -209
-124 -422 -135 -199 -10 -1035 23 -1225 47 -41 6 -226 26 -410 45 -1110 117
-1485 139 -2350 138 -726 -1 -832 -5 -1520 -66 -19 -1 -26 3 -28 21 -2 12 -14
29 -26 37 -21 14 -37 10 -215 -50 -148 -50 -224 -70 -329 -86 -76 -11 -166
-27 -202 -34 -36 -7 -96 -16 -135 -20 -86 -9 -123 -27 -140 -68 -27 -66 13
-131 89 -142 48 -8 535 6 1181 31 387 16 519 16 1315 6 889 -12 1109 -20 1800
-67 206 -14 506 -35 665 -46 423 -28 697 -33 1085 -20 514 18 695 36 835 83
155 52 268 161 330 317 59 151 93 322 139 701 44 355 64 684 81 1315 55 2028
77 2478 175 3475 80 808 97 1138 81 1527 -24 582 -83 807 -233 884 -38 20
-135 30 -223 23z"/>
<path d="M21070 20380 c-405 -13 -948 -52 -1390 -100 -102 -11 -320 -33 -485
-50 -165 -17 -408 -42 -540 -55 -364 -39 -619 -65 -735 -75 -58 -6 -163 -17
-235 -25 -71 -8 -200 -21 -285 -30 -85 -9 -294 -31 -465 -50 -414 -45 -842
-91 -1255 -135 -107 -11 -231 -25 -275 -30 -44 -5 -123 -14 -175 -20 -590 -61
-1295 -154 -1885 -249 -104 -17 -242 -37 -305 -46 -63 -9 -170 -27 -238 -41
-68 -13 -133 -24 -144 -24 -62 0 -153 -24 -175 -46 -33 -34 -29 -99 8 -126 36
-27 181 -26 364 2 267 40 481 59 792 70 172 6 319 13 325 15 7 2 114 9 238 15
124 5 324 17 445 25 704 47 839 57 925 65 52 6 250 24 440 40 518 45 886 80
1225 116 127 13 365 38 530 54 647 65 820 83 1580 164 77 9 217 25 310 36 515
62 1400 142 1945 175 58 3 200 13 315 20 379 26 717 38 870 32 150 -6 273 -21
288 -36 4 -4 -2 -43 -13 -87 -11 -44 -49 -253 -85 -464 -35 -212 -94 -515
-130 -675 -121 -533 -144 -641 -180 -841 -20 -109 -49 -269 -65 -354 -126
-676 -228 -1497 -290 -2340 -30 -417 -48 -1101 -64 -2435 -4 -355 -18 -514
-67 -760 -39 -193 -146 -472 -201 -522 -30 -27 -271 -25 -428 5 -149 28 -247
39 -455 52 -93 6 -271 18 -395 27 -338 24 -1333 24 -1685 0 -758 -52 -1747
-137 -2287 -197 -606 -67 -1407 -195 -2153 -344 -121 -24 -274 -54 -340 -66
-172 -31 -473 -92 -740 -149 -206 -44 -464 -94 -690 -136 -119 -21 -326 -48
-331 -42 -3 3 -1 58 5 124 12 146 26 976 26 1573 -1 580 -32 1848 -61 2440 -8
173 -19 682 -24 1130 -5 448 -12 856 -15 905 -3 50 -10 288 -15 530 -6 242
-15 490 -20 550 -5 61 -17 253 -25 428 l-15 317 21 21 c18 18 20 29 15 68 -16
124 -36 354 -36 419 0 64 -3 76 -25 97 -26 27 -72 33 -106 15 -58 -32 -70
-142 -68 -623 0 -210 -4 -483 -10 -607 -6 -124 -16 -342 -21 -485 -6 -143 -16
-384 -22 -535 -7 -162 -12 -675 -12 -1245 0 -784 3 -1029 16 -1280 10 -170 20
-386 23 -480 15 -432 37 -907 50 -1085 8 -107 19 -280 25 -385 6 -104 12 -212
15 -240 51 -499 67 -1606 25 -1675 -4 -7 -34 -17 -66 -21 -70 -10 -106 -34
-118 -83 -12 -46 11 -99 51 -118 43 -20 663 -16 848 6 296 35 1033 157 1392
230 134 28 369 69 828 145 862 144 1209 191 2000 271 387 38 513 51 1070 105
280 27 802 80 1190 120 244 26 529 38 1215 51 391 8 615 -7 858 -57 81 -16
206 -35 279 -41 275 -23 387 29 492 231 139 267 220 627 251 1111 6 91 13 181
15 200 7 46 42 552 50 710 3 69 10 188 15 265 5 77 14 228 20 335 36 667 125
1632 230 2495 11 88 29 237 40 330 11 94 31 251 45 350 13 99 27 207 30 240
16 159 62 474 115 800 33 198 69 432 80 520 24 179 120 775 151 933 11 57 29
128 40 159 20 60 25 137 10 176 -15 39 -75 91 -128 110 -110 39 -228 50 -793
78 -297 14 -1050 19 -1370 9z"/>
<path d="M23827 19668 c-35 -27 -36 -58 -6 -153 16 -49 39 -142 52 -205 22
-113 22 -129 22 -875 0 -447 -6 -966 -15 -1260 -20 -680 -22 -4436 -2 -4733 7
-107 17 -314 22 -460 6 -179 13 -285 23 -322 26 -94 94 -133 166 -95 48 24 56
60 42 188 -9 83 -9 168 -1 332 5 121 17 378 25 570 8 193 17 375 20 405 6 68
32 703 46 1150 27 853 21 2528 -12 3215 -35 750 -41 838 -74 1145 -8 74 -24
223 -35 330 -44 417 -106 686 -172 758 -24 25 -74 30 -101 10z"/>
<path d="M8645 19453 c-22 -2 -164 -12 -315 -23 -151 -12 -311 -25 -355 -30
-44 -5 -165 -19 -270 -30 -104 -11 -266 -29 -360 -40 -93 -11 -251 -29 -350
-40 -259 -30 -486 -64 -850 -125 -367 -62 -508 -86 -690 -115 -71 -12 -233
-41 -360 -65 -407 -79 -844 -147 -1430 -226 -88 -11 -281 -41 -430 -66 -148
-25 -319 -51 -380 -59 -60 -8 -144 -24 -185 -34 -41 -11 -127 -31 -190 -45
-191 -43 -287 -66 -458 -111 -90 -24 -200 -48 -244 -54 -96 -12 -125 -28 -133
-74 -8 -42 6 -71 45 -91 47 -24 192 -20 323 11 184 42 284 63 447 94 85 16
184 36 220 44 36 9 106 16 155 16 50 0 151 4 225 10 74 5 223 14 330 20 191
10 597 42 775 60 50 5 140 12 200 15 201 11 530 45 671 69 234 40 612 103 974
161 190 30 370 60 400 65 120 21 348 52 600 80 255 29 638 73 900 104 447 54
508 60 885 86 422 30 563 37 927 51 294 11 343 11 490 -5 171 -18 458 -73 566
-107 38 -13 68 -29 76 -42 8 -12 19 -76 26 -142 6 -66 20 -183 31 -260 34
-252 45 -599 31 -1007 -15 -416 -26 -621 -48 -833 -94 -935 -110 -1367 -95
-2560 11 -817 17 -1012 46 -1471 10 -152 15 -400 15 -718 0 -644 -18 -811 -93
-860 -90 -60 -672 -85 -1058 -47 -533 54 -1002 76 -1459 68 -414 -7 -588 -25
-1260 -132 -124 -19 -301 -47 -395 -61 -93 -14 -264 -41 -380 -60 -115 -19
-295 -46 -400 -59 -326 -42 -619 -84 -930 -135 -428 -69 -515 -78 -840 -90
-159 -5 -328 -14 -375 -20 -47 -5 -227 -14 -400 -19 -338 -10 -360 -13 -386
-62 -21 -42 -17 -75 14 -110 25 -28 36 -33 88 -36 133 -8 264 -25 348 -45 96
-22 169 -22 461 1 77 6 255 15 395 21 244 9 666 39 835 60 44 5 238 26 430 45
193 20 359 38 370 40 11 3 101 14 200 25 99 12 250 32 335 45 85 14 214 33
285 44 72 11 299 47 505 80 752 120 917 137 1496 152 487 13 739 5 1094 -32
173 -18 241 -20 435 -15 400 10 628 41 731 101 91 54 152 142 184 272 45 181
49 308 59 2118 11 1823 15 2143 31 2435 39 709 61 1250 64 1510 2 211 -22
1042 -34 1170 -6 63 -19 183 -30 265 -10 83 -23 195 -29 250 -22 215 -88 306
-261 363 -96 32 -797 169 -929 182 -190 18 -556 30 -926 28 -192 -1 -368 -3
-390 -5z"/>
<path d="M1660 18119 c-70 -28 -87 -81 -66 -211 42 -266 47 -366 51 -1043 1
-363 8 -853 14 -1090 6 -236 16 -626 21 -865 10 -422 24 -726 55 -1190 8 -124
17 -265 20 -315 22 -347 55 -709 90 -970 43 -329 59 -436 85 -590 15 -93 33
-210 40 -260 6 -49 36 -214 66 -365 56 -280 117 -630 129 -730 10 -94 16 -110
41 -127 37 -24 82 -19 114 12 26 25 29 26 56 12 16 -8 100 -38 186 -67 153
-51 159 -52 183 -36 36 24 49 55 36 88 -13 35 -38 47 -199 98 -81 25 -136 48
-139 57 -7 19 13 78 40 117 26 36 26 84 2 102 -29 21 -42 17 -90 -27 -25 -23
-47 -40 -48 -38 -3 4 -53 357 -63 444 -2 22 -15 132 -29 245 -13 113 -33 306
-44 430 -21 235 -22 247 -46 605 -8 121 -21 321 -30 445 -8 124 -22 360 -30
525 -8 165 -22 422 -30 570 -8 149 -19 356 -25 460 -11 193 -21 376 -39 700
-10 169 -33 674 -46 990 -7 184 -32 493 -50 626 -8 58 -21 210 -30 338 -12
188 -55 595 -82 782 -4 33 -2 37 21 43 34 8 51 48 34 79 -28 55 -104 140 -134
153 -18 8 -35 14 -36 13 -2 0 -14 -5 -28 -10z"/>
<path d="M51415 17999 c-150 -9 -233 -23 -329 -56 -38 -12 -79 -23 -90 -23
-12 0 -83 -16 -159 -35 -456 -114 -756 -295 -927 -557 l-64 -98 -70 0 c-224 0
-416 -149 -416 -322 0 -128 74 -197 277 -261 91 -29 136 -40 377 -92 461 -99
648 -226 650 -441 1 -43 -4 -81 -13 -98 -18 -33 -94 -92 -191 -147 -74 -42
-75 -42 -129 -31 -30 6 -85 30 -123 53 -63 39 -70 41 -98 29 -55 -23 -63 -65
-28 -157 11 -32 36 -72 53 -89 44 -41 131 -68 198 -61 265 27 463 131 547 289
31 57 35 72 38 164 7 178 -33 284 -154 413 -78 82 -161 138 -287 190 -132 54
-197 71 -605 157 -106 22 -243 63 -270 80 -21 14 -21 16 -8 43 8 15 31 40 51
55 105 81 215 90 384 31 118 -41 149 -42 170 -3 26 46 5 71 -93 109 -47 19
-86 39 -86 44 0 9 67 66 150 127 19 15 96 58 170 97 267 139 683 285 841 294
48 3 133 17 190 31 110 27 253 46 355 46 74 0 108 22 125 80 10 32 9 44 -7 77
-37 75 -90 83 -429 62z"/>
<path d="M40623 16980 c-50 -30 -63 -66 -63 -175 0 -70 -5 -107 -17 -132 -26
-57 -105 -127 -195 -176 -166 -89 -225 -124 -343 -203 -162 -109 -173 -114
-248 -114 -55 0 -70 4 -111 31 -103 69 -328 374 -338 458 -2 20 3 26 30 33 39
10 56 45 42 82 -18 48 -164 64 -215 24 -61 -48 -79 -138 -49 -251 52 -202 286
-508 449 -588 68 -33 73 -34 195 -34 122 0 127 1 189 33 124 63 448 322 540
431 24 29 46 50 49 47 3 -4 4 -104 3 -224 -1 -122 2 -254 9 -300 18 -135 104
-372 185 -509 42 -71 177 -232 278 -330 79 -77 87 -83 127 -83 33 0 48 6 71
29 42 43 40 95 -5 153 -183 230 -312 478 -368 706 -19 78 -21 117 -22 377 -1
160 3 363 8 452 8 148 7 167 -9 203 -33 74 -123 102 -192 60z"/>
<path d="M29375 16914 c-172 -17 -260 -31 -404 -64 -328 -76 -343 -81 -380
-117 -30 -30 -33 -38 -28 -74 6 -45 29 -76 66 -91 26 -9 231 16 263 33 9 5 81
23 160 41 143 32 144 33 423 33 l280 0 55 -26 c179 -84 219 -227 100 -363 -40
-45 -191 -154 -315 -227 -112 -65 -315 -200 -374 -247 -103 -83 -102 -213 2
-270 41 -22 185 -21 418 3 117 12 223 16 360 13 191 -4 195 -4 274 -36 90 -36
148 -74 178 -114 l21 -28 -25 -26 c-13 -14 -42 -37 -65 -50 -92 -54 -411 -185
-589 -242 -433 -138 -422 -135 -502 -127 -88 8 -157 -4 -280 -51 -98 -37 -123
-60 -123 -113 0 -17 11 -42 26 -60 26 -31 26 -31 128 -31 137 0 209 14 279 56
46 27 80 37 155 49 259 39 664 131 817 185 194 69 319 145 387 235 68 89 73
182 17 294 -55 110 -190 205 -379 267 -82 27 -93 28 -342 32 -142 2 -258 7
-258 10 0 4 23 20 51 36 79 44 246 173 312 240 38 40 72 89 100 145 l42 85 -1
115 c0 157 -20 209 -118 307 -72 72 -143 116 -256 157 -47 17 -83 20 -245 22
-104 2 -208 1 -230 -1z"/>
<path d="M17630 16224 c-221 -30 -493 -95 -578 -138 -74 -38 -105 -76 -106
-131 -1 -41 3 -50 32 -76 25 -23 43 -29 80 -31 74 -2 96 2 118 23 27 25 105
44 314 75 189 28 399 41 450 27 34 -9 35 -11 38 -61 2 -36 -3 -66 -17 -98 -29
-65 -135 -224 -216 -324 -451 -556 -500 -621 -561 -745 -71 -145 -77 -262 -19
-360 29 -50 75 -87 151 -122 106 -48 147 -55 359 -58 124 -2 211 -8 230 -16
55 -22 241 -12 398 22 78 16 200 40 271 53 106 19 133 27 148 46 26 32 23 82
-7 110 -24 23 -26 23 -157 14 -73 -5 -239 -7 -369 -5 -199 3 -244 1 -296 -14
-56 -16 -68 -16 -169 -1 -164 24 -324 83 -324 120 0 29 31 99 73 164 51 78
151 211 360 477 226 286 341 469 381 604 21 72 21 215 0 278 -31 91 -88 143
-187 169 -66 18 -257 17 -397 -2z"/>
<path d="M6854 15771 c-61 -37 -62 -92 -9 -419 16 -99 37 -128 86 -117 26 6
27 5 37 -57 14 -79 39 -280 47 -373 6 -68 28 -274 59 -555 9 -74 24 -169 35
-210 10 -41 22 -108 25 -148 7 -80 41 -215 62 -248 19 -28 56 -44 105 -44 33
0 48 7 75 34 29 29 34 41 34 82 0 27 -12 92 -25 144 -20 72 -29 147 -40 310
-23 346 -76 857 -104 1011 -54 292 -120 469 -205 547 -71 66 -124 78 -182 43z"/>
<path d="M55510 12440 c-400 -16 -875 -80 -1077 -146 -113 -37 -172 -71 -241
-140 -77 -77 -113 -150 -177 -364 -56 -186 -148 -466 -200 -610 -34 -93 -38
-118 -43 -221 -5 -127 9 -198 53 -275 29 -50 116 -139 191 -196 54 -40 56 -43
33 -49 -13 -4 -51 -8 -84 -8 -170 -4 -461 -101 -553 -185 -72 -65 -67 -166 12
-241 l35 -32 -52 -6 c-41 -5 -58 -13 -80 -38 -24 -26 -28 -37 -23 -63 12 -60
35 -71 139 -68 229 7 317 4 437 -16 164 -27 254 -36 285 -28 33 8 58 57 46 88
-13 36 -28 44 -126 72 -140 40 -265 56 -432 56 -84 0 -153 2 -153 4 0 3 12 17
26 33 20 22 24 34 19 58 -14 70 -15 67 75 113 96 47 258 85 418 97 92 7 142
27 142 58 1 31 16 38 53 22 60 -25 117 13 117 78 0 45 -14 61 -90 107 -104 61
-200 155 -241 237 -32 63 -34 73 -33 163 1 101 1 102 92 321 22 53 75 200 117
325 95 284 132 364 187 404 110 80 344 126 898 176 279 26 1154 26 1370 1 490
-57 646 -81 840 -133 166 -43 291 -102 391 -181 127 -101 190 -226 226 -444
25 -150 25 -803 0 -964 -62 -408 -93 -722 -107 -1100 -16 -419 -43 -593 -104
-686 -49 -73 -55 -74 -376 -73 -242 0 -334 5 -610 32 -179 18 -410 39 -515 47
-411 33 -733 66 -1030 105 -82 11 -202 27 -265 36 -271 35 -632 103 -636 119
-2 6 47 33 109 62 124 57 149 81 131 130 -14 42 -52 51 -111 26 -44 -19 -224
-68 -398 -107 -91 -21 -126 -54 -132 -123 -3 -36 1 -56 16 -80 51 -82 157
-124 496 -196 421 -91 801 -140 1600 -207 198 -16 441 -38 540 -49 99 -11 230
-25 290 -31 61 -5 176 -17 257 -26 202 -22 570 -16 643 11 196 72 308 261 345
580 5 50 17 241 25 425 17 377 41 628 88 935 l32 210 0 450 c0 422 -1 457 -22
560 -55 282 -154 446 -358 598 -134 99 -253 151 -476 206 -158 38 -373 75
-559 96 -80 8 -201 23 -270 32 -145 18 -855 26 -1200 13z"/>
<path d="M49145 11913 c-264 -13 -451 -49 -740 -146 -269 -89 -351 -133 -475
-257 -180 -181 -236 -345 -213 -621 10 -113 15 -135 34 -155 29 -31 81 -32
108 -3 11 12 23 40 25 63 41 325 49 359 95 423 39 54 97 99 218 170 200 118
275 150 445 188 219 50 383 65 703 65 383 0 584 -21 895 -91 357 -82 898 -280
1252 -461 252 -128 507 -306 650 -454 147 -152 287 -387 345 -579 26 -87 27
-98 27 -325 0 -224 -1 -239 -27 -334 -154 -565 -675 -990 -1667 -1359 -301
-112 -689 -222 -973 -278 -97 -19 -154 -23 -438 -26 -355 -5 -467 2 -667 42
-554 112 -974 428 -1075 808 -19 74 -21 108 -21 337 -1 266 6 327 55 525 67
266 182 560 356 909 91 181 141 267 211 359 67 89 68 89 270 98 164 7 178 10
195 30 21 27 21 31 -2 60 -17 21 -30 24 -167 32 -211 14 -255 12 -301 -12 -60
-30 -97 -65 -168 -155 -229 -294 -508 -908 -625 -1376 -62 -248 -74 -344 -74
-600 0 -212 2 -231 26 -322 58 -214 149 -366 321 -538 274 -274 684 -454 1178
-517 170 -22 725 -25 864 -5 370 52 852 189 1314 374 869 346 1420 826 1630
1420 59 168 76 287 75 528 -1 181 -4 231 -23 315 -42 194 -142 415 -269 595
-85 121 -297 334 -430 433 -306 228 -798 464 -1337 640 -372 121 -639 175
-982 197 -143 9 -465 11 -618 3z"/>
<path d="M43315 11839 c-257 -16 -511 -55 -651 -100 -227 -73 -322 -189 -490
-604 -65 -161 -131 -297 -203 -423 -76 -131 -89 -197 -52 -278 24 -53 70 -80
184 -110 111 -29 141 -30 167 -4 54 54 28 115 -61 138 -54 14 -89 36 -89 56 0
7 25 54 57 106 69 117 141 265 228 474 153 369 200 417 455 466 222 43 371 54
725 55 334 0 342 0 468 -28 392 -84 531 -184 682 -487 207 -413 375 -1177 401
-1815 8 -203 1 -229 -71 -265 -50 -25 -52 -25 -315 -25 -295 1 -388 12 -950
111 -684 121 -997 197 -1108 270 -74 48 -101 52 -140 19 -42 -35 -44 -81 -6
-119 31 -30 171 -124 229 -154 48 -24 290 -115 379 -142 220 -68 619 -147
1121 -221 206 -31 236 -33 480 -32 285 0 355 10 447 60 64 35 133 110 166 181
l27 57 0 250 c-1 253 -6 316 -56 665 -86 600 -263 1159 -462 1455 -88 130
-242 263 -372 320 -119 53 -336 104 -527 125 -111 11 -470 11 -663 -1z"/>
<path d="M32370 11149 c-970 -43 -1344 -78 -1770 -165 -189 -39 -284 -69 -409
-130 -88 -43 -128 -69 -172 -113 -96 -97 -125 -172 -175 -456 -44 -254 -52
-286 -114 -480 -65 -202 -90 -312 -90 -398 0 -66 -1 -69 -31 -85 -17 -9 -66
-40 -108 -69 -42 -29 -97 -63 -122 -77 -162 -88 -366 -249 -404 -320 -11 -20
-22 -36 -25 -36 -3 0 -29 48 -58 106 -212 425 -528 743 -844 848 -97 33 -250
46 -412 36 -114 -8 -123 -10 -210 -53 -50 -25 -126 -72 -169 -103 l-78 -58
-82 2 c-115 4 -175 -10 -302 -72 -261 -126 -574 -384 -740 -611 -154 -210
-261 -447 -319 -710 -37 -167 -48 -514 -21 -666 20 -117 47 -195 115 -334 74
-154 154 -262 294 -400 233 -230 458 -354 781 -430 171 -41 274 -50 550 -49
300 0 371 10 579 78 247 81 444 197 615 361 205 197 328 391 409 645 50 157
64 274 64 540 0 256 -10 352 -49 499 -38 142 -39 148 -14 156 28 9 43 39 52
104 10 69 41 101 233 240 163 118 339 211 365 192 55 -40 88 -55 185 -87 95
-31 113 -34 138 -23 34 14 48 37 48 77 0 38 -21 56 -99 84 -36 13 -66 28 -68
33 -2 6 10 16 27 22 29 11 50 45 50 83 0 33 -43 73 -81 74 -19 1 -36 4 -38 6
-12 14 17 128 85 334 58 177 86 281 120 454 46 233 67 298 112 345 85 90 274
147 722 221 497 82 806 101 1640 101 572 0 660 -2 780 -18 333 -46 665 -162
895 -315 213 -141 409 -410 528 -727 65 -171 96 -304 198 -850 33 -181 79
-411 101 -510 42 -191 67 -357 68 -441 0 -89 -38 -118 -221 -167 -277 -74
-693 -140 -1434 -227 -99 -11 -227 -27 -285 -35 -142 -20 -510 -62 -645 -75
-60 -5 -209 -19 -330 -30 -121 -11 -253 -25 -294 -30 -110 -15 -528 -48 -771
-60 -292 -16 -843 -8 -930 13 -145 34 -150 36 -150 62 0 14 13 102 29 197 34
202 38 286 27 688 -5 198 -12 319 -22 367 -17 81 -58 189 -81 216 -35 38 -113
6 -113 -47 0 -13 7 -58 16 -101 9 -42 14 -79 11 -81 -2 -3 -50 4 -105 16 -71
14 -139 20 -231 20 -93 0 -142 4 -167 15 -19 8 -74 17 -122 21 -85 6 -88 6
-120 -21 -60 -51 -36 -136 48 -165 43 -15 411 -34 583 -31 94 2 132 0 143 -10
14 -12 15 -35 9 -184 -7 -191 -37 -484 -61 -590 -69 -315 -73 -347 -54 -417
29 -102 125 -151 395 -200 116 -21 1254 -17 1505 5 342 31 868 87 1110 118
129 16 350 43 490 59 140 16 327 41 415 55 88 14 250 39 360 55 896 129 1101
189 1203 348 37 56 62 146 62 218 0 84 -29 287 -65 459 -32 152 -46 225 -116
600 -117 628 -146 735 -274 1010 -117 253 -319 503 -540 669 -167 125 -499
272 -762 336 -236 59 -363 72 -733 75 -184 2 -423 -1 -530 -6z m-4497 -1483
c168 -28 329 -126 501 -307 229 -241 407 -597 487 -974 34 -162 26 -513 -16
-720 -72 -347 -271 -641 -560 -827 -145 -94 -312 -162 -494 -204 -92 -21 -434
-30 -586 -15 -152 15 -244 34 -372 76 -199 66 -349 157 -505 304 -215 204
-335 438 -360 699 -13 149 -4 442 17 542 40 185 119 372 227 535 113 171 378
422 574 543 77 48 195 104 202 97 2 -2 -17 -38 -43 -81 -60 -98 -117 -231
-113 -262 4 -31 28 -47 59 -39 18 5 36 30 75 109 49 99 147 242 193 282 20 18
28 19 96 9 47 -7 103 -24 151 -47 85 -40 109 -44 136 -19 21 19 24 75 6 91
-21 16 -140 77 -178 91 l-35 12 25 21 c32 26 114 68 165 84 54 17 241 17 348
0z"/>
<path d="M27660 8456 c-120 -26 -160 -72 -160 -180 0 -58 3 -70 25 -91 53 -53
135 -18 135 58 0 43 14 53 88 63 89 12 130 86 77 139 -28 29 -73 31 -165 11z"/>
<path d="M26577 7956 c-92 -84 -66 -165 68 -215 70 -26 95 -26 123 -1 37 35
28 91 -19 116 -25 13 -29 20 -29 58 0 82 -75 104 -143 42z"/>
<path d="M27000 7661 c-99 -12 -151 -32 -192 -73 -80 -80 -69 -182 26 -245 57
-39 85 -41 122 -9 21 18 28 32 27 59 l-1 35 87 7 c47 3 124 2 171 -4 77 -9
101 -18 255 -95 148 -74 326 -184 562 -348 69 -47 158 -81 194 -73 16 4 40 21
55 38 21 25 25 38 21 69 -7 51 -16 60 -103 107 -41 22 -124 80 -185 128 -158
126 -293 213 -448 292 -192 97 -239 111 -396 116 -71 2 -159 0 -195 -4z"/>
<path d="M56095 11131 c-16 -6 -160 -15 -320 -20 -333 -13 -487 -26 -565 -47
-142 -40 -160 -146 -47 -271 14 -16 32 -23 57 -23 60 0 85 43 66 112 -9 32
-20 29 226 63 279 38 517 58 569 46 56 -13 214 -13 343 -1 125 12 131 14 146
49 14 36 1 67 -36 81 -34 13 -402 22 -439 11z"/>
<path d="M43595 10920 c-16 -4 -136 -8 -266 -9 -130 0 -261 -6 -290 -11 -256
-49 -248 -256 16 -386 78 -39 108 -37 139 8 36 51 12 94 -83 147 -63 36 -71
45 -47 54 22 9 223 36 347 47 93 8 125 7 165 -4 27 -8 74 -17 104 -20 30 -3
93 -17 140 -31 98 -29 130 -24 150 26 25 58 -19 90 -216 158 -94 32 -108 34
-159 21z"/>
<path d="M38085 10600 c-338 -14 -751 -92 -910 -172 -130 -66 -209 -190 -210
-328 0 -85 25 -127 144 -244 81 -79 94 -88 118 -82 33 8 53 31 53 62 0 13 -24
56 -53 97 -44 61 -56 86 -67 145 -16 89 -8 112 52 140 46 22 268 69 483 102
340 51 897 43 1390 -21 311 -40 693 -134 911 -224 124 -51 341 -165 443 -232
174 -115 319 -289 397 -478 26 -64 29 -83 32 -212 4 -149 -12 -294 -43 -389
-26 -77 -109 -243 -157 -311 -145 -206 -329 -372 -658 -593 -367 -246 -792
-444 -1135 -529 -136 -33 -269 -45 -540 -45 -430 0 -622 41 -837 179 -234 151
-401 391 -499 720 -25 81 -32 129 -39 255 -20 343 22 576 151 831 34 67 25 62
263 163 126 54 164 85 151 125 -16 52 -61 64 -130 35 -71 -29 -71 -12 1 56
105 99 259 210 364 264 81 41 110 49 185 58 93 11 125 26 125 60 0 34 -34 54
-113 67 -160 26 -315 -38 -592 -244 -143 -107 -263 -233 -363 -380 -37 -55
-46 -62 -106 -83 -36 -13 -101 -41 -145 -62 -87 -42 -105 -67 -82 -116 19 -42
54 -47 123 -18 33 14 62 24 64 21 2 -2 -12 -47 -31 -100 -64 -178 -76 -263
-82 -547 -4 -209 -2 -272 11 -350 34 -197 140 -454 267 -650 69 -108 248 -293
341 -353 275 -179 563 -247 1050 -247 264 0 453 26 693 96 599 176 1365 653
1686 1052 199 247 319 518 350 792 14 128 6 361 -16 450 -21 84 -101 251 -170
355 -317 477 -1085 804 -2050 875 -205 14 -591 19 -820 10z"/>
<path d="M55495 10471 c-69 -17 -105 -54 -105 -109 0 -40 11 -63 57 -119 29
-37 40 -43 72 -43 50 0 75 27 75 83 l1 42 330 0 330 0 163 -34 164 -34 26 20
c33 25 40 71 15 102 -20 24 -96 44 -302 81 -100 18 -154 20 -455 19 -187 -1
-354 -4 -371 -8z"/>
<path d="M21155 10409 c-501 -32 -1106 -107 -1420 -175 -294 -64 -423 -119
-541 -234 -144 -139 -230 -338 -295 -685 -21 -109 -23 -147 -22 -420 2 -388
18 -490 89 -573 39 -46 118 -92 158 -92 24 0 66 41 66 64 0 6 -15 47 -33 91
l-32 80 0 365 c0 341 2 372 23 480 42 208 98 359 170 457 85 115 268 177 727
247 614 94 975 126 1500 133 326 4 409 2 508 -11 194 -27 386 -106 484 -199
193 -182 271 -431 382 -1213 17 -116 50 -336 75 -490 24 -153 63 -405 86 -559
23 -154 54 -362 71 -463 16 -101 29 -194 29 -208 0 -27 -21 -31 -80 -14 -108
32 -267 71 -350 87 -83 15 -157 18 -590 18 -471 0 -508 -2 -765 -28 -433 -45
-653 -58 -1105 -64 -367 -5 -441 -3 -540 11 -129 19 -226 46 -315 86 -103 47
-98 28 -96 346 2 202 6 287 16 313 38 102 57 180 51 205 -8 32 -48 59 -89 59
-23 0 -39 -9 -65 -39 -60 -69 -81 -123 -86 -221 -3 -48 -10 -104 -16 -123 -14
-49 -29 -229 -32 -391 -2 -130 0 -139 25 -192 57 -115 201 -202 436 -262 164
-41 273 -48 656 -42 387 7 549 16 920 53 540 54 561 55 935 54 510 0 551 -5
870 -102 156 -47 185 -53 267 -53 86 0 94 2 135 30 23 17 54 51 68 75 22 40
25 56 24 145 0 60 -11 162 -26 255 -15 85 -34 209 -43 275 -21 159 -57 398
-111 740 -25 154 -65 415 -89 580 -112 767 -212 1076 -413 1288 -137 144 -308
227 -601 294 -113 26 -125 27 -501 29 -212 1 -443 -2 -515 -7z"/>
<path d="M41960 10160 c-147 -73 -306 -163 -370 -208 -105 -76 -190 -192 -190
-260 0 -40 37 -72 82 -72 36 0 52 13 84 66 10 17 12 17 45 -3 19 -12 90 -33
159 -48 69 -14 176 -37 238 -51 96 -22 118 -24 143 -14 36 15 49 37 49 83 0
62 -23 74 -254 131 -126 32 -164 50 -166 77 0 8 188 128 245 156 22 11 64 28
92 37 60 20 83 46 83 92 0 40 -26 72 -65 80 -24 4 -60 -9 -175 -66z"/>
<path d="M43075 10194 c-38 -10 -63 -11 -104 -4 -30 6 -90 10 -134 10 -77 0
-80 -1 -113 -34 -62 -62 -38 -129 63 -177 76 -36 158 -52 242 -47 65 4 75 10
107 64 10 17 26 19 191 19 138 0 184 3 196 14 23 19 22 74 -3 96 -19 18 -153
46 -280 59 -36 4 -76 9 -90 11 -14 2 -47 -3 -75 -11z"/>
<path d="M50619 10011 c-88 -17 -129 -57 -129 -127 0 -61 50 -111 162 -164
100 -46 144 -51 176 -17 24 26 30 85 10 105 -26 26 6 32 110 22 102 -10 185
-28 340 -74 91 -28 118 -25 146 16 20 28 20 57 1 85 -19 27 -239 114 -345 138
-86 18 -398 29 -471 16z"/>
<path d="M10240 9940 c-207 -14 -422 -53 -591 -106 -299 -93 -402 -261 -469
-764 -26 -190 -51 -291 -110 -445 -44 -113 -55 -187 -37 -247 8 -25 4 -30
-108 -103 -213 -138 -314 -224 -368 -312 -21 -33 -33 -42 -65 -48 -113 -19
-153 -105 -85 -186 44 -52 142 -89 278 -104 33 -3 98 -13 144 -21 103 -17 218
-18 251 -1 34 17 54 61 43 94 -18 52 -46 62 -204 73 -169 11 -249 26 -249 45
0 23 95 119 180 180 46 33 115 85 154 116 39 31 94 68 123 83 29 14 57 34 62
45 6 10 15 61 21 112 10 79 22 117 72 232 66 152 99 269 123 434 47 320 86
438 169 511 102 89 637 170 937 142 131 -12 192 -34 298 -104 202 -135 362
-369 445 -651 45 -154 131 -497 151 -600 62 -322 105 -592 105 -664 0 -34 -4
-43 -22 -50 -13 -4 -325 -11 -693 -15 -607 -7 -677 -6 -744 9 -62 15 -83 15
-135 5 -79 -15 -114 -34 -122 -65 -12 -50 2 -72 64 -97 47 -19 74 -22 157 -21
74 1 117 -3 165 -17 190 -57 550 -85 983 -77 297 5 372 14 447 52 167 86 181
215 84 800 -63 374 -165 802 -234 979 -44 113 -123 252 -196 347 -151 196
-384 360 -596 419 -81 22 -268 31 -428 20z"/>
<path d="M49567 9885 c-108 -38 -347 -158 -403 -203 -90 -71 -127 -186 -90
-276 22 -53 74 -106 105 -106 64 0 91 73 50 132 -43 60 -22 107 79 172 90 58
126 75 265 126 124 45 157 68 157 107 0 31 -43 73 -72 72 -13 0 -53 -11 -91
-24z"/>
<path d="M32880 9893 c-164 -5 -354 -24 -499 -49 -80 -14 -213 -36 -296 -50
-297 -48 -841 -164 -910 -194 -55 -24 -162 -109 -175 -141 -13 -31 0 -73 29
-88 36 -20 68 -12 117 30 85 71 59 62 485 154 368 79 551 113 717 135 90 11
209 27 265 35 56 8 190 20 297 26 218 13 240 19 240 72 0 59 -31 78 -122 75
-35 -1 -101 -3 -148 -5z"/>
<path d="M55463 9824 c-52 -26 -67 -83 -33 -127 32 -40 109 -61 227 -62 89 0
105 3 131 22 29 21 36 22 440 25 396 3 412 4 431 23 33 34 36 68 8 101 l-25
29 -574 2 c-489 1 -579 -1 -605 -13z"/>
<path d="M43014 9776 c-69 -30 -87 -115 -35 -166 48 -48 125 -65 291 -64 91 0
153 5 167 12 13 7 66 12 132 12 60 0 117 3 126 6 19 8 45 55 45 82 0 31 -38
71 -73 76 -88 14 -519 56 -567 56 -30 -1 -69 -7 -86 -14z"/>
<path d="M5639 9250 c-154 -10 -331 -44 -379 -72 -57 -35 -167 -126 -194 -161
-17 -22 -39 -36 -68 -44 -55 -15 -191 -97 -276 -167 -126 -103 -284 -275 -364
-396 -95 -145 -127 -209 -173 -345 -76 -228 -101 -451 -92 -820 7 -263 28
-364 137 -650 154 -405 274 -610 480 -816 263 -264 527 -393 965 -471 161 -28
679 -37 815 -14 340 59 730 291 1017 604 298 324 489 647 603 1019 68 219 90
385 90 673 0 272 -14 346 -100 525 -118 245 -265 404 -560 601 -550 366 -1289
574 -1901 534z m156 -150 c406 -27 842 -151 1252 -355 335 -166 621 -386 748
-576 116 -173 155 -289 162 -484 13 -353 -47 -636 -201 -950 -130 -262 -287
-478 -502 -685 -256 -247 -522 -404 -789 -466 -68 -16 -123 -19 -375 -19 -265
0 -309 3 -430 24 -240 42 -458 128 -607 240 -106 80 -257 239 -327 344 -134
201 -335 691 -377 917 -17 93 -18 592 -1 695 33 201 109 397 220 567 95 145
366 401 438 414 16 3 40 16 55 30 14 13 37 24 52 24 24 0 27 -4 27 -33 0 -38
16 -62 45 -71 30 -8 51 14 69 73 19 65 9 120 -29 149 -14 11 -25 24 -25 29 0
17 192 117 255 133 43 11 168 11 340 0z"/>
<path d="M6237 7966 c-51 -18 -62 -29 -92 -89 -32 -65 -33 -116 -2 -145 27
-26 82 -29 112 -6 15 11 35 13 86 8 81 -8 123 10 145 62 35 83 -18 154 -128
173 -78 13 -74 13 -121 -3z"/>
<path d="M5190 7719 c-100 -42 -130 -66 -130 -104 0 -66 39 -86 158 -84 48 1
98 6 112 11 88 33 104 136 30 189 -46 33 -70 31 -170 -12z"/>
<path d="M6613 7105 c-54 -37 -106 -85 -152 -140 -112 -133 -202 -189 -324
-205 -169 -21 -310 24 -481 155 -135 103 -239 138 -283 96 -39 -37 -39 -65 -2
-127 55 -91 177 -202 304 -276 145 -84 274 -115 438 -104 166 11 261 54 388
176 35 34 95 89 133 122 66 58 158 165 185 217 30 55 -16 129 -86 138 -34 4
-47 -2 -120 -52z"/>
<path d="M56448 9255 c-3 -4 -98 -10 -210 -15 -222 -10 -283 -23 -318 -67 -30
-38 -26 -84 13 -135 56 -73 125 -77 159 -10 9 19 18 35 20 37 7 8 252 43 338
49 47 4 119 11 160 16 41 6 96 12 123 16 34 4 51 12 62 27 17 26 10 63 -13 72
-23 9 -326 18 -334 10z"/>
<path d="M32515 9180 c-601 -41 -795 -64 -1295 -156 -74 -14 -188 -29 -252
-34 -65 -5 -127 -15 -138 -22 -26 -16 -36 -53 -24 -87 25 -69 96 -67 565 18
385 69 692 107 984 122 110 5 267 14 348 19 82 6 217 10 300 11 194 1 265 10
283 34 20 28 17 53 -11 80 l-24 25 -313 -2 c-172 0 -362 -4 -423 -8z"/>
<path d="M21215 9130 c-177 -9 -459 -47 -580 -80 -38 -10 -99 -24 -135 -30
-112 -20 -168 -40 -200 -71 -39 -39 -40 -85 -5 -128 27 -31 117 -71 161 -71
32 0 74 42 74 73 0 27 29 38 135 52 28 4 127 20 220 35 214 36 247 39 427 49
136 6 149 9 173 31 34 32 34 88 1 119 -30 29 -60 31 -271 21z"/>
<path d="M49570 8974 c-14 -2 -59 -9 -100 -15 -158 -23 -240 -71 -240 -139 0
-45 21 -75 70 -100 65 -33 110 -23 128 28 9 26 16 30 80 40 98 16 322 15 404
-3 37 -7 116 -35 175 -61 127 -55 245 -94 290 -94 22 0 38 8 52 26 43 55 24
92 -72 140 -112 57 -430 161 -528 173 -79 11 -205 12 -259 5z"/>
<path d="M10083 8819 c-86 -14 -210 -70 -240 -107 -31 -38 2 -102 52 -102 14
0 47 11 73 24 63 31 114 42 257 57 160 16 177 20 195 52 13 24 13 30 0 55
l-16 27 -134 1 c-74 1 -158 -2 -187 -7z"/>
<path d="M15810 8590 c-242 -23 -483 -120 -754 -302 -176 -118 -336 -272 -336
-324 0 -25 29 -54 54 -54 9 0 54 35 99 78 100 93 224 177 372 252 124 62 377
164 445 179 60 14 322 14 435 0 118 -14 225 -41 360 -90 475 -175 846 -552
999 -1014 64 -193 79 -288 72 -460 -12 -312 -75 -515 -234 -755 -142 -215
-464 -469 -778 -616 -185 -87 -479 -177 -685 -210 -140 -23 -604 -23 -797 0
-246 29 -508 103 -695 197 -366 182 -632 475 -788 866 -46 116 -59 198 -66
409 -9 295 18 427 137 669 105 212 251 391 415 507 140 100 189 116 375 128
74 4 143 11 153 15 35 14 35 96 0 110 -10 4 -88 9 -173 12 -125 5 -167 2 -220
-11 -151 -39 -290 -126 -445 -281 -136 -136 -224 -259 -314 -436 -127 -253
-171 -455 -171 -786 0 -189 17 -303 66 -450 129 -389 381 -709 744 -945 224
-147 404 -222 677 -282 205 -46 359 -64 618 -71 392 -12 594 15 910 119 431
143 727 313 994 571 163 158 250 273 339 451 64 127 106 255 134 402 30 161
33 543 5 667 -133 583 -494 1042 -1017 1294 -149 72 -244 104 -406 136 -136
28 -379 40 -524 25z"/>
<path d="M21230 8565 c-41 -7 -97 -14 -125 -14 -27 -1 -108 -10 -180 -21 -71
-11 -177 -27 -235 -36 -110 -17 -279 -71 -311 -100 -26 -23 -25 -78 2 -105 26
-26 59 -23 194 16 128 36 395 101 496 119 62 12 115 15 185 10 105 -6 258 8
280 27 20 16 17 63 -3 81 -16 14 -55 21 -183 32 -25 3 -79 -2 -120 -9z"/>
<path d="M32800 8544 c-14 -1 -95 -8 -180 -14 -296 -21 -553 -57 -960 -135
-102 -20 -232 -45 -290 -56 -58 -11 -157 -26 -220 -33 -103 -13 -117 -17 -137
-41 -30 -35 -30 -79 2 -110 22 -23 31 -25 124 -25 55 0 102 4 105 9 3 5 27 12
53 16 27 4 149 27 272 51 599 118 927 159 1414 174 346 11 370 15 383 67 9 33
-12 73 -46 90 -18 9 -90 12 -260 11 -129 0 -246 -2 -260 -4z"/>
<path d="M10339 8396 c-2 -3 -113 -10 -247 -17 -240 -12 -244 -13 -263 -37
-26 -34 -24 -74 6 -106 24 -26 26 -26 158 -26 213 0 496 45 523 84 20 29 18
62 -6 86 -16 16 -33 20 -93 20 -41 0 -76 -2 -78 -4z"/>
<path d="M18530 8289 c-130 -38 -249 -111 -479 -297 -152 -123 -231 -228 -231
-310 0 -61 28 -140 55 -158 50 -32 115 7 115 69 0 24 3 28 18 21 9 -4 45 -10
79 -12 59 -3 62 -2 84 27 23 31 57 45 204 86 100 28 273 55 400 62 113 6 121
8 147 34 42 42 34 89 -19 117 -13 7 -72 12 -152 12 -147 0 -241 -16 -471 -79
-80 -21 -147 -37 -150 -34 -8 8 108 111 165 148 98 62 241 133 313 155 102 31
132 73 97 139 -24 47 -67 52 -175 20z"/>
<path d="M10230 8124 c-14 -3 -45 -7 -69 -10 -94 -12 -135 -108 -72 -168 l30
-29 148 8 c153 7 193 18 213 54 18 35 12 87 -16 120 -26 31 -27 31 -117 30
-51 -1 -103 -3 -117 -5z"/>
<path d="M20324 7898 c-33 -15 -48 -55 -34 -89 18 -43 61 -52 207 -44 133 8
163 19 163 65 0 41 -32 58 -127 64 -48 4 -110 8 -138 10 -27 3 -60 0 -71 -6z"/>
<path d="M20967 7680 c-215 -42 -255 -55 -299 -100 -33 -33 -38 -43 -38 -85 0
-65 30 -102 115 -144 104 -50 127 -51 171 -7 33 33 36 41 31 75 l-5 39 87 12
c47 6 131 20 186 30 55 11 136 24 181 29 95 10 117 20 134 61 10 24 10 36 0
60 -21 50 -39 55 -235 57 -163 2 -194 -1 -328 -27z"/>
<path d="M16198 7149 c-68 -10 -97 -23 -167 -79 -62 -49 -76 -79 -61 -126 24
-71 84 -82 180 -33 85 43 181 50 265 19 33 -12 79 -24 101 -27 36 -4 46 -1 75
25 28 25 34 37 34 71 0 33 -7 47 -30 70 -75 71 -237 104 -397 80z"/>
<path d="M14544 6720 c-93 -22 -152 -50 -191 -90 -71 -73 -47 -173 54 -224 49
-24 163 -22 191 4 26 25 29 75 6 108 -14 20 -14 23 3 28 58 19 75 30 88 55 21
40 19 63 -10 97 -32 38 -57 42 -141 22z"/>
<path d="M15720 6170 c-108 -11 -185 -25 -335 -60 -217 -51 -272 -82 -281
-157 -7 -50 22 -97 69 -112 31 -10 56 -7 199 28 506 125 862 98 994 -76 24
-31 35 -60 44 -115 15 -85 29 -112 71 -134 44 -22 91 -11 125 29 24 28 26 37
21 87 -7 79 -60 226 -104 290 -64 92 -178 162 -339 206 -71 19 -337 27 -464
14z"/>
</g>
</svg>
